<?xml version="1.0" encoding="utf-8"?>
<!-- Generator: Adobe Illustrator 16.0.0, SVG Export Plug-In . SVG Version: 6.00 Build 0)  -->
<!DOCTYPE svg PUBLIC "-//W3C//DTD SVG 1.1 Tiny//EN" "http://www.w3.org/Graphics/SVG/1.1/DTD/svg11-tiny.dtd">
<svg version="1.1" baseProfile="tiny" id="Layer_1" xmlns="http://www.w3.org/2000/svg" xmlns:xlink="http://www.w3.org/1999/xlink"
	 x="0px" y="0px" width="350px" height="350px" viewBox="0 0 350 350" overflow="scroll" xml:space="preserve">
<path fill="#414042" d="M101.979,64.251v144.58l0.02,0.294c1.854,14.114,6.832,26.931,14.797,38.094
	c6.357,8.911,14.614,16.78,24.541,23.388c16.854,11.22,32.505,14.878,33.163,15.028l0.501,0.114l0.5-0.114
	c0.66-0.15,16.313-3.809,33.164-15.028c9.928-6.607,18.184-14.477,24.541-23.388c7.965-11.163,12.943-23.979,14.797-38.094
	l0.02-144.874H101.979z M236.848,204.505l0.008-126.281l6.664-7.495v136.12L236.848,204.505z M106.48,206.849V70.729l6.663,7.495
	v126.284L106.48,206.849z M235.363,76.516H114.636l-6.899-7.763h134.527L235.363,76.516z M174.999,265.111
	c-1.133-0.307-5.749-1.642-11.839-4.539V172.2v-22.215V84.792h23.68v65.193V172.2v88.37
	C180.754,263.465,176.133,264.804,174.999,265.111z M120.612,172.2h40.297v87.263c-3.322-1.699-6.976-3.834-10.684-6.483
	c-11.76-8.401-26.438-23.819-29.613-49.576V172.2z M160.909,84.792v65.193h-1.554V84.792H160.909z M157.104,149.985h-2.74V84.792
	h2.74V149.985z M152.114,149.985h-2.741V84.792h2.741V149.985z M147.122,149.985h-2.74V84.792h2.74V149.985z M142.131,149.985h-2.74
	V84.792h2.74V149.985z M137.14,149.985h-2.74V84.792h2.74V149.985z M132.148,149.985h-2.74V84.792h2.74V149.985z M127.157,149.985
	h-2.74V84.792h2.74V149.985z M122.166,149.985h-1.554V84.792h1.554V149.985z M120.612,152.236h40.297v17.713h-40.297V152.236z
	 M222.842,149.985V84.792h2.74v65.193H222.842z M220.592,149.985h-2.74V84.792h2.74V149.985z M215.602,149.985h-2.742V84.792h2.742
	V149.985z M210.609,149.985h-2.74V84.792h2.74V149.985z M205.617,149.985h-2.738V84.792h2.738V149.985z M200.627,149.985h-2.74
	V84.792h2.74V149.985z M195.635,149.985h-2.74V84.792h2.74V149.985z M190.645,149.985h-1.555V84.792h1.555V149.985z M189.09,172.2
	h40.297v31.203c-3.17,25.722-17.813,41.129-29.545,49.527c-3.729,2.67-7.406,4.819-10.752,6.529V172.2z M229.387,169.949H189.09
	v-17.713h40.297V169.949z M227.834,149.985V84.792h1.553v65.193H227.834z M230.008,82.541H119.992l-3.355-3.774h116.727
	L230.008,82.541z M115.395,80.756l2.967,3.339v65.891V172.2v30.476l-2.967,1.042V80.756z M118.561,204.99
	c3.605,25.775,18.432,41.303,30.357,49.821c11.315,8.083,21.916,11.465,24.957,12.326v6.233
	c-3.783-1.137-14.734-4.881-26.107-13.021c-12.852-9.199-28.895-26.076-32.371-54.248L118.561,204.99z M176.125,267.138
	c3.041-0.861,13.643-4.243,24.957-12.326c11.926-8.52,26.752-24.046,30.357-49.821l3.164,1.111
	c-3.477,28.172-19.52,45.049-32.371,54.248c-11.373,8.141-22.324,11.885-26.107,13.021V267.138z M231.631,202.672l0.002-30.472
	h0.006v-22.215h-0.006l0.006-65.891l2.967-3.339v122.962L231.631,202.672z M106.558,209.207l6.673-2.344
	c3.706,28.724,20.123,45.956,33.297,55.367c12.462,8.901,24.131,12.586,27.348,13.49v5.098c-4.371-1.225-16.935-5.231-30.045-13.959
	C122.428,252.611,109.894,233.215,106.558,209.207z M206.297,266.775c-13.125,8.766-25.781,12.809-30.172,14.041v-5.096
	c3.217-0.904,14.885-4.589,27.348-13.49c13.174-9.411,29.59-26.644,33.297-55.367l6.672,2.344
	C240.113,233.165,227.621,252.533,206.297,266.775z"/>
</svg>
