<?xml version="1.0" encoding="utf-8"?>
<!-- Generator: Adobe Illustrator 16.0.0, SVG Export Plug-In . SVG Version: 6.00 Build 0)  -->
<!DOCTYPE svg PUBLIC "-//W3C//DTD SVG 1.1 Tiny//EN" "http://www.w3.org/Graphics/SVG/1.1/DTD/svg11-tiny.dtd">
<svg version="1.1" baseProfile="tiny" id="Layer_1" xmlns="http://www.w3.org/2000/svg" xmlns:xlink="http://www.w3.org/1999/xlink"
	 x="0px" y="0px" width="350px" height="350px" viewBox="0 0 350 350" overflow="scroll" xml:space="preserve">
<g>
	<path fill="#945E13" d="M329.047,196.312c0.297-1.306,0.459-2.663,0.459-4.058c0-10.091-8.21-18.301-18.301-18.301H189.069
		c-0.71-0.905-2.111-2.124-4.857-3.215v-11.273c0-2.613-2.126-4.739-4.739-4.739h-21.523v-4.047c0-0.93-0.753-1.684-1.684-1.684
		c-0.93,0-1.683,0.754-1.683,1.684v4.047h-1.567v-4.047c0-0.93-0.753-1.684-1.684-1.684c-0.93,0-1.683,0.754-1.683,1.684v4.047
		h-3.128v-10.386h2.391c0.93,0,1.684-0.753,1.684-1.683s-0.753-1.684-1.684-1.684h-2.407c-0.08-0.855-0.791-1.528-1.668-1.528
		s-1.588,0.672-1.667,1.528h-2.025c-0.93,0-1.683,0.754-1.683,1.684s0.753,1.683,1.683,1.683h2.009v10.386H138.6
		c-2.291,0-4.251,1.636-4.662,3.89l-2.162,11.866c-2.778,0.752-5.283,1.843-7.866,3.471h-3.521c-0.029,0-0.058,0.001-0.087,0.003
		c-2.071,0.106-38.007,2.019-61.693,7.176l-3.034-11.66c-0.66-2.535-2.95-4.305-5.569-4.305h-6.717
		c-2.892,0-5.244,2.353-5.244,5.244v17.456c-16.194,0.409-17.111,2.962-17.418,3.818c-0.248,0.689-0.143,1.426,0.287,2.019
		c0.661,0.913,2.108,1.547,6.204,1.824v11.052c0,0.93,0.753,1.684,1.683,1.684h18.432c0.667,0,1.271-0.395,1.541-1.005l3.052-6.92
		c5.669,1.655,13.785,3.483,25.45,5.396c18.256,2.99,37.135,4.821,41.331,4.821h192.6c8.686,0,15.972-6.084,17.834-14.214
		C329.042,196.332,329.045,196.321,329.047,196.312z M137.25,159.218c0.119-0.652,0.687-1.126,1.35-1.126h40.873
		c0.757,0,1.373,0.615,1.373,1.373v10.202c-4.526-1.146-11.333-1.883-21.564-1.442c-2.463,0.106-4.731,0.191-6.83,0.271
		c-7.324,0.275-12.663,0.477-17.113,1.218L137.25,159.218z M133.503,173.512c0.065-0.01,0.126-0.028,0.188-0.045
		c4.579-1.067,10.208-1.281,18.886-1.607c2.104-0.079,4.378-0.165,6.849-0.271c13.275-0.572,20.16,0.915,23.671,2.364h-51.222
		C132.405,173.792,132.947,173.646,133.503,173.512z M120.432,177.319h3.966c0.001,0,0.001,0.001,0.002,0.001
		c0.001,0,0.003-0.001,0.004-0.001h186.8c8.234,0,14.934,6.7,14.934,14.935c0,0.987-0.099,1.95-0.282,2.884
		c-4.171,3.797-11.45,4.256-11.954,4.283h-208.54c-6.341,0-57.687-6.43-63.543-7.165c-0.216-0.236-0.319-0.414-0.365-0.526
		c-0.05-0.12-0.142-0.343,0.411-0.896C50.048,182.65,101.311,178.307,120.432,177.319z M43.289,168.534h6.717
		c1.087,0,2.037,0.734,2.311,1.786l3.009,11.569c-5.935,1.447-10.86,3.126-13.915,5.064v-16.542
		C41.411,169.376,42.253,168.534,43.289,168.534z M38.044,191.239v1.008c-3.793,0.09-6.617,0.083-8.717,0.019
		c-0.167-0.055-0.342-0.092-0.528-0.092c-0.145,0-0.282,0.023-0.417,0.059c-0.494-0.021-0.944-0.047-1.347-0.074
		C29.895,191.697,34.069,191.363,38.044,191.239z M46.134,204.896H30.483v-9.233c0.735,0.015,1.524,0.021,2.376,0.021
		c1.904,0,4.113-0.035,6.676-0.107c0.354-0.011,0.66-0.02,0.914-0.025c1.423,1.056,3.859,2.337,8.14,3.776L46.134,204.896z
		 M311.205,207.188h-192.6c-4.1,0-22.698-1.814-40.786-4.777c-12.147-1.99-20.241-3.862-25.635-5.472
		c17.154,2.116,48.124,5.849,53.178,5.849h208.58c0.022,0,0.045-0.001,0.067-0.002c0.275-0.011,5.063-0.232,9.647-2.302
		C320.981,204.521,316.399,207.188,311.205,207.188z"/>
	<path fill="#945E13" d="M86.964,191.199h1.123c0.93,0,1.683-0.753,1.683-1.683s-0.753-1.684-1.683-1.684h-1.123
		c-0.93,0-1.683,0.754-1.683,1.684S86.035,191.199,86.964,191.199z"/>
	<path fill="#945E13" d="M60.03,191.199h1.122c0.93,0,1.684-0.753,1.684-1.683s-0.753-1.684-1.684-1.684H60.03
		c-0.93,0-1.684,0.754-1.684,1.684S59.1,191.199,60.03,191.199z"/>
	<path fill="#945E13" d="M73.497,191.199h1.123c0.93,0,1.683-0.753,1.683-1.683s-0.753-1.684-1.683-1.684h-1.123
		c-0.93,0-1.684,0.754-1.684,1.684S72.567,191.199,73.497,191.199z"/>
	<path fill="#945E13" d="M80.231,191.199h1.122c0.93,0,1.684-0.753,1.684-1.683s-0.753-1.684-1.684-1.684h-1.122
		c-0.93,0-1.684,0.754-1.684,1.684S79.301,191.199,80.231,191.199z"/>
	<path fill="#945E13" d="M66.764,191.199h1.122c0.93,0,1.684-0.753,1.684-1.683s-0.754-1.684-1.684-1.684h-1.122
		c-0.93,0-1.684,0.754-1.684,1.684S65.833,191.199,66.764,191.199z"/>
	<path fill="#945E13" d="M113.099,191.199h1.122c0.93,0,1.684-0.753,1.684-1.683s-0.753-1.684-1.684-1.684h-1.122
		c-0.93,0-1.684,0.754-1.684,1.684S112.169,191.199,113.099,191.199z"/>
	<path fill="#945E13" d="M106.365,191.199h1.123c0.93,0,1.684-0.753,1.684-1.683s-0.754-1.684-1.684-1.684h-1.123
		c-0.93,0-1.683,0.754-1.683,1.684S105.436,191.199,106.365,191.199z"/>
	<path fill="#945E13" d="M99.632,191.199h1.122c0.93,0,1.684-0.753,1.684-1.683s-0.753-1.684-1.684-1.684h-1.122
		c-0.93,0-1.684,0.754-1.684,1.684S98.702,191.199,99.632,191.199z"/>
	<path fill="#945E13" d="M119.833,191.199h1.122c0.93,0,1.684-0.753,1.684-1.683s-0.753-1.684-1.684-1.684h-1.122
		c-0.93,0-1.684,0.754-1.684,1.684S118.903,191.199,119.833,191.199z"/>
	<path fill="#945E13" d="M126.566,191.199h1.123c0.93,0,1.683-0.753,1.683-1.683s-0.753-1.684-1.683-1.684h-1.123
		c-0.93,0-1.683,0.754-1.683,1.684S125.637,191.199,126.566,191.199z"/>
	<path fill="#945E13" d="M139.234,191.199h1.122c0.93,0,1.684-0.753,1.684-1.683s-0.753-1.684-1.684-1.684h-1.122
		c-0.93,0-1.684,0.754-1.684,1.684S138.304,191.199,139.234,191.199z"/>
	<path fill="#945E13" d="M166.169,191.199h1.123c0.93,0,1.683-0.753,1.683-1.683s-0.753-1.684-1.683-1.684h-1.123
		c-0.93,0-1.683,0.754-1.683,1.684S165.239,191.199,166.169,191.199z"/>
	<path fill="#945E13" d="M145.968,191.199h1.122c0.93,0,1.684-0.753,1.684-1.683s-0.754-1.684-1.684-1.684h-1.122
		c-0.93,0-1.684,0.754-1.684,1.684S145.038,191.199,145.968,191.199z"/>
	<path fill="#945E13" d="M152.702,191.199h1.122c0.93,0,1.684-0.753,1.684-1.683s-0.753-1.684-1.684-1.684h-1.122
		c-0.93,0-1.684,0.754-1.684,1.684S151.772,191.199,152.702,191.199z"/>
	<path fill="#945E13" d="M159.436,191.199h1.122c0.93,0,1.684-0.753,1.684-1.683s-0.753-1.684-1.684-1.684h-1.122
		c-0.93,0-1.684,0.754-1.684,1.684S158.505,191.199,159.436,191.199z"/>
	<path fill="#945E13" d="M199.037,191.199h1.123c0.93,0,1.683-0.753,1.683-1.683s-0.753-1.684-1.683-1.684h-1.123
		c-0.93,0-1.684,0.754-1.684,1.684S198.107,191.199,199.037,191.199z"/>
	<path fill="#945E13" d="M205.771,191.199h1.122c0.93,0,1.684-0.753,1.684-1.683s-0.754-1.684-1.684-1.684h-1.122
		c-0.931,0-1.684,0.754-1.684,1.684S204.841,191.199,205.771,191.199z"/>
	<path fill="#945E13" d="M192.304,191.199h1.122c0.931,0,1.684-0.753,1.684-1.683s-0.753-1.684-1.684-1.684h-1.122
		c-0.93,0-1.684,0.754-1.684,1.684S191.374,191.199,192.304,191.199z"/>
	<path fill="#945E13" d="M185.57,191.199h1.122c0.93,0,1.684-0.753,1.684-1.683s-0.754-1.684-1.684-1.684h-1.122
		c-0.93,0-1.684,0.754-1.684,1.684S184.641,191.199,185.57,191.199z"/>
	<path fill="#945E13" d="M178.836,191.199h1.123c0.93,0,1.684-0.753,1.684-1.683s-0.754-1.684-1.684-1.684h-1.123
		c-0.93,0-1.683,0.754-1.683,1.684S177.906,191.199,178.836,191.199z"/>
	<path fill="#945E13" d="M245.373,191.199h1.122c0.931,0,1.684-0.753,1.684-1.683s-0.753-1.684-1.684-1.684h-1.122
		c-0.93,0-1.684,0.754-1.684,1.684S244.443,191.199,245.373,191.199z"/>
	<path fill="#945E13" d="M218.438,191.199h1.122c0.93,0,1.684-0.753,1.684-1.683s-0.754-1.684-1.684-1.684h-1.122
		c-0.93,0-1.684,0.754-1.684,1.684S217.509,191.199,218.438,191.199z"/>
	<path fill="#945E13" d="M225.172,191.199h1.122c0.931,0,1.684-0.753,1.684-1.683s-0.753-1.684-1.684-1.684h-1.122
		c-0.93,0-1.684,0.754-1.684,1.684S224.242,191.199,225.172,191.199z"/>
	<path fill="#945E13" d="M231.906,191.199h1.122c0.93,0,1.684-0.753,1.684-1.683s-0.754-1.684-1.684-1.684h-1.122
		c-0.931,0-1.684,0.754-1.684,1.684S230.976,191.199,231.906,191.199z"/>
	<path fill="#945E13" d="M238.64,191.199h1.122c0.93,0,1.684-0.753,1.684-1.683s-0.754-1.684-1.684-1.684h-1.122
		c-0.93,0-1.684,0.754-1.684,1.684S237.71,191.199,238.64,191.199z"/>
	<path fill="#945E13" d="M284.976,191.199h1.122c0.931,0,1.684-0.753,1.684-1.683s-0.753-1.684-1.684-1.684h-1.122
		c-0.93,0-1.684,0.754-1.684,1.684S284.046,191.199,284.976,191.199z"/>
	<path fill="#945E13" d="M271.508,191.199h1.123c0.93,0,1.684-0.753,1.684-1.683s-0.754-1.684-1.684-1.684h-1.123
		c-0.93,0-1.683,0.754-1.683,1.684S270.578,191.199,271.508,191.199z"/>
	<path fill="#945E13" d="M278.242,191.199h1.122c0.93,0,1.684-0.753,1.684-1.683s-0.754-1.684-1.684-1.684h-1.122
		c-0.93,0-1.684,0.754-1.684,1.684S277.313,191.199,278.242,191.199z"/>
	<path fill="#945E13" d="M264.774,191.199h1.122c0.931,0,1.684-0.753,1.684-1.683s-0.753-1.684-1.684-1.684h-1.122
		c-0.93,0-1.684,0.754-1.684,1.684S263.845,191.199,264.774,191.199z"/>
	<path fill="#945E13" d="M258.041,191.199h1.122c0.93,0,1.684-0.753,1.684-1.683s-0.754-1.684-1.684-1.684h-1.122
		c-0.93,0-1.684,0.754-1.684,1.684S257.111,191.199,258.041,191.199z"/>
	<path fill="#945E13" d="M314.519,182.923h0.188c0.93,0,1.684-0.754,1.684-1.684s-0.754-1.684-1.684-1.684h-0.188
		c-0.931,0-1.684,0.754-1.684,1.684S313.588,182.923,314.519,182.923z"/>
	<path fill="#945E13" d="M307.784,182.923h1.123c0.93,0,1.683-0.754,1.683-1.684s-0.753-1.684-1.683-1.684h-1.123
		c-0.93,0-1.683,0.754-1.683,1.684S306.854,182.923,307.784,182.923z"/>
	<path fill="#945E13" d="M287.584,182.923h1.122c0.93,0,1.684-0.754,1.684-1.684s-0.754-1.684-1.684-1.684h-1.122
		c-0.931,0-1.684,0.754-1.684,1.684S286.653,182.923,287.584,182.923z"/>
	<path fill="#945E13" d="M301.051,182.923h1.122c0.931,0,1.684-0.754,1.684-1.684s-0.753-1.684-1.684-1.684h-1.122
		c-0.93,0-1.684,0.754-1.684,1.684S300.121,182.923,301.051,182.923z"/>
	<path fill="#945E13" d="M294.317,182.923h1.122c0.93,0,1.684-0.754,1.684-1.684s-0.754-1.684-1.684-1.684h-1.122
		c-0.93,0-1.684,0.754-1.684,1.684S293.388,182.923,294.317,182.923z"/>
</g>
</svg>
