<?xml version="1.0" encoding="utf-8"?>
<!-- Generator: Adobe Illustrator 16.0.0, SVG Export Plug-In . SVG Version: 6.00 Build 0)  -->
<!DOCTYPE svg PUBLIC "-//W3C//DTD SVG 1.1 Tiny//EN" "http://www.w3.org/Graphics/SVG/1.1/DTD/svg11-tiny.dtd">
<svg version="1.1" baseProfile="tiny" id="Layer_1" xmlns="http://www.w3.org/2000/svg" xmlns:xlink="http://www.w3.org/1999/xlink"
	 x="0px" y="0px" width="350px" height="350px" viewBox="0 0 350 350" overflow="scroll" xml:space="preserve">
<path fill="#67410A" d="M323.088,153.814h-98.886c-0.393-0.619-1.079-1.032-1.865-1.032h-15.221v-0.713
	c0-1.025-0.705-1.916-1.703-2.152l-57.458-13.589c-0.167-0.04-0.338-0.06-0.509-0.06h-40.599c-0.14,0-0.277,0.016-0.41,0.042
	c-0.051,0.009-0.098,0.025-0.148,0.038c-0.059,0.016-0.12,0.025-0.178,0.046l-7.405,2.613c-2.863-5.613-11.407-21.585-17.656-25.157
	c-1.106-0.634-2.522-0.25-3.157,0.86c-0.634,1.109-0.25,2.522,0.86,3.156c4.506,2.577,11.927,15.68,15.548,22.696l-23.285,8.218
	c-0.654,0.23-1.162,0.755-1.372,1.416l-4.212,13.252H42.797c-9.978,0-18.096,8.118-18.096,18.096v16.228
	c0,5.52,4.491,10.01,10.011,10.01h0.647c32.212,27.157,55.916,28.677,60.772,28.677c0.393,0,0.662-0.011,0.804-0.018h109.69
	c0.354,0,0.702-0.08,1.021-0.236l58.146-28.558c0.475-0.233,0.826-0.612,1.044-1.054c1.837-0.799,3.508-1.978,4.878-3.488
	l4.881-5.383c1.674-1.846,2.451-4.321,2.134-6.793c-0.318-2.471-1.699-4.669-3.787-6.031l-27.127-17.681
	c-1.996-1.301-4.164-2.268-6.426-2.901h81.7c1.221,0,2.211-0.99,2.211-2.211v-6.078
	C325.299,154.804,324.309,153.814,323.088,153.814z M220.126,157.204v4.899v1.344h-13.01v-6.243H220.126z M202.693,153.817v1.175
	v8.455h-48.732v-11.379c0-1.222-0.99-2.211-2.211-2.211h-26.666c-1.222,0-2.211,0.99-2.211,2.211v11.379H109.06v-22.758h38.129
	L202.693,153.817z M127.294,163.447v-9.167h22.244v9.167H127.294z M73.529,152.583l24.108-8.509
	c0.302-0.017,0.604-0.083,0.891-0.223c0.123-0.06,0.232-0.134,0.338-0.21l5.771-2.037v21.844H70.076L73.529,152.583z M42.684,207.78
	h11.387c1.389,3.032,4.445,5.148,7.992,5.148h16.12c-0.323,1.327-0.491,2.69-0.491,4.084c0,5.007,2.155,9.508,5.572,12.663
	C73.662,227.016,59.503,221.053,42.684,207.78z M195.602,212.929h11.036c0.875,1.178,1.356,2.594,1.356,4.084
	c0,3.79-3.084,6.874-6.874,6.874s-6.874-3.084-6.874-6.874C194.246,215.522,194.728,214.105,195.602,212.929z M192.324,208.303
	v-25.308h37.524c2.298,0,4.166,1.87,4.166,4.168v16.973c0,2.297-1.868,4.167-4.166,4.167H192.324z M190.592,212.929
	c-0.499,1.286-0.769,2.664-0.769,4.084c0,6.229,5.068,11.297,11.297,11.297s11.296-5.067,11.296-11.297
	c0-1.42-0.269-2.798-0.768-4.084h1.642c0.44,1.311,0.668,2.678,0.668,4.084c0,7.079-5.759,12.838-12.838,12.838
	s-12.837-5.759-12.837-12.838c0-1.406,0.227-2.773,0.668-4.084h1.06H190.592z M187.697,208.303h-39.994v-25.308h39.994V208.303z
	 M171.249,212.929c0.875,1.177,1.356,2.594,1.356,4.084c0,3.79-3.083,6.874-6.874,6.874c-3.79,0-6.874-3.084-6.874-6.874
	c0-1.49,0.482-2.907,1.356-4.084H171.249z M153.562,212.929h1.641c-0.5,1.286-0.769,2.664-0.769,4.084
	c0,6.229,5.068,11.297,11.296,11.297c6.229,0,11.297-5.067,11.297-11.297c0-1.42-0.269-2.798-0.769-4.084h1.642
	c0.44,1.311,0.668,2.678,0.668,4.084c0,7.079-5.759,12.838-12.838,12.838c-7.079,0-12.837-5.759-12.837-12.838
	C152.893,215.606,153.12,214.239,153.562,212.929z M135.859,212.929c0.875,1.177,1.355,2.594,1.355,4.084
	c0,3.79-3.083,6.874-6.874,6.874c-3.79,0-6.874-3.084-6.874-6.874c0-1.49,0.482-2.906,1.357-4.084H135.859z M118.172,212.929h1.641
	c-0.5,1.286-0.769,2.664-0.769,4.084c0,6.229,5.067,11.297,11.296,11.297c6.229,0,11.297-5.067,11.297-11.297
	c0-1.42-0.27-2.798-0.768-4.084h1.641c0.441,1.311,0.668,2.678,0.668,4.084c0,7.079-5.759,12.838-12.838,12.838
	c-7.079,0-12.837-5.759-12.837-12.838C117.503,215.606,117.731,214.239,118.172,212.929z M143.077,208.303h-39.994v-25.308h39.994
	V208.303z M100.47,212.929c0.875,1.178,1.357,2.594,1.357,4.084c0,3.79-3.084,6.874-6.875,6.874c-3.79,0-6.874-3.084-6.874-6.874
	c0-1.49,0.481-2.907,1.356-4.084H100.47z M82.783,212.929h1.641c-0.5,1.286-0.769,2.664-0.769,4.084
	c0,6.229,5.068,11.297,11.296,11.297c6.229,0,11.297-5.067,11.297-11.297c0-1.42-0.27-2.798-0.769-4.084h1.641
	c0.441,1.311,0.668,2.678,0.668,4.084c0,7.079-5.759,12.838-12.838,12.838s-12.837-5.759-12.837-12.838
	C82.115,215.605,82.341,214.238,82.783,212.929z M98.457,208.303H62.063c-2.297,0-4.166-1.87-4.166-4.167v-16.973
	c0-2.298,1.869-4.168,4.166-4.168h36.393V208.303z M103.788,231.813c5.037-3.019,8.425-8.515,8.425-14.801
	c0-1.394-0.168-2.757-0.491-4.084h1.852c-0.323,1.327-0.492,2.69-0.492,4.084c0,6.286,3.389,11.782,8.425,14.801H103.788z
	 M139.176,231.813c5.036-3.019,8.425-8.515,8.425-14.801c0-1.393-0.168-2.757-0.492-4.084h1.853
	c-0.323,1.327-0.492,2.691-0.492,4.084c0,6.286,3.389,11.782,8.425,14.801H139.176z M174.565,231.813
	c5.036-3.019,8.426-8.515,8.426-14.801c0-1.393-0.169-2.757-0.492-4.084h1.853c-0.323,1.327-0.491,2.691-0.491,4.084
	c0,6.286,3.389,11.782,8.425,14.801H174.565z M214.756,227.556c2.263-2.92,3.624-6.571,3.624-10.543
	c0-1.394-0.168-2.757-0.491-4.084h11.96c3.548,0,6.604-2.116,7.992-5.148h17.18L214.756,227.556z M245.398,170.921l27.128,17.681
	c1,0.652,1.662,1.706,1.814,2.891s-0.22,2.372-1.022,3.256l-4.881,5.383c-1.86,2.051-4.515,3.226-7.283,3.226h-22.513v-16.194
	c0-4.849-3.944-8.794-8.793-8.794h-39.838H145.39h-44.62H62.063c-4.848,0-8.792,3.945-8.792,8.794v16.194H36.995
	c-0.44-0.134-0.909-0.132-1.346,0h-0.937c-3.081,0-5.588-2.506-5.588-5.587v-16.228c0-7.54,6.134-13.673,13.673-13.673h24.246
	c0.004,0,0.008,0,0.011,0c0.004,0,0.007,0,0.011,0h39.784h18.235h26.666h53.155h17.433h12.794
	C238.785,167.87,242.336,168.925,245.398,170.921z M320.876,159.892h-96.328v-1.655h96.328V159.892z"/>
</svg>
