<?xml version="1.0" encoding="utf-8"?>
<!-- Generator: Adobe Illustrator 16.0.0, SVG Export Plug-In . SVG Version: 6.00 Build 0)  -->
<!DOCTYPE svg PUBLIC "-//W3C//DTD SVG 1.1//EN" "http://www.w3.org/Graphics/SVG/1.1/DTD/svg11.dtd">
<svg version="1.1" id="Layer_1" xmlns="http://www.w3.org/2000/svg" xmlns:xlink="http://www.w3.org/1999/xlink" x="0px" y="0px"
	 width="350px" height="350px" viewBox="0 0 350 350" enable-background="new 0 0 350 350" xml:space="preserve">
<g>
	<g>
		<path fill="#8B5E3C" d="M56.123,264.043c-3.427-9.826-9.14-19.422-8.198-29.863c0.732-8.105,1.946-12.162,8.944-15.342
			c-15.99-19.283-23.385-46.406-19.598-71.876c3.788-25.471,18.004-38.064,38.797-51.072c29.1-18.204,63.889,5.943,97.317,10.507
			c24.646,3.364,50.874-13.919,73.735-3.497c22.861,10.421,44.496,17.085,55.29,41.056c0,0-25.029,38.776-27.3,46.206
			c-2.385,0.572-4.758,1.449-7.018,2.332c-6.838,2.674-13.676,5.348-20.513,8.021c1.94-4.342,2.621-8.641,1.325-13.879
			c-1.785-7.217-6.729-13.069-12.161-17.747c-7.668-6.604-17.472-11.607-27.136-9.633c-9.656,1.974-17.088,10.542-21.561,19.918
			c-6.902,14.475-0.034,28.715,0.232,44.531c-5.241,2.049-10.482,4.1-15.723,6.148c-12.872,5.033-26.444,10.668-35.807,20.996
			c-2.149-0.275-4.319-0.57-6.529-0.906c-4.507-0.684-8.797-2.682-12.955-4.742c-7.673,9.902-16.425,22.139-25.49,28.035
			c-1.257,9.797,17.044,0.848,18.015,19.574H55.659C51.734,275.289,59.234,272.965,56.123,264.043z"/>
	</g>
	<path fill="#8B5E3C" d="M59.376,157.451c-9.19,2.157-19.438,0.263-26.596-6.278c-7.157-6.541-10.504-17.985-6.901-27.295
		s14.617-14.896,23.227-10.832c6.543,3.088,10.476,10.636,11.561,18.206s-0.215,15.273-1.511,22.806"/>
	<path fill="#D2936A" d="M172.557,229.854c31.844-12.453,63.69-24.906,95.536-37.361c2.26-0.883,4.633-1.76,7.018-2.332
		c-8.558,28.012-44.927,72.623-138.36,60.689C146.113,240.521,159.685,234.889,172.557,229.854z"/>
	<g>
		<g>
			<g>
				<path fill="#8B5E3C" d="M292.928,74.126c0,9.354,7.583,16.938,16.938,16.938s13.983-7.583,13.983-16.938
					s-4.629-16.938-13.983-16.938S292.928,64.772,292.928,74.126z"/>
				<path fill="#D2936A" d="M292.928,78.458c0,6.962,5.644,12.605,12.605,12.605s10.406-5.644,10.406-12.605
					c0-6.961-3.444-12.604-10.406-12.604S292.928,71.498,292.928,78.458z"/>
			</g>
			<g>
				<path fill="#8B5E3C" d="M245.058,74.126c0,9.354-7.583,16.938-16.938,16.938s-13.983-7.583-13.983-16.938
					s4.629-16.938,13.983-16.938S245.058,64.772,245.058,74.126z"/>
				<path fill="#D2936A" d="M245.058,78.458c0,6.962-5.644,12.605-12.604,12.605c-6.962,0-10.407-5.644-10.407-12.605
					c0-6.961,3.445-12.604,10.407-12.604C239.414,65.854,245.058,71.498,245.058,78.458z"/>
			</g>
		</g>
		<path fill="#8B5E3C" d="M212.404,121.001c0,31.253,25.336,46.74,56.589,46.74s56.588-15.487,56.588-46.74
			c0-31.252-25.335-56.588-56.588-56.588S212.404,89.75,212.404,121.001z"/>
		<path fill="#D2936A" d="M264.948,168.233c-9.522-0.032-18.38-6.923-17.396-17.75c1.844-10.145,10.36-15.969,17.031-22.835
			c0.868-0.894,2.056-1.4,3.302-1.4h2.215c1.246,0,2.433,0.507,3.302,1.4c6.67,6.866,15.187,12.69,17.031,22.835
			c0.984,10.827-7.873,17.718-17.396,17.75H264.948z"/>
	</g>
	<path fill="#8B5E3C" d="M188.28,223.705c-0.267-15.816-7.135-30.057-0.232-44.531c4.473-9.376,11.904-17.945,21.561-19.918
		c9.664-1.975,19.468,3.029,27.136,9.633c5.432,4.678,10.376,10.53,12.161,17.747c1.296,5.238,0.615,9.537-1.325,13.879
		c-0.732,1.639-1.638,3.283-2.692,4.988c-8.381,13.547-16.983,27.701-19.038,43.801c-1.137,8.916-1.272,17.85,1.702,26.264
		c6.188,3.143,21.861,2.59,21.012,17.244H203.62c-11.832-18.125-17.438-41.961-15.513-63.859
		C188.263,227.182,188.31,225.434,188.28,223.705z"/>
	<g>
		<circle fill="#452D3B" stroke="#452D3B" stroke-miterlimit="10" cx="244.377" cy="118.717" r="3.869"/>
		<circle fill="#452D3B" stroke="#452D3B" stroke-miterlimit="10" cx="293.177" cy="118.717" r="3.869"/>
	</g>
	<ellipse fill="#452D3B" cx="268.777" cy="142.644" rx="8.803" ry="6.518"/>
</g>
</svg>
