<?xml version="1.0" encoding="utf-8"?>
<!-- Generator: Adobe Illustrator 16.0.0, SVG Export Plug-In . SVG Version: 6.00 Build 0)  -->
<!DOCTYPE svg PUBLIC "-//W3C//DTD SVG 1.1//EN" "http://www.w3.org/Graphics/SVG/1.1/DTD/svg11.dtd">
<svg version="1.1" id="Layer_1" xmlns="http://www.w3.org/2000/svg" xmlns:xlink="http://www.w3.org/1999/xlink" x="0px" y="0px"
	 width="350px" height="350px" viewBox="0 0 350 350" enable-background="new 0 0 350 350" xml:space="preserve">
<g>
	<path fill="#1E120D" d="M285.248,212.993v-34.45c0-8.4-2.952-13.958-6.187-17.534c0.3,2.212,0.498,4.542,0.568,7.014
		c0.002,0.09,0,0.177,0.005,0.267c1.204,2.675,2.018,6.04,2.018,10.253v34.45c-1.767,2.136-4.192,5.838-4.192,10.054
		c0,6.621,5.99,11.986,5.99,11.986s5.993-5.365,5.993-11.986C289.443,218.831,287.013,215.129,285.248,212.993z"/>
	<path fill="#1E120D" d="M204.721,225.439v2.048v4.927c0,1.242,1.005,2.247,2.247,2.247c1.24,0,2.247-1.005,2.247-2.247v-3.098
		v-1.875c1.749,0.565,3.606,0.933,5.533,1.082v1.803v4.03c0,1.242,1.008,2.247,2.248,2.247c1.242,0,2.247-1.005,2.247-2.247v-4.081
		v-1.812c1.7-0.176,3.338-0.521,4.893-1.022v1.875v3.098c0,1.242,1.003,2.247,2.248,2.247c1.239,0,2.244-1.005,2.244-2.247v-4.927
		v-2.048c3.284-1.912,5.944-4.578,7.662-7.725c-1.526-0.005-19.759-0.064-39.299-0.129
		C198.701,220.786,201.393,223.502,204.721,225.439z"/>
	<path fill="#1E120D" d="M253.518,126.688c-12.684-5.495-27.548-5.411-35.532-5.365l-1.953,0.008l-68.341,0.179l-26.259,0.062
		c-0.599,0-1.174-0.032-1.734-0.085c0.391-0.256,0.771-0.532,1.135-0.832c0.564-0.462,1.119-0.905,1.656-1.333
		c4.932-3.934,8.333-6.599,4.117-11.913c-4.61-5.809-8.42-0.908-14.1,3.778c-1.957-1.055-8.686-5.469-11.404-17.41
		c0,0-4.826,7.468-1.894,16.502c0.261,0.807,0.588,1.629,0.981,2.457c-0.987-0.229-2.034-0.358-3.163-0.358
		c-8.522,0-13.594,4.941-16.958,16.519c-1.261,4.341-2.736,7.544-4.463,10.297c-0.733-0.274-1.5-0.478-2.29-0.608
		c-0.652-0.106-1.316-0.176-1.997-0.176c-6.785,0-12.286,5.5-12.286,12.285c0,6.784,5.776,15.315,12.561,15.315
		c4.756,0,35.494,0.023,35.494,0.023l0.325,0.545c0.036,0.061,3.71,6.205,12.284,22.381c7.228,13.646,21.311,21.48,21.453,21.558
		l0.465,0.256l8.091,37.883c0,0-3.463,7.027-4.61,9.354c2.884,0,17.511,0,19.365,0c0-2.139,0.003-41.715,0.003-41.715l-0.004-1.126
		l73.775,0.305l7.27,33.18c0,0-3.462,7.029-4.608,9.356c2.883,0,17.509,0,19.364,0c0-2.149,0-46.367,0-46.367l0.465-0.338
		c2.847-2.064,16.692-13.531,16.692-40.852c0-0.776-0.01-1.564-0.036-2.365C276.845,149.17,268.816,133.313,253.518,126.688z"/>
</g>
</svg>
