<?xml version="1.0" encoding="utf-8"?>
<!-- Generator: Adobe Illustrator 16.0.0, SVG Export Plug-In . SVG Version: 6.00 Build 0)  -->
<!DOCTYPE svg PUBLIC "-//W3C//DTD SVG 1.1//EN" "http://www.w3.org/Graphics/SVG/1.1/DTD/svg11.dtd">
<svg version="1.1" id="Layer_1" xmlns="http://www.w3.org/2000/svg" xmlns:xlink="http://www.w3.org/1999/xlink" x="0px" y="0px"
	 width="350px" height="350px" viewBox="0 0 350 350" enable-background="new 0 0 350 350" xml:space="preserve">
<path fill="#77B52D" d="M79.613,256.547c0,0-19.418-8.616-8.665-18.85c10.756-10.233,20.168-6.373,20.168-6.373
	s-2.523-11.896,20.068-16.162c22.592-4.267,29.399,8.367,29.399,8.367s6.11-14.732,20.145-13.734
	c14.034,0.995,12.265,12.813,12.265,12.813s18.244-14.536,26.99-10.756c8.747,3.776,13.611,7.877,13.611,7.877
	s-0.056-19.248,17.264-18.381c17.32,0.868,14.435,16.912,14.435,16.912s15.581-18.635,27.257-13.126
	c12.711,5.995,10.345,23.799,10.345,23.799s10.133-7.986,13.412,1.367c5.523,15.758-3.156,17.923-3.156,17.923
	s7.891,6.854-1.577,15.533s-28.187,4.734-28.187,4.734s-18.818,18.935-30.427,11.834c0,0-10.21,12.624-24.717,14.202
	c-14.504,1.578-18.6-11.046-18.6-11.046s-14.029,17.63-31.003,11.183c-16.974-6.449-18.057-15.917-18.057-15.917
	s-9.221,10.257-17.877,7.102c-8.654-3.156-8.23-12.552-8.23-12.552S73.17,282.476,79.613,256.547"/>
<path fill="#56480D" d="M263.208,149.241c0.341,0.841,15.73,7.024,30.552,3.057c14.822-3.965,23.594-21.509,19.661-38.449
	c-3.933-16.938-26.921-27.525-45.069-25.711c0,0,3.629-6.351-3.328-6.956c-6.957-0.606-18.754,12.402-29.34-3.933
	c0,0,9.375,40.21,29.644,17.988c1.813-0.746,32.969-2.222,36.6,20.144s-18.514,31.961-32.106,21.133
	C269.82,136.514,258.19,136.807,263.208,149.241"/>
<g>
	<defs>
		<path id="SVGID_1_" d="M265.325,95.237c1.815-0.748,32.973-2.222,36.602,20.144c3.629,22.364-18.514,31.963-32.106,21.131
			c0,0-11.628,0.294-6.612,12.729c0.339,0.841,15.73,7.024,30.553,3.057c14.82-3.965,23.593-21.51,19.662-38.447
			c-3.935-16.94-26.923-27.526-45.072-25.711c0,0,3.63-6.352-3.327-6.958c-2.205-0.189-4.896,0.984-7.879,2.159
			c-6.434,2.533-14.231,5.067-21.463-6.091C235.682,77.25,245.061,117.461,265.325,95.237"/>
	</defs>
	<clipPath id="SVGID_2_">
		<use xlink:href="#SVGID_1_"  overflow="visible"/>
	</clipPath>
	<path clip-path="url(#SVGID_2_)" fill="#382F09" d="M265.327,95.237c0,0-5.29-2.983-2.49-4.111c0,0-1.927-6.349,5.515-2.988
		c8.192-3.908,4.431-10.887,4.431-10.887s-42.505-12.08-43.633-12.08s4.892,34.228,4.892,34.228s9.026,23.501,22.567,12.127
		C270.15,100.153,265.327,95.237,265.327,95.237"/>
	<path clip-path="url(#SVGID_2_)" fill="#443908" d="M260.37,138.519c0,0,12.79,12.142,27.082,9.268
		c14.293-2.874,26.358-12.946,26.907-30.854c0.552-17.909,15.328,42.708-15.622,44.887
		C267.785,163.997,253.599,155.446,260.37,138.519"/>
</g>
<path fill="#2B2407" d="M124.713,240.599c0,0-2.524,9.983-3.156,12.101c-0.63,2.117,5.538,1.826,6.494,1.518
	c0.954-0.31,1.459-2.729,1.459-2.729l2.271,3.361c0,0,6.816,0.28,8.834-0.632c2.021-0.914,1.49-13.618,1.49-13.618H124.713z"/>
<path fill="#3A3004" d="M119.917,190.992c0,0,4.544,41.439,4.797,49.606c0,0,12.568,1.21,17.39,0c0,0,2.552-33.779,4.822-42.901
	c2.273-9.126,4.797-22.436,3.788-27.578C149.705,164.977,112.344,148.645,119.917,190.992"/>
<path fill="#3A3004" d="M171.945,166.324c0,0,10.481,31.526,15.447,37.978c4.966,6.448,5.059,24.803,4.794,33.574
	c0,0,14.646,5.311,18.643,3.261c0,0,11.451-54.985,12.516-72.529C224.409,151.064,171.945,133.187,171.945,166.324"/>
<path fill="#2B2407" d="M192.187,237.876c0,0-4.527,12.402-4.261,15.125c0.265,2.723,4.261,1.846,4.261,1.846l5.467-7.104
	l0.925,7.104c0,0,8.788,1.796,11.185-0.63c2.397-2.426,1.064-13.08,1.064-13.08S196.447,236.063,192.187,237.876"/>
<path fill="#56480D" d="M105.616,178.581c0,0,23.893,35.088,30.397,39.322c6.505,4.236,50.669,7.562,55.81,6.654
	c5.143-0.906,35.09-10.587,41.744-10.587c6.653,0,25.711-22.455,29.34-31.342s10.286-41.859,6.354-47.303
	s-31.459-21.475-45.072-22.988c-13.611-1.512-68.7-7.173-80.459-6.655C131.969,106.2,97.75,150.752,105.616,178.581"/>
<g>
	<defs>
		<path id="SVGID_3_" d="M143.729,105.682c-11.759,0.518-45.978,45.072-38.113,72.899c0,0,23.893,35.088,30.397,39.322
			c6.506,4.236,50.669,7.563,55.81,6.655c5.143-0.907,35.088-10.588,41.744-10.588c6.653,0,25.709-22.455,29.34-31.342
			c3.631-8.888,10.284-41.859,6.352-47.303c-3.933-5.446-31.459-21.475-45.07-22.987c-13.02-1.447-63.992-6.689-78.688-6.689
			C144.831,105.649,144.239,105.66,143.729,105.682"/>
	</defs>
	<clipPath id="SVGID_4_">
		<use xlink:href="#SVGID_3_"  overflow="visible"/>
	</clipPath>
	<path clip-path="url(#SVGID_4_)" fill="#443908" d="M177.559,125.237c0,0-26.517,10.272-37.175,7.765
		c0,0-9.651,23.259-7.147,25.935c7.147,7.64-3.009,22.964-5.267,24.97c0,0,6.174,0.019,9.779,0.831
		c5.617,1.264,7.662,7.933,6.279,12.209c-2.382,7.374,6.916,13.038,6.916,13.038s33.222-3.84,36.97-4.93
		c3.749-1.088,25.313-25.41,39.857-26.164c14.545-0.752,37.364-13.289,41.377-28.836c4.013-15.548,4.262,18.054,4.013,20.813
		c-0.252,2.758-11.798,46.892-36.366,49.902c-24.57,3.009-52.655,7.522-58.674,7.271c-6.018-0.251-28.636,5.881-42.125-3.331
		c-13.493-9.213-31.079-25.004-33.971-41.054c-2.892-16.048,6.904-38.497,13.413-48.604c6.511-10.107,17.039-24.503,19.487-24.623
		C137.374,110.308,166.715,123.992,177.559,125.237"/>
</g>
<path fill="#DDCD9B" d="M146.945,105.689c0,0,19.885,10.755,28.93,4.66c9.049-6.096,7.153-34.515,0.069-43.149
	c0,0,29.715,30.638,11.545,50.974c-18.171,20.336-47.104-0.66-47.104-0.66L146.945,105.689z"/>
<g>
	<defs>
		<path id="SVGID_5_" d="M175.876,110.348c-9.047,6.094-28.93-4.657-28.93-4.657l-6.562,11.822c0,0,28.933,20.997,47.103,0.661
			c18.173-20.336-11.542-50.976-11.542-50.976C183.026,75.833,184.924,104.255,175.876,110.348"/>
	</defs>
	<clipPath id="SVGID_6_">
		<use xlink:href="#SVGID_5_"  overflow="visible"/>
	</clipPath>
	<path clip-path="url(#SVGID_6_)" fill="#BFAA6F" d="M134.923,107.676c0,0,39.156,33.214,57.602,1.435
		c0,0-7.634,27.653-27.443,24.392c-19.811-3.259-32.958-15.33-35.538-18.071C126.966,112.69,120.564,102.66,134.923,107.676"/>
</g>
<path fill="#DDCD9B" d="M80.183,93.909c0,0-23.495,7.027-29.113-1.988c-5.617-9.015,7.532-33.051,15.114-38.765
	c0,0-40.006,24.118-28.012,45.077C50.167,119.19,84.9,109.095,84.9,109.095L80.183,93.909z"/>
<g>
	<defs>
		<path id="SVGID_7_" d="M38.172,98.233C50.168,119.192,84.9,109.095,84.9,109.095l-4.717-15.187c0,0-23.495,7.027-29.113-1.988
			c-5.619-9.013,7.532-33.051,15.114-38.765C66.184,53.156,26.178,77.274,38.172,98.233"/>
	</defs>
	<clipPath id="SVGID_8_">
		<use xlink:href="#SVGID_7_"  overflow="visible"/>
	</clipPath>
	<path clip-path="url(#SVGID_8_)" fill="#BFAA6F" d="M36.617,94.619c0,0,12.428,14.828,46.248,7.924l-2.666,8.984
		C80.199,111.527,42.311,122.186,36.617,94.619"/>
</g>
<path fill="#51440C" d="M99.575,89.38c0,0-14.693-1.563-19.347,1.475c-4.652,3.039-2.643,60.174-1.974,63.375
	c0,0-7.703,2.162-3.8,10.093c3.903,7.933,16.191,16.794,28.656,16.512c12.467-0.282,24.668-4.713,25.938-12.783
	c1.268-8.07-4.105-14.009-4.105-14.009s22.611-44.668,21.575-49.056C145.485,100.602,133.459,87.921,99.575,89.38"/>
<g>
	<defs>
		<path id="SVGID_9_" d="M80.229,90.854c-4.655,3.039-2.644,60.174-1.974,63.376c0,0-7.705,2.162-3.801,10.092
			c3.902,7.933,16.189,16.795,28.656,16.51c12.465-0.28,24.669-4.711,25.937-12.781c1.271-8.07-4.104-14.009-4.104-14.009
			s22.611-44.668,21.577-49.056c-1.036-4.385-13.06-17.064-46.944-15.608c0,0-3.777-0.4-8.107-0.4
			C87.256,88.978,82.522,89.357,80.229,90.854"/>
	</defs>
	<clipPath id="SVGID_10_">
		<use xlink:href="#SVGID_9_"  overflow="visible"/>
	</clipPath>
	<path clip-path="url(#SVGID_10_)" fill="#3A3005" d="M72.3,155.571c0,0-0.016,7.229,10.565,16.049
		c10.58,8.819,34.448,4.806,38.647-2.676c4.201-7.481,0-14.715,0-14.715s14.732-30.766,15.86-34.522
		c1.128-3.755-1.504-6.013,0-9.398c1.505-3.384,1.65-5.66,6.655-6.403c5.005-0.743,9.955-0.498,6.915,3.705
		c-3.037,4.204-16.019,42.569-16.019,42.569s8.594,30.09-4.823,34.982C116.685,190.051,37.33,178.157,72.3,155.571"/>
</g>
<path fill="#382F09" d="M92.684,83.928c-5.384,3-12.534,11.188-6.216,12.69c6.318,1.499,10.869-2.469,10.869-2.469
	s-0.194,10.687,5.735,10.022c5.933-0.666,8.118-9.177,8.118-9.177s4.399,13.926,10.517,10.523s11.303-8.814,6.327-14.295
	C123.056,85.739,97.247,81.384,92.684,83.928"/>
<path fill="#231D06" d="M94.228,173.18c0,0-0.513-11.221,6.85-11.36c7.361-0.137,8.75,9.229,8.75,9.229s-4.534-6.925-9.265-6.386
	C95.832,165.201,94.228,173.18,94.228,173.18"/>
<path fill="#231D06" d="M94.48,125.408c-0.187,2.724-1.458,4.855-2.841,4.761c-1.382-0.095-2.35-2.38-2.166-5.104
	c0.185-2.725,1.458-4.855,2.84-4.76C93.696,120.4,94.666,122.685,94.48,125.408"/>
<path fill="#231D06" d="M96.091,122.482c0,0-5.196-4.871-6.062-5.551C90.029,116.931,91.032,121.656,96.091,122.482"/>
<path fill="#231D06" d="M111.057,126.541c-0.187,2.723,0.785,5.008,2.167,5.102c1.382,0.096,2.655-2.037,2.84-4.76
	c0.185-2.723-0.783-5.008-2.165-5.104C112.516,121.685,111.243,123.816,111.057,126.541"/>
<path fill="#231D06" d="M109.859,123.422c0,0,5.81-4.121,6.76-4.674C116.62,118.748,114.983,123.292,109.859,123.422"/>
<path fill="#231D06" d="M86.347,152.824c0,0-4.063-6.032,0.478-7.001c4.542-0.968,6.124,3.934,6.124,3.934s-1.264-9.036-7.523-6.586
	C79.168,145.62,86.347,152.824,86.347,152.824"/>
<path fill="#231D06" d="M105.54,151.577c0,0,0.253-7.335,5.85-5.036c5.597,2.301,1.157,6.474-1.817,7.868
	c0,0,12.79-5.008,4.835-9.83C106.351,139.696,105.54,151.577,105.54,151.577"/>
<path fill="#2B2407" d="M153.383,251.782c0,0-2.433,9.982-3.041,12.1c-0.61,2.119,5.336,1.826,6.256,1.52
	c0.92-0.31,1.406-2.729,1.406-2.729l2.189,3.359c0,0,6.569,0.28,8.516-0.63c1.945-0.914,1.435-13.619,1.435-13.619H153.383z"/>
<path fill="#56480D" d="M148.76,202.175c0,0,4.379,41.441,4.622,49.608c0,0,12.115,1.208,16.761,0c0,0,2.459-33.779,4.649-42.903
	c2.189-9.126,4.622-22.434,3.649-27.576C177.469,176.162,141.462,159.827,148.76,202.175"/>
<path fill="#382F09" d="M187.913,168.238c0,0-4.623,17.156-10.28,26.442C177.633,194.68,190.31,180.655,187.913,168.238"/>
<path fill="#56480D" d="M210.855,177.509c0,0,10.574,31.525,15.585,37.976c5.01,6.449,5.104,24.805,4.836,33.576
	c0,0,14.779,5.311,18.809,3.261c0,0,10.277-55.111,12.632-72.53C265.732,157.468,210.855,144.371,210.855,177.509"/>
<path fill="#2B2407" d="M231.276,249.061c0,0-3.98,10.558-3.705,13.033c0.274,2.477,4.399,1.679,4.399,1.679l4.06-5.775l0.953,6.458
	c0,0,9.077,1.632,11.552-0.575c2.477-2.203,1.101-11.892,1.101-11.892S235.677,247.41,231.276,249.061"/>
<path fill="#382F09" d="M211.197,147.211c0,0-2.646,24.515,2.165,37.524C213.362,184.735,205.28,172.454,211.197,147.211"/>
</svg>
