<?xml version="1.0" encoding="utf-8"?>
<!-- Generator: Adobe Illustrator 16.0.0, SVG Export Plug-In . SVG Version: 6.00 Build 0)  -->
<!DOCTYPE svg PUBLIC "-//W3C//DTD SVG 1.1//EN" "http://www.w3.org/Graphics/SVG/1.1/DTD/svg11.dtd">
<svg version="1.1" id="Layer_1" xmlns="http://www.w3.org/2000/svg" xmlns:xlink="http://www.w3.org/1999/xlink" x="0px" y="0px"
	 width="350px" height="350px" viewBox="0 0 350 350" enable-background="new 0 0 350 350" xml:space="preserve">
<g>
	<g opacity="0.1">
		<ellipse fill="#231F20" cx="178.19" cy="277.514" rx="65.051" ry="11.148"/>
	</g>
	<path fill="#FFFFFF" d="M224.759,238.302c0,0,11.036,2.971,14.645-1.698s-4.828-19.767,0.055-31.228
		c4.881-11.462,17.191-7.217,16.343,0c-0.85,7.215-11.516,1.588-10.666,12.31c0.849,10.722,7.641,21.331-4.935,27.857
		c-12.201,6.333-21.969,0.585-21.969,0.585L224.759,238.302z"/>
	<path fill="#CAA383" d="M240.996,219.755c1.433-3.343,3.552-8.543,1.006-11.461c-0.747-0.855-1.753-1.661-2.821-2.204
		c-3.944,10.536,2.645,23.824,0.816,29.351c0.605,1.538,0.999,2.478,0.999,2.478s3.964-3.358,2.459-8.133
		C241.951,225.009,239.563,223.098,240.996,219.755z"/>
	<path fill="#F5B041" d="M241.951,237.918c0.271-1.293-0.582-2.814-1.648-4.138c-0.081,1.151-0.347,2.11-0.899,2.822
		c-3.608,4.67-14.645,1.699-14.645,1.699l-0.479,0.572v5.19c0,0,2.547,2.116,5.412,1.16c2.867-0.955,2.548-2.864,5.414-2.387
		C237.971,243.315,241.314,240.958,241.951,237.918z"/>
	<path fill="#F5B041" d="M203.334,264.004c0,0,19.304,4.848,19.161,10.556c-0.142,5.709-33.451-3.476-33.451-3.476L203.334,264.004z
		"/>
	<path fill="#FFFFFF" d="M217.427,269.198c0.54,1.074,0.798,2.439-0.548,3.407c-2.545,1.829-17.067,1.124-17.112,1.123
		c9.751,2.176,22.642,4.379,22.729,0.831C222.544,272.621,220.348,270.781,217.427,269.198z"/>
	<path opacity="0.2" fill="#231F20" d="M222.495,274.56c0.007-0.209-0.021-0.415-0.067-0.621c-4.24,1.501-10.793-0.417-11.296-2.658
		c-0.4-1.785,1.587-3.196,2.643-3.809c-2.353-0.984-4.773-1.804-6.693-2.397c-1.635-0.229-3.42-0.366-5.232-0.335l-12.805,6.345
		C189.044,271.084,222.354,280.269,222.495,274.56z"/>
	<path fill="#F5B041" d="M153.123,266.079c0,0-18.625,1.911-17.511,8.756c1.115,6.845,29.868-1.591,29.868-1.591L153.123,266.079z"
		/>
	<path fill="#FFFFFF" d="M158.526,275.049c-0.039,0.003-12.36,0.686-15.743-1.494c-2.013-1.296-2.921-2.862-3.331-3.923
		c-2.482,1.286-4.203,2.982-3.841,5.203C136.371,279.495,149.941,277.07,158.526,275.049z"/>
	<path opacity="0.2" fill="#231F20" d="M165.48,273.244l-12.357-7.165c0,0-2.94,0.304-6.414,1.097
		c1.745,1.459,4.615,3.994,4.981,5.165c0.479,1.534-11.331,3.43-16.125,1.859c-0.003,0.207,0.012,0.419,0.047,0.635
		C136.727,281.68,165.48,273.244,165.48,273.244z"/>
	<path fill="#FFFFFF" d="M219.835,199.406c0,0,15.296,31.652,0,58.076c-15.293,26.426-65.598,23.561-75.786,1.594
		C133.861,237.107,138,208.134,138,208.134L219.835,199.406z"/>
	<path fill="#CAA383" d="M206.934,200.783c-0.272,0.687-0.54,1.407-0.801,2.181c0,0-7.004,17.04-2.388,25.432
		c4.617,8.393,11.299,2.466,17.988,11.291c1.37,1.807,2.655,2.458,3.845,2.268c4.237-21.878-5.743-42.548-5.743-42.548
		L206.934,200.783z"/>
	<path fill="#F5B041" d="M140.544,249.44c17.155-5.564,12.419-37.751,12.419-37.751s-3.243-2.359-7.622-4.339L138,208.134
		C138,208.134,134.957,229.494,140.544,249.44z"/>
	<path fill="#FFFFFF" d="M139.247,82.693c0,0,12.735-7.004,31.519-7.323c18.785-0.318,26.745,7.323,26.745,7.323
		s23.241-24.516,29.609-21.013c6.368,3.501,2.547,49.03,2.547,49.03l6.368,15.283c0,0,17.829,18.333,13.37,43.71
		c-4.456,25.378-40.116,42.888-70.361,45.754c-30.246,2.866-67.814-7.323-80.868-30.563c-13.053-23.242,9.87-53.489,9.87-53.489
		l4.775-17.51c0,0-7.322-38.524-1.91-45.846C116.323,60.725,139.247,82.693,139.247,82.693z"/>
	<path fill="#CAA383" d="M110.911,68.048c-5.412,7.322,1.91,45.846,1.91,45.846l-4.775,17.51c0,0-5.659,7.473-9.752,17.839
		c13.577,11.616,40.271,16.723,54.82,5.403c14.909-11.6,11.055-61.772,9.289-78.686c-14.101,1.752-23.155,6.732-23.155,6.732
		S116.323,60.725,110.911,68.048z"/>
	<g>
		<circle fill="#424242" cx="144.941" cy="137.519" r="8.172"/>
		<circle fill="#FFFFFF" cx="142.063" cy="134.641" r="3.095"/>
	</g>
	<g opacity="0.2">
		<path fill="#231F20" d="M240.81,177.039c-9.117,11.275-38.417,23.454-50.622,27.136s-36.189,9.054-64.631-5.893
			c-19.139-10.059-27.697-24.406-31.254-32.723c-0.511,6.473,0.401,13.149,3.874,19.334c13.054,23.24,50.622,33.43,80.868,30.563
			c30.245-2.866,65.905-20.376,70.361-45.754c0.535-3.043,0.742-5.982,0.706-8.804C248.06,165.839,245.023,171.83,240.81,177.039z"
			/>
	</g>
	<path fill="#F9A2A1" d="M166.415,185.848c0,0,2.335,17.936,11.886,17.087c9.553-0.851,6.475-19.634,6.475-19.634l-8.944-6.262
		C175.831,177.039,171.19,184.786,166.415,185.848z"/>
	<path fill="#B18E72" d="M210.591,213.229c0,0-16.079-13.974-26.903-14.946c-10.825-0.973-18.944,6.032-16.874,12.876
		c2.069,6.846,11.709-1.114,15.087-1.749c3.38-0.638,15.796,6.525,19.936,10.506c4.138,3.979,9.869,7.959,13.212,2.864
		C218.391,217.686,210.591,213.229,210.591,213.229z"/>
	<g>
		<path fill="#424242" d="M173.261,164.171c0.602,4.36,1.202,8.72,1.803,13.08c0.141,1.011,1.673,0.58,1.535-0.423
			c-0.6-4.36-1.2-8.72-1.802-13.081C174.658,162.737,173.124,163.167,173.261,164.171L173.261,164.171z"/>
	</g>
	<path fill="#F9A2A1" d="M172.139,156.132c0,0,8.497-1.38,8.285,2.123c-0.212,3.502-3.396,6.792-6.155,7.004
		c-2.76,0.213-8.915-3.607-8.809-5.73C165.566,157.406,170.353,156.331,172.139,156.132z"/>
	<path fill="#F5B041" d="M236.035,125.993l-6.368-15.283c0,0,3.821-45.528-2.547-49.03c-6.368-3.503-29.609,21.013-29.609,21.013
		s-7.96-7.641-26.745-7.323c-2.945,0.05-5.742,0.265-8.364,0.591l0,0c0,0,9.249,66.587,26.159,75.502
		c13.809,7.279,41.489-3.684,54.954-14.804C239.854,129.925,236.035,125.993,236.035,125.993z"/>
	<g>
		<path fill="#424242" d="M160.893,185.341c6.303,4.142,13.856-2.983,15.706-8.832c-0.443,0.117-0.886,0.233-1.33,0.351
			c3.917,4.248,11.148,11.278,15.605,3.659c0.52-0.886-0.856-1.688-1.373-0.804c-3.646,6.229-10.067-0.684-13.107-3.98
			c-0.421-0.459-1.157-0.197-1.33,0.352c-1.525,4.824-8.361,11.171-13.368,7.882C160.837,183.402,160.039,184.779,160.893,185.341
			L160.893,185.341z"/>
	</g>
	<path fill="#424242" d="M210.564,128.38c0,0-9.552-4.059-16.874,0.717c-9.441,6.157-6.917,11.7-5.13,12.337
		c1.786,0.636-0.443-4.973,5.765-9.89C200.534,126.629,210.564,128.38,210.564,128.38z"/>
	<path fill="#F9A2A1" d="M116.43,104.767c0,0,4.033-6.154,8.915-10.824c4.882-4.669,8.278-6.58,8.278-6.58
		s-19.74-19.315-20.801-14.434C111.76,77.812,116.43,104.767,116.43,104.767z"/>
	<path fill="#F9A2A1" d="M204.727,87.044c0,0,6.313,2.175,11.408,6.951c5.094,4.775,6.634,8.755,6.634,8.755
		s4.881-26.69,2.016-31.625C221.919,66.19,204.727,87.044,204.727,87.044z"/>
	<path fill="#424242" d="M143.094,245.066c-1.652-0.826-2.948-1.305-3.97-1.566c1.052,5.271,2.619,10.603,4.925,15.576
		c0.123,0.264,0.278,0.513,0.414,0.772C146.434,256.156,148.22,247.629,143.094,245.066z"/>
	<path fill="#424242" d="M223.007,237.107c-3.342-2.866-8.144-1.434-8.608,3.342c-0.466,4.775,0.49,7.165-1.739,10.029
		c-1.865,2.399,1.07,9.375,6.283,8.396c0.301-0.461,0.615-0.912,0.893-1.393c3.034-5.239,4.85-10.684,5.835-16.046
		C225.132,239.85,224.303,238.217,223.007,237.107z"/>
	<path fill="#FFFFFF" d="M173.42,209.409c-1.926-0.275-4.871-1.671-5.271-5.234c-1.501,2.107-2.07,4.553-1.335,6.983
		c2.069,6.846,11.709-1.114,15.087-1.749c2.447-0.463,9.624,3.167,14.975,6.716l0.005-0.002c0,0-8.258-7.272-13.113-8.069
		C178.912,207.259,175.649,209.726,173.42,209.409z"/>
	<g opacity="0.2">
		<path fill="#231F20" d="M224.098,211.7c-0.001,0.244-0.061,30.241-12.966,44.51c-12.957,14.327-39.489,12.811-51.376,7.52
			c-7.008-3.12-15.608-14.346-21.303-23.988c1.011,6.467,2.741,13.176,5.597,19.335c10.188,21.967,60.493,24.832,75.786-1.594
			C229.158,241.376,227.113,223.339,224.098,211.7z"/>
	</g>
	<path fill="#B18E72" d="M165.48,248.409c0,0,3.88,23.726,3.721,28.021c-0.159,4.295-7.323,8.751-9.71,6.205
		c-2.388-2.548,0.478-7.642,0-11.939c-0.478-4.299-5.572-21.649-4.139-27.381C156.784,237.584,163.884,238.189,165.48,248.409z"/>
	<path fill="#FFFFFF" d="M167.821,271.796c0,2.108-0.743,6.913-4.669,7.018c-2.318,0.063-3.658-0.776-4.38-1.477
		c-0.356,2.123-0.473,4.028,0.719,5.299c2.388,2.546,9.551-1.91,9.71-6.205c0.067-1.826-0.595-7.167-1.38-12.701
		C167.821,266.729,167.821,270.568,167.821,271.796z"/>
	<g opacity="0.2">
		<path fill="#FFFFFF" d="M153.113,85.24c0,0-0.712,0.374-1.917,1.084c-0.611,0.334-1.324,0.803-2.163,1.28
			c-0.814,0.531-1.757,1.076-2.746,1.737c-0.999,0.642-2.063,1.361-3.175,2.137c-1.134,0.741-2.241,1.65-3.448,2.495
			c-1.169,0.896-2.347,1.861-3.544,2.833c-1.151,1.026-2.394,1.988-3.482,3.114l-1.708,1.605c-0.564,0.538-1.067,1.129-1.599,1.685
			c-0.528,0.56-1.053,1.115-1.571,1.664c-0.481,0.58-0.958,1.153-1.425,1.716c-0.469,0.565-0.929,1.121-1.381,1.665
			c-0.416,0.571-0.823,1.13-1.219,1.674c-0.799,1.086-1.568,2.11-2.157,3.133c-0.634,1.003-1.214,1.923-1.729,2.738
			c-0.454,0.854-0.849,1.6-1.175,2.212c-0.669,1.227-1.079,1.929-1.079,1.929s0.206-0.771,0.61-2.121
			c0.211-0.676,0.468-1.496,0.763-2.437c0.363-0.913,0.824-1.925,1.332-3.032c0.263-0.547,0.495-1.146,0.814-1.718
			c0.334-0.565,0.678-1.149,1.033-1.75c0.357-0.602,0.726-1.22,1.101-1.852c0.399-0.616,0.871-1.2,1.316-1.819
			c0.455-0.614,0.917-1.239,1.385-1.871c0.5-0.606,1.031-1.197,1.567-1.793c0.542-0.589,1.058-1.216,1.633-1.786l1.747-1.701
			c1.156-1.148,2.46-2.125,3.675-3.165c1.247-0.999,2.553-1.881,3.798-2.75c1.278-0.822,2.508-1.623,3.737-2.277
			c0.608-0.335,1.191-0.677,1.771-0.978c0.588-0.286,1.156-0.561,1.701-0.826c1.077-0.551,2.123-0.941,3.021-1.333
			c0.919-0.352,1.716-0.659,2.39-0.871C152.326,85.415,153.113,85.24,153.113,85.24z"/>
	</g>
	<g opacity="0.2">
		<path fill="#FFFFFF" d="M175.741,201.873c0,0,0.274-0.161,0.788-0.374c0.516-0.201,1.256-0.509,2.188-0.724
			c0.927-0.235,2.032-0.436,3.231-0.53c0.601-0.012,1.223-0.083,1.854-0.03c0.634,0.016,1.276,0.063,1.914,0.158
			c0.641,0.066,1.266,0.229,1.884,0.366c0.626,0.108,1.2,0.372,1.775,0.547c0.582,0.163,1.087,0.474,1.59,0.695
			c0.505,0.219,0.944,0.501,1.354,0.748c0.406,0.253,0.791,0.463,1.089,0.715c0.303,0.243,0.565,0.454,0.783,0.628
			c0.423,0.356,0.664,0.559,0.664,0.559s-0.28-0.146-0.77-0.404c-0.239-0.133-0.53-0.294-0.864-0.479
			c-0.329-0.19-0.742-0.33-1.156-0.542c-0.421-0.198-0.869-0.426-1.381-0.585c-0.506-0.162-1.014-0.4-1.576-0.537
			c-0.56-0.143-1.122-0.346-1.719-0.446c-0.593-0.122-1.191-0.265-1.805-0.317c-1.213-0.209-2.446-0.218-3.603-0.236
			c-1.154,0.033-2.243,0.071-3.165,0.218C176.964,201.529,175.741,201.873,175.741,201.873z"/>
	</g>
	<g opacity="0.2">
		<path fill="#FFFFFF" d="M157.076,250.161c0,0,0.39,1.156,0.859,2.913c0.218,0.881,0.503,1.905,0.751,3.014
			c0.258,1.104,0.497,2.293,0.734,3.48c0.219,1.191,0.437,2.382,0.601,3.507c0.178,1.123,0.283,2.181,0.394,3.085
			c0.11,0.904,0.132,1.668,0.164,2.199c0.018,0.534,0,0.839,0,0.839s-0.277-1.18-0.693-2.949c-0.203-0.885-0.438-1.917-0.691-3.022
			c-0.245-1.106-0.475-2.293-0.712-3.479c-0.217-1.188-0.441-2.378-0.62-3.498c-0.188-1.119-0.316-2.173-0.453-3.07
			C157.167,251.376,157.076,250.161,157.076,250.161z"/>
	</g>
</g>
</svg>
