<?xml version="1.0" encoding="utf-8"?>
<!-- Generator: Adobe Illustrator 16.0.0, SVG Export Plug-In . SVG Version: 6.00 Build 0)  -->
<!DOCTYPE svg PUBLIC "-//W3C//DTD SVG 1.1//EN" "http://www.w3.org/Graphics/SVG/1.1/DTD/svg11.dtd">
<svg version="1.1" id="Layer_1" xmlns="http://www.w3.org/2000/svg" xmlns:xlink="http://www.w3.org/1999/xlink" x="0px" y="0px"
	 width="350px" height="350px" viewBox="0 0 350 350" enable-background="new 0 0 350 350" xml:space="preserve">
<path d="M190.334,306.573c3.493-0.246,7.504-0.66,10.87-2.475c2.692-1.451,4.145-3.867,3.978-6.628
	c-0.186-3.104-2.372-5.925-5.572-7.184c-2.078-0.817-4.437-1.216-7.207-1.216c-2.494,0-4.992,0.313-7.408,0.616l-0.502,0.063
	c-2.75,0.342-4.996,0.501-7.072,0.501c-0.821,0-1.633-0.024-2.414-0.076c-1.652-0.106-3.206-0.321-4.749-0.66
	c-1.263-0.272-2.699-0.628-4.22-1.074c0.034-0.001,0.067-0.001,0.102-0.002c1.303-0.036,2.5-0.533,3.378-1.392
	c0.728,0.659,1.73,1.014,2.892,1.014c1.538,0,3.088-0.623,4.044-1.625c0.092-0.096,0.178-0.196,0.263-0.305l0.016,0.001
	c0.102,0.003,0.199,0.006,0.297,0.006c3.129,0,5.407-1.871,5.741-4.623c0.586,0.028,1.174,0.042,1.754,0.042
	c1.265,0,2.526-0.069,3.763-0.206c-0.302,1.924,0.05,3.885,0.972,5.278c0.822,1.242,2.061,2.018,3.577,2.243
	c0.222,0.032,0.448,0.05,0.674,0.05c0.82,0,1.646-0.22,2.355-0.626c0.734,0.318,1.522,0.485,2.305,0.485
	c0.971,0,1.898-0.262,2.678-0.745c0.133,0.112,0.308,0.18,0.509,0.18h0.002c1.426-0.054,2.747-0.724,3.724-1.864
	c0.852,0.948,2.108,1.529,3.399,1.529c0.788,0,1.553-0.217,2.212-0.627c0.084-0.051,0.168-0.108,0.255-0.172
	c0.251,0.031,0.505,0.048,0.755,0.048c1.301,0,2.536-0.423,3.502-1.192c0.071,0.023,0.149,0.035,0.228,0.035
	c0.053,0,0.143-0.012,0.191-0.023c1.618-0.418,2.854-1.692,3.396-3.467c0.392,0.087,0.794,0.13,1.201,0.13
	c0.124,0,0.247-0.004,0.374-0.012c1.233-0.079,2.349-0.592,3.156-1.43c0.674,0.554,1.568,0.854,2.584,0.854
	c1.516,0,3.083-0.669,3.996-1.702c0.082-0.092,0.156-0.186,0.231-0.288c2.38-0.007,4.246-1.049,5.121-2.862
	c0.935-1.938,0.528-4.389-1.059-6.397c-1.776-2.244-4.33-2.905-7.244-3.481c-1.77-0.352-3.385-0.537-4.923-0.565
	c0.101-1.293,0.17-2.607,0.208-3.915c0.356-12.403-2.279-22.601-7.834-30.305c-1.153-3.595-3.312-6.908-6.984-10.732
	c-5.479-5.702-7.439-12.029-5.825-18.805c0.06-0.255,0.005-0.516-0.153-0.715c-0.161-0.204-0.414-0.325-0.679-0.325
	c-0.199,0-0.385,0.069-0.529,0.188l-26.991-2.222c-0.015-0.019-0.031-0.037-0.047-0.056c-0.172-0.186-0.419-0.292-0.676-0.292
	c-0.397,0-0.73,0.249-0.85,0.635c-2.782,8.968-6.364,15.025-11.617,19.642c-1.135,0.997-2.376,1.935-3.691,2.93
	c-2.523,1.908-5.131,3.881-7.04,6.366c-4.661,3.601-6.893,9.511-7.947,13.844c-0.653,2.694-1.047,5.491-1.169,8.316
	c-2.972,3.79-5.226,7.697-6.702,11.617c-2.455,6.517-2.039,13.482,0.868,19.788c-0.028,0.096-0.045,0.209-0.045,0.347
	c0,0.763,0.438,0.853,0.632,0.853c2.13,4.109,5.338,7.898,9.514,11.051c7.584,5.722,17.566,9.573,28.868,11.14"/>
<path d="M205.229,277.61c-0.08,0.107-0.156,0.219-0.226,0.335c-0.709-0.822-1.619-1.506-2.639-1.985
	c0.72-0.536,1.433-1.128,2.128-1.767c0.754,0.754,1.537,1.416,2.339,1.974c0,0,0.001,0.145,0.001,0.193
	c-0.083,0.017-0.163,0.05-0.234,0.097l-0.093,0.063C206.065,276.805,205.61,277.102,205.229,277.61z"/>
<path d="M152.464,281.514c2.185,1.499,4.542,2.271,6.998,2.271c0.223,0,0.447-0.006,0.669-0.02c0.391,1.438,1.204,2.64,2.281,3.466
	C158.882,285.903,155.258,284.054,152.464,281.514z"/>
<path fill="#FF7200" d="M187.273,305.786c-20.365,1.062-53.121-8.711-54.058-33.538c-0.565-14.979,18.088-32.502,22.611-32.219
	l-8.702,33.884c0.505,2.856,2.768,6.577,6.441,9.358c5.904,4.472,16.78,8.007,24.009,7.943c7.161-0.063,15.564-2.884,22.378,0.199
	c4.547,2.058,6.393,8.154,1.817,11.244C197.832,305.316,191.867,305.548,187.273,305.786"/>
<path fill="#FFFFD5" d="M187.273,305.786c4.594-0.238,10.559-0.47,14.496-3.128c4.575-3.09,2.729-9.187-1.817-11.244
	c-6.813-3.083-15.217-0.262-22.378-0.199c-0.84,0.008-1.73-0.035-2.656-0.121c-4.342,4.497-2.344,10.664-0.7,14.036"/>
<path fill="#D33E00" d="M135.408,283.257c0.028-0.09,0.052-0.183,0.077-0.273C135.304,282.437,135.343,283.477,135.408,283.257z
	 M152.334,265.557c0.004,0.002,0.009,0.005,0.014,0.007c0.555,0.192-0.363-0.494-0.022-0.018
	C152.329,265.549,152.331,265.553,152.334,265.557z M139.384,263.619c3.021-0.739,6.25-0.282,9.2,0.555
	c0.324,0.093,0.645,0.19,0.966,0.293l1.267-4.932c-4.506-1.431-9.646-1.875-14.091-0.397c-1.419,2.703-2.516,5.516-3.086,8.317
	C135.034,265.606,136.912,264.224,139.384,263.619z M147.232,274.425c-0.042-0.173-0.079-0.344-0.108-0.512l1.157-4.507
	c-0.322-0.062-0.643-0.115-0.964-0.154c-4.346-0.535-8.669,0.544-11.911,3.569c-0.713,0.665-1.362,1.403-1.942,2.192
	c0.368,2.648,1.112,5.11,2.173,7.396c0.11-0.431,0.219-0.86,0.365-1.285c0.777-2.266,2.635-5.059,5.306-6.223
	C143.29,274.038,145.259,274.105,147.232,274.425z M159.41,286.702c-3.729,3.19-5.254,7.895-4.955,12.739
	c1.769,0.818,3.593,1.555,5.45,2.212c-0.224-0.911-0.39-1.838-0.447-2.773c-0.258-4.257,1.505-7.683,5.343-9.675
	c0.138-0.071,0.278-0.143,0.421-0.214C163.218,288.338,161.246,287.564,159.41,286.702z M149.279,278.796
	c-3.652,2.546-6.567,6.386-7.292,10.596c-0.09,0.527-0.148,1.058-0.184,1.588c1.726,1.692,3.657,3.23,5.741,4.619
	c-0.624-1.995-0.991-4.022-0.327-6.276c0.849-2.878,3.113-5.088,5.603-6.646C151.387,281.479,150.2,280.144,149.279,278.796z"/>
<path fill="#FFE89F" d="M187.273,305.786c4.594-0.238,10.559-0.47,14.496-3.128c2.191-1.481,2.907-3.649,2.561-5.734
	c-4.173,2.891-13.227,6.347-31.667,3.891c0.376,1.647,0.986,3.146,1.554,4.313"/>
<path fill="#CB4100" d="M135.913,281.418c-0.101,0.328-0.191,0.658-0.275,0.991c1.49,3.207,3.602,6.06,6.166,8.57
	c0.036-0.531,0.094-1.061,0.184-1.588c0.082-0.478,0.196-0.948,0.333-1.414C139.515,285.604,137.411,283.297,135.913,281.418z"/>
<path fill="#CB4100" d="M174.217,305.127c-0.568-1.166-1.177-2.665-1.554-4.313c-0.055-0.006-0.107-0.014-0.162-0.021
	c-4.866-0.653-9.202-1.744-13.055-3.106c-0.012,0.39-0.012,0.786,0.012,1.192c0.057,0.936,0.222,1.86,0.446,2.771
	C164.586,303.308,169.477,304.452,174.217,305.127"/>
<path fill="#CB4100" d="M146.872,291.413c-0.059,1.451,0.247,2.826,0.672,4.186c2.161,1.439,4.483,2.718,6.912,3.843
	c-0.077-1.255-0.03-2.498,0.144-3.71C151.698,294.401,149.13,292.931,146.872,291.413z"/>
<path fill="#CB4100" d="M151.869,245.399c-0.536-1.036-1.073-1.86-1.611-2.524c-4.377,3.398-9.959,9.478-13.521,16.26
	c4.444-1.474,9.578-1.029,14.081,0.4l-1.267,4.932c-0.321-0.103-0.642-0.2-0.966-0.293c-2.522-0.714-5.246-1.15-7.871-0.801
	c0.047,0.214,0.092,0.437,0.133,0.68c0.284,1.708,0.928,3.523,1.73,5.284c1.542-0.258,3.139-0.281,4.739-0.085
	c0.321,0.039,0.643,0.093,0.964,0.154l-1.157,4.507l6.479-25.228C153.015,247.585,152.43,246.481,151.869,245.399z"/>
<path fill="#CB4100" d="M148.69,279.226c0.194-0.146,0.39-0.291,0.588-0.43c-1.156-1.691-1.893-3.403-2.154-4.883
	c0.029,0.168,0.066,0.339,0.108,0.512c-0.67-0.107-1.341-0.185-2.011-0.207C146.844,276.84,148.356,278.8,148.69,279.226z"/>
<path fill="#A72600" d="M159.458,298.88c-0.024-0.406-0.024-0.803-0.012-1.192c-1.71-0.604-3.324-1.26-4.847-1.956
	c-0.174,1.212-0.22,2.455-0.144,3.71c0,0,0,0,0,0c0.451,0.209,0.904,0.412,1.361,0.609c0.138,0.06,0.277,0.115,0.416,0.173
	c0.321,0.137,0.641,0.272,0.964,0.403c0.168,0.068,0.339,0.133,0.508,0.2c0.296,0.117,0.591,0.235,0.89,0.347
	c0.185,0.069,0.372,0.136,0.557,0.204c0.25,0.092,0.501,0.184,0.752,0.272C159.681,300.74,159.515,299.815,159.458,298.88z
	 M146.872,291.413c-1.686-1.133-3.201-2.292-4.552-3.436c-0.137,0.466-0.25,0.937-0.333,1.414c-0.09,0.527-0.148,1.057-0.184,1.588
	c0,0.001,0,0.001,0,0.001c1.727,1.691,3.657,3.229,5.741,4.618l0,0C147.119,294.239,146.813,292.864,146.872,291.413z
	 M142.578,269.337c0.79,1.732,1.734,3.41,2.644,4.881c0.67,0.022,1.341,0.1,2.011,0.207c-0.042-0.173-0.079-0.344-0.108-0.512
	l1.157-4.507c-0.322-0.062-0.643-0.115-0.964-0.154C145.716,269.056,144.119,269.079,142.578,269.337z M136.736,259.135
	c-0.074,0.141-0.15,0.279-0.222,0.422c-0.059,0.115-0.119,0.23-0.177,0.347c-0.21,0.422-0.415,0.845-0.607,1.271
	c-0.003,0.008-0.007,0.014-0.009,0.019c-0.269,0.593-0.515,1.189-0.747,1.789c2.117-2.233,4.717-4.208,5.739,0.392
	c2.625-0.35,5.349,0.087,7.871,0.801c0.324,0.093,0.645,0.19,0.966,0.293l1.267-4.932
	C146.314,258.105,141.18,257.661,136.736,259.135z"/>
<path fill="#CB4100" d="M170.129,290.104c-8.605-1.873-20.857-6.423-22.94-16.209c-0.019-0.083-0.144-0.048-0.128,0.037
	c1.332,6.688,7.529,10.864,13.356,13.438c4.576,2.021,9.432,3.452,14.389,3.894c0.049-0.169,0.103-0.332,0.162-0.488
	C173.371,290.67,171.766,290.459,170.129,290.104z"/>
<path fill="#CB4100" d="M173.849,305.484c0.012-0.234,0.051-0.471,0.111-0.707c-7.898-1.12-15.686-3.545-22.567-7.307
	c-10.151-5.546-19.015-15.628-17.677-27.961c0.805-7.414,5.24-14.321,10.016-19.839c2.109-2.436,4.419-4.753,6.986-6.708
	c1.339-1.02,3.313-2.653,5.109-2.619c0.405,0.007,0.405-0.622,0-0.629c-1.542-0.029-3.035,0.953-4.261,1.778
	c-2.154,1.446-4.111,3.203-5.935,5.042c-4.67,4.713-8.788,10.336-11.139,16.576c-4.487,11.913,1.037,24.004,10.769,31.347
	C153.415,300.61,163.647,304.07,173.849,305.484"/>
<path fill="#DFA768" d="M185.572,305.487c-3.835,0.079-7.737-0.16-11.612-0.71c-0.06,0.236-0.099,0.473-0.111,0.707"/>
<path fill="#DFA768" d="M190.293,305.973c3.593-0.253,7.403-0.666,10.625-2.402c5.889-3.174,4.201-10.47-1.528-12.724
	c-4.702-1.85-9.955-1.107-14.824-0.501c-3.283,0.409-6.423,0.635-9.598,0.429c-0.059,0.156-0.112,0.319-0.162,0.488
	c2.056,0.183,4.128,0.198,6.205,0.01c6.555-0.596,20.58-3.931,22.9,5.223c2.218,8.754-13.109,8.882-18.339,8.992"/>
<g>
	<g>
		<path fill="#FF7200" d="M221.704,262.953c0.109-5.25-0.388-10.404-1.479-15.619c-1.383-6.596-4.216-12.988-8.812-17.914
			l-7.207-2.516c-4.313,3.362-6.535,8.795-7.52,14.178c-1.428,7.802-0.52,16.085,2.787,23.313c0.888,1.939,2.09,4.173,3.576,6.249
			C205.537,267.849,211.797,262.899,221.704,262.953z"/>
		<path fill="#FFFFD5" d="M215.133,277.565l0.256-0.42c0.255,1.363,0.957,2.639,2.063,3.464c1.5,1.117,3.735,1.252,5.239,0.134
			c0.389-0.289,0.708-0.663,0.949-1.084l0.079,0.176c1.551,1.818,4.843,1.42,6.154-0.576c0.075-0.112,0.141-0.231,0.203-0.352
			l0.472,0.228c7.248-0.188,5.055-8.219,0.258-9.875c-2.868-0.99-6.343-1.709-9.58-1.675l0.269-0.441
			c0.114-1.405,0.182-2.801,0.21-4.19c-9.907-0.054-16.167,4.896-18.654,7.69C206.02,274.791,210.124,278.305,215.133,277.565z"/>
	</g>
	<path fill="#D33E00" d="M207.707,242.268c2.367-2.479,5.913-4.069,9.512-4.091c-0.741-1.601-1.592-3.146-2.559-4.611
		c-3.91,0.557-7.63,2.413-10.493,5.413C202.014,241.23,205.558,244.517,207.707,242.268z M210.229,250.555
		C210.089,250.657,210.09,250.667,210.229,250.555L210.229,250.555z M210.471,250.357c-0.104,0.087-0.184,0.152-0.241,0.197
		c0.048-0.034,0.105-0.074,0.184-0.13c0.305-0.207,0.598-0.428,0.906-0.629c1.012-0.657,2.074-1.209,3.21-1.621
		c1.932-0.703,3.845-0.939,5.719-0.718c-0.008-0.041-0.015-0.082-0.023-0.123c-0.334-1.6-0.757-3.186-1.269-4.742
		c-4.305-0.013-8.595,1.578-12.026,4.479C204.556,249.075,208.121,252.343,210.471,250.357z M221.13,252.667
		c-4.401-0.53-9.009,0.604-12.674,3.266c-2.503,1.818,0.068,5.916,2.593,4.08c3.148-2.288,6.96-3.102,10.554-2.336
		C221.507,256.004,221.35,254.337,221.13,252.667z"/>
	<path fill="#E84900" d="M199.474,264.395c0.888,1.939,2.09,4.173,3.576,6.249c0.667-0.75,1.609-1.655,2.818-2.578
		c-7.038-8.857-8.69-24.271-8.99-27.946c-0.068,0.321-0.133,0.642-0.191,0.963C195.259,248.884,196.167,257.167,199.474,264.395z"/>
	<path fill="#FFE89F" d="M234.649,274.175c-2.563,3.321-4.817,0.45-4.817,0.45s-0.397,3.778-2.264,4.116
		c-1.868,0.338-4.402-2.791-4.402-2.791s-0.167,2.692-3.117,2.804c-2.95,0.11-5.01-4.65-5.01-4.65
		c-3.78-0.781-6.785-3.033-9.171-6.038c-1.209,0.923-2.151,1.828-2.818,2.578c2.97,4.147,7.074,7.661,12.083,6.922l0.256-0.42
		c0.255,1.363,0.957,2.639,2.063,3.464c1.5,1.117,3.735,1.252,5.239,0.134c0.389-0.289,0.708-0.663,0.949-1.084l0.079,0.176
		c1.551,1.818,4.843,1.42,6.154-0.576c0.075-0.112,0.141-0.231,0.203-0.352l0.472,0.228c4.142-0.107,5.197-2.774,4.448-5.353
		C234.88,273.9,234.764,274.027,234.649,274.175z"/>
	<path fill="#CB4100" d="M211.458,229.371c-0.06-0.063-0.145,0.034-0.09,0.097c7.763,8.851,10.139,21.582,9.979,33.261
		c0.237,0.016,0.477,0.043,0.717,0.066C222.408,250.786,219.926,238.298,211.458,229.371z M204.06,226.674
		c-4.359,3.161-6.578,8.582-7.619,13.701c-1.254,6.164-1.042,12.67,0.615,18.737c0.968,3.544,2.754,7.965,5.329,11.621
		c0.201-0.2,0.424-0.413,0.666-0.637c-2.523-3.751-4.278-8.216-5.223-11.608c-2.907-10.451-1.845-23.748,6.579-31.398
		C204.637,226.884,204.312,226.49,204.06,226.674z"/>
	<path fill="#DFA768" d="M234.151,271.149c-1.703-2.156-4.306-2.756-6.888-3.268c-1.804-0.357-3.675-0.582-5.53-0.554
		c0.046-0.052,0.081-0.115,0.088-0.196c0.119-1.435,0.2-2.882,0.242-4.337c-0.24-0.023-0.479-0.051-0.717-0.066
		c-0.021,1.497-0.08,2.976-0.178,4.429c-0.007,0.08,0.018,0.139,0.052,0.187c-1.792,0.074-3.563,0.395-5.236,1.081
		c-0.092,0.036-0.051,0.182,0.047,0.149c2.957-0.979,6.103-0.891,9.142-0.364c2.37,0.408,5.327,0.909,7.233,2.482
		c1.318,1.091,2.325,2.821,2.374,4.56c0.071,2.519-2.083,3.353-4.221,3.581c0.885-2.086-0.116-4.693-1.874-6.066
		c-0.153-0.121-0.361,0.094-0.21,0.226c1.769,1.54,2.454,4.48,0.796,6.369c-1.452,1.651-3.581,1.393-5.239,0.359
		c0.574-1.211,0.533-2.716-0.358-4.041c-0.105-0.158-0.349-0.004-0.25,0.159c1.58,2.614-1.027,5.52-3.77,5.122
		c-2.687-0.387-3.87-2.86-4.105-5.303c-0.026-0.275-0.476-0.359-0.515-0.051c-0.08,0.608-0.061,1.217,0.042,1.801
		c-5.035,0.498-9.062-2.912-12.025-7.312c-0.242,0.224-0.465,0.437-0.666,0.637c3.109,4.418,7.373,7.717,12.752,6.992
		c0.005,0,0.006-0.002,0.009-0.002c0.569,2.466,2.652,4.454,5.408,4.277c1.393-0.089,2.489-0.77,3.155-1.726
		c1.458,1.86,4.755,1.252,6.17-0.351c0.172-0.194,0.312-0.401,0.438-0.612c0.048,0.069,0.127,0.122,0.241,0.121
		C235.431,279.422,237.016,274.772,234.151,271.149z"/>
</g>
<g>
	<path fill="#FF7200" d="M148.196,233.528c1.275-3.779,7.559-8.613,10.739-11.021c7.484-5.669,11.548-13.008,14.024-22.064
		l28.243,2.325c-1.512,5.447-0.418,11.558,2.889,16.142c1.97,2.729,4.634,4.891,6.68,7.563c2.488,3.245,4.008,7.224,4.316,11.302
		l-3.507,20.321c-0.626,7.215-5.013,13.86-11.057,17.847c-6.043,3.984-13.582,5.42-20.777,4.627l-16.571-2.101L148.196,233.528z"/>
	<path fill="#D33E00" d="M165.588,227.092c-2.23-1.253-4.099-3.217-5.667-5.369c-0.324,0.263-0.647,0.527-0.986,0.784
		c-0.838,0.634-1.893,1.438-3.013,2.347c1.964,2.656,4.323,5.071,7.099,6.631C165.879,233.091,168.447,228.698,165.588,227.092z
		 M171.932,218.788c-2.004-0.986-3.767-2.506-5.306-4.234c-0.976,1.393-2.057,2.719-3.253,3.979c1.765,1.896,3.763,3.55,5.991,4.649
		C172.29,224.623,174.871,220.237,171.932,218.788z"/>
	<linearGradient id="SVGID_1_" gradientUnits="userSpaceOnUse" x1="185.9873" y1="205.4434" x2="185.1394" y2="226.6403">
		<stop  offset="0" style="stop-color:#E43900"/>
		<stop  offset="1" style="stop-color:#F06B00"/>
	</linearGradient>
	<path fill="url(#SVGID_1_)" d="M168.828,211.2c0,0,16.11,7.914,23.741,7.914c7.63,0,9.892-2.262,9.892-2.262
		s-0.848-3.956-1.695-6.5c-0.847-2.544-30.242-2.826-30.242-2.826L168.828,211.2z"/>
	<path fill="#FFE89F" d="M207.548,262.639c0,0,1.131-15.826,1.131-16.674c0-0.849-1.413-10.176-4.522-16.959
		c-3.108-6.782-5.652-18.088-5.652-18.088s-16.959-16.11-13.566-1.696c3.392,14.415,5.369,42.113-4.24,46.634
		c-9.609,4.523-13,17.522-13,17.522l0.985,5.787l11.064,1.403c4.609,0.508,9.358,0.096,13.769-1.31
		C203.167,274.789,207.548,262.639,207.548,262.639z"/>
	<path fill="#FFFFD5" d="M204.972,261.573c0,0,1.215-14.159,1.23-14.919c0.016-0.761-0.958-9.139-3.357-15.268
		c-2.047-5.23-3.18-17.969-11.59-13.658c-3.821,1.958-2.103,7.157-1.937,10.846c0.314,6.961,1.324,22.84-6.037,26.466
		c-7.892,3.889-10.891,15.478-10.891,15.478l0.691,5.199l8.962,1.445c3.737,0.532,7.604,0.244,11.213-0.939
		C201.185,272.382,204.972,261.573,204.972,261.573z"/>
	<path fill="#FFE89F" d="M176.176,261.509l9.044,16.959c0,0,7.632,2.825,7.632,1.977c0-0.847-0.565-7.913-2.827-9.891
		c-2.261-1.979-7.631-11.022-8.479-11.306c-0.848-0.282-2.543-0.282-2.543-0.282L176.176,261.509z"/>
	<path fill="#CB4100" d="M172.668,200.363c-2.364,7.625-5.699,14.56-11.793,19.914c-4.48,3.938-10.857,7.172-12.802,13.218
		c-0.042,0.133,0.172,0.229,0.23,0.096c1.311-2.99,4.485-5.444,6.936-7.502c2.652-2.226,5.524-4.179,7.948-6.669
		c5.049-5.185,8.33-11.914,10.062-18.896C173.344,200.146,172.784,199.993,172.668,200.363z M207.412,222.192
		c-5.168-5.379-7.75-11.904-5.977-19.36c0.071-0.303-0.384-0.429-0.465-0.129c-1.614,5.823-0.426,12.146,3.248,16.961
		c2.045,2.677,4.699,4.83,6.667,7.572c2.244,3.126,3.592,6.763,4.112,10.562c0.015,0.104,0.187,0.078,0.183-0.024
		C214.86,231.345,211.74,226.697,207.412,222.192z M211.237,258.002c-1.03,6.952-4.641,13.107-10.424,17.172
		c-6.035,4.239-13.786,5.8-21.067,5.324c-0.078-0.004-0.098,0.127-0.02,0.137c7.737,1.046,15.673-0.343,22.085-5.014
		c5.586-4.067,9.729-10.535,10.122-17.526C211.955,257.703,211.297,257.604,211.237,258.002z"/>
</g>
<g>
	<g>
		<path fill="#FF7200" d="M168.083,267.85c0.32-5.517,0.001-10.959-0.944-16.485c-1.195-6.991-3.924-13.826-8.566-19.189
			l-7.486-2.928c-4.672,3.367-7.223,8.993-8.472,14.615c-1.81,8.148-1.18,16.897,2.015,24.627c0.857,2.076,2.035,4.473,3.518,6.714
			C150.876,272.363,157.659,267.403,168.083,267.85z"/>
		<path fill="#FFFFD5" d="M160.591,282.96l0.286-0.431c0.215,1.442,0.903,2.812,2.034,3.721c1.536,1.236,3.883,1.464,5.508,0.349
			c0.421-0.29,0.771-0.67,1.042-1.103l0.078,0.188c1.559,1.972,5.039,1.684,6.498-0.363c0.083-0.117,0.158-0.238,0.229-0.362
			l0.487,0.258c7.634,0.086,5.641-8.447,0.658-10.376c-2.978-1.154-6.607-2.048-10.015-2.139l0.301-0.454
			c0.175-1.473,0.302-2.938,0.387-4.398c-10.424-0.446-17.207,4.514-19.934,7.354C151.111,279.683,155.292,283.541,160.591,282.96z"
			/>
	</g>
	<path fill="#D33E00" d="M154.167,245.542c2.587-2.512,6.383-4.047,10.17-3.929c-0.718-1.712-1.552-3.37-2.511-4.949
		c-4.137,0.432-8.124,2.238-11.257,5.281C148.217,244.229,151.816,247.825,154.167,245.542z M156.496,254.358
		C156.343,254.461,156.344,254.471,156.496,254.358L156.496,254.358z M156.756,254.16c-0.112,0.088-0.197,0.151-0.26,0.198
		c0.05-0.034,0.113-0.074,0.198-0.129c0.328-0.207,0.645-0.429,0.978-0.627c1.091-0.651,2.23-1.19,3.441-1.579
		c2.062-0.664,4.084-0.837,6.047-0.528c-0.007-0.046-0.013-0.088-0.021-0.131c-0.29-1.696-0.671-3.381-1.147-5.039
		c-4.53-0.182-9.107,1.322-12.834,4.237C150.583,252.577,154.206,256.155,156.756,254.16z M167.883,257.01
		c-4.61-0.732-9.505,0.279-13.465,2.935c-2.706,1.815-0.162,6.224,2.568,4.394c3.403-2.282,7.446-2.989,11.197-2.043
		C168.148,260.532,168.049,258.772,167.883,257.01z"/>
	<path fill="#E84900" d="M144.631,268.489c0.857,2.076,2.035,4.473,3.518,6.714c0.731-0.762,1.758-1.677,3.067-2.599
		c-7.058-9.594-8.189-25.869-8.362-29.749c-0.083,0.335-0.163,0.671-0.238,1.007C140.807,252.011,141.437,260.76,144.631,268.489z"
		/>
	<path fill="#FFE89F" d="M181.264,280.162c-2.826,3.393-5.088,0.282-5.088,0.282s-0.565,3.957-2.544,4.239
		c-1.978,0.283-4.522-3.107-4.522-3.107s-0.282,2.825-3.392,2.825c-3.108,0-5.087-5.087-5.087-5.087
		c-3.95-0.971-7.022-3.458-9.415-6.71c-1.309,0.922-2.336,1.837-3.067,2.599c2.961,4.479,7.143,8.338,12.442,7.757l0.286-0.431
		c0.215,1.442,0.903,2.812,2.034,3.721c1.536,1.236,3.883,1.464,5.508,0.349c0.421-0.29,0.771-0.67,1.042-1.103l0.078,0.188
		c1.559,1.972,5.039,1.684,6.498-0.363c0.083-0.117,0.158-0.238,0.229-0.362l0.487,0.258c4.362,0.049,5.576-2.715,4.891-5.453
		C181.518,279.882,181.391,280.011,181.264,280.162z"/>
	<path fill="#CB4100" d="M158.623,232.126c-0.06-0.068-0.154,0.029-0.098,0.1c7.818,9.612,9.819,23.095,9.19,35.375
		c0.248,0.023,0.5,0.062,0.751,0.098C169.302,255.079,167.18,241.849,158.623,232.126z M150.942,228.997
		c-4.712,3.155-7.259,8.769-8.557,14.111c-1.562,6.433-1.595,13.285-0.09,19.731c0.879,3.766,2.585,8.486,5.15,12.433
		c0.22-0.202,0.462-0.419,0.727-0.646c-2.509-4.041-4.179-8.809-5.039-12.411c-2.648-11.105-1.008-25.05,8.159-32.765
		C151.541,229.24,151.214,228.816,150.942,228.997z"/>
	<path fill="#DFA768" d="M180.858,276.957c-1.708-2.332-4.422-3.065-7.12-3.706c-1.883-0.446-3.843-0.755-5.797-0.8
		c0.05-0.052,0.089-0.116,0.1-0.203c0.182-1.502,0.324-3.022,0.425-4.55c-0.251-0.036-0.503-0.074-0.751-0.098
		c-0.081,1.572-0.202,3.126-0.363,4.647c-0.009,0.086,0.015,0.147,0.049,0.199c-1.889,0.006-3.765,0.274-5.553,0.93
		c-0.099,0.037-0.061,0.191,0.044,0.161c3.15-0.912,6.457-0.696,9.633-0.024c2.479,0.523,5.57,1.167,7.514,2.897
		c1.347,1.198,2.336,3.058,2.319,4.888c-0.024,2.651-2.323,3.444-4.581,3.602c1.012-2.162,0.061-4.942-1.734-6.455
		c-0.157-0.133-0.384,0.084-0.229,0.229c1.8,1.689,2.406,4.81,0.586,6.729c-1.593,1.68-3.823,1.325-5.528,0.172
		c0.654-1.252,0.669-2.836-0.219-4.263c-0.105-0.171-0.365-0.02-0.268,0.155c1.558,2.813-1.3,5.765-4.169,5.24
		c-2.812-0.515-3.96-3.16-4.112-5.74c-0.017-0.289-0.485-0.396-0.539-0.072c-0.107,0.637-0.111,1.277-0.026,1.896
		c-5.318,0.324-9.421-3.421-12.367-8.167c-0.265,0.228-0.507,0.444-0.727,0.646c3.099,4.769,7.455,8.406,13.146,7.856
		c0.003-0.001,0.005-0.002,0.008-0.002c0.501,2.615,2.616,4.788,5.523,4.711c1.468-0.039,2.65-0.713,3.387-1.691
		c1.461,2.015,4.954,1.505,6.507-0.125c0.188-0.198,0.345-0.41,0.485-0.628c0.049,0.076,0.129,0.133,0.251,0.138
		C181.879,285.709,183.731,280.882,180.858,276.957z"/>
</g>
<g>
	<g>
		<path fill="#FF7200" d="M218.168,279.387c-0.543-2.285-2.375-4.093-4.459-5.178l-0.46-0.396c3.928-10.197,6.258-28.21,0.56-41.436
			c0,0-1.457,0.02-3.435,0.585c-1.979,0.565-3.392,1.979-3.392,1.979c-0.236,14.794,0.847,30.24,0.605,41.834l-0.608,0.273
			c-0.863,0.592-1.492,1.519-1.722,2.541l-0.238,0.311c-1.196-2.443-4.097-3.91-6.85-3.722l-0.98-0.729
			c-3.89-8.772-6.406-18.154-7.428-27.696c-0.531-4.963-1.15-9.421-4.021-14.173c0,0-2.499-0.619-6.456-0.336
			c-3.956,0.282-5.609,5.367-5.609,5.367c0.797,14.533,6.911,28.717,16.924,39.278l-0.776,1.067
			c-0.747,1.646-1.081,3.539-0.592,5.279c0.49,1.74,1.91,3.27,3.69,3.576c0.896,0.154,1.846-0.063,2.613-0.544l0.054,0.102
			c1.586,0.983,3.79,0.671,5.169-0.548l0.575,0.648c1.548-0.194,2.806-1.255,3.535-2.628l0.246,0.338
			c1.001,1.63,3.411,2.187,5.023,1.159c0.171-0.107,0.325-0.233,0.47-0.37l0.306,0.315c1.079,0.153,2.186-0.137,3.102-0.724
			l1.42-0.331C217.631,284.397,218.709,281.673,218.168,279.387z"/>
		<path fill="#FFFFD5" d="M189.823,278.959c-0.747,1.646-1.081,3.539-0.592,5.279c0.49,1.74,1.91,3.27,3.69,3.576
			c0.896,0.154,1.846-0.063,2.613-0.544l0.054,0.102c1.586,0.983,3.79,0.671,5.169-0.548l0.575,0.648
			c1.548-0.194,2.806-1.255,3.535-2.628l0.246,0.338c1.001,1.63,3.411,2.187,5.023,1.159c0.171-0.107,0.325-0.233,0.47-0.37
			l0.306,0.315c1.079,0.153,2.186-0.137,3.102-0.724l1.42-0.331c2.196-0.835,3.274-3.56,2.733-5.846
			c-0.543-2.285-2.375-4.093-4.459-5.178l-0.46-0.396c0.912-2.369,1.736-5.163,2.396-8.218c-3.675-2.435-6.646-1.261-8.131-0.304
			c0.097,4.099,0.146,7.97,0.073,11.484l-0.608,0.273c-0.863,0.592-1.492,1.519-1.722,2.541l-0.238,0.311
			c-1.196-2.443-4.097-3.91-6.85-3.722l-0.98-0.729c-1.397-3.154-2.617-6.387-3.653-9.678c-5.075-0.773-8.209,2.291-9.399,4.006
			c1.921,2.879,4.081,5.6,6.463,8.112L189.823,278.959z"/>
	</g>
	<path fill="#E84900" d="M184.14,269.774c0.296-0.428,0.715-0.939,1.253-1.452c-5.333-8.416-9.23-17.935-10.794-22.018
		C176.143,254.666,179.418,262.703,184.14,269.774z M207.124,239.181c-0.058-0.213-0.114-0.417-0.172-0.612
		c-0.024,9.774,0.423,19.669,0.601,28.409c-0.013-0.557-0.024-1.119-0.038-1.686c0.479-0.309,1.118-0.64,1.882-0.866
		C209.478,256.445,209.083,246.473,207.124,239.181z"/>
	<path fill="#FFE89F" d="M216.239,281.786c-0.848,2.545-4.664,2.121-4.664,2.121c-1.316,1.097-2.972,0.832-4.264,0.321
		c-0.141-0.664-0.801-4.352,1.508-6.469c0,0,0.502-5.771,0.577-13.334c-0.764,0.227-1.402,0.558-1.882,0.866
		c0.014,0.566,0.025,1.129,0.038,1.686c0.006,0.307,0.011,0.609,0.017,0.914c0.01,0.554,0.02,1.102,0.027,1.645
		c0.002,0.229,0.005,0.454,0.007,0.681c0.007,0.568,0.013,1.13,0.015,1.686c0.001,0.179,0.002,0.358,0.003,0.535
		c0.002,0.653,0.001,1.3-0.003,1.933c-0.001,0.143-0.002,0.281-0.005,0.423c-0.005,0.671-0.014,1.335-0.025,1.983l-0.608,0.273
		c-0.863,0.592-1.492,1.519-1.722,2.541l-0.238,0.311c-0.099-0.204-0.214-0.398-0.338-0.588c0.347,0.86,0.841,2.389,0.723,3.884
		c-0.12-0.085-0.188-0.138-0.188-0.138c-1.483,2.331-3.392,1.06-3.392,1.06c-2.331,2.544-4.875-0.425-4.875-0.425
		c-0.424,2.333-3.604,2.12-3.604,2.12c-4.451-2.12-0.636-8.055-0.636-8.055c-2.645-2.644-5.104-5.946-7.317-9.438
		c-0.538,0.513-0.957,1.024-1.253,1.452c-0.001,0.002-0.003,0.004-0.003,0.005c0.048,0.073,0.102,0.145,0.152,0.22
		c0.433,0.643,0.873,1.28,1.33,1.906c0.002,0.002,0.004,0.005,0.006,0.007c0.505,0.692,1.022,1.373,1.558,2.043
		c0.014,0.018,0.026,0.033,0.042,0.051c0.524,0.659,1.063,1.308,1.614,1.944c0.02,0.021,0.039,0.043,0.059,0.066
		c0.554,0.636,1.121,1.262,1.702,1.875l-0.776,1.067c-0.747,1.646-1.081,3.539-0.592,5.279c0.49,1.74,1.91,3.27,3.69,3.576
		c0.896,0.154,1.846-0.063,2.613-0.544l0.054,0.102c1.586,0.983,3.79,0.671,5.169-0.548l0.575,0.648
		c1.548-0.194,2.806-1.255,3.535-2.628l0.246,0.338c1.001,1.63,3.411,2.187,5.023,1.159c0.171-0.107,0.325-0.233,0.47-0.37
		l0.306,0.315c1.079,0.153,2.186-0.137,3.102-0.724l1.42-0.331c1.82-0.69,2.868-2.683,2.867-4.646
		C217.062,282.194,216.239,281.786,216.239,281.786z"/>
	<path fill="#D33E00" d="M217.009,245.99c-0.161-1.916-0.417-3.816-0.786-5.679c-1.424-0.345-2.882-0.501-4.227-0.457
		c-1.733,0.059-3.445,0.44-5.042,1.108c0.009,1.918,0.034,3.836,0.069,5.747c0.279-0.189,0.562-0.374,0.858-0.544
		C210.674,244.553,214.139,244.629,217.009,245.99z M190.006,252.359c-4.413-0.518-9.168,0.872-12.836,3.529
		c0.594,1.672,1.258,3.317,1.99,4.933c1.018-0.885,2.171-1.588,3.449-2.204c3.038-1.46,5.877-1.436,8.824-0.684
		c-0.404-1.828-0.754-3.669-1.049-5.519C190.258,252.396,190.134,252.373,190.006,252.359z M215.119,251.25
		c-2.669-0.482-5.423-0.161-7.975,0.725c0.04,1.565,0.084,3.117,0.131,4.653c0.06-0.079,0.12-0.158,0.182-0.236
		c-0.054,0.146-0.114,0.284-0.178,0.42c0.006,0.181,0.012,0.36,0.017,0.541c1.977-0.98,4.33-1.485,6.471-1.197
		c1.225,0.167,2.219,0.637,3.14,1.259c0.175-1.834,0.279-3.7,0.303-5.585C216.533,251.576,215.835,251.38,215.119,251.25z
		 M188.858,246.94c0.097,0.032,0.551,0.348,0.864,0.453c-0.002-0.02-0.005-0.041-0.008-0.062c-0.116-0.164-0.225-0.33-0.321-0.498
		c-0.195-0.334,0.026-0.249,0.262-0.053c-0.2-1.768-0.431-3.478-0.79-5.164c-0.847-0.185-1.699-0.306-2.506-0.391
		c-4.412-0.466-8.52,0.956-12.049,3.383c0.29,1.863,0.667,3.712,1.125,5.542C179.249,246.837,183.898,245.293,188.858,246.94z"/>
	<g>
		<path fill="#CB4100" d="M213.89,232.332c-0.049-0.092-0.202-0.028-0.17,0.072c3.43,10.469,3.976,21.691,1.699,32.423
			c0.263,0.113,0.522,0.238,0.779,0.385c0.768-3.695,1.196-7.466,1.343-11.215C217.823,246.832,217.244,238.808,213.89,232.332z
			 M185.989,233.438c-0.202-0.312-0.669-0.04-0.498,0.29c1.784,3.432,2.924,6.832,3.464,10.662c0.49,3.47,0.76,6.955,1.407,10.405
			c0.666,3.557,1.531,7.142,2.646,10.645c0.295,0.002,0.593,0.02,0.894,0.05c-1.199-3.947-2.216-7.941-2.924-12.069
			C189.813,246.627,189.887,239.417,185.989,233.438z M173.583,238.613c0.548,11.112,4.07,21.873,10.099,31.111
			c0.168-0.166,0.355-0.344,0.557-0.527c-6.021-9.08-9.68-19.631-10.47-30.584C173.759,238.496,173.577,238.493,173.583,238.613z
			 M206.762,234.942c-0.481,9.996,0.093,19.979,0.443,29.966c0.207-0.074,0.436-0.147,0.683-0.224
			c-0.061-9.914-0.492-19.834-0.683-29.742C207.199,234.656,206.773,234.657,206.762,234.942z"/>
		<path fill="#DFA768" d="M202.068,285.819c1.123-2.255,0.019-5.315-2.357-6.208c-0.291-0.109-0.422,0.314-0.199,0.473
			c1.697,1.199,2.76,3.463,1.713,5.464c-0.914,1.744-3.344,2.579-5.183,1.907c0.427-0.333,0.786-0.753,1.034-1.25
			c0.938-1.883-0.166-3.761-1.309-5.248c-0.122-0.156-0.389-0.018-0.275,0.16c0.836,1.33,1.826,3.146,0.923,4.701
			c-0.843,1.448-2.779,1.88-4.238,1.271c-3.323-1.387-3.063-5.236-2.257-8.104c0.03-0.11-0.126-0.176-0.182-0.078
			c-1.822,3.196-1.209,8.718,3.184,9.369c1.012,0.149,2.064-0.098,2.901-0.662C198.049,288.735,200.867,288.229,202.068,285.819z
			 M213.832,277.512c-0.193-0.091-0.447,0.167-0.249,0.321c1.542,1.2,2.557,3.002,1.988,5c-0.553,1.941-2.48,3.2-4.438,3.267
			c1.18-1.324,1.327-3.465,0.31-4.935c-0.194-0.279-0.61-0.04-0.458,0.267c0.781,1.577,0.385,3.667-1.218,4.588
			c-1.5,0.861-3.45,0.38-4.553-0.892c0.667-1.149,0.959-2.547,0.742-3.864c-0.089-0.533-0.259-1.036-0.481-1.511
			c0.018-0.025,0.033-0.054,0.042-0.092c0.223-0.915,0.781-1.95,1.535-2.54c0.093-0.071-0.027-0.225-0.124-0.161
			c-0.465,0.303-0.877,0.555-1.216,1.009c-0.261,0.35-0.452,0.733-0.593,1.14c-1.423-2.261-4.292-3.609-6.949-3.253
			c-0.406,0.056-0.426,0.616,0,0.649c2.755,0.217,5.743,1.346,6.684,4.239c0.914,2.812-0.924,5.658-3.558,6.592
			c-0.145,0.05-0.133,0.285,0.037,0.279c1.617-0.062,2.93-0.99,3.75-2.274c1.042,1.784,3.47,2.533,5.291,1.405
			c0.15-0.094,0.288-0.201,0.42-0.313c0.02,0.013,0.041,0.026,0.07,0.029c2.259,0.354,4.569-0.736,5.39-2.97
			C217.07,281.268,215.989,278.511,213.832,277.512z M190.891,277.601c-2.459-2.618-4.681-5.433-6.652-8.403
			c-0.201,0.184-0.389,0.361-0.557,0.527c1.952,2.991,4.165,5.824,6.629,8.458C190.671,278.568,191.254,277.986,190.891,277.601z
			 M197.27,275.43c-1.207-3.312-2.353-6.608-3.368-9.939c-0.301-0.03-0.599-0.048-0.894-0.05c1.107,3.471,2.459,6.859,4.11,10.054
			C197.16,275.576,197.303,275.519,197.27,275.43z M218.693,280.193c-0.176-2.823-2.397-5.081-4.835-6.238
			c-0.073-0.035-0.144-0.037-0.207-0.021c1.093-2.823,1.931-5.748,2.547-8.722c-0.257-0.146-0.517-0.271-0.779-0.385
			c-0.648,3.051-1.522,6.062-2.624,9.007c-0.152,0.405,0.329,0.615,0.628,0.434c0.013,0.072,0.056,0.143,0.139,0.196
			c3.81,2.475,6.396,7.416,1.802,10.649c-0.124,0.088-0.053,0.295,0.107,0.254C217.726,284.785,218.831,282.394,218.693,280.193z
			 M207.738,276.776c0.141-4.028,0.175-8.06,0.149-12.092c-0.247,0.076-0.476,0.149-0.683,0.224c0.138,3.955,0.24,7.91,0.229,11.868
			C207.434,276.973,207.731,276.972,207.738,276.776z"/>
	</g>
</g>
<path d="M251.563,147.366c-1.05-2.337-2.356-4.204-3.774-5.402c-3.279-2.765-6.281-7.47-9.758-12.918
	c-0.466-0.729-0.941-1.474-1.428-2.231c0.037-0.377,0.028-0.768-0.024-1.166c-0.039-0.288-0.205-0.534-0.436-0.682
	c3.276-4.543,1.517-9.485,0.867-10.952c2.472-5.046,3.854-14.771,3.376-23.922c0-0.002,0-0.006-0.001-0.009
	c-0.072-1.406-0.19-2.78-0.349-4.084l-0.025-0.191c-0.043-0.349-0.091-0.694-0.14-1.037l-0.05-0.332
	c-0.047-0.307-0.098-0.611-0.148-0.912l-0.059-0.333c-0.072-0.397-0.147-0.792-0.229-1.178c-0.275-1.311-0.592-2.9-0.938-4.727
	l-0.126-0.662c-0.127-0.671-0.256-1.36-0.385-2.065l-0.131-0.711c-0.132-0.714-0.264-1.444-0.396-2.183
	c-0.178-0.985-0.354-1.988-0.533-2.999c-0.09-0.505-0.177-1.012-0.267-1.52l-0.396-2.287c-0.175-1.016-0.349-2.025-0.518-3.021
	c-0.211-1.246-0.417-2.469-0.615-3.651l-0.459-2.747c-0.293-1.766-0.561-3.387-0.788-4.785l-0.085-0.514
	c-0.465-2.849-0.751-4.647-0.751-4.648c-0.059-0.366-0.343-0.654-0.708-0.719c-0.051-0.009-0.101-0.014-0.152-0.014
	c-0.311,0-0.604,0.168-0.759,0.447c-0.069,0.125-7.092,12.637-20.759,27.034c-0.375,0.396-0.741,0.79-1.103,1.184l-0.075,0.082
	c-0.346,0.379-0.684,0.757-1.015,1.135l-0.101,0.115c-0.326,0.373-0.646,0.743-0.96,1.114l-0.098,0.115
	c-0.314,0.372-0.62,0.742-0.918,1.108l-0.081,0.101c-0.305,0.375-0.601,0.749-0.892,1.12l-0.049,0.061
	c-0.298,0.383-0.589,0.763-0.883,1.153c-5.159,6.864-7.912,12.88-9.195,16.208c-0.207-0.03-0.802-0.113-0.802-0.113
	c-0.276-0.037-0.554-0.072-0.83-0.105l-0.203-0.024c-0.85-0.101-1.712-0.187-2.566-0.257l-0.31-0.024
	c-0.264-0.021-0.525-0.041-0.789-0.058l-0.216-0.013c-0.501-0.031-1.001-0.057-1.503-0.078l-0.334-0.013
	c-0.245-0.009-0.492-0.017-0.739-0.023l-0.408-0.009c-0.454-0.008-0.908-0.013-1.363-0.013c-0.342,0-0.684,0.002-1.024,0.007
	c-0.16,0.002-0.32,0.005-0.479,0.009c-0.225,0.005-0.45,0.01-0.675,0.017c-0.156,0.005-0.524,0.02-0.524,0.02
	c-0.345,0.014-0.688,0.03-1.034,0.048l-0.076,0.004c-0.18,0.01-0.361,0.02-0.541,0.032c-0.205,0.013-0.407,0.028-0.618,0.043
	c-0.193,0.015-0.616,0.049-0.616,0.049c-0.188,0.017-0.375,0.032-0.563,0.048c-0.27,0.025-0.54,0.052-0.811,0.081
	c-0.248,0.026-0.495,0.053-0.742,0.082c-0.227,0.027-0.452,0.054-0.678,0.083c-0.186,0.023-0.369,0.048-0.555,0.074
	c-0.229,0.031-0.457,0.064-0.686,0.098c0,0-0.372,0.054-0.492,0.073c-0.359,0.055-0.716,0.115-1.074,0.178
	c-0.121,0.021-0.477,0.086-0.477,0.086c-0.24,0.044-0.48,0.09-0.719,0.136c-0.163,0.032-0.326,0.064-0.488,0.098
	c-0.293,0.059-0.585,0.122-0.878,0.186c-0.148,0.033-0.296,0.066-0.445,0.1c-0.313,0.072-0.625,0.146-0.937,0.224
	c-0.129,0.032-0.44,0.111-0.44,0.111c-0.258,0.066-0.516,0.134-0.771,0.204c0,0-0.3,0.081-0.404,0.109
	c-0.367,0.103-0.731,0.208-1.096,0.318l-0.319,0.099c-0.278,0.086-0.556,0.175-0.833,0.266c-0.134,0.044-0.268,0.088-0.402,0.133
	c-0.29,0.098-0.578,0.198-0.866,0.301l-0.267,0.095c-0.364,0.132-0.724,0.269-1.085,0.41l-0.336,0.133
	c-0.172,0.069-0.343,0.138-0.514,0.208c-2.392-1.187-5.017-2.863-7.789-4.634c-4.627-2.955-9.873-6.306-16.143-8.845l-0.23-0.092
	c-0.451-0.181-0.906-0.356-1.366-0.526c-0.148-0.056-0.296-0.11-0.444-0.164c-0.414-0.15-0.834-0.296-1.256-0.438l-0.155-0.052
	c-0.104-0.035-0.208-0.071-0.314-0.105c-0.626-0.204-1.189-0.377-1.72-0.53c-1.207-0.349-2.47-0.688-3.752-1.007
	c-1.676-0.417-3.439-0.814-5.241-1.18c-0.247-0.05-0.493-0.1-0.739-0.148c-0.492-0.097-0.982-0.191-1.469-0.282
	c-0.731-0.136-1.455-0.265-2.17-0.388c-0.716-0.122-1.423-0.238-2.12-0.348c-0.464-0.073-0.924-0.143-1.379-0.21
	c-1.296-0.192-2.621-0.373-3.938-0.536c-1.178-0.147-2.377-0.284-3.566-0.408c-0.373-0.039-0.736-0.075-1.09-0.109
	c-0.354-0.035-0.699-0.067-1.035-0.098c-0.503-0.046-0.984-0.088-1.439-0.125l-0.45-0.037c-0.294-0.024-0.578-0.045-0.849-0.066
	c-0.679-0.051-1.286-0.092-1.812-0.125l-0.592-0.036c-1.094-0.064-1.703-0.085-1.728-0.086c-0.01,0-0.02,0-0.029,0
	c-0.243,0-0.477,0.103-0.641,0.282c-0.172,0.187-0.253,0.44-0.222,0.692c0.018,0.146,0.449,3.622,1.893,9.832
	c0.086,0.368,0.174,0.746,0.268,1.135c0.139,0.581,0.287,1.183,0.443,1.806c0.326,1.302,0.678,2.64,1.044,3.977l0.196,0.708
	c0.132,0.477,0.269,0.961,0.411,1.456c0.437,1.529,0.906,3.099,1.392,4.663c0.893,2.871,1.869,5.801,2.9,8.706
	c0.21,0.593,0.435,1.197,0.665,1.79l0.036,0.091c0.207,0.531,0.423,1.065,0.643,1.587l0.133,0.312
	c0.179,0.421,0.362,0.838,0.547,1.25c0.096,0.212,0.192,0.423,0.29,0.633c0.129,0.279,0.26,0.558,0.392,0.832
	c0.163,0.34,0.327,0.678,0.495,1.014l0.186,0.369c0.903,1.787,1.877,3.534,2.895,5.192c0.021,0.037,0.047,0.072,0.074,0.104
	c6.03,9.777,12.786,15.731,14.504,17.164c-1.148,7.686,4.868,13.344,7.862,15.641c0.27,1.612,0.54,2.867,0.722,3.65l0.119,0.496
	c0.045,0.184,0.083,0.331,0.112,0.443l0.028-0.008c-0.002,0.012-0.005,0.024-0.007,0.037l-0.012,0.004l0.006,0.022
	c-0.256,1.188-1.319,6.83-0.191,14c1.153,7.322,4.917,17.641,16.312,25.214l0.029,0.02c0.589,0.391,1.202,0.776,1.822,1.147
	l0.076,0.044c0.303,0.182,0.611,0.359,0.939,0.545c0.317,0.179,0.64,0.355,0.967,0.53l0.117,0.062
	c0.296,0.157,0.596,0.312,0.9,0.465l0.107,0.056c0.328,0.165,0.662,0.327,1.001,0.489l0.142,0.065
	c0.298,0.142,0.598,0.279,0.901,0.415l0.181,0.082c0.342,0.151,0.689,0.303,1.04,0.449l0.152,0.064
	c0.307,0.129,0.618,0.255,0.935,0.382l0.232,0.091c0.359,0.141,0.721,0.281,1.087,0.416l0.147,0.054
	c0.326,0.119,0.655,0.237,0.987,0.353l0.28,0.099c0.377,0.129,0.757,0.257,1.144,0.382l0.106,0.033
	c0.356,0.115,0.717,0.228,1.082,0.337l0.31,0.094c0.4,0.12,0.803,0.237,1.213,0.351c0.584,0.164,1.16,0.321,1.732,0.476l0.56,0.147
	c0.384,0.103,0.767,0.203,1.145,0.301l0.647,0.164c0.346,0.089,0.691,0.175,1.033,0.26l0.661,0.162
	c0.336,0.082,0.67,0.161,1.002,0.24l0.639,0.149c0.346,0.08,0.688,0.156,1.027,0.233l0.576,0.128
	c0.411,0.091,0.819,0.177,1.225,0.262l0.342,0.072c0.515,0.106,1.021,0.208,1.525,0.307l0.463,0.087
	c0.35,0.067,0.699,0.134,1.043,0.195l0.581,0.102c0.303,0.054,0.604,0.105,0.902,0.156c0.201,0.034,0.404,0.066,0.605,0.099
	c0.286,0.047,0.572,0.093,0.857,0.136c0.2,0.031,0.399,0.062,0.6,0.091c0.287,0.043,0.569,0.082,0.852,0.122
	c0,0,0.416,0.058,0.569,0.078c0.311,0.041,0.616,0.079,0.922,0.117l0.467,0.057c0.45,0.054,0.895,0.103,1.335,0.146l0.387,0.037
	c0.318,0.031,0.635,0.062,0.948,0.089c0.126,0.011,0.537,0.044,0.537,0.044c0.258,0.021,0.517,0.041,0.771,0.059
	c0.189,0.013,0.377,0.024,0.573,0.036c0.242,0.017,0.48,0.029,0.718,0.043c0.19,0.01,0.383,0.018,0.572,0.027
	c0.238,0.012,0.473,0.02,0.707,0.027c0,0,0.394,0.016,0.555,0.019c0.241,0.007,0.48,0.011,0.722,0.017c0,0,0.397,0.006,0.516,0.007
	c0.15,0.002,0.302,0.002,0.451,0.002h0.444c0.2-0.002,0.398-0.004,0.596-0.007c0.288-0.003,0.575-0.009,0.859-0.018
	c0.118-0.002,0.52-0.019,0.52-0.019c0.217-0.007,0.434-0.015,0.646-0.024c0.18-0.009,0.357-0.02,0.548-0.029
	c0.2-0.012,0.4-0.024,0.601-0.037c0.183-0.013,0.366-0.026,0.551-0.041c0.193-0.015,0.388-0.031,0.58-0.048
	c0.182-0.017,0.363-0.032,0.543-0.05c0.194-0.02,0.385-0.039,0.574-0.062l0.097-0.01c0.146-0.016,0.291-0.032,0.432-0.048
	c0.168-0.021,0.333-0.042,0.5-0.064l0.102-0.013c0.205-0.028,0.41-0.054,0.611-0.084c0.294-0.042,0.586-0.086,0.875-0.133
	c0.124-0.02,0.606-0.105,0.606-0.105c0.146-0.024,0.293-0.049,0.439-0.076c0.147-0.027,0.294-0.056,0.438-0.084l0.107-0.021
	c0.162-0.031,0.323-0.063,0.482-0.097c0.178-0.037,0.355-0.076,0.532-0.114c0.161-0.035,0.321-0.071,0.481-0.109
	c0.177-0.04,0.353-0.081,0.529-0.123c0.156-0.039,0.313-0.078,0.469-0.117l0.072-0.02c0.149-0.038,0.302-0.077,0.452-0.116
	c0.115-0.031,0.576-0.159,0.576-0.159c0.134-0.038,0.269-0.075,0.403-0.114c0.075-0.021,0.356-0.107,0.356-0.107
	c0.361-0.109,0.719-0.221,1.074-0.338c0,0,0.311-0.101,0.402-0.133c0.156-0.052,0.309-0.104,0.461-0.16c0,0,0.354-0.125,0.473-0.167
	c0.176-0.063,0.351-0.129,0.524-0.195c0.133-0.051,0.265-0.101,0.396-0.15c0.173-0.068,0.347-0.136,0.519-0.206
	c0.13-0.052,0.258-0.105,0.386-0.157c0.174-0.071,0.348-0.146,0.52-0.218l0.452-0.196c0.149-0.065,0.298-0.131,0.445-0.197
	l0.242-0.114c0.409-0.188,0.813-0.381,1.214-0.579l0.21-0.102c0.172-0.087,0.342-0.176,0.512-0.264l0.35-0.18
	c0.177-0.094,0.353-0.188,0.527-0.283l0.32-0.175c0.176-0.096,0.349-0.193,0.523-0.294l0.311-0.177
	c0.178-0.103,0.354-0.204,0.529-0.308l0.281-0.17c0.184-0.109,0.368-0.221,0.548-0.331l0.188-0.117
	c0.649-0.403,1.312-0.834,1.973-1.282l0.194-0.134c0.187-0.127,0.373-0.257,0.56-0.387l0.242-0.169
	c0.182-0.129,0.364-0.261,0.546-0.392l0.241-0.176c0.186-0.133,0.368-0.269,0.553-0.406l0.215-0.161
	c0.194-0.144,0.387-0.29,0.58-0.438l0.115-0.088c0.898-0.691,1.829-1.438,2.767-2.224l0.126-0.106
	c0.206-0.171,0.411-0.347,0.618-0.521l0.147-0.127c0.207-0.178,0.414-0.356,0.623-0.539l0.115-0.099
	c0.217-0.19,0.435-0.382,0.654-0.575c0.006-0.007,0.013-0.012,0.019-0.018c2.189-1.939,4.511-4.13,7.522-7.102
	c0.247-0.244,0.488-0.488,0.727-0.735l0.226-0.238c0.16-0.171,0.319-0.34,0.476-0.51c0.071-0.078,0.256-0.283,0.256-0.283
	c0.145-0.161,0.288-0.323,0.447-0.506c0.076-0.091,0.152-0.181,0.229-0.269c0.144-0.169,0.285-0.339,0.425-0.509l0.22-0.268
	c0.17-0.209,0.337-0.42,0.503-0.635l0.112-0.145c0.202-0.26,0.398-0.524,0.591-0.788l0.158-0.223
	c0.139-0.192,0.274-0.385,0.408-0.578c0.067-0.097,0.133-0.194,0.198-0.29c0.117-0.174,0.233-0.348,0.35-0.523l0.198-0.306
	c0.111-0.176,0.224-0.353,0.333-0.529l0.181-0.294c0.121-0.198,0.238-0.397,0.356-0.6l0.132-0.223
	c0.157-0.273,0.311-0.55,0.463-0.827l0.088-0.167c0.119-0.221,0.236-0.443,0.35-0.664l0.147-0.292
	c0.094-0.185,0.186-0.368,0.272-0.553c0.052-0.105,0.104-0.213,0.153-0.318c0.085-0.179,0.169-0.359,0.251-0.539l0.143-0.314
	c0.084-0.193,0.169-0.387,0.25-0.578l0.116-0.272c0.119-0.281,0.233-0.564,0.354-0.871"/>
<g>
	<linearGradient id="SVGID_2_" gradientUnits="userSpaceOnUse" x1="167.5947" y1="189.9668" x2="170.1733" y2="197.3802">
		<stop  offset="0" style="stop-color:#F33D00"/>
		<stop  offset="1" style="stop-color:#FF7200"/>
	</linearGradient>
	<path fill="url(#SVGID_2_)" d="M138.695,158.426c0,0-11.203-6.555-9.305-16.589c0,0-14.2-11.176-20.98-30.275
		c-6.986-19.68-8.502-32.095-8.502-32.095s17.367,0.594,33.16,5.156c16.026,4.629,26.064,15.834,34.54,17.163
		c8.561,1.342-11.878,41.264-11.878,41.264L138.695,158.426z"/>
	<linearGradient id="SVGID_3_" gradientUnits="userSpaceOnUse" x1="114.3765" y1="89.2422" x2="138.2454" y2="116.1582">
		<stop  offset="0" style="stop-color:#9D2100"/>
		<stop  offset="1" style="stop-color:#E54200"/>
	</linearGradient>
	<path fill="url(#SVGID_3_)" d="M146.336,90.318c-3.948-2.207-8.332-4.269-13.269-5.696c-15.793-4.562-33.16-5.156-33.16-5.156
		s1.516,12.416,8.502,32.095c1.719,4.844,3.901,9.159,6.201,12.907C122.281,119.701,140.482,106.947,146.336,90.318z"/>
	<linearGradient id="SVGID_4_" gradientUnits="userSpaceOnUse" x1="103.6797" y1="116.8027" x2="153.1992" y2="125.6455">
		<stop  offset="0" style="stop-color:#FFFFD5"/>
		<stop  offset="1" style="stop-color:#FF7200"/>
	</linearGradient>
	<path fill="url(#SVGID_4_)" d="M138.923,155.13c0,0-7.161-4.185-6.538-13.948c0,0-12.481-9.381-19.226-28.835
		c-6.955-20.059-8.44-27.39-8.44-27.39s15.741,2.813,26.359,13.096c10.569,10.234,21,15.479,21,15.479s-0.528,10.178-1.567,11.179
		L138.923,155.13z"/>
	<linearGradient id="SVGID_5_" gradientUnits="userSpaceOnUse" x1="99.4863" y1="93.2861" x2="156.7809" y2="125.3848">
		<stop  offset="0" style="stop-color:#FFDA87"/>
		<stop  offset="1" style="stop-color:#E75500"/>
	</linearGradient>
	<path fill="url(#SVGID_5_)" d="M131.079,98.053c-9.438-9.14-22.951-12.384-25.811-12.986l-0.144,0.883
		c0,0,9.523,1.949,16.358,6.437c-12.347,11.79-3.279,25.888-3.279,25.888c-6.123-14.153,1.272-21.524,5.382-24.344
		c1.328,1.098,2.461,2.314,3.265,3.657c4.869,8.123,18.205,19.479,19.278,20.097l5.671-0.185c0.186-2.162,0.279-3.969,0.279-3.969
		S141.648,108.287,131.079,98.053z"/>
	<g>
		<path fill="#FFFFD5" d="M134.101,120.177c-3.605-2.036-8.531-1.7-11.717,0.776c0.441-2.79,2.108-5.398,4.543-7.086
			c2.453-1.701,5.65-2.444,8.687-2.009c-2.379-2.406-6.27-3.357-9.579-2.348c2.506-1.969,6.363-2.242,9.155-0.633
			c-1.511-1.844-3.608-3.25-5.946-3.989c1.531-0.716,3.36-0.316,4.963,0.229c5.966,2.025,11.204,5.881,14.71,10.827l-11.646,19.527
			c-1.975-0.257-4.048,0.678-5.01,2.251c-0.011-2.402,0.697-4.806,2.036-6.883c-2.088,0.282-4.101,0.946-5.888,1.938
			c0.475-3.373,2.917-6.46,6.285-7.911c-3.397-0.746-7.064-0.238-10.025,1.375c1.454-3.181,5.271-5.284,9.019-4.939L134.101,120.177
			z"/>
		<path fill="#FFE89F" d="M137.269,135.359c-2.146-0.199-4.028,0.651-5.209,2.261c0.144,0.033,0.288,0.066,0.432,0.099
			c0.047-2.415,0.72-4.655,2.029-6.765c0.121-0.196-0.097-0.368-0.299-0.338c-2.139,0.32-4.102,0.968-5.957,1.951
			c0.136,0.09,0.271,0.181,0.406,0.272c0.576-3.37,2.83-6.221,6.191-7.724c0.254-0.113,0.15-0.476-0.094-0.532
			c-3.563-0.819-7.167-0.265-10.307,1.353c0.183,0.16,0.366,0.32,0.549,0.479c1.621-3.244,4.913-4.783,8.689-4.809
			c0.359-0.002,0.435-0.55,0.065-0.6c-3.966-0.533-7.833,1.808-9.436,5.062c-0.162,0.33,0.209,0.656,0.55,0.479
			c3.004-1.562,6.313-1.968,9.743-1.396c-0.031-0.177-0.063-0.355-0.095-0.534c-3.462,1.63-5.799,4.58-6.377,8.1
			c-0.035,0.211,0.194,0.384,0.404,0.271c1.815-0.972,3.729-1.602,5.82-1.924c-0.1-0.112-0.2-0.225-0.299-0.337
			c-1.332,2.177-2.01,4.515-2.042,6.999c-0.003,0.219,0.322,0.269,0.433,0.1c1.038-1.594,2.775-2.379,4.811-2.242
			C137.435,135.596,137.422,135.374,137.269,135.359L137.269,135.359z"/>
		<path fill="#FFE89F" d="M134.152,120.089c-3.82-2.116-8.46-1.835-11.928,0.63c0.149,0.1,0.297,0.2,0.446,0.3
			c1.148-5.653,6.594-9.528,12.844-8.769c0.414,0.05,0.708-0.387,0.393-0.687c-2.617-2.498-6.436-3.409-9.984-2.387
			c0.104,0.21,0.208,0.421,0.313,0.631c2.542-1.93,5.953-2.118,8.81-0.674c0.249,0.125,0.607-0.179,0.403-0.41
			c-1.662-1.891-3.693-3.244-6.149-4.054c0.005,0.145,0.012,0.29,0.017,0.434c3.56-1.354,8.388,1.488,11.29,3.341
			c3.224,2.059,5.917,4.62,8.183,7.578c0.111,0.145,0.365,0.002,0.26-0.152c-2.215-3.245-5.197-6.019-8.657-8.123
			c-2.95-1.793-7.624-4.449-11.219-3.073c-0.23,0.088-0.199,0.359,0.017,0.434c2.288,0.795,4.231,2.113,5.742,3.926
			c0.134-0.137,0.269-0.274,0.403-0.411c-3.044-1.692-6.702-1.371-9.5,0.593c-0.334,0.234-0.102,0.739,0.313,0.63
			c3.315-0.866,6.748-0.004,9.174,2.308c0.13-0.229,0.261-0.458,0.393-0.687c-6.612-0.766-12.618,3.283-13.617,9.422
			c-0.035,0.21,0.23,0.463,0.445,0.299c3.219-2.443,7.811-2.799,11.506-0.921C134.172,120.329,134.271,120.155,134.152,120.089
			L134.152,120.089z"/>
	</g>
</g>
<g>
	
		<linearGradient id="SVGID_6_" gradientUnits="userSpaceOnUse" x1="245.6826" y1="160.9692" x2="248.2502" y2="168.351" gradientTransform="matrix(1 0.0065 -0.0065 1 -0.188 0.8003)">
		<stop  offset="0" style="stop-color:#F33D00"/>
		<stop  offset="1" style="stop-color:#FF7200"/>
	</linearGradient>
	<path fill="url(#SVGID_6_)" d="M194.911,99.53c0,0,3.025-12.66,16.339-26.687c13.914-14.656,20.889-27.21,20.889-27.21
		s4.069,25.516,6.397,36.563c2.228,10.578,0.804,25.557-2.494,31.806c0,0,3.722,6.756-2.076,12.114
		c-5.694,5.264-19.712,1.828-19.712,1.828L194.911,99.53z"/>
	
		<linearGradient id="SVGID_7_" gradientUnits="userSpaceOnUse" x1="230.5303" y1="57.791" x2="221.3653" y2="88.5207" gradientTransform="matrix(1 0.0065 -0.0065 1 -0.188 0.8003)">
		<stop  offset="0" style="stop-color:#9D2100"/>
		<stop  offset="1" style="stop-color:#E54200"/>
	</linearGradient>
	<path fill="url(#SVGID_7_)" d="M232.139,45.633c0,0-6.975,12.554-20.889,27.21c-3.117,3.286-5.671,6.497-7.752,9.484
		c6.52,4.205,20.827,11.989,36.108,10.604c-0.043-3.741-0.38-7.457-1.07-10.735C236.208,71.149,232.139,45.633,232.139,45.633z"/>
	
		<linearGradient id="SVGID_8_" gradientUnits="userSpaceOnUse" x1="244.5693" y1="65.1597" x2="216.5213" y2="113.8212" gradientTransform="matrix(1 0.0065 -0.0065 1 -0.188 0.8003)">
		<stop  offset="0" style="stop-color:#FFFFD5"/>
		<stop  offset="1" style="stop-color:#FF7200"/>
	</linearGradient>
	<path fill="url(#SVGID_8_)" d="M209.816,102.328c0,0,1.897-12.483,8.146-22.033c6.455-9.865,12.764-25.614,12.764-25.614
		s2.045,13.183,3.816,18.86c1.733,5.552,5.262,29.316-1.153,39.833c0,0,1.077,7.042-1.522,10.172
		c-2.571,3.097-10.36,0.194-10.36,0.194L209.816,102.328z"/>
	
		<linearGradient id="SVGID_9_" gradientUnits="userSpaceOnUse" x1="225.5205" y1="52.3662" x2="221.1187" y2="116.3614" gradientTransform="matrix(1 0.0065 -0.0065 1 -0.188 0.8003)">
		<stop  offset="0" style="stop-color:#FFDA87"/>
		<stop  offset="1" style="stop-color:#E75500"/>
	</linearGradient>
	<path fill="url(#SVGID_9_)" d="M220.853,81.052c1.177-1.493,2.776-4.458,4.377-8.101c10.56,5.659,7.941,17.711,7.941,17.711
		c3.295-8.974-1.583-16.895-6.205-21.939c1.631-4.25,3.099-8.95,3.901-13.148c-0.091-0.568-0.141-0.893-0.141-0.893
		s-6.309,15.749-12.764,25.614c-6.249,9.549-8.146,22.033-8.146,22.033l1.962,3.591l3.751-12.724
		C215.529,93.196,216.954,85.996,220.853,81.052z"/>
	<g>
		<path fill="#FFFFD5" d="M223.304,102.743c2.328-1.56,5.292-2.435,8.113-2.357c-2.067,0.999-3.792,2.536-4.812,4.255
			c2.308-0.926,5.046-0.782,6.859,0.388c-3.231,0.908-6.011,3.063-7.247,5.535c1.76-0.21,3.549,0.044,5.025,0.719
			c-2.817,1.017-5.063,3.044-5.912,5.265l-15.945-12.601c0.928-5.536,3.387-11.393,7.308-17.013
			c-0.352,2.208-0.831,4.369-1.431,6.464c1.5-3.047,4.014-5.914,7.163-8.076c-2.406,3.859-4.034,7.818-4.836,11.628
			c2.482-3.023,7.024-4.789,10.827-4.08c-2.813,3.018-4.918,6.297-6.204,9.567L223.304,102.743z"/>
		<path fill="#FFE89F" d="M209.47,103.968c1.138-5.901,3.755-11.62,7.431-16.916c-0.152-0.042-0.304-0.083-0.456-0.125
			c-0.364,2.173-0.837,4.304-1.429,6.402c-0.068,0.243,0.329,0.445,0.466,0.191c1.687-3.133,4.059-5.82,7.148-7.993
			c-0.152-0.118-0.307-0.237-0.46-0.355c-2.292,3.731-3.971,7.642-4.86,11.701c-0.063,0.295,0.313,0.461,0.526,0.214
			c2.473-2.854,6.53-4.582,10.482-3.955c-0.051-0.135-0.102-0.271-0.152-0.407c-2.666,2.853-5.131,6.116-6.273,9.626
			c-0.122,0.38,0.467,0.524,0.639,0.171c1.652-3.379,3.474-6.544,6.136-9.508c0.117-0.13,0.029-0.379-0.149-0.407
			c-4.247-0.671-8.519,1.125-11.175,4.203c0.176,0.072,0.353,0.143,0.526,0.214c0.89-4.014,2.55-7.858,4.813-11.554
			c0.178-0.291-0.183-0.553-0.462-0.355c-3.115,2.208-5.639,4.976-7.205,8.214c0.165,0.046,0.33,0.091,0.495,0.136
			c0.595-2.139,1.071-4.312,1.429-6.526c0.036-0.231-0.332-0.307-0.456-0.126c-3.675,5.389-6.23,11.131-7.186,17.132
			C209.284,104.031,209.453,104.055,209.47,103.968L209.47,103.968z"/>
		<path fill="#FFE89F" d="M223.35,102.819c2.426-1.492,5.157-2.266,8.05-2.219c-0.029-0.134-0.06-0.269-0.09-0.403
			c-2.093,1.039-3.743,2.482-4.924,4.323c-0.141,0.218,0.095,0.41,0.337,0.324c2.247-0.796,4.625-0.743,6.58,0.402
			c0.035-0.155,0.07-0.309,0.107-0.464c-3.268,0.985-5.988,2.949-7.464,5.709c-0.074,0.141,0.08,0.339,0.253,0.323
			c1.744-0.159,3.333,0.036,4.878,0.689c0.012-0.149,0.023-0.299,0.036-0.448c-2.729,0.99-5.204,2.925-6.061,5.419
			c-0.109,0.323,0.405,0.444,0.557,0.143c1.176-2.342,3.078-4.008,5.766-5.11c0.19-0.079,0.229-0.368,0.035-0.447
			c-1.646-0.674-3.315-0.914-5.175-0.749c0.085,0.107,0.168,0.214,0.254,0.322c1.388-2.576,3.991-4.431,7.032-5.358
			c0.231-0.07,0.317-0.34,0.106-0.464c-2.135-1.244-4.716-1.279-7.142-0.373c0.111,0.107,0.224,0.216,0.337,0.324
			c1.104-1.791,2.713-3.15,4.7-4.188c0.202-0.107,0.155-0.405-0.09-0.404c-2.986,0.019-5.756,0.891-8.195,2.51
			C223.149,102.74,223.256,102.877,223.35,102.819L223.35,102.819z"/>
	</g>
</g>
<g>
	<linearGradient id="SVGID_10_" gradientUnits="userSpaceOnUse" x1="153.6567" y1="94.7974" x2="184.7822" y2="148.0564">
		<stop  offset="0" style="stop-color:#F33D00"/>
		<stop  offset="1" style="stop-color:#FF7200"/>
	</linearGradient>
	<path fill="url(#SVGID_10_)" d="M138.173,162.456c0,0-8.53-29.972,9.683-51.645c18.215-21.673,59.254-17.061,72.857-3.229
		c13.604,13.834,19.135,28.821,26.514,35.045c7.379,6.226,11.066,31.587-5.533,47.957c-18.842,18.579-32.509,28.358-72.165,17.291
		C129.874,196.811,138.173,162.456,138.173,162.456z"/>
	<path fill="#FFFFD5" d="M169.53,207.876c39.656,11.067,53.323,1.288,72.165-17.291c13.975-13.781,13.569-33.934,8.691-43.678
		c-1.417-1.137-3.114-1.604-5.116-0.82c-7.954,3.113-16.255,17.983-16.255,17.983s-27.668,8.992-31.817,12.104
		c-4.149,3.112-13.142-0.691-13.142-0.691s-2.075,1.039-11.758-1.038c-9.684-2.075-23.517-1.729-28.705,2.422
		c-3.476,2.779-2.295,8.658-1.137,12.241C146.869,196.602,154.96,203.812,169.53,207.876z"/>
	<linearGradient id="SVGID_11_" gradientUnits="userSpaceOnUse" x1="127.5313" y1="113.332" x2="149.319" y2="182.4995">
		<stop  offset="0" style="stop-color:#E43900"/>
		<stop  offset="1" style="stop-color:#F06B00"/>
	</linearGradient>
	<path fill="url(#SVGID_11_)" d="M138.173,162.456c0,0-3.314,13.742,4.28,26.644c-1.157-3.582-2.333-9.456,1.14-12.232
		c0.028-0.024,0.061-0.046,0.09-0.068c-0.742-3.382-0.75-6.019-0.437-7.194c1.383-5.189-1.038-9.685-1.038-9.685
		c-4.79-13.241-2.693-30.843-1.752-36.912C132.423,142.239,138.173,162.456,138.173,162.456z"/>
	<path fill="#FFE89F" d="M193.394,209.376c-36.103-0.803-47.181-21.042-49.71-32.577c-0.029,0.022-0.062,0.044-0.09,0.068
		c-3.473,2.776-2.296,8.65-1.14,12.232c0.021,0.036,0.042,0.072,0.063,0.107c0.063,0.108,0.129,0.215,0.196,0.324
		c0.069,0.112,0.138,0.229,0.209,0.342c0.073,0.117,0.149,0.234,0.225,0.352c0.066,0.104,0.131,0.206,0.199,0.311
		c0.094,0.143,0.191,0.284,0.288,0.427c0.053,0.077,0.104,0.155,0.158,0.234c0.153,0.222,0.309,0.442,0.47,0.664
		c0.024,0.032,0.049,0.066,0.074,0.1c0.462,0.63,0.954,1.256,1.476,1.874c0.049,0.06,0.099,0.118,0.149,0.178
		c0.157,0.185,0.317,0.366,0.48,0.55c0.065,0.072,0.131,0.145,0.196,0.217c0.353,0.391,0.717,0.776,1.097,1.159
		c0.008,0.008,0.016,0.018,0.024,0.026c0.158,0.158,0.32,0.315,0.482,0.473c0.105,0.102,0.211,0.205,0.319,0.307
		c0.156,0.148,0.314,0.297,0.476,0.443c0.126,0.117,0.257,0.232,0.386,0.348c0.239,0.212,0.483,0.423,0.731,0.633
		c0.17,0.146,0.339,0.288,0.514,0.43c0.151,0.122,0.304,0.245,0.458,0.366c0.166,0.131,0.335,0.263,0.505,0.393
		c0.151,0.114,0.3,0.229,0.454,0.345c0.236,0.175,0.479,0.35,0.722,0.522c0.172,0.122,0.346,0.244,0.521,0.364
		c0.24,0.166,0.481,0.328,0.728,0.491c0.147,0.097,0.296,0.191,0.445,0.287c0.231,0.149,0.467,0.296,0.705,0.442
		c0.139,0.086,0.276,0.172,0.417,0.256c0.362,0.217,0.73,0.431,1.105,0.644c0.108,0.061,0.22,0.12,0.33,0.181
		c0.296,0.162,0.595,0.325,0.9,0.484c0.145,0.076,0.292,0.152,0.439,0.227c0.309,0.158,0.623,0.314,0.939,0.469
		c0.117,0.057,0.232,0.115,0.351,0.171c0.425,0.204,0.86,0.403,1.301,0.6c0.121,0.054,0.244,0.105,0.367,0.16
		c0.345,0.148,0.694,0.297,1.048,0.443c0.149,0.06,0.298,0.121,0.45,0.181c0.4,0.162,0.807,0.32,1.22,0.475
		c0.08,0.03,0.158,0.063,0.239,0.093c0.491,0.183,0.992,0.358,1.5,0.533c0.14,0.048,0.283,0.095,0.424,0.141
		c0.392,0.132,0.792,0.261,1.195,0.388c0.154,0.049,0.308,0.098,0.464,0.145c0.538,0.164,1.082,0.327,1.638,0.48
		c34.247,9.558,49.113,3.566,64.665-10.213C224.517,204.753,211.162,209.77,193.394,209.376z"/>
	<linearGradient id="SVGID_12_" gradientUnits="userSpaceOnUse" x1="134.7021" y1="149.7759" x2="166.3456" y2="152.8884">
		<stop  offset="0" style="stop-color:#BC2A00"/>
		<stop  offset="1" style="stop-color:#F25900"/>
	</linearGradient>
	<path fill="url(#SVGID_12_)" d="M142.247,153.207c-2.031-0.258-4.047-1.03-5.871-2.124c0.132,1.782,0.317,3.407,0.52,4.838
		c1.717,0.711,3.519,1.204,5.352,1.436C144.89,157.693,144.865,153.539,142.247,153.207z M132.317,132.114
		C132.167,131.786,132.464,132.465,132.317,132.114L132.317,132.114z M142.28,141.869c-2.166-0.706-4.086-1.928-5.701-3.49
		c-0.19,1.718-0.305,3.394-0.36,5.01c1.529,1.057,3.192,1.907,4.958,2.482C143.722,146.7,144.813,142.695,142.28,141.869z
		 M142.247,163.582c-1.42,0.127-2.851,0.039-4.253-0.226c-0.153,0.86-0.363,2.302-0.471,4.159c1.572,0.272,3.163,0.355,4.725,0.216
		C144.887,167.497,144.911,163.344,142.247,163.582z"/>
	<linearGradient id="SVGID_13_" gradientUnits="userSpaceOnUse" x1="170.001" y1="96.8491" x2="181.7597" y2="130.7421">
		<stop  offset="0" style="stop-color:#BC2A00"/>
		<stop  offset="1" style="stop-color:#F25900"/>
	</linearGradient>
	<path fill="url(#SVGID_13_)" d="M160.954,103.862c3.437-1.609,7.007-2.845,10.658-3.766c0.602,0.123,1.198,0.264,1.785,0.426
		c-6.743,2.126-12.996,5.773-17.927,10.743c-0.188,0.19,0.062,0.542,0.295,0.382c5.803-3.979,12.311-7.179,19.065-9.134
		c0.774-0.224,1.556-0.427,2.345-0.614c1.039,0.48,2.029,1.034,2.973,1.65c-0.042,0.012-0.084,0.022-0.126,0.034
		c-8.368,2.415-16.057,7.828-21.634,14.427c-0.2,0.237,0.11,0.559,0.344,0.344c6.417-5.9,14.069-9.445,22.418-11.654
		c0.765-0.202,1.536-0.383,2.313-0.553c0.872,0.809,1.695,1.679,2.468,2.604c2.763,3.312,3.812,7.159,5.493,11.018
		c1.188,2.724,5.339,1.196,5.347-1.448c0.014-4.805-2.816-9.633-5.788-13.333c0.867-0.08,1.734-0.147,2.598-0.193
		c1.991-0.104,3.981-0.078,5.969,0.062c2.064,0.145,4.258,0.12,6.283,0.464c0.472,0.08,0.651-0.55,0.198-0.719
		c-2.176-0.81-4.107-1.661-6.427-2.062c-2.16-0.374-4.354-0.594-6.544-0.669c-1.624-0.057-3.229-0.005-4.822,0.14
		c-0.563-0.526-1.146-1.033-1.753-1.513c3.131-0.224,6.277-0.222,9.364-0.032c0.688,0.042,0.846-1.068,0.164-1.21
		c-4.037-0.844-8.215-1.076-12.362-0.741c-0.181-0.112-0.362-0.221-0.545-0.328c5.638-0.501,11.341-0.432,16.938,0.02
		c1.383,0.112,2.78,0.249,4.184,0.39c-18.04-5.386-43.183-3.472-56.369,12.216c-1.708,2.034-3.182,4.139-4.448,6.287
		C148.329,111.607,154.196,107.025,160.954,103.862z"/>
	<linearGradient id="SVGID_14_" gradientUnits="userSpaceOnUse" x1="197.2861" y1="159.0801" x2="191.7527" y2="114.1206">
		<stop  offset="0" style="stop-color:#FFFFD5"/>
		<stop  offset="1" style="stop-color:#FF7200"/>
	</linearGradient>
	<path fill="url(#SVGID_14_)" d="M171.721,119.572c-23.979,11.989-16.831,45.42-16.831,45.42l32.739-2.998
		C191.318,114.038,171.721,119.572,171.721,119.572z M209.531,112.886c-10.604,4.842,3.229,41.501,3.229,41.501l25.821-11.067
		C234.895,121.187,220.138,108.044,209.531,112.886z"/>
	<g>
		<path fill="#CB4100" d="M212.645,153.465c0,0-5.534-20.75,4.611-29.973c10.144-9.223,21.903,9.913,22.363,21.672L212.645,153.465z
			"/>
		<path fill="#DC4E00" d="M229.345,124.708c1.55,6.98-0.24,13.283-4.197,14.34c-3.941,1.053-8.615-3.48-10.765-10.259
			c-4.772,9.57-0.998,23.732-0.998,23.732l25.405-7.817C238.533,138.145,234.543,129.148,229.345,124.708z"/>
		<path fill="#FFA557" d="M225.147,139.047c3.957-1.057,5.747-7.36,4.197-14.34c-3.574-3.056-7.722-3.955-11.616-0.414
			c-1.419,1.292-2.512,2.824-3.346,4.495C216.532,135.567,221.206,140.1,225.147,139.047z"/>
		<g>
			<path d="M225.068,121.175c0.873,2.193,0.009,4.396-1.703,5.877c-0.366,0.317,0.124,0.967,0.525,0.679
				c2.105-1.512,2.535-4.411,1.385-6.644C225.218,120.975,225.02,121.053,225.068,121.175L225.068,121.175z"/>
			<path d="M235.55,125.763c0.228,2.937-3.354,3.735-5.51,4.225c-0.577,0.131-0.328,0.99,0.243,0.881
				c2.686-0.516,5.872-1.823,5.434-5.106C235.702,125.66,235.541,125.654,235.55,125.763L235.55,125.763z"/>
			<path d="M240.445,135.905c-0.638,2.213-3.378,1.349-4.924,1.087c-0.465-0.079-0.633,0.533-0.193,0.703
				c1.928,0.747,4.733,0.666,5.237-1.757C240.581,135.86,240.467,135.827,240.445,135.905L240.445,135.905z"/>
			<path d="M242.904,145.173c-2.805,1.839-5.459-0.941-7.343-2.705c-0.336-0.313-0.788,0.155-0.497,0.497
				c1.958,2.297,5.088,4.52,7.925,2.318C243.052,145.234,242.971,145.129,242.904,145.173L242.904,145.173z"/>
			<g>
				<path d="M218.178,156c0,0,13.604,6.687,21.902-9.914c0,0-0.921-14.756-11.759-19.828c-10.836-5.072-19.136,10.375-15.447,25.131
					L218.178,156z"/>
				<path fill="#FFFFFF" d="M238.511,146.07c-1.524-6.665-4.607-17.515-13.107-17.799c-11.89-0.396-13.192,17.898-12.366,26.045
					c0,0,8.138,4.681,16.207,1.454C237.314,152.542,238.511,146.07,238.511,146.07z"/>
				<g>
					
						<linearGradient id="SVGID_15_" gradientUnits="userSpaceOnUse" x1="165.2188" y1="181.0439" x2="166.326" y2="190.123" gradientTransform="matrix(0.9915 -0.1299 0.1299 0.9915 36.1904 -17.2754)">
						<stop  offset="0" style="stop-color:#CC6F00"/>
						<stop  offset="0.987" style="stop-color:#FFD503"/>
					</linearGradient>
					<path fill="url(#SVGID_15_)" d="M233.842,141.104c0.89,6.798-2.816,12.89-8.278,13.605
						c-5.463,0.716-10.614-4.215-11.504-11.013c-0.892-6.798,2.814-12.889,8.277-13.605
						C227.8,129.375,232.95,134.306,233.842,141.104z"/>
					
						<linearGradient id="SVGID_16_" gradientUnits="userSpaceOnUse" x1="165.2334" y1="181.167" x2="166.2591" y2="189.578" gradientTransform="matrix(0.9915 -0.1299 0.1299 0.9915 36.1904 -17.2754)">
						<stop  offset="0" style="stop-color:#FF9B00"/>
						<stop  offset="0.987" style="stop-color:#FFF633"/>
					</linearGradient>
					<path fill="url(#SVGID_16_)" d="M233.112,141.2c0.825,6.297-2.607,11.94-7.668,12.604c-5.061,0.663-9.832-3.905-10.657-10.203
						s2.608-11.941,7.669-12.604C227.515,130.334,232.287,134.902,233.112,141.2z"/>
					<ellipse transform="matrix(0.9915 -0.1299 0.1299 0.9915 -16.6056 30.309)" cx="223.95" cy="142.401" rx="7.712" ry="9.598"/>
					
						<linearGradient id="SVGID_17_" gradientUnits="userSpaceOnUse" x1="161.6504" y1="177.5957" x2="166.9429" y2="184.4319" gradientTransform="matrix(0.9915 -0.1299 0.1299 0.9915 36.1904 -17.2754)">
						<stop  offset="0" style="stop-color:#FFFFFF"/>
						<stop  offset="0.987" style="stop-color:#41D8C5"/>
					</linearGradient>
					<path fill="url(#SVGID_17_)" d="M217.545,145.331c-1.261-2.792-0.807-6.931,1.194-9.161c2.896-3.229,7.801-3.201,8.919,0.508
						c1.118,3.708-2.38,1.149-3.77,5.019c-0.703,1.959-4.262,8.026-6.293,3.741C217.578,145.403,217.563,145.367,217.545,145.331z"
						/>
					
						<linearGradient id="SVGID_18_" gradientUnits="userSpaceOnUse" x1="171.5322" y1="190.8389" x2="165.8758" y2="183.4421" gradientTransform="matrix(0.9915 -0.1299 0.1299 0.9915 36.1904 -17.2754)">
						<stop  offset="0" style="stop-color:#FFFFFF"/>
						<stop  offset="0.987" style="stop-color:#41D8C5"/>
					</linearGradient>
					<path fill="url(#SVGID_18_)" d="M228.93,150.057c-0.815-0.267-1.355-1.529-1.815-2.246c-0.794-1.237,0.7-3.108,2.562-2.179
						c1.418,0.709,1.582,3.742,0.001,4.387C229.403,150.13,229.157,150.132,228.93,150.057z"/>
				</g>
				<path d="M213.062,154.316c-0.289-2.976-0.091-6.144,0.226-9.109c0.381-3.572,1.139-7.233,2.802-10.445
					c1.522-2.94,3.931-5.362,7.304-5.928c4.302-0.722,7.866,1.657,10.167,5.117c2.448,3.683,3.618,7.955,4.762,12.172
					c0.066,0.248,0.429,0.142,0.381-0.104c-1.35-7.093-4.436-17.915-13.299-18.194c-7.923-0.249-11.127,8.005-12.176,14.553
					c-0.643,4.006-0.605,7.921-0.215,11.939C213.018,154.348,213.065,154.348,213.062,154.316L213.062,154.316z"/>
			</g>
		</g>
	</g>
	<g>
		<path fill="#CB4100" d="M155.004,165.222c0,0-3.688-14.294,7.608-26.283c10.832-11.495,22.826-2.306,23.748,14.294
			L155.004,165.222z"/>
		<path fill="#DC4E00" d="M175.306,135.19c0.334,0.847,0.629,1.737,0.877,2.664c1.971,7.381,0.202,14.264-3.95,15.373
			c-4.152,1.108-9.116-3.977-11.087-11.358c-0.004-0.013-0.006-0.027-0.009-0.039c-8.255,10.741-5.229,22.47-5.229,22.47
			l29.515-11.285C184.908,143.762,180.739,136.955,175.306,135.19z"/>
		<path fill="#FFA557" d="M172.234,153.227c4.152-1.109,5.92-7.992,3.95-15.373c-0.248-0.927-0.543-1.817-0.877-2.664
			c-3.741-1.215-8.079-0.042-12.237,4.371c-0.705,0.748-1.346,1.507-1.932,2.27c0.003,0.012,0.005,0.026,0.009,0.039
			C163.118,149.25,168.082,154.335,172.234,153.227z"/>
		<g>
			<path d="M150.145,163.849c2.954,2.366,7.684,2.423,10.184-0.674c0.327-0.406-0.195-0.964-0.585-0.584
				c-2.556,2.487-6.468,3.296-9.5,1.131C150.168,163.668,150.073,163.791,150.145,163.849L150.145,163.849z"/>
			<path d="M151.532,156.007c1.756,2.503,5.41,3.316,7.702,0.997c0.326-0.33-0.115-0.961-0.513-0.667
				c-2.083,1.541-5.322,1.71-7.133-0.373C151.562,155.934,151.509,155.974,151.532,156.007L151.532,156.007z"/>
			<path d="M156.29,144.957c1.246,2.085,3.631,4.436,6.178,2.728c0.475-0.319,0.066-1-0.445-0.761
				c-2.167,1.015-4.272-0.345-5.588-2.051C156.371,144.791,156.233,144.861,156.29,144.957L156.29,144.957z"/>
			<path d="M163.943,137.329c0.616,1.324,1.2,2.747,2.445,3.609c0.995,0.689,2.373,0.986,3.432,0.289
				c0.345-0.228,0.132-0.782-0.286-0.677c-2.615,0.661-4.212-1.266-5.432-3.314C164.041,137.134,163.894,137.224,163.943,137.329
				L163.943,137.329z"/>
			<g>
				<path d="M182.442,168.22c0,0-12.683,8.992-27.669-2.998c0,0-0.23-11.065,8.07-21.441c8.3-10.376,23.517-6.917,24.67,17.292
					l-3.689,2.767L182.442,168.22z"/>
				<path fill="#FFFFFF" d="M187.282,162.687c-0.238-5.172-1.039-8.458-3.146-13.188c-1.336-2.998-3.232-6.023-6.264-7.28
					c-2.828-1.173-6.13-0.547-8.856,0.844c-3.862,1.97-6.868,5.37-8.928,9.184c-2.06,3.815-3.237,8.044-4.097,12.294
					c0,0,6.39,6.446,17.457,5.984C184.516,170.064,187.282,162.687,187.282,162.687z"/>
				<g>
					<linearGradient id="SVGID_19_" gradientUnits="userSpaceOnUse" x1="171.1855" y1="154.7637" x2="172.3384" y2="164.2168">
						<stop  offset="0" style="stop-color:#CC6F00"/>
						<stop  offset="0.987" style="stop-color:#FFD503"/>
					</linearGradient>
					<ellipse fill="url(#SVGID_19_)" cx="171.397" cy="156.504" rx="11.004" ry="12.917"/>
					<linearGradient id="SVGID_20_" gradientUnits="userSpaceOnUse" x1="171.2007" y1="154.8926" x2="172.2686" y2="163.6494">
						<stop  offset="0" style="stop-color:#FF9B00"/>
						<stop  offset="0.987" style="stop-color:#FFF633"/>
					</linearGradient>
					<ellipse fill="url(#SVGID_20_)" cx="171.397" cy="156.504" rx="10.193" ry="11.967"/>
					<ellipse cx="171.397" cy="156.504" rx="8.507" ry="9.988"/>
					<linearGradient id="SVGID_21_" gradientUnits="userSpaceOnUse" x1="167.334" y1="151.0967" x2="172.8681" y2="158.2449">
						<stop  offset="0" style="stop-color:#FFFFFF"/>
						<stop  offset="0.987" style="stop-color:#41D8C5"/>
					</linearGradient>
					<path fill="url(#SVGID_21_)" d="M163.973,158.661c-0.98-3.049,0.11-7.26,2.617-9.289c3.631-2.94,8.992-2.248,9.684,1.729
						c0.691,3.977-2.767,0.865-4.842,4.669c-1.051,1.927-5.812,7.705-7.42,3.009C163.999,158.741,163.985,158.701,163.973,158.661z"
						/>
					<linearGradient id="SVGID_22_" gradientUnits="userSpaceOnUse" x1="178.0645" y1="164.9907" x2="172.069" y2="157.1505">
						<stop  offset="0" style="stop-color:#FFFFFF"/>
						<stop  offset="0.987" style="stop-color:#41D8C5"/>
					</linearGradient>
					<path fill="url(#SVGID_22_)" d="M175.748,165.078c-0.855-0.387-1.264-1.762-1.665-2.563c-0.692-1.384,1.21-3.113,3.112-1.902
						c1.45,0.923,1.195,4.074-0.627,4.525C176.255,165.216,175.984,165.185,175.748,165.078z"/>
				</g>
				<path d="M156.047,164.557c1.869-8.8,6.502-20.04,16.35-22.225c10.763-2.389,13.929,12.671,14.628,20.355
					c0.03,0.323,0.517,0.336,0.514,0c-0.057-5.021-1.369-9.804-3.507-14.33c-2.042-4.33-5.511-7.737-10.625-7.15
					c-4.774,0.548-8.877,3.856-11.618,7.634c-3.382,4.66-4.742,10.133-5.851,15.685
					C155.923,164.597,156.032,164.628,156.047,164.557L156.047,164.557z"/>
			</g>
		</g>
	</g>
	<g>
		<g>
			<path d="M168.867,125.695c0.823,0.577,1.803-0.234,2.569-0.743c2.038-1.354,3.876-3.272,4.434-5.725
				c0.466-2.047-0.653-3.783-2.826-3.746c-1.667,0.028-2.807,0.95-3.479,2.421c-0.685,1.5,0.072,3.25-0.471,4.8
				c-0.319,0.908-1.294,1.86-0.468,2.774C168.704,125.565,168.785,125.637,168.867,125.695z"/>
			
				<ellipse transform="matrix(0.8279 -0.5609 0.5609 0.8279 -36.244 116.6502)" fill="#FFA557" cx="171.951" cy="117.382" rx="1.297" ry="0.865"/>
		</g>
		<g>
			<path d="M215.429,116.602c-0.265,0.922-1.445,0.694-2.271,0.627c-2.103-0.17-4.269-0.876-5.921-2.58
				c-1.363-1.403-1.729-3.394-0.524-4.597c0.982-0.982,2.225-0.888,3.537-0.002c1.366,0.921,1.902,2.932,3.215,4.003
				c0.777,0.636,2.086,0.961,2.017,2.229C215.474,116.402,215.456,116.508,215.429,116.602z"/>
			<path fill="#FFA557" d="M207.394,111.031c0.071,0.483,0.591,0.878,1.171,0.885c0.593,0.008,1.028-0.388,0.964-0.888
				c-0.063-0.505-0.611-0.91-1.21-0.901C207.729,110.136,207.32,110.542,207.394,111.031z"/>
		</g>
	</g>
	<g>
		<g>
			<path fill="#FFFFD5" d="M227.221,159.241c-0.544-0.708-1.146-1.396-1.919-1.843c-1.586-0.918-3.561-0.66-5.37-0.374l-0.01,5.875
				l-3.02-7.86c-1.308,0.117-2.713,0.214-3.843-0.45c-1.616-0.949-3.691-3.289-5.804-3.335c-2.971-0.063-5.09,3.604-5.969,5.96
				c-0.701,1.875-1.428,3.818-2.841,5.237c-1.258,1.261-2.939,1.988-4.406,2.996c-3.136,2.155-5.312,6.286-3.927,9.814
				c0.26,4.185,5.1,8.202,5.1,8.202c1.621,1.445,2.389,3.585,3.277,5.566c0.919,2.056,2.027,4.027,3.306,5.882
				c1.235,1.792,2.685,3.521,4.614,4.534c3.745,1.963,8.758,0.577,11.356-2.759c5.052-6.483-3.365-14.746,3.523-19.936l-0.098-0.09
				c4.259-0.028,7.158-3.528,8.05-7.625c0.443-2.047,0.611-4.218-0.024-6.214C228.802,161.513,228.058,160.33,227.221,159.241z
				 M229.576,163.604l1.645-3.674C230.486,161.061,229.93,162.305,229.576,163.604z"/>
			<linearGradient id="SVGID_23_" gradientUnits="userSpaceOnUse" x1="216.96" y1="161.7002" x2="219.2656" y2="166.6573">
				<stop  offset="0" style="stop-color:#F8D095"/>
				<stop  offset="1" style="stop-color:#FFFFD5"/>
			</linearGradient>
			<path fill="url(#SVGID_23_)" d="M209.878,161.303c0,0,5.765,8.877,10.836,6.571c5.072-2.306,0.922-10.952,0.922-10.952
				L209.878,161.303z"/>
			<path fill="#F8D095" d="M229.566,164.496c-0.07,0.248-0.14,0.527-0.206,0.842c-0.454,2.135-1.904,6.549-4.595,6.801
				c-2.13,0.2-2.08-3.436-2.916-4.729c-0.098-0.15-0.925-1.005-0.904-1.149c-0.759,5.656-3.003,8.834-4.684,10.475
				c-0.357,0.448-0.791,0.879-1.313,1.283c-7.146,5.533-22.019,0.461-22.019,0.461l-0.665-0.223c0.222,0.08,2.001,0.86,6.084,6.448
				c4.382,5.994,4.728,14.294,13.718,12.334c8.993-1.96,6.341-13.142,6.341-13.142s0.029,0.012,0.096-0.006
				c-0.254-2.654,0.114-5.128,2.786-7.142l-0.098-0.09c4.259-0.028,7.158-3.528,8.05-7.625
				C229.564,167.549,229.737,165.999,229.566,164.496z"/>
			<path fill="#F0C280" d="M227.746,172.024c-0.922,2.075-5.417,3.919-5.188,2.306c0.231-1.614-0.807-5.188-0.807-5.188
				c-2.305,10.49-12.221,13.143-12.221,13.143l-5.07,0.345l-4.844,1.037c0,0,1.729,3.229,4.728,8.761
				c2.998,5.535,8.07,3.805,8.07,3.805c7.723-2.65,4.264-9.798,4.264-12.334c0-1.949,1.293-2.671,1.892-2.9
				c0.28-1.552,1.05-2.99,2.72-4.247l-0.098-0.09c3.274-0.021,5.742-2.095,7.115-4.913
				C228.171,171.47,227.985,171.485,227.746,172.024z"/>
		</g>
		<path fill="#9E001F" d="M197.313,181.246c0,0,14.294,3.113,19.713-1.613c0,0-2.768,1.845-1.383,6.802
			c1.383,4.957-0.232,9.106-4.728,8.761c-4.495-0.345-6.802-5.187-8.3-8.186L197.313,181.246z"/>
		<g>
			<path fill="#FF5B80" d="M212.795,192.163c-0.354-1.019-1.002-1.903-1.645-2.77c-0.627-0.846-1.286-1.711-2.203-2.229
				c-0.915-0.52-2.167-0.598-2.958,0.098l0.143,0.277c-1.021-0.943-2.535-1.378-3.877-0.974c0,0,3.963,9.451,9.728,8.802
				l0.609-0.083C213.167,194.371,213.147,193.183,212.795,192.163z"/>
			<path fill="#EA3259" d="M211.024,188.902c-1.224-1.598-3.233-3.319-5.218-1.851c-0.007,0.004-0.009,0.011-0.016,0.016
				c-0.981-0.838-2.284-1.215-3.654-0.737c-0.289,0.101-0.11,0.543,0.172,0.492c1.794-0.311,3.933,0.309,4.741,2.1
				c0.02,0.044,0.09,0.011,0.069-0.036c-0.228-0.53-0.544-1.015-0.924-1.429c2.05-1.373,3.841,0.75,4.946,2.251
				c1.197,1.625,2.281,3.506,1.354,5.543c-0.046,0.103,0.121,0.187,0.179,0.089C214.029,193.035,212.441,190.745,211.024,188.902z"
				/>
		</g>
		<g>
			<path fill="#FFFFFF" d="M204.077,182.478c0.475,0.608,0.95,1.218,1.424,1.825c0.131,0.168,0.317,0.355,0.522,0.297
				c0.153-0.044,0.233-0.208,0.296-0.354c0.265-0.623,0.53-1.245,0.793-1.868L204.077,182.478z"/>
			<path fill="#8087A0" d="M204.048,182.494c0.312,0.494,0.673,0.957,1.031,1.419c0.197,0.255,0.477,0.796,0.868,0.785
				c0.33-0.011,0.434-0.351,0.545-0.611c0.242-0.556,0.482-1.118,0.654-1.702c0.011-0.037-0.045-0.06-0.063-0.026
				c-0.205,0.359-0.376,0.732-0.539,1.11c-0.156,0.359-0.301,1.177-0.867,0.893c-0.248-0.125-0.507-0.637-0.681-0.854
				c-0.288-0.358-0.578-0.719-0.896-1.053C204.073,182.427,204.028,182.463,204.048,182.494L204.048,182.494z"/>
		</g>
		<g>
			<path fill="#FFFFFF" d="M225.576,175.211c-0.238,0.739-0.474,1.478-0.711,2.216c-0.077,0.241-0.269,0.542-0.504,0.45
				c-0.087-0.036-0.145-0.119-0.197-0.197c-0.299-0.459-0.578-0.931-0.84-1.414L225.576,175.211z"/>
			<path fill="#8087A0" d="M223.272,176.297c0.215,0.485,0.492,1.178,0.88,1.555c0.142,0.14,0.302,0.197,0.485,0.103
				c0.271-0.141,0.353-0.539,0.436-0.797c0.205-0.635,0.432-1.273,0.572-1.926c0.017-0.076-0.099-0.136-0.132-0.056
				c-0.284,0.655-0.465,1.347-0.695,2.02c-0.085,0.242-0.063,0.414-0.36,0.423c-0.272,0.008-0.286-0.137-0.418-0.343
				c-0.222-0.347-0.437-0.695-0.664-1.039C223.333,176.171,223.243,176.227,223.272,176.297L223.272,176.297z"/>
		</g>
		<path fill="#DFA768" d="M190.396,176.79c-2.145-0.052-4.248-0.286-6.228-1.18c-0.053-0.024-0.1,0.053-0.047,0.079
			c1.964,0.987,4.049,1.653,6.274,1.496C190.647,177.167,190.651,176.797,190.396,176.79z M190.217,175.354
			c-1.388-4.199,1.337-8.183,4.815-10.33c1.302-0.803,2.667-1.516,3.711-2.661c1.006-1.1,1.638-2.459,2.177-3.834
			c1.098-2.806,3.205-8.15,7.192-6.961c1.754,0.523,2.99,2.017,4.485,2.979c1.338,0.86,2.759,0.878,4.305,0.713
			c0.277-0.029,0.289-0.46,0-0.443c-1.45,0.087-2.794,0.138-4.09-0.634c-0.844-0.501-1.567-1.206-2.37-1.769
			c-1.078-0.754-2.282-1.443-3.646-1.296c-2.853,0.307-4.606,3.531-5.555,5.892c-0.98,2.441-1.875,4.737-4.111,6.304
			c-1.527,1.071-3.235,1.819-4.586,3.131c-2.388,2.314-3.753,5.739-2.453,8.944C190.123,175.463,190.244,175.436,190.217,175.354z
			 M231.171,159.901c-0.659,0.869-1.232,1.896-1.577,2.958c-0.399-1.362-1.074-2.654-2.028-3.884
			c-1.993-2.566-4.633-3.09-7.733-2.31c-0.402,0.1-0.326,0.757,0.1,0.733c1.268-0.074,2.524-0.335,3.787-0.083
			c1.701,0.341,2.702,1.503,3.645,2.863c1.857,2.675,2.173,5.618,1.506,8.756c-0.818,3.846-3.568,7.28-7.511,7.604
			c-0.052-0.021-0.111-0.02-0.169,0.017c-0.298,0.017-0.605,0.015-0.916-0.003c1.874-3.017,2.393-6.82,1.154-10.505
			c-0.117-0.344-0.6-0.203-0.536,0.148c0.544,3.101,0.675,6.171-0.807,9.055c-1.416,2.751-3.988,4.633-6.88,5.609
			c-6.733,2.272-16.392,1.137-21.834-3.701c-0.145-0.13-0.343,0.068-0.213,0.214c1.551,1.733,3.396,2.927,5.43,3.749
			c1.347,1.397,2.664,2.826,3.999,4.234c1.695,1.792,2.738,3.452,3.657,5.738c1.036,2.581,3.278,4.517,6.14,4.672
			c2.669,0.145,5.215-1.548,6.177-4.036c1.422-3.686-2.579-7.581-0.246-10.979c0.066-0.095-0.084-0.211-0.161-0.124
			c-1.698,1.928-0.981,4.315-0.432,6.563c0.497,2.029,0.479,4.019-0.937,5.675c-1.2,1.404-2.986,2.109-4.814,1.836
			c-1.708-0.255-3.267-1.251-4.189-2.717c-0.886-1.41-1.21-3.072-2.183-4.444c-1.6-2.257-3.825-4.104-5.875-6.001
			c1.208,0.397,2.471,0.688,3.771,0.897c4.264,0.687,8.849,0.648,12.905-0.985c2.504-1.011,4.486-2.711,5.813-4.797
			c0.263,0.028,0.522,0.044,0.777,0.049c-6.705,5.134,1.345,14.3-4.009,20.195c-3.765,4.144-9.853,3.787-13.487-0.231
			c-1.892-2.092-3.381-4.63-4.607-7.158c-1.044-2.158-1.852-4.402-3.646-6.069c-0.034-0.034-0.088,0.02-0.052,0.053
			c2.128,2.145,2.864,5.213,4.215,7.844c1.224,2.385,2.676,4.85,4.604,6.744c3.155,3.098,7.796,3.503,11.548,1.185
			c3.549-2.192,4.728-5.874,4.22-9.858c-0.579-4.56-2.352-8.983,1.673-12.493c0.069-0.06,0.078-0.141,0.055-0.214
			c4.675-0.18,7.595-4.116,8.357-8.793c0.247-1.52,0.216-2.958-0.083-4.329c0.438-1.247,0.874-2.435,1.496-3.612
			C231.31,159.892,231.215,159.841,231.171,159.901z"/>
		<g>
			<path fill="#FF95A4" d="M220.31,154.616c-1.125-0.612-2.506-0.419-3.758-0.137c-2.573,0.581-5.221,1.57-6.85,3.645
				c-0.272,0.344-0.515,0.725-0.596,1.155c-0.163,0.871,0.393,1.75,1.136,2.234c0.74,0.485,1.637,0.659,2.508,0.824l2.005-0.054
				c0.104,0.123,0.212,0.242,0.331,0.351c0.942,0.853,2.45,1.003,3.544,0.353c1.377-0.82,1.881-2.8,1.843-4.583l0.549-0.589
				C221.985,156.97,221.438,155.228,220.31,154.616z"/>
			<path fill="#FF7398" d="M210.242,161.513c0.74,0.485,1.637,0.659,2.508,0.824l2.005-0.054c0.104,0.123,0.212,0.242,0.331,0.351
				c0.942,0.853,2.45,1.003,3.544,0.353c1.377-0.82,1.881-2.8,1.843-4.583l0.549-0.589c0.897-0.788,0.482-2.352-0.488-3.058
				c-2.155-0.3-1.578,2.282-3.305,3.07c-1.544,0.707-2.911-0.617-4.521-0.264c-1.688,0.369-3.036,1.593-3.243,3.182
				C209.669,161.048,209.938,161.315,210.242,161.513z"/>
			<linearGradient id="SVGID_24_" gradientUnits="userSpaceOnUse" x1="215.5371" y1="160.2383" x2="214.3842" y2="154.2429">
				<stop  offset="0" style="stop-color:#D94D6E"/>
				<stop  offset="1" style="stop-color:#FF6496"/>
			</linearGradient>
			<path fill="url(#SVGID_24_)" d="M220.394,154.473c-1.921-1.201-5.095-0.127-6.989,0.602c-1.725,0.664-4.333,2.042-4.711,4.09
				c-0.436,2.366,2.321,3.007,4.037,3.246c0.092,0.012,0.137-0.122,0.04-0.146c-1.956-0.496-4.32-2.124-2.423-4.234
				c0.794-0.883,1.789-1.562,2.85-2.086c1.08-0.535,2.257-0.922,3.427-1.203c0.608-0.146,1.224-0.296,1.852-0.304
				c1.436-0.017,4.188,1.259,2.473,3.305c-0.084,0.101,0.059,0.247,0.146,0.146C222.043,156.797,221.585,155.216,220.394,154.473z
				 M220.065,156.252c0.506,1.839,0.112,5.444-1.703,6.479c0.004-0.016,0.009-0.029,0.008-0.048
				c-0.13-1.695-0.631-3.263-1.559-4.688c-0.048-0.076-0.164-0.009-0.122,0.071c0.776,1.443,1.214,2.979,1.269,4.617
				c0.004,0.094,0.06,0.153,0.129,0.18c-0.558,0.221-1.232,0.217-2.038-0.116c-1.575-0.65-2.67-3.791-4.743-2.519
				c-0.229,0.141-0.029,0.46,0.208,0.354c1.849-0.828,2.931,2.495,4.49,3.016c1.085,0.362,2.325,0.18,3.214-0.56
				c1.918-1.596,1.675-4.703,0.962-6.818C220.156,156.149,220.043,156.178,220.065,156.252z"/>
			
				<ellipse transform="matrix(0.9639 -0.2662 0.2662 0.9639 -33.6162 63.0374)" fill="#FFCCDD" cx="215.757" cy="155.54" rx="1.464" ry="0.697"/>
		</g>
	</g>
</g>
<path fill="#C3C8CC" d="M163.73,184.019c1.85-1.755,4.397-2.957,6.691-3.976c7.451-3.311,15.695-4.664,23.775-5.222
	c0.44-0.031,0.445-0.722,0-0.692c-8.114,0.561-16.346,1.919-23.844,5.193c-2.448,1.068-5.144,2.341-7.111,4.207
	C162.917,183.837,163.408,184.325,163.73,184.019L163.73,184.019z"/>
<path fill="#C3C8CC" d="M167.548,190.947c1.383-1.81,4.065-3.738,6.173-5.09c6.811-4.365,14.643-6.97,22.476-8.784
	c0.434-0.1,0.25-0.768-0.183-0.666c-7.98,1.848-15.988,4.523-22.899,9.019c-2.188,1.425-4.557,3.069-6.164,5.173
	C166.68,190.951,167.281,191.296,167.548,190.947L167.548,190.947z"/>
<path fill="#C3C8CC" d="M171.2,197.802c1.207-2.25,3.236-4.184,5.097-5.875c6.033-5.487,13.438-9.365,20.938-12.433
	c0.405-0.168,0.228-0.836-0.184-0.668c-7.526,3.077-14.916,6.943-21.01,12.4c-1.986,1.778-4.157,3.838-5.439,6.226
	C170.392,197.845,170.989,198.194,171.2,197.802L171.2,197.802z"/>
<path fill="#C3C8CC" d="M255.296,160.283c-2.121-0.854-4.646-1.011-6.897-1.048c-6.697-0.111-13.294,1.742-19.419,4.319
	c-0.404,0.17-0.226,0.839,0.185,0.667c6.07-2.554,12.597-4.404,19.234-4.294c2.202,0.037,4.641,0.19,6.715,1.023"/>
<path fill="#C3C8CC" d="M255.974,167.917c-2.091-1.236-4.665-1.85-7.021-2.296c-6.706-1.272-13.628-0.72-20.271,0.65
	c-0.436,0.09-0.253,0.757,0.182,0.667c6.622-1.366,13.56-1.919,20.235-0.587c2.188,0.437,4.579,1.011,6.524,2.162"/>
<path fill="#C3C8CC" d="M256.649,175.401c-1.901-1.533-4.301-2.555-6.561-3.411c-6.646-2.521-13.855-3.296-20.923-3.202
	c-0.443,0.006-0.445,0.698,0,0.692c6.905-0.092,13.921,0.651,20.432,3.061c2.219,0.822,4.752,1.89,6.562,3.349"/>
</svg>
