<?xml version="1.0" encoding="utf-8"?>
<!-- Generator: Adobe Illustrator 16.0.0, SVG Export Plug-In . SVG Version: 6.00 Build 0)  -->
<!DOCTYPE svg PUBLIC "-//W3C//DTD SVG 1.1//EN" "http://www.w3.org/Graphics/SVG/1.1/DTD/svg11.dtd">
<svg version="1.1" id="Layer_1" xmlns="http://www.w3.org/2000/svg" xmlns:xlink="http://www.w3.org/1999/xlink" x="0px" y="0px"
	 width="350px" height="350px" viewBox="0 0 350 350" enable-background="new 0 0 350 350" xml:space="preserve">
<g>
	<g>
		<path d="M234.173,268.056c-5.36,0.824-12.319-1.107-17.006-2.485c-1.952-0.574-3.798-1.107-4.534-1.107l-0.501,0.075l-0.494-0.312
			c-6.704-4.851-10.502-12.727-11.315-23.397l-0.091-1.295l1.286-0.07c8.501-0.468,13.676-8.217,18.675-15.706
			c3.79-5.677,7.369-11.026,12.319-13.393l0.416-0.114c22.395-2.298,34.968-20.897,38.409-56.843
			c1.027-10.613-2.113-16.91-5.438-23.589c-1.534-3.098-3.133-6.294-4.391-10.037l-0.416-1.249l1.258-0.381
			c1.336-0.396,2.828-1.364,4.391-2.384c2.737-1.76,5.828-3.769,9.512-3.769c1.024,0,2.03,0.155,3.039,0.475
			c-0.663-3.211-3.4-5.607-6.072-7.944c-2.277-1.998-4.436-3.883-5.397-6.263l-0.296-0.756l0.559-0.594
			c0.949-1.025,2.298-9.064,2.355-12.858c-0.777,0.088-2.545,1.159-3.728,1.87c-1.292,0.787-2.129,1.276-2.82,1.425l-2.327,0.512
			l0.863-2.216c0.494-1.248-0.021-6.043-1.159-9.656c-1.287,0.526-1.599,2.482-1.747,5.996c-0.086,2.256-0.156,4.038-1.217,4.942
			l-1.011,0.859l-0.65-0.837l-0.728,0.013c-2.046,0-4.809-0.876-8.048-7.734c-0.013-0.022-0.028-0.054-0.036-0.074
			c-0.078,2.499,0.233,7.159,0.862,12.187l0.156,1.23l-1.222,0.184c-11.633,1.775-18.584,9.716-25.259,18.393
			c-2.051,2.672-3.848,7.262-5.748,12.127c-4.64,11.844-10.416,26.594-24.474,26.594c-1.081,0.142-2.363,0.22-3.649,0.22
			c-17.565,0-35.288-14.688-48.223-25.421c-3.148-2.605-6.117-5.066-8.667-6.969l-0.278-0.279c-0.928-1.315-1.947-2.909-3.034-4.639
			c-4.902-7.708-11.62-18.406-20.034-17.311c-2.077,0.27-3.548,1.712-5.261,3.377c-1.833,1.796-3.92,3.836-7.162,4.685
			c-9.933,2.419-25.514,8.418-25.126,14.212c0.393,5.948,22.574,14.646,36.468,18.726l-0.699,2.45
			c-0.135-0.047-13.236-3.675-19.961-3.675c-2.384,0-2.873,0.467-2.883,0.496c0,0-0.005,0.976,3.114,3.649
			c1.557,1.328,6.416,3.167,11.563,5.104c8.238,3.105,17.557,6.616,20.666,10.583l0.491,0.629l-0.291,0.898
			c-0.141,0.304-0.525,0.815-1.471,0.815c-1.188,0-3.998-0.776-8.872-2.142c-5.672-1.595-12.743-3.585-15.735-3.585l0,0
			c3.177,4.512,15.873,14.979,20.733,18.823l0.294,0.318l2.724,4.37l-0.58,0.707c-1.768,2.169,7.489,13.534,10.634,16.206
			l5.012,4.284l-6.241-2.105c-0.073-0.026-0.127-0.036-0.177-0.05c-0.008,0.283,0.016,0.679,0.042,0.954
			c0.023,0.317,0.039,0.629,0.039,0.937c3.393,3.021,4.817,6.337,6.192,9.545c0.962,2.232,1.867,4.354,3.416,6.441
			c3.868,5.196,10.951,7.25,18.451,9.426c4.162,1.217,8.524,2.485,12.577,4.398l0.085-0.772
			c10.869,1.173,26.876-11.674,33.141-21.059c8.175-12.763,4.349-23.46-0.078-35.85c-0.564-1.595-1.151-3.217-1.711-4.86
			c-0.262-0.754-0.522-1.517-0.771-2.288c-0.042-0.142-0.091-0.287-0.133-0.428l2.426-0.771c0.818,2.573,1.71,5.059,2.581,7.494
			c4.461,12.479,8.674,24.267-0.185,38.096c-6.153,9.236-20.541,21.059-32.111,22.189c5.24,3.146,9.626,7.772,11.768,15.401
			c0.452,2.319,1.245,4.157,2.08,6.111c1.442,3.38,2.939,6.857,2.459,12.322l-0.034,0.439l-0.312,0.335
			c-1.521,1.555-4.611,2.163-7.905,2.792c-1.804,0.358-3.855,0.748-5.428,1.315c2.207-0.19,4.572-0.682,6.876-1.139
			c0.036,0,0.072-0.011,0.101-0.011c3.117-0.645,6.356-1.292,9.275-1.292c2.778,0,4.985,0.58,6.761,1.791l0.941,0.629l-0.525,1.009
			c-0.493,0.943-1.131,1.653-1.744,2.355c-0.402,0.447-0.793,0.865-1.097,1.331c1.188-0.109,2.277-0.632,3.522-1.228
			c1.497-0.712,3.202-1.533,5.323-1.627c0.26,0,0.53-0.011,0.785-0.011c4.575,0,9.036,1.747,12.969,3.281
			c3.272,1.278,6.371,2.479,8.974,2.495c-0.377-0.681-0.608-1.419-0.554-2.038c0.078-0.826,0.645-1.771,2.018-1.924
			c1.011-0.202,3.238-0.192,5.874-0.104c1.274,0.047,2.631,0.091,3.982,0.091c2.044,0,4.68-0.091,6.647-0.684
			c-0.313-0.109-0.637-0.231-0.97-0.333c-1.394-0.468-2.977-0.987-3.884-2.42 M253.731,105.429c-1.731,0-3.133-1.404-3.133-3.133
			c0-1.729,1.406-3.13,3.133-3.13c1.726,0,3.124,1.4,3.124,3.13C256.855,104.024,255.465,105.429,253.731,105.429z"/>
	</g>
</g>
</svg>
