<?xml version="1.0" encoding="utf-8"?>
<!-- Generator: Adobe Illustrator 16.0.0, SVG Export Plug-In . SVG Version: 6.00 Build 0)  -->
<!DOCTYPE svg PUBLIC "-//W3C//DTD SVG 1.1//EN" "http://www.w3.org/Graphics/SVG/1.1/DTD/svg11.dtd">
<svg version="1.1" id="Layer_1" xmlns="http://www.w3.org/2000/svg" xmlns:xlink="http://www.w3.org/1999/xlink" x="0px" y="0px"
	 width="350px" height="350px" viewBox="0 0 350 350" enable-background="new 0 0 350 350" xml:space="preserve">
<g>
	<g>
		<path fill="#CE3B27" d="M81.703,181.266c-13.586-5.491-23.693-12.246-22.557-15.057c1.152-2.824,13.092-0.656,26.693,4.834
			c13.602,5.492,23.707,12.249,22.572,15.059C107.26,188.926,95.319,186.77,81.703,181.266z"/>
		<path fill="#CE3B27" d="M52.185,206.035c-7.879,20.533-19.819,15.947-11.941-4.57c7.864-20.52,16.937-36.13,20.228-34.864
			C63.762,167.854,60.049,185.518,52.185,206.035z"/>
	</g>
	<g>
		<path fill="#CE3B27" d="M86.029,215.836c-14.023-4.295-24.669-10.148-23.766-13.063c0.888-2.896,12.989-1.775,27.013,2.535
			c14.009,4.297,24.668,10.135,23.765,13.047C112.153,221.266,100.065,220.146,86.029,215.836z"/>
		<path fill="#CE3B27" d="M58.738,243.084c-6.073,21.113-18.363,17.574-12.275-3.553c6.071-21.117,13.747-37.457,17.153-36.48
			C67.01,204.027,64.826,221.953,58.738,243.084z"/>
	</g>
	<g>
		<path fill="#CE3B27" d="M114.321,232.932c-2.881,3.104-11.823,7.412-22.863,10.791c-9.188,2.795-17.531,4.223-22.455,4.078
			c-0.888-0.029-1.674-0.117-2.329-0.248c-0.875-0.189-1.517-0.451-1.894-0.842c-0.16-0.164-0.276-0.338-0.334-0.527
			c-0.889-2.926,9.771-8.752,23.809-13.018c14.024-4.268,26.126-5.373,27.014-2.461
			C115.458,231.332,115.124,232.072,114.321,232.932z"/>
		<path fill="#CE3B27" d="M84.5,298.186c-2.769,3.32-8.623-0.379-12.611-12.697c-5.97-18.436-8.825-34.498-7.107-38.777
			c0.232-0.57,0.539-0.936,0.933-1.066c0.261-0.086,0.553-0.057,0.889,0.059c0.685,0.262,1.484,0.975,2.401,2.098
			c4.034,4.98,9.961,17.998,15.059,33.754C86.843,290.146,86.421,295.885,84.5,298.186z"/>
	</g>
	<g>
		<path fill="#CE3B27" d="M274.1,181.266c13.601-5.491,23.707-12.246,22.573-15.057c-1.151-2.824-13.093-0.656-26.693,4.834
			c-13.602,5.492-23.709,12.249-22.57,15.059C248.559,188.926,260.499,186.77,274.1,181.266z"/>
		<path fill="#CE3B27" d="M303.633,206.035c7.877,20.533,19.818,15.947,11.939-4.57c-7.877-20.52-16.935-36.13-20.226-34.864
			C292.04,167.854,295.754,185.518,303.633,206.035z"/>
	</g>
	<g>
		<path fill="#CE3B27" d="M269.774,215.836c14.024-4.295,24.669-10.148,23.779-13.063c-0.902-2.896-12.987-1.775-27.012,2.535
			c-14.022,4.297-24.668,10.135-23.766,13.047C243.665,221.266,255.751,220.146,269.774,215.836z"/>
		<path fill="#CE3B27" d="M297.078,243.084c6.075,21.113,18.363,17.574,12.277-3.553c-6.072-21.117-13.762-37.457-17.154-36.48
			S290.993,221.953,297.078,243.084z"/>
	</g>
	<g>
		<path fill="#CE3B27" d="M264.358,243.723c14.023,4.252,26.124,5.375,27.013,2.461c0.889-2.926-9.771-8.752-23.809-13.018
			c-14.025-4.268-26.125-5.373-27.015-2.461C239.66,233.617,250.318,239.443,264.358,243.723z"/>
		<path fill="#CE3B27" d="M271.755,281.555c-6.771,20.912,5.404,24.844,12.16,3.934c6.771-20.912,9.537-38.75,6.175-39.844
			C286.74,244.568,278.528,260.645,271.755,281.555z"/>
	</g>
	<g>
		<path fill="#CE3B27" d="M254.676,165.655c-18.628,7.063-34.863,9.829-36.231,6.188c-1.384-3.656,12.595-12.319,31.235-19.381
			c18.626-7.063,34.848-9.831,36.231-6.19C287.294,149.928,273.313,158.592,254.676,165.655z"/>
		<path fill="#CE3B27" d="M296.702,114.614c-0.161,4.078-1.181,9.743-3.016,15.829c-3.421,11.431-8.374,20.051-11.053,19.236
			c-2.694-0.798-2.082-10.717,1.338-22.149c1.794-5.942,3.992-11.139,6.061-14.619c1.906-3.233,3.727-5.01,5.009-4.618
			C296.293,108.658,296.832,111.033,296.702,114.614z"/>
		<path fill="#B62825" d="M296.702,114.614c-2.449-0.408-4.69-1.02-6.67-1.703c1.906-3.233,3.727-5.01,5.009-4.618
			C296.293,108.658,296.832,111.033,296.702,114.614z"/>
		<path fill="#CE3B27" d="M324.85,87.311c0,13.513-11.357,24.479-25.353,24.479c-14.009,0-25.353-10.966-25.353-24.479
			c0-11.272,7.879-20.767,18.625-23.605l6.728,23.605l13.615-20.651C320.16,71,324.85,78.631,324.85,87.311z"/>
	</g>
	<g>
		<path fill="#CE3B27" d="M88.896,162.829c17.344,9.801,32.956,15.016,34.876,11.607c1.909-3.378-10.587-14.082-27.929-23.884
			c-17.344-9.813-32.956-15.014-34.876-11.619C59.044,142.312,71.554,153.029,88.896,162.829z"/>
		<path fill="#CE3B27" d="M63.689,142.792c-2.766,0.394-6.362-8.882-8.009-20.693c-0.554-3.944-0.816-7.673-0.831-10.921
			c0-6.437,1.02-10.921,2.855-11.184c1.938-0.263,4.253,4.121,6.044,10.806c0.787,2.911,1.47,6.291,1.979,9.885
			C67.374,132.512,66.47,142.413,63.689,142.792z"/>
		<path fill="#B62825" d="M63.749,110.8c-3.19,0.437-6.219,0.509-8.899,0.377c0-6.437,1.02-10.921,2.855-11.184
			C59.642,99.731,61.957,104.115,63.749,110.8z"/>
		<path fill="#CE3B27" d="M87.863,79.958c-0.044,1.076-0.147,2.197-0.322,3.29c-2.533,16.541-18.495,27.813-35.634,25.177
			c-16.322-2.504-27.827-16.73-26.678-32.371c0.06-0.773,0.132-1.557,0.262-2.344c1.632-10.618,8.796-19.076,18.248-23.053
			L56.51,78.484l12.669-27.626C80.786,55.912,88.372,67.403,87.863,79.958z"/>
	</g>
	<path fill="#F48003" d="M188.414,267.314c-53.021,5.941-84.343-17.971-93.081-45.783c-4.5-14.258-3.043-29.563,4.471-42.379
		c22.165-37.773,88.017-30.579,88.017-30.579c37.117,6,52.685,16.79,61.655,32.385c2.957,5.127,5.708,13.092,6.598,22.148
		C258.49,227.793,247.086,260.73,188.414,267.314z"/>
	<g>
		<g>
			<path fill="#CE3B27" d="M162.261,133.923c0,12.014-10.659,21.756-23.809,21.756s-23.809-9.743-23.809-21.756
				c0-11.999,10.659-21.755,23.809-21.755S162.261,121.924,162.261,133.923z"/>
			<path fill="#FFFFFF" d="M156.465,133.923c0,9.102-8.053,16.456-18.012,16.456c-9.946,0-18.015-7.354-18.015-16.456
				c0-9.086,8.069-16.456,18.015-16.456C148.412,117.467,156.465,124.837,156.465,133.923z"/>
		</g>
		<path fill="#701F13" d="M153,134.272c0,5.126-4.209,9.263-9.407,9.263c-5.185,0-9.408-4.136-9.408-9.263
			c0-5.11,4.223-9.247,9.408-9.247C148.791,125.025,153,129.163,153,134.272z"/>
	</g>
	<g>
		<g>
			<path fill="#CE3B27" d="M230.633,131.128c0,14.301-12.67,25.877-28.309,25.877c-15.642,0-28.326-11.576-28.326-25.877
				c0-14.271,12.685-25.864,28.326-25.864C217.963,105.264,230.633,116.856,230.633,131.128z"/>
			<path fill="#FFFFFF" d="M223.758,131.128c0,10.805-9.596,19.572-21.434,19.572c-11.841,0-21.423-8.768-21.423-19.572
				c0-10.804,9.582-19.573,21.423-19.573C214.162,111.555,223.758,120.324,223.758,131.128z"/>
		</g>
		<path fill="#701F13" d="M210.331,132.073c0,5.112-4.207,9.262-9.406,9.262c-5.185,0-9.406-4.149-9.406-9.262
			c0-5.112,4.222-9.261,9.406-9.261C206.124,122.812,210.331,126.961,210.331,132.073z"/>
	</g>
	<g>
		<path fill="#701F13" d="M172.179,229.043c-23.3,0-40.061-21.07-40.759-21.986c-0.511-0.627-0.396-1.545,0.247-2.053
			c0.64-0.498,1.559-0.395,2.069,0.246c0.159,0.219,16.921,21.203,38.925,20.852c13.821-0.188,26.924-8.533,38.997-24.785
			c0.481-0.654,1.413-0.783,2.054-0.305c0.655,0.482,0.785,1.398,0.306,2.053c-12.641,17.039-26.546,25.777-41.326,25.965
			C172.514,229.043,172.352,229.043,172.179,229.043z"/>
	</g>
	<g>
		<path fill="#701F13" d="M128.608,214.25c-0.043,0-0.086,0-0.146-0.014c-0.802-0.074-1.398-0.803-1.324-1.604
			c0.348-3.598,3.173-10.717,11.401-11.896c0.801-0.104,1.544,0.436,1.66,1.252c0.117,0.785-0.437,1.543-1.239,1.66
			c-8.023,1.148-8.881,9.174-8.896,9.262C129.992,213.682,129.351,214.25,128.608,214.25z"/>
	</g>
	<g>
		<path fill="#701F13" d="M217.394,210.273c-0.741,0-1.382-0.568-1.469-1.311c-0.35-3.305-1.487-5.605-3.378-6.844
			c-3.059-1.994-7.166-0.742-7.209-0.727c-0.772,0.246-1.603-0.191-1.836-0.963c-0.247-0.771,0.175-1.602,0.963-1.85
			c0.217-0.059,5.474-1.674,9.684,1.078c2.663,1.748,4.252,4.775,4.702,9.002c0.088,0.797-0.495,1.525-1.296,1.613
			C217.497,210.273,217.438,210.273,217.394,210.273z"/>
	</g>
	<path fill="#C43D27" d="M188.414,267.314c-53.021,5.941-84.343-17.971-93.081-45.783c0.131-0.25,0.189-0.381,0.189-0.381
		c10.149,31.746,56.559,47.346,104.965,37.484c49.831-10.137,55.571-55.57,55.571-55.57c0,0.029,0.015,0.029,0.015,0.043
		C258.49,227.793,247.086,260.73,188.414,267.314z"/>
	<path fill="#E55235" d="M112.721,173.533c0,0,16.761-19.864,55.133-21.175c38.372-1.324,59.53,8.826,59.095,15
		C226.511,173.533,173.591,145.749,112.721,173.533z"/>
	<path fill="#CE3B27" d="M30.007,80.96c0,0-3.816-16.179,11.461-26.46c0,0,3.231-0.305,3.231,2.942
		C44.7,60.675,34.127,60.675,30.007,80.96z"/>
	<path fill="#CE3B27" d="M291.356,66.194c0,0-13.893,3.305-14.329,19.18C276.591,101.245,278.789,76.563,291.356,66.194z"/>
	<path fill="#FFFFFF" d="M202.729,129.468c0,1.835-1.441,3.32-3.202,3.32c-1.764,0-3.19-1.485-3.19-3.32
		c0-1.821,1.427-3.306,3.19-3.306C201.288,126.163,202.729,127.647,202.729,129.468z"/>
	<path fill="#FFFFFF" d="M147.553,132.104c0,1.819-1.427,3.305-3.187,3.305c-1.764,0-3.206-1.486-3.206-3.305
		c0-1.82,1.442-3.308,3.206-3.308C146.126,128.796,147.553,130.284,147.553,132.104z"/>
	<path fill="#CE3B27" d="M55.68,172.25c0,0-18.523,34.166-15.655,40.558C42.895,219.201,55.68,172.25,55.68,172.25z"/>
	<path fill="#CE3B27" d="M60.079,211.264c0,0-14.985,34.834-12.116,38.371C50.831,253.16,60.079,211.264,60.079,211.264z"/>
	<path fill="#CE3B27" d="M96.47,232.656c0,0-27.116,7.719-27.116,10.805S96.47,232.656,96.47,232.656z"/>
	<path fill="#CE3B27" d="M253.422,181.775c0,0,30.58-17.038,39.101-14.985C301.039,168.845,253.422,181.775,253.422,181.775z"/>
	<path fill="#CE3B27" d="M258.432,209.996c0,0,27.334-9.117,29.968-7.047C291.051,205.004,258.432,209.996,258.432,209.996z"/>
	<path fill="#CE3B27" d="M236.967,161.491c0,0,36.157-17.039,42.623-14.098C286.056,150.321,236.967,161.491,236.967,161.491z"/>
	<path fill="#CE3B27" d="M282.823,140.332c0,0,3.83-22.048,7.047-22.936C293.105,116.522,282.823,140.332,282.823,140.332z"/>
	<path fill="#E55235" d="M220.773,181.906c0,0,6.61-5.285,12.785,0C239.732,187.193,212.399,192.041,220.773,181.906z"/>
	<path fill="#E55235" d="M101.259,191.605c0,0-0.712-5.709,7.151-5.504C116.26,186.318,102.716,204.055,101.259,191.605z"/>
	<path fill="#CE3B27" d="M69.121,56.497c0,0,3.538-3.977,6.394,0C78.384,60.472,66.484,62.889,69.121,56.497z"/>
</g>
</svg>
