<?xml version="1.0" encoding="utf-8"?>
<!-- Generator: Adobe Illustrator 16.0.0, SVG Export Plug-In . SVG Version: 6.00 Build 0)  -->
<!DOCTYPE svg PUBLIC "-//W3C//DTD SVG 1.1//EN" "http://www.w3.org/Graphics/SVG/1.1/DTD/svg11.dtd">
<svg version="1.1" id="Layer_1" xmlns="http://www.w3.org/2000/svg" xmlns:xlink="http://www.w3.org/1999/xlink" x="0px" y="0px"
	 width="350px" height="350px" viewBox="0 0 350 350" enable-background="new 0 0 350 350" xml:space="preserve">
<path d="M264.782,200.463l-14.893-6.624c-2.141-0.954-4.528-0.603-6.32,0.69c-1.749-1.101-3.908-1.528-6.078-0.992l-19.079,4.76
	l-3.614-16.735c1.038,0.192,2.142,0.17,3.232-0.116l18.598-7.645c1.079-0.283,2.104-0.582,3.008-0.941
	c0.288,0.212,0.625,0.4,0.972,0.557l18.033-1.623c3.22,1.438,3.86,8.199,5.301,4.979l0.097-0.21
	c1.425-3.235-0.036-7.027-3.273-8.455l-14.882-6.592c-2.144-0.959-4.531-0.605-6.341,0.676c-1.729-1.101-3.898-1.531-6.055-0.987
	l-19.313,4.802c-0.822,0.233-1.584,0.59-2.271,1.022c-0.258-1.078-0.622-2.113-1.091-3.096l6.331-4.491
	c1.124-0.779,1.916-1.873,2.385-3.06c1.726-1.002,3.08-2.704,3.544-4.83l1.805-8.095c25.657-49.468-35.913-59.285-21.44-53.498
	c14.51,5.787,8.104,20.818,8.104,20.818c-4.579,7.913-13.504-7.458-13.504-7.458c-10.943,19.162,13.492,34.133,13.504,34.133
	c-0.574,0.808-1.018,1.724-1.247,2.759l-1.785,8.103c-0.058,0.312-0.058,0.618-0.119,0.942l-7.525,5.333
	c-0.233,0.17-0.443,0.393-0.653,0.57c-1.258-0.309-2.554-0.501-3.913-0.501h-41.112c-0.826,0-1.618,0.076-2.397,0.213
	c-0.466-1.071-1.2-2.033-2.23-2.759l-7.531-5.333c-0.028-0.309-0.048-0.623-0.106-0.934l-1.787-8.093
	c-0.238-1.053-0.671-1.959-1.248-2.774c0.015-0.015,24.46-14.996,13.502-34.143c0,0-8.908,15.36-13.502,7.47
	c0,0-6.384-15.037,8.103-20.836c14.482-5.794-47.094,4.022-21.423,53.488l1.794,8.095c0.476,2.126,1.815,3.815,3.559,4.837
	c0.463,1.182,1.253,2.273,2.375,3.063l7.361,5.217c-0.75,1.174-1.347,2.463-1.754,3.825c-1.033-1.18-2.399-2.093-4.042-2.506
	l-19.317-4.807c-2.157-0.552-4.323-0.109-6.065,0.997c-1.8-1.283-4.179-1.64-6.338-0.678l-14.885,6.594
	c-3.24,1.435-4.69,5.212-3.263,8.457l0.088,0.195c1.43,3.232,2.071-3.529,5.293-4.959l18.036,1.61
	c0.359-0.154,0.676-0.334,0.972-0.557c0.904,0.362,1.918,0.671,3.015,0.932l18.58,7.665c1.767,0.445,3.542,0.223,5.083-0.476
	l-4.389,17.671c-0.284-0.096-0.552-0.232-0.851-0.301l-19.304-4.8c-2.159-0.56-4.324-0.116-6.08,0.987
	c-1.792-1.275-4.167-1.633-6.324-0.701l-14.889,6.625c-3.223,1.433-4.686,5.214-3.261,8.459l0.091,0.213
	c1.44,3.218,2.068-3.546,5.306-4.984l18.034,1.618c0.349-0.149,0.666-0.337,0.972-0.558c0.899,0.367,1.919,0.664,3.005,0.925
	l18.59,7.675c0.813,0.215,1.63,0.237,2.422,0.185c0.874,2.622,2.673,5.981,5.03,9.549l-12.872,7.732
	c-1.909,1.152-3.142,3-3.587,5.01c-2.157,0.357-4.106,1.785-4.952,3.992l-5.85,15.19c-1.283,3.296,0.37,7.01,3.668,8.277
	l0.203,0.092c3.311,1.258-1.03-3.967,0.241-7.278l13.897-11.601c0.132-0.357,0.228-0.725,0.293-1.097
	c0.894-0.366,1.818-0.886,2.77-1.445l16.036-6.692c4.959,5.032,10.128,8.753,13.928,8.753h35.75c3.142,0,6.681-2.463,10.08-6.105
	l15.748,6.551c0.959,0.583,1.893,1.079,2.781,1.471c0.071,0.345,0.167,0.722,0.307,1.068l13.89,11.604
	c1.271,3.32-3.081,8.54,0.24,7.277l0.202-0.076c3.309-1.273,4.972-4.997,3.684-8.293l-5.865-15.18
	c-0.851-2.208-2.792-3.631-4.951-4.003c-0.456-2.018-1.673-3.854-3.585-5.002l-13.434-8.069c1.876-3.278,3.445-6.536,4.536-9.344
	c1.127,0.235,2.273,0.235,3.466-0.068l18.59-7.645c1.104-0.281,2.104-0.58,3-0.937c0.312,0.213,0.646,0.402,0.982,0.56l18.033-1.63
	c3.232,1.447,3.881,8.204,5.306,4.977l0.089-0.205C269.463,205.676,268.012,201.886,264.782,200.463z"/>
</svg>
