<?xml version="1.0" encoding="utf-8"?>
<!-- Generator: Adobe Illustrator 16.0.0, SVG Export Plug-In . SVG Version: 6.00 Build 0)  -->
<!DOCTYPE svg PUBLIC "-//W3C//DTD SVG 1.1//EN" "http://www.w3.org/Graphics/SVG/1.1/DTD/svg11.dtd">
<svg version="1.1" id="Layer_1" xmlns="http://www.w3.org/2000/svg" xmlns:xlink="http://www.w3.org/1999/xlink" x="0px" y="0px"
	 width="350px" height="350px" viewBox="0 0 350 350" enable-background="new 0 0 350 350" xml:space="preserve">
<path fill="#77B52D" d="M92.934,243.382c0,0-19.61-8.702-8.75-19.036c10.862-10.334,20.367-6.437,20.367-6.437
	s-2.546-12.013,20.268-16.322c22.815-4.308,29.69,8.45,29.69,8.45s6.17-14.878,20.344-13.872
	c14.174,1.007,12.388,12.944,12.388,12.944s18.423-14.682,27.256-10.865c8.834,3.815,13.747,7.955,13.747,7.955
	s-0.057-19.438,17.435-18.563c17.492,0.878,14.577,17.081,14.577,17.081s15.735-18.821,27.529-13.258
	c12.836,6.054,10.445,24.035,10.445,24.035s10.233-8.066,13.546,1.381c5.577,15.914-3.188,18.101-3.188,18.101
	s7.968,6.924-1.594,15.688s-28.464,4.781-28.464,4.781s-19.007,19.123-30.73,11.952c0,0-10.312,12.748-24.962,14.342
	c-14.647,1.594-18.784-11.155-18.784-11.155s-14.168,17.804-31.311,11.293c-17.142-6.512-18.235-16.073-18.235-16.073
	s-9.313,10.358-18.054,7.171c-8.741-3.188-8.312-12.677-8.312-12.677S86.427,269.567,92.934,243.382"/>
<path fill="#DDC287" d="M49.426,112.916c0,0-4.784,7.289-3.417,9.34c1.367,2.049,6.733-2.046,6.733-2.046L49.426,112.916z"/>
<path fill="#DDC287" d="M56.031,122.829c0,0-4.556,5.804-2.049,7.399c2.505,1.593,7.289-3.7,7.289-3.7L56.031,122.829z"/>
<path fill="#DDC287" d="M64.46,130.527c0,0-1.595,7.446,0,9.496c1.595,2.05,6.312-2.325,6.312-2.325L64.46,130.527z"/>
<path fill="#DDC287" d="M76.533,140.57c0,0-2.277,6.742,0,9.248c2.277,2.506,5.775-2.459,5.775-2.459L76.533,140.57z"/>
<path fill="#DDC287" d="M87.695,150.524c0,0-4.328,7.951-1.595,10.229c2.735,2.277,6.835-2.278,6.835-2.278L87.695,150.524z"/>
<path fill="#DDC287" d="M98.174,165.081c0,0-2.277,7.289,0,9.34c2.277,2.05,6.377-4.67,6.377-4.67L98.174,165.081z"/>
<path fill="#DDC287" d="M110.703,175.787c0,0-1.14,8.201,1.595,9.112c2.733,0.91,5.921-5.924,5.921-5.924L110.703,175.787z"/>
<path fill="#DDC287" d="M39.63,165.081c0,0,4.521-7.29,6.132-6.378c1.613,0.91,1.157,9.338,1.157,9.338L39.63,165.081z"/>
<path fill="#DDC287" d="M51.703,171.003c0,0,2.437-7.289,5.546-5.922c3.111,1.366,1.972,9.728,1.972,9.728L51.703,171.003z"/>
<path fill="#DDC287" d="M63.751,177.381c0,0,2.303-7.06,5.038-6.377c2.733,0.683,1.984,9.381,1.984,9.381L63.751,177.381z"/>
<path fill="#DDC287" d="M77.216,183.988c0,0,2.211-9.113,5.093-8.201c2.88,0.911,4.019,10.935,4.019,10.935L77.216,183.988z"/>
<path fill="#DDC287" d="M92.934,187.86c0,0,2.075-7.124,4.227-6.637c2.151,0.486,3.695,7.549,3.695,7.549L92.934,187.86z"/>
<path fill="#354C09" d="M190.203,112.004c0,0-7.845-11.617-11.032-22.096c-3.189-10.479-5.851-26.88-10.735-25.741
	c0,0-1.923,14.578,3.998,26.424C178.358,102.437,178.434,111.093,190.203,112.004"/>
<path fill="#445601" d="M245.179,125.748c0,0-1.302-1.442-3.994-1.442c0,0-5.194-7.518-9.979-3.189c0,0-8.429-8.383-14.806-1.344
	c0,0-4.558-10.503-11.504-4.124c0,0-8.088-12.074-14.01-7.745c0,0-2.732-8.201-9.341-8.429c0,0-2.732-9.796-6.833-9.341
	c0,0,2.733-8.884-2.278-8.201c0,0,0.455-5.922-2.506-6.377c0,0,2.708-7.973-1.493-11.39c0,0-12.402,30.979-1.923,51.482
	c10.478,20.501,32.174,36.903,69.163,41.685C272.665,162.119,249.169,127.19,245.179,125.748"/>
<path fill="#517212" d="M237.723,139.132c0,0,0.997-6.203-3.787-7.112c-4.783-0.911-5.689,3.189-5.689,3.189
	S231.714,139.867,237.723,139.132"/>
<path fill="#517212" d="M221.865,133.285c0,0-0.682-9.354-10.021-5.409C211.845,127.876,215.033,134.52,221.865,133.285"/>
<path fill="#517212" d="M209.254,125.672c0,0-1.737-9.113-10.395-4.784C198.859,120.889,200.972,128.405,209.254,125.672"/>
<path fill="#517212" d="M193.697,117.873c0,0,1.062-8.375-7.139-4.958C186.559,112.915,188.307,117.818,193.697,117.873"/>
<path fill="#517212" d="M184.154,110.432c0,0,1.067-7.083-4.983-6.629C179.171,103.803,178.106,108.861,184.154,110.432"/>
<path fill="#517212" d="M177.22,101.574c0,0,1.366-7.793-4.785-6.881C172.435,94.693,173.118,100.71,177.22,101.574"/>
<path fill="#517212" d="M170.84,90.819c0,0,3.463-6.287-1.818-7.973C169.022,82.846,167.336,86.923,170.84,90.819"/>
<path fill="#3C560A" d="M133.026,220.207c0,0-12.301-1.822-16.629,5.468c0,0,7.29,0.868,9.34,1.345c0,0-5.012,3.21-4.556,8.45
	c0,0,8.429-5.299,11.846-5.385c0,0-4.556,6.524-1.367,9.941c0,0,11.163-9.173,14.58-9.941c0,0,8.429-2.284,10.705-5.739
	C159.222,220.891,147.384,214.457,133.026,220.207"/>
<path fill="#517211" d="M48.514,106.766c0,0-3.645-8.202,3.189-9.569c6.835-1.366,9.568,3.191,8.201,7.291
	c0,0,5.923-5.924,10.934-0.456c5.012,5.466,0,10.022,0,10.022s25.969,29.158,45.56,36.448c0,0-1.367-12.757,9.113-10.934
	c10.478,1.821,8.201,10.934,8.201,10.934s5.921-8.201,13.666-5.922c7.746,2.277,7.746,15.034,7.746,15.034s4.1-3.189,8.656-1.367
	c4.557,1.823,6.38,6.987,6.38,6.987s5.77-2.126,10.628,4.251c4.255-3.645,10.633-5.771,14.581-3.038c0,0,9.11-7.289,15.793-3.949
	c0,0,10.023-8.201,16.706-3.339c0,0,7.288-7.896,13.971-3.038c0,0-0.608-9.415,6.378-10.327c0,0-5.771-7.289,0-10.934
	c0,0-5.164-6.379-3.036-9.112c0,0,13.365,1.821,24.298,10.022s28.55,36.448,10.629,58.924
	c-17.917,22.477-69.249,37.358-114.809,33.106c0,0-26.121,3.645-45.862-15.793c0,0-74.414-25.514-84.741-37.664
	c0,0-0.911-10.758,3.038-11.606c3.949-0.847,35.84,20.416,50.723,23.15c14.882,2.732,38.269,0.606,38.269,0.606
	s-16.401-6.683-24.298-14.579c-7.896-7.898-19.134-25.209-24.603-28.854c-5.467-3.645-25.513-19.744-31.284-32.196L48.514,106.766z"
	/>
<path fill="#374C09" d="M34.695,174.345c0,0,68.062,28.758,84.902,31.513c16.841,2.753,34.188-5.783,34.188-5.783
	s-9.807,9.284-23.931,9.963c0,0,22.794,10.775,31.34,10.854c8.546,0.078,14.625-7.44,14.625-7.44s-0.966,7.836-3.383,10.242
	c0,0,19.762,3.988,55.81-6.816c36.047-10.804,68.149-27.582,51.548-69.294c0,0,21.095,27.878-3.24,51.045
	c-24.337,23.166-74.309,32.205-108.416,29.174c0,0-29.491,5.634-48.703-15.795C119.435,212.006,42.1,185.081,34.695,174.345"/>
<path fill="#709822" d="M158.995,174.809c0,0,2.96-4.261,6.605-2.667c3.645,1.595,2.734,6.151,2.734,6.151
	S163.096,180.438,158.995,174.809"/>
<path fill="#709822" d="M172.435,180.385c0,0,5.011-4.573,8.883-3.788c3.872,0.786,5.924,8.385,5.924,8.385
	S177.611,187.403,172.435,180.385"/>
<path fill="#709822" d="M198.859,185.386c0,0,0.17-10.886,12.073-4.164C210.933,181.222,208.656,192.251,198.859,185.386"/>
<path fill="#709822" d="M217.539,180.068c0,0-0.912-5.875,2.732-6.787c3.646-0.912,7.974,3.394,7.974,3.394
	s-0.911,4.578-4.328,5.489C220.499,183.077,217.539,180.068,217.539,180.068"/>
<path fill="#709822" d="M235.676,173.155c0,0,0.769-7.847,3.503-8.073c2.734-0.228,7.517,2.961,7.517,2.961
	S246.296,178.039,235.676,173.155"/>
<path fill="#709822" d="M253.758,163.333c0,0-3.873-5.336-2.276-7.375c1.594-2.038,7.973-1.128,7.973-1.128
	S260.818,162.041,253.758,163.333"/>
<path fill="#709822" d="M259.56,150.524c0,0-5.134-9.181,0-9.955C264.692,139.795,264.223,150.548,259.56,150.524"/>
<path fill="#709822" d="M257.278,136.606c0,0-3.571-5.96-1.95-8.219C256.947,126.128,261.255,131.822,257.278,136.606"/>
<path fill="#293A05" d="M121.181,210.64c0,0,14.351-0.456,23.691-4.784C144.872,205.855,130.521,219.068,121.181,210.64"/>
<path fill="#293A05" d="M181.774,170.957c0,0,8.2,5.63,9.568,11.379C191.343,182.336,189.747,170.683,181.774,170.957"/>
<path fill="#293A05" d="M165.298,227.801c0,0,5.998-4.404,7.138-6.91C172.436,220.891,175.017,225.599,165.298,227.801"/>
<path fill="#3C560A" d="M255.126,180.385c0,0-25.743,15.904-17.996,29.343c7.745,13.441,22.322,8.2,22.322,8.2
	s-10.563,4.329-11.887,8.886c0,0,10.748-0.911,11.887-0.911c0,0-5.695,6.379-5.011,10.479c0,0,8.885-4.101,11.846-4.557
	c0,0-1.593,5.921,0,9.795c0,0,8.656-10.311,9.796-11.533c0,0,16.63-12.116,14.121-19.085c-2.504-6.969-20.957-7.881-21.639-7.423
	c-0.685,0.454,9.566-10.025,4.1-21.414C267.198,170.775,255.126,180.385,255.126,180.385"/>
<path fill="#293A05" d="M268.565,203.579c0,0-3.433,2.96-9.007,3.872C259.559,207.451,267.425,210.184,268.565,203.579"/>
<path fill="#293A05" d="M260.256,217.246c0,0,7.398,0,10.587-2.277C270.843,214.969,264.902,221.737,260.256,217.246"/>
<path fill="#020200" d="M140.947,164.825c-0.604,1.882-2.039,3.105-3.206,2.729c-1.167-0.374-1.623-2.205-1.019-4.086
	c0.605-1.881,2.041-3.103,3.208-2.728C141.097,161.114,141.551,162.943,140.947,164.825"/>
<path fill="#020200" d="M125.125,159.658c-0.604,1.882-2.039,3.104-3.206,2.729c-1.167-0.374-1.623-2.204-1.019-4.084
	c0.605-1.882,2.041-3.105,3.208-2.73C125.275,155.947,125.729,157.776,125.125,159.658"/>
<path fill="#3C560A" d="M186.559,201.073c-3.896,2.241-11.162,11.616-6.833,16.629c4.327,5.013,13.439,10.823,13.439,10.823
	s-10.686,2.844-14.455,7.172c0,0-15.772-3.645-17.515,4.101c0,0,8.506,1.822,10.558,2.278c0,0-6.607,6.834-5.468,10.479
	c0,0,8.35-3.418,10.894-3.189c0,0-1.326,7.518,1.635,10.934c0,0,10.249-10.478,12.985-12.984c0,0,34.169-9.339,34.396-14.123
	C226.422,228.407,214.498,184.983,186.559,201.073"/>
<path fill="#293A05" d="M193.165,228.525c0,0,8.429,2.118,11.731-1.506C204.896,227.02,200.47,233.739,193.165,228.525"/>
<path fill="#517211" d="M184.228,199.935c-2.834,2.188-8.743,9.86-2.453,17.975c6.291,8.114,17.256,6.175,23.122,4.575
	c9.496-2.583,13.259-12.073,5.205-18.905C202.048,196.744,193.42,192.834,184.228,199.935"/>
<path fill="#517211" d="M256.203,179.622c0,0-18.82,13.358-18.396,22.589c0.427,9.231,9.814,7.519,22.448,2.507
	c12.637-5.011,15.245-13.439,13.827-17.996S272.303,165.622,256.203,179.622"/>
<path fill="#212D04" d="M61.271,110.432c0,0,0.513-7.242,5.991-3.324C67.261,107.108,64.863,105.5,61.271,110.432"/>
<path fill="#212D04" d="M55.563,108.189c0,0,4.776-6.731-2.822-6.616C52.741,101.574,57.627,102.533,55.563,108.189"/>
</svg>
