<?xml version="1.0" encoding="utf-8"?>
<!-- Generator: Adobe Illustrator 16.0.0, SVG Export Plug-In . SVG Version: 6.00 Build 0)  -->
<!DOCTYPE svg PUBLIC "-//W3C//DTD SVG 1.1//EN" "http://www.w3.org/Graphics/SVG/1.1/DTD/svg11.dtd">
<svg version="1.1" id="Layer_1" xmlns="http://www.w3.org/2000/svg" xmlns:xlink="http://www.w3.org/1999/xlink" x="0px" y="0px"
	 width="350px" height="350px" viewBox="0 0 350 350" enable-background="new 0 0 350 350" xml:space="preserve">
<g>
	<path fill="#3F2322" d="M111.804,96.167c-1.476-0.642-3.209-0.252-4.466,0.687c-0.738,0.551-1.178,1.313-1.369,2.147
		c-0.459,1.479-0.298,3.254,0.592,4.241c2.284,2.531,5.842,2.706,7.603-0.475C115.526,100.31,114.298,97.253,111.804,96.167z"/>
	<g>
		<path fill="#643E39" d="M108.847,99.488c-0.013-0.047-0.044-0.085-0.066-0.128c-0.102-0.396-0.342-0.762-0.768-0.957
			c-0.397-0.181-0.821-0.177-1.164-0.005c-0.018,0.008-0.035,0.01-0.051,0.018c-0.045,0.022-0.077,0.06-0.117,0.089
			c-0.046,0.035-0.097,0.058-0.137,0.102c-0.271,0.269-0.404,0.676-0.445,1.05c-0.061,0.568,0.427,1.057,0.942,1.277
			c0.024,0.011,0.047,0.019,0.072,0.028c0.109,0.041,0.219,0.075,0.323,0.087c0.003,0,0.005-0.001,0.008,0
			c0.157,0.019,0.312,0.009,0.461-0.025c0.076-0.017,0.14-0.046,0.207-0.075c0.079-0.032,0.152-0.069,0.222-0.114
			c0.028-0.02,0.055-0.037,0.08-0.059C108.776,100.5,108.996,100.049,108.847,99.488z"/>
		<path fill="#F6E1D0" d="M108.206,99.065c-1.125,0-1.125,1.744,0,1.744C109.33,100.809,109.33,99.065,108.206,99.065z"/>
		<path fill="#F6E1D0" d="M110.602,98.839c-0.797,0-0.797,1.236,0,1.236C111.398,100.075,111.398,98.839,110.602,98.839z"/>
		<path fill="#F6E1D0" d="M109.762,100.76c-0.638,0-0.638,0.99,0,0.99C110.401,101.75,110.401,100.76,109.762,100.76z"/>
	</g>
	<path fill="#6A7E0D" d="M319.267,200.415c-2.335-0.41-2.524,1.861-2.837,3.454c-0.189,0.967-0.479,1.923-0.724,2.877
		c-0.34,1.326-0.436,1.406-1.905,1.124c-1.025-0.197-2.705-0.705-3.758-0.415c-1.915,0.527-1.902,3.513-1.904,5.047
		c0,0.239,0.187,3.545-0.072,3.478c-1.813-0.478-3.705-0.605-5.514-1.115c-1.785-0.502-4.052-1.836-5.478,0.069
		c-1.657,2.216-2.832,5.006-3.741,7.603c-0.341,0.976-3.286-1.461-3.703-1.702c-1.474-0.85-3.17-1.285-4.681-2.095
		c-2.399-1.286-3.515,0.111-5.159,1.845c-1.081,1.138-2.032,2.391-3.142,3.524c-0.447,0.458-0.858,0.961-1.3,1.427
		c-0.802,0.849-1.019-0.262-1.437-0.816c-2.189-2.896-4.495-5.478-7.125-7.979c-1.689-1.605-3.901,0.549-5.326,1.436
		c-1.306,0.812-2.577,1.685-3.875,2.511c-0.61,0.388-1.235,0.701-1.923,0.938c-0.73,0.253-1.174-1.799-1.322-2.132
		c-1.038-2.348-1.855-5.094-3.53-7.078c-0.453-0.536-1.287-0.455-1.886-0.342c-1.913,0.366-3.862,1.519-5.714,2.156
		c-2.715,0.937-1.742-2.328-1.89-3.845c-0.148-1.532-0.273-3.402-0.683-4.889c-0.638-2.323-3.482-1.891-5.306-1.932
		c-1.795-0.043-3.764-0.06-5.53-0.357c-1.522-0.255-0.618-2.465-0.521-3.444c0.194-1.937,0.982-6.065-1.185-7.344
		c-1.641-0.969-3.345-0.971-5.18-1.179c-2.387-0.27-4.751-0.743-7.13-0.892c-0.976-0.062-0.942,1.399,0,1.498
		c0.094,0.009,0.187,0.024,0.28,0.035c0.196,6.51,5.048,12.703,8.828,17.663c4.213,5.528,9.752,10.407,16.123,13.279
		c3.331,1.503,6.265,2.864,9.846,3.655c1.485,0.326,2.962,0.102,4.442,0.417c2.014,0.43,4.051,0.516,6.065,1.048
		c7.429,1.964,15.081,1.994,22.675,2.52c7.309,0.507,15.33,0.445,21.717-3.673c2.766-1.783,5.373-3.765,7.621-6.177
		c2.541-2.727,4.218-6.235,6.314-9.289c1.749-2.546,2.377-5.237,3.353-8.092C323.8,201.048,320.741,200.673,319.267,200.415z"/>
	<path fill="#6A7E0D" d="M227.58,183.112c-0.241-0.878-1.709-1.466-2.396-1.854c-0.675-0.381-5.011-1.757-3.964-2.962
		c2.565-2.951,0.281-4.358-2.691-5.54c-0.842-0.334-1.814-0.787-2.74-0.803c-1.226-0.021-0.735-1.008-0.556-1.819
		c0.408-1.841,1.772-3.529,1.01-5.447c-0.386-0.968-1.765-1.68-2.711-1.923c-0.853-0.219-1.609-0.302-2.495-0.314
		c-1.279-0.017-0.982,0.237-0.982-0.982c0-2.46,2.24-7.676-1.134-8.792c-0.885-0.292-2.6-0.017-3.405,0.404
		c-1.644,0.857-1.965,0.321-1.573-1.479c0.309-1.423,0.578-2.91,1.164-4.245c1.509-3.438-1.639-3.787-4.449-3.672
		c-1.403,0.057-2.599,0.019-4.001-0.205c-1.593-0.254-0.995-0.906-0.619-2.14c0.505-1.657,1.429-3.875,0.466-5.519
		c-0.757-1.293-3.629-2.063-4.974-2.511c-1.875-0.625-3.94-0.656-5.777-1.388c0.792-1.405,2.555-3.084,3.446-4.018
		c1.242-1.299,2.796-3.213,2.796-5.121c0-2.943-9.957-7.309-5.903-9.673c2.95-1.721,7.743-4.035,6.035-8.084
		c-0.721-1.709-2.344-2.919-3.905-3.803c-0.806-0.456-1.709-0.762-2.598-0.997c-0.869-0.229-2.454-0.43-3.538-0.777
		c0.281-0.519,0.668-0.937,0.998-1.503c0.583-0.995,0.882-2.478,1.217-3.586c0.479-1.585,0.944-3.541,0.192-5.093
		c-0.614-1.271-2.869-1.262-4.006-1.361c-2.655-0.233-5.301,0.016-7.941,0.27c-0.933,0.09-1.71-0.058-2.598-0.072
		c-0.235-0.004-0.196-2.779-0.231-3.142c-0.124-1.258,0.006-4.03-0.767-5.104c-3.164-4.39-10.485,3.936-12.406-1.633
		c-0.608-1.765-1.36-3.862-2.727-5.167c-1.143-1.092-2.435-0.313-3.589,0.281c-0.986,0.507-1.954,1.04-2.953,1.522
		c-0.558,0.196-1.069,0.477-1.537,0.842c-1.4,0.902-2.066-0.394-2.7-1.259c-0.645-0.881-1.67-2.699-3.108-2.325
		c-2.142,0.557-3.828,1.847-5.531,3.208c-2.185,1.746-3.656,0.059-6.004,0.705c-2.869,0.789-1.938,6.723-2.475,8.935
		c-0.151,0.625,0.451,0.99,0.923,0.872c2.101,1.208,4.487,0.654,6.795,0.374c1.743-0.211,3.662,0.117,5.421,0.121
		c2.192,0.005,4.381-0.002,6.569,0.117c8.562,0.463,15.336,7.679,20.314,14.091c2.71,3.491,4.856,6.774,6.424,10.926
		c1.543,4.092,1.823,8.404,2.272,12.718c0.358,3.445,1.362,5.925,2.94,8.975c1.774,3.433,3.331,6.957,5.113,10.396
		c3.657,7.062,9.415,13.156,15.307,18.442c6.057,5.435,11.092,11.9,16.904,17.581c2.678,2.616,5.503,4.978,7.065,8.482
		c0.688,1.541,2.027,1.975,3.045,0.503c0.802-1.157,1.049-2.614,1.966-3.742C227.4,184.303,227.778,183.832,227.58,183.112z"/>
	<path fill="#BAB115" d="M327.277,207.588c-0.064-2.165-0.936-5.907-3.334-6.7c-3.02-0.998-4.101,1.275-5.869,3.303
		c-2.856,3.274-4.839,7.393-8.016,10.408c-6.091,5.782-15.738,9.148-23.797,10.86c-4.118,0.877-8.811,0.931-13.016,0.809
		c-4.69-0.136-9.419-0.629-13.918-2.044c-8.441-2.655-17.144-5.793-23.944-11.609c-2.844-2.433-5.624-5.127-8.031-7.993
		c-2.852-3.394-4.771-7.707-6.985-11.521c-1.688-2.912-3.476-6.994-3.846-10.39c-0.086-0.785-1.301-0.818-1.253,0
		c0.001,0.021,0.004,0.04,0.005,0.061c-0.135-0.087-0.291-0.15-0.497-0.15h-0.279c-0.135,0-0.25,0.03-0.354,0.072
		c-1.483,0.169-2.869,0.559-4.304,1.059c-1.557,0.544-3.228,1.538-4.814,1.868c-1.491,0.31-3.116,1.456-4.417,2.211
		c-1.92,1.115-3.827,2.255-5.695,3.455c-5.452,3.503-11.302,8.213-13.303,14.618c-2.074,6.642,1.364,14.534,5.247,19.797
		c4.362,5.913,11.512,10.145,17.724,13.852c6.582,3.93,13.82,7.559,21.077,10.051c7.782,2.672,16.202,3.712,24.396,4.066
		c8.382,0.361,16.431,0.699,24.789-0.436c3.778-0.513,7.511-1.269,11.283-1.795c3.83-0.534,7.768-2.324,11.354-3.717
		c13.393-5.204,25.719-15.454,29.149-29.915C327.466,214.279,327.385,211.159,327.277,207.588z"/>
	<path fill="#6A7E0D" d="M200.544,217.978c-2.624-4.447-9.009-6.099-13.769-5.33c-0.357,0.059-0.628,0.468-0.618,0.811
		c0.001,0.015,0,0.03,0.001,0.045c-2.515,2.271-4.252,5.166-6.075,7.999c-2.257,3.508-4.262,7.188-6.061,10.948
		c-3.25,6.797-4.403,14.04-4.952,21.467c-0.249,3.368,0.073,6.993,0.502,10.342c0.406,3.177,1.137,6.277,3.01,8.919
		c2.43,3.429,9.068,7.278,12.215,2.557c1.039-1.559-0.604-5.048-0.871-6.645c-0.733-4.396-1.039-8.659-0.176-13.059
		c0.885-4.51,1.455-8.611,3.435-12.83c1.695-3.612,3.521-7.278,5.624-10.67c2.095-3.378,4.587-6.456,7.084-9.541
		C201.283,221.273,201.688,219.915,200.544,217.978z"/>
	<path fill="#6A7E0D" d="M213.609,108.111c-1.559-4.016-4.361-8.111-9.134-6.753c-5.276,1.501-2.222,7.669-1.455,11.232
		c1.421,6.596,1.796,13.549-0.135,20.028c-1.062,3.564-2.991,6.442-5.625,9.037c-2.256,2.223-5.894,4.677-9.144,4.908
		c-0.83,0.059-0.842,1.26,0,1.297c0.017,0,0.033,0,0.048,0c0.044,0.083,0.096,0.167,0.176,0.246c0.093,0.093,0.188,0.186,0.28,0.278
		c0.178,0.176,0.376,0.24,0.568,0.243c1.835,1.199,2.836,3.388,4.675,4.647c1.696,1.164,4.512,0.83,6.34,0.27
		c2.243-0.687,3.866-2.568,5.459-4.16c1.967-1.964,4.23-3.628,5.494-6.166C216.435,132.613,217.956,119.306,213.609,108.111z"/>
	<path fill="#6A7E0D" d="M155.288,160.854c0.067-0.18,0.08-0.389-0.02-0.618c-0.053-0.121-0.104-0.242-0.157-0.363
		c-0.044-0.102-0.103-0.181-0.165-0.252c0.005-0.015,0.012-0.029,0.018-0.044c0.272-0.797-0.849-1.225-1.207-0.474
		c-1.401,2.941-5.015,5.433-7.908,6.721c-3.376,1.505-6.759,2.252-10.466,1.938c-6.737-0.567-13.073-3.454-18.696-7.185
		c-3.037-2.014-7.664-7.109-10.988-2.745c-3.007,3.948-0.217,8.052,2.954,10.969c8.836,8.132,21.78,11.573,33.582,10.53
		c2.823-0.249,5.198-1.75,7.745-2.863c2.063-0.902,4.407-1.727,5.865-3.564c1.189-1.498,2.527-3.997,2.064-6.001
		C157.405,164.731,155.733,163,155.288,160.854z"/>
	<path fill="#BAB115" d="M234.389,225.062c-0.51-3.507-1.957-6.728-3.127-10.045c-1.153-3.272-1.62-6.745-2.32-10.13
		c-0.751-3.627-1.227-7.283-1.921-10.924c-0.688-3.611-2.189-7.255-3.528-10.67c-2.248-5.73-5.783-10.943-8.538-16.448
		c-1.569-3.136-3.645-6.057-5.617-8.945c-1.901-2.787-3.59-5.707-5.498-8.488c-3.978-5.797-8.705-11.052-13.634-16.051
		c-4.515-4.58-9.238-9.5-15.184-12.207c-5.825-2.653-12.44-1.811-18.472-0.602c-2.625,0.526-5.029,2.505-6.854,4.338
		c-0.95,0.956-1.888,1.965-2.575,3.104c-0.33,0.083-0.621,0.334-0.652,0.769c-0.025,0.354-0.088,0.706-0.159,1.056
		c-0.032,0.115-0.049,0.238-0.076,0.356c-0.253,1.102-0.62,2.2-0.706,3.34c-0.147,1.956-0.463,3.907-0.671,5.856
		c-0.453,4.248-0.159,8.732,0.19,12.983c0.676,8.231,1.784,17.016,4.452,24.849c2.54,7.456,5.518,14.438,8.981,21.504
		c1.706,3.48,3.836,6.704,6.151,9.805c2.36,3.163,4.551,6.628,7.211,9.539c4.958,5.427,11.289,9.246,17.45,13.066
		c3.311,2.053,6.504,4.145,9.996,5.934c3.293,1.685,6.633,2.679,10.089,3.932c2.517,0.911,5.432,1.209,8.087,1.405
		c3.567,0.263,6.918,0.238,10.177-1.332C232.758,238.594,235.137,230.209,234.389,225.062z"/>
	<path fill="#6A7E0D" d="M196.743,183.994c-3.67-7.832-7.885-15.383-11.488-23.248c-3.509-7.654-6.078-15.636-10.177-23.007
		c-3.16-5.685-5.532-15.947-14.309-14.008c-2.869,0.634-4.787,3.629-5.027,6.513c-0.33,3.986-0.586,7.969-0.578,11.979
		c0.022,10.903,2.172,21.943,6.389,32.095c0.311,1.064,0.626,2.131,0.949,3.207c4.36,14.573,12.563,28.675,27.922,33.293
		c5.443,1.637,12.199,1.998,12.87-5.182C203.988,198.201,199.801,190.522,196.743,183.994z"/>
	<path fill="#9BA520" d="M186.097,108.888c-0.687-3.766-2.211-7.216-4.524-10.251c-2.308-3.028-4.302-5.704-7.306-8.12
		c-3.126-2.515-6.376-4.78-9.84-6.798c-3.096-1.803-6.077-3.582-9.418-4.903c-3.596-1.422-7.68-3.243-11.586-3.514
		c-7.26-0.504-14.112,2.625-19.202,7.623c-5.667,5.563-9.021,12.73-13.612,19.075c-2.702,3.735-5.572,6.995-9.677,9.197
		c-3.798,2.038-8.494,3.227-12.684,4.139c-4.625,1.006-9.111,2.456-13.768,3.354c-2.25,0.434-4.472,1.08-6.694,1.636
		c-2.665,0.667-5.426,0.769-8.107,1.36c-4.973,1.096-10.063,1.815-15.092,2.66c-2.38,0.4-5.037,0.323-7.058-1.113
		c-0.559-1.243-1.974-2.244-2.921-3.002c-1.911-1.526-4.425-2.746-6.916-2.427c-5.4,0.691-4.359,9.313-4.831,12.96
		c-0.719,5.545,0.38,13.24,5.058,16.846c2.746,2.118,7.117,2.477,10.405,3.027c3.82,0.64,7.597,0.963,11.432,1.432
		c1.947,0.237,3.918-0.193,5.899,0.084c1.561,0.219,3.151,0.193,4.723,0.196c3.927,0.005,7.84-0.279,11.761-0.279
		c8.193,0,16.312-0.754,24.481-1.225c8.525-0.491,17.089-1.413,25.505-2.86c8.667-1.491,17.344-2.583,25.895-4.732
		c7.992-2.01,15.913-4.308,22.918-8.752c5.82-3.691,11.56-8.893,13.646-15.637C185.585,115.608,186.728,112.345,186.097,108.888z"/>
	<path fill="#6A7E0D" d="M38.152,133.57c-0.365-1.352-1.329-2.851-2.192-3.936c-0.676-0.85-1.854-1.464-2.861-0.781
		c-0.662,0.449-1.023,1.648-1.013,2.802c0,0.018,0.001,0.037,0.001,0.056c0.003,0.137,0.011,0.271,0.024,0.404
		c0.001,0.013,0.002,0.025,0.004,0.038c0.036,0.336,0.104,0.659,0.211,0.944c0.412,1.299,1.264,2.583,1.897,3.271
		c0.709,0.77,1.824,1.447,2.881,0.877C38.435,136.529,38.503,134.873,38.152,133.57z M36.21,135.64
		c-0.38,0.029-0.776-0.595-0.992-0.826c-0.23-0.245-0.708-0.963-1.052-1.727c-0.025-0.601-0.218-1.266-0.22-1.83
		c0-0.043,0.005-0.107,0.013-0.179c0.023-0.029,0.029-0.071,0.057-0.097c0.188-0.171,0.242-0.384,0.22-0.593
		c0.44,0.241,1.148,1.642,1.276,1.895c0.354,0.702,0.769,1.411,0.981,2.172C36.525,134.564,36.636,135.607,36.21,135.64z"/>
	<path fill="#6A7E0D" d="M29.822,130.793c-0.365-1.351-1.328-2.85-2.191-3.936c-0.676-0.85-1.855-1.464-2.861-0.781
		c-0.662,0.449-1.023,1.648-1.014,2.802c0,0.018,0.001,0.037,0.001,0.056c0.002,0.136,0.01,0.271,0.024,0.404
		c0.001,0.013,0.002,0.025,0.003,0.038c0.036,0.336,0.104,0.659,0.212,0.944c0.411,1.299,1.263,2.583,1.897,3.271
		c0.708,0.77,1.823,1.447,2.881,0.877C30.105,133.752,30.174,132.096,29.822,130.793z M27.881,132.863
		c-0.38,0.029-0.775-0.595-0.991-0.825c-0.23-0.245-0.708-0.963-1.053-1.727c-0.024-0.601-0.217-1.266-0.219-1.83
		c0-0.042,0.005-0.107,0.013-0.179c0.023-0.029,0.028-0.071,0.056-0.097c0.188-0.171,0.244-0.384,0.22-0.593
		c0.442,0.241,1.149,1.642,1.276,1.895c0.355,0.703,0.769,1.412,0.981,2.172C28.195,131.788,28.307,132.831,27.881,132.863z"/>
	<path fill="#F6E1D0" d="M102.144,125.01c-0.378-0.402-0.972-0.334-1.357,0c-0.873,0.754-0.969,2.369-1.167,3.413
		c-0.5,2.64-3.05,4.885-4.958,6.602c-4.117,3.704-10.17,4.743-15.407,3.396c-0.118-0.078-0.255-0.137-0.432-0.144l-0.279-0.012
		c-0.165-0.006-0.293,0.034-0.406,0.092c-0.071-0.017-0.142-0.034-0.213-0.05c-0.547-0.128-1.012,0.25-1.047,0.798
		c-0.139,2.141,4.765,3.807,6.184,4.311c3.765,1.338,7.661,1.706,11.554,0.564c3.704-1.085,6.531-3.747,7.915-7.31
		C103.692,133.676,104.593,127.611,102.144,125.01z"/>
	<path fill="#3F2322" d="M143.112,97.845c-1.476-0.643-3.211-0.252-4.466,0.687c-0.738,0.551-1.178,1.312-1.37,2.147
		c-0.459,1.479-0.298,3.254,0.593,4.241c2.284,2.531,5.841,2.706,7.603-0.475C146.832,101.987,145.605,98.93,143.112,97.845z"/>
	<g>
		<path fill="#643E39" d="M140.213,101.428c-0.013-0.047-0.043-0.085-0.065-0.128c-0.102-0.396-0.342-0.762-0.768-0.956
			c-0.396-0.181-0.82-0.178-1.164-0.006c-0.017,0.008-0.035,0.01-0.051,0.018c-0.045,0.022-0.077,0.061-0.117,0.089
			c-0.046,0.035-0.097,0.058-0.137,0.102c-0.271,0.268-0.404,0.676-0.444,1.049c-0.062,0.568,0.427,1.057,0.942,1.277
			c0.024,0.011,0.047,0.019,0.072,0.028c0.109,0.041,0.219,0.075,0.323,0.088c0.003,0,0.005-0.001,0.009,0
			c0.157,0.019,0.311,0.009,0.461-0.025c0.076-0.017,0.141-0.046,0.207-0.075c0.079-0.032,0.152-0.069,0.223-0.114
			c0.027-0.02,0.055-0.037,0.08-0.059C140.143,102.44,140.362,101.988,140.213,101.428z"/>
		<path fill="#F6E1D0" d="M139.572,101.005c-1.125,0-1.125,1.744,0,1.744C140.696,102.749,140.696,101.005,139.572,101.005z"/>
		<path fill="#F6E1D0" d="M141.968,100.779c-0.797,0-0.797,1.236,0,1.236C142.764,102.015,142.764,100.779,141.968,100.779z"/>
		<path fill="#F6E1D0" d="M141.129,102.699c-0.639,0-0.639,0.99,0,0.99S141.768,102.699,141.129,102.699z"/>
	</g>
	<path fill="#6A7E0D" d="M242.336,260.743c-3.305-2.992-6.189-6.144-8.244-10.129c-2.105-4.085-4.204-7.656-5.271-12.191
		c-0.914-3.885-1.757-7.892-2.214-11.856c-0.455-3.949-0.412-7.91-0.369-11.878c0.023-2.208-0.502-3.525-2.602-4.333
		c-4.818-1.858-10.849,0.811-14.104,4.368c-0.244,0.268-0.201,0.757,0.019,1.019c0.01,0.012,0.019,0.024,0.03,0.035
		c-0.564,3.342-0.13,6.689,0.201,10.043c0.408,4.15,1.12,8.28,2.044,12.344c1.673,7.347,5.264,13.742,9.444,19.905
		c1.895,2.794,4.398,5.438,6.813,7.796c2.289,2.238,4.788,4.217,7.896,5.124c4.033,1.18,11.628,0.077,11.163-5.576
		C246.99,263.544,243.536,261.828,242.336,260.743z"/>
	<path fill="#BAB115" d="M184.223,270.244c-0.215-0.033-0.433-0.053-0.65-0.053c-1.744,0.003-1.89,0.414-2.663,1.27
		c-0.613-0.845-0.975-1.497-2.52-0.949c-0.987,0.35-1.511,1.104-1.776,1.984c-1.309-0.773-3.015-1.575-4.278-0.755
		c-0.168,0.108-0.313,0.225-0.446,0.343c0.212,0.373,0.441,0.737,0.693,1.094c2.43,3.429,9.068,7.278,12.215,2.557
		C185.632,274.483,184.745,272.004,184.223,270.244z"/>
	<path fill="#BAB115" d="M204.476,101.358c-3.556,1.012-3.326,4.142-2.564,7.167c0.66,0.194,1.464,0.232,1.946,0.066
		c1.22-0.419,1.065-0.817,1.473-1.521c1.177,1.063,2.561,2.822,3.859,0.604c0.189-0.323,0.274-0.73,0.373-1.086
		c0.06-0.217,1.128,0.183,1.427,0.095c0.579-0.172,1.13-0.458,1.58-0.853C210.901,102.725,208.333,100.26,204.476,101.358z"/>
	<path fill="#BAB115" d="M108.036,168.212c1.05-0.944,1.449-2.354,1.214-3.769c0.831-0.012,1.598,0.099,2.188-0.86
		c0.541-0.88,0.337-1.452,0.09-2.176c0.743-0.045,1.249-0.113,2.083-0.806c0.548-0.455,0.877-0.971,1.039-1.538
		c-2.837-2.188-6.306-4.703-8.95-1.23C102.89,161.521,105.142,165.346,108.036,168.212z"/>
	<path fill="#BAB115" d="M242.969,261.242c-1.182,0.763-1.874,1.96-2.323,3.451c-0.893-0.58-1.861-1.286-2.943-0.571
		c-1.351,0.893-1.61,1.57-1.735,2.685c-0.868-0.258-1.574-0.395-2.668,0.144c-0.938,0.461-1.502,1.05-1.694,1.889
		c1.333,0.925,2.772,1.683,4.376,2.15c4.033,1.18,11.628,0.077,11.163-5.576C247.013,263.81,244.452,262.319,242.969,261.242z"/>
	<path fill="#F38C6B" d="M147.122,118.811c-1.783-1.127-3.997-1.338-6.023-0.974c-0.543,0.098-3.025,1.086-1.291,0.44
		c-1.343,0.5-2.22,1.036-3.334,1.927c-3.154,2.522-4.438,7.753-1.991,11.176c2.428,3.396,6.915,4.961,10.79,3.228
		c0.466-0.161,0.935-0.348,1.414-0.565c0.938-0.424,2.31-1.674,2.765-2.637c-0.728,0.763-0.6,0.555,0.383-0.625
		c0.353-0.591,0.633-1.257,0.866-1.895C152.152,124.895,150.665,121.048,147.122,118.811z"/>
	<path fill="#9BA520" d="M211.859,131.734c-0.513-0.159-0.759-0.085-1.314-0.044c-0.599,0.044-1.198-0.088-1.772-0.232
		c-1.038-0.261-1.637-0.981-2.416-1.627c-0.47-0.39-1.268,0.111-0.895,0.69c0.632,0.982,1.445,1.798,2.573,2.196
		c1.163,0.41,3.101,0.908,4.046-0.14C212.339,132.292,212.232,131.85,211.859,131.734z"/>
	<path fill="#9BA520" d="M211.031,129.383c-0.286-0.104-0.521-0.015-0.811-0.013c-0.306,0.001-0.577-0.066-0.868-0.155
		c-0.479-0.146-0.922-0.467-1.407-0.575c-0.18-0.04-0.433,0.053-0.464,0.263c-0.11,0.779,0.774,1.213,1.363,1.518
		c0.684,0.355,2.112,0.739,2.537-0.175C211.549,129.884,211.409,129.52,211.031,129.383z"/>
	<path fill="#9BA520" d="M214.563,129.239c-1.184-2.802-5.729-3.511-8.223-2.341c-0.356,0.168-0.128,0.625,0.18,0.662
		c1.305,0.158,2.657,0.164,3.939,0.446c1.36,0.299,2.121,1.4,3.204,2.132C214.275,130.552,214.792,129.778,214.563,129.239z"/>
	<path fill="#9BA520" d="M129.133,172.058c0.188-1.333,1.04-2.325,1.355-3.571c0.077-0.302-0.215-0.668-0.544-0.544
		c-1.461,0.547-1.983,2.318-2.325,3.698c-0.396,1.591-0.014,3.679,0.948,4.998c0.323,0.443,1.273,0.377,1.184-0.32
		C129.566,174.871,128.921,173.55,129.133,172.058z"/>
	<path fill="#9BA520" d="M131.762,172.161c-0.058-0.456-0.149-0.906-0.21-1.361c-0.061-0.446-0.836-0.446-0.896,0
		c-0.062,0.455-0.153,0.905-0.211,1.361c-0.066,0.519-0.256,0.997-0.275,1.529c-0.01,0.266,0.151,0.512,0.371,0.648
		c0.263,0.162,0.492,0.141,0.758,0c0.375-0.2,0.371-0.639,0.42-1.003C131.772,172.931,131.813,172.565,131.762,172.161z"/>
	<path fill="#9BA520" d="M132.898,169.317c-0.357-0.277-0.826,0.056-0.626,0.483c0.451,0.966,0.872,2.035,0.928,3.11
		c0.063,1.243-0.463,2.255-0.765,3.415c-0.178,0.689,0.632,1.094,1.135,0.661C135.731,175.125,135,170.946,132.898,169.317z"/>
	<path fill="#9BA520" d="M224.756,239.229c-1.687-0.68-4.327-0.037-5.905,0.742c-1.344,0.664-2.671,2.474-2.685,4.005
		c-0.004,0.54,0.824,0.824,1.069,0.29c0.558-1.212,1.228-2.246,2.388-2.974c1.341-0.841,3.46-0.675,4.972-0.876
		C225.279,240.327,225.41,239.493,224.756,239.229z"/>
	<path fill="#9BA520" d="M222.619,242.545c-0.555-0.441-1.271-0.352-1.923-0.161c-0.688,0.2-1.082,0.61-1.363,1.244
		c-0.217,0.488,0.374,1.063,0.791,0.609c0.289-0.313,0.494-0.49,0.921-0.591c0.501-0.119,0.99-0.008,1.462-0.234
		C222.807,243.27,222.887,242.759,222.619,242.545z"/>
	<path fill="#9BA520" d="M222.947,244.156c-0.468,0.097-0.762,0.354-1.15,0.618c-0.193,0.133-0.397,0.25-0.601,0.369
		c-0.198,0.117-0.493,0.404-0.736,0.371c-0.498-0.066-0.841,0.555-0.358,0.851c0.705,0.433,1.382,0.057,2.064-0.245
		c0.698-0.311,1.352-0.657,1.413-1.481C223.604,244.296,223.243,244.096,222.947,244.156z"/>
	<path fill="#9BA520" d="M226.279,244.674c-0.893,1.216-1.336,1.935-2.865,2.442c-1.616,0.536-2.788,1.016-4.474,0.403
		c-0.504-0.183-0.737,0.546-0.345,0.817c1.979,1.365,3.601,0.88,5.793,0.208c1.663-0.508,3.009-1.727,3.156-3.527
		C227.606,244.272,226.637,244.188,226.279,244.674z"/>
	<path fill="#9BA520" d="M183.245,243.737c-1.008-2.041-3.36-2.9-5.482-3.095c-1.635-0.15-4.476,0.254-5.176,1.983
		c-0.124,0.305,0.25,0.678,0.555,0.556c1.565-0.629,2.901-1.051,4.621-0.942c2.043,0.131,3.004,1.367,4.577,2.403
		C182.935,245.033,183.519,244.291,183.245,243.737z"/>
	<path fill="#9BA520" d="M178.904,244.763c-0.587-1.59-2.85-1.151-3.939-0.427c-0.435,0.289-0.163,0.96,0.355,0.842
		c0.5-0.115,0.997-0.157,1.51-0.127c0.485,0.027,0.862,0.383,1.33,0.455C178.568,245.567,179.083,245.243,178.904,244.763z"/>
	<path fill="#9BA520" d="M177.771,246.584c-0.445-0.194-0.843-0.065-1.313-0.05c-0.479,0.015-0.955-0.049-1.419-0.171
		c-0.531-0.14-0.795,0.564-0.362,0.856c0.704,0.473,2.81,1.313,3.307,0.18C178.102,247.131,178.092,246.726,177.771,246.584z"/>
	<path fill="#9BA520" d="M180.687,248.02c-1.19,0.444-2.186,1.058-3.483,1.193c-1.813,0.188-3.383-0.607-4.632-1.854
		c-0.367-0.365-0.883,0.096-0.681,0.526c1.59,3.399,7.229,4.276,9.604,1.183C181.869,248.576,181.245,247.81,180.687,248.02z"/>
</g>
</svg>
