<?xml version="1.0" encoding="utf-8"?>
<!-- Generator: Adobe Illustrator 16.0.0, SVG Export Plug-In . SVG Version: 6.00 Build 0)  -->
<!DOCTYPE svg PUBLIC "-//W3C//DTD SVG 1.1//EN" "http://www.w3.org/Graphics/SVG/1.1/DTD/svg11.dtd">
<svg version="1.1" id="Layer_1" xmlns="http://www.w3.org/2000/svg" xmlns:xlink="http://www.w3.org/1999/xlink" x="0px" y="0px"
	 width="350px" height="350px" viewBox="0 0 350 350" enable-background="new 0 0 350 350" xml:space="preserve">
<g>
	<ellipse fill="#B2CEC0" cx="175.865" cy="294.852" rx="112.94" ry="15.563"/>
	<g>
		<path fill="#4EC1C4" d="M230.15,169.313c3.755,6.081,10.88,9.035,17.541,11.618c4.377,1.695,8.78,3.4,13.383,4.315
			c7.977,1.588,16.308,0.763,24.227,2.607c2.396,0.558,5.18,1.905,5.275,4.363c0.086,2.206-2.048,3.734-3.743,5.148
			c-6.724,5.604-9.062,14.824-10.321,23.486c-0.279,1.921-0.558,3.933-1.68,5.518c-0.873,1.237-2.193,2.099-3.583,2.703
			c-5.289,2.303-11.554,1.1-16.64-1.621c-5.085-2.72-9.28-6.801-13.613-10.606c-4.336-3.806-9.034-7.462-14.583-9.037
			c-4.573-1.302-9.46-1.098-14.136-0.231L230.15,169.313z"/>
	</g>
	<g>
		<g>
			<path fill="#EDD5C0" d="M241.148,275.901c-4.551-5.693-4.969-6.485-10.485-10.727c5.129-19.272,8.286-39.65,6.557-59.8
				c-1.729-20.148-8.731-40.113-21.315-53.363l-79.363-1.658c-12.584,13.25-19.586,33.215-21.316,53.362
				c-1.729,20.15,1.428,40.529,6.557,59.8c-5.517,4.243-5.935,5.036-10.484,10.729c-2.771,3.469-5.519,8.021-4.551,12.714
				c0.702,3.406,3.199,5.796,5.722,7.5c10.459,7.069,19.448,10.665,29.42,2.617c0.995-0.802,1.997-1.693,3.171-1.95
				c0.665-0.146,1.338-0.067,2.007,0.073c18.57,6.244,38.387,6.93,57.209,1.921c1.023-0.271,2.079-0.562,3.109-0.337
				c1.174,0.257,2.177,1.149,3.172,1.952c9.972,8.045,18.96,4.451,29.421-2.617c2.522-1.704,5.021-4.095,5.722-7.502
				C246.667,283.923,243.919,279.372,241.148,275.901z"/>
		</g>
		<g>
			<path fill="#F4DFCC" d="M166.445,304.547c0.019-0.011,0.036-0.021,0.056-0.031c5.805-2.953,9.583-8.676,9.544-14.476
				c-0.027-4.248-1.926-8.285-3.295-12.359c-4.454-13.246-3.393-27.346-3.811-41.151c-0.358-11.793-2.096-24.115-8.724-34.224
				c-1.773-2.704-5.333-4.353-9.17-4.297l0,0c-3.874,0.056-7.43,1.838-9.139,4.631c-6.448,10.537-7.63,23.182-7.42,35.207
				c0.241,13.808,1.975,27.839-1.84,41.282c-1.173,4.138-2.877,8.261-2.702,12.506c0.239,5.794,4.285,11.33,10.224,14.001
				c0.02,0.009,0.038,0.02,0.057,0.028c0.156,0.069,0.318,0.126,0.476,0.192c0.109,0.018,0.219,0.038,0.328,0.056
				C149.54,307.36,158.931,308.335,166.445,304.547z"/>
		</g>
		<g>
			<path fill="#F4DFCC" d="M214.206,304.342c0.019-0.009,0.036-0.021,0.056-0.029c5.805-2.953,9.582-8.676,9.544-14.474
				c-0.028-4.25-1.927-8.287-3.297-12.363c-4.451-13.246-3.392-27.344-3.809-41.147c-0.358-11.794-2.097-24.115-8.725-34.224
				c-1.773-2.706-5.332-4.353-9.171-4.298l0,0c-3.873,0.055-7.429,1.836-9.138,4.631c-6.447,10.536-7.629,23.181-7.42,35.204
				c0.243,13.809,1.975,27.842-1.842,41.286c-1.172,4.136-2.876,8.257-2.7,12.504c0.237,5.794,4.284,11.33,10.225,14.001
				c0.02,0.011,0.038,0.021,0.056,0.028c0.156,0.069,0.319,0.125,0.476,0.19c0.111,0.021,0.219,0.038,0.33,0.06
				C197.301,307.159,206.691,308.132,214.206,304.342z"/>
		</g>
		<g>
			<path fill="#EDD5C0" d="M157.999,306.795c0,0-3.404-5.806-1.789-12.117c0,0-4.34,8.736-3.701,12.705
				C152.508,307.383,155.963,307.769,157.999,306.795z"/>
			<path fill="#EDD5C0" d="M141.61,305.533c0,0-1.492-8.007,0.141-12.314c0,0-4.249,6.519-4.576,10.96
				C137.175,304.179,139.652,305.593,141.61,305.533z"/>
			<path fill="#EDD5C0" d="M190.318,305.238c0,0,3.989-5.419,3.041-11.865c0,0,3.406,9.142,2.357,13.021
				C195.717,306.395,192.241,306.419,190.318,305.238z"/>
			<path fill="#EDD5C0" d="M207.971,305.832c0,0,1.5-8.005-0.129-12.314c0,0,4.243,6.522,4.564,10.963
				C212.406,304.48,209.928,305.893,207.971,305.832z"/>
		</g>
	</g>
	<g>
		<g>
			<path fill="#65C8D0" d="M118.283,170.884c-3.66,0.482-5.427,4.258-5.647,7.5s5.039,6.95,3.202,9.77
				c-2.397,3.683-2.808,4.821-4.743,8.705c-1.994,4.004,1.357,8.796,5.854,10.672c4.497,1.876,4.338,1.644,9.313,1.448
				c10.459-0.404,21.011-0.44,31.311,1.206c3.303,0.526,6.568,1.226,9.873,1.745c13.667,2.148,27.962,1.151,41.071-2.864
				c9.452-2.896,19.113-7.406,28.902-5.571c0.813,0.152,1.662,0.347,2.461,0.144c1.742-0.446,2.19-2.392,2.327-3.979
				c0.203-2.352,0.363-4.87-1.002-6.9c-0.613-0.908-1.499-1.658-2.086-2.581c-1.392-2.18-0.893-4.858-0.803-7.357
				c0.134-3.699-0.741-7.425-2.532-10.776c-0.419-0.782-0.906-1.567-1.676-2.105c-1.958-1.37-4.81-0.67-7.179,0.041
				c-31.706,9.515-67.019,9.487-98.704-0.077L118.283,170.884z"/>
		</g>
	</g>
	<g>
		<g>
			<path fill="#736357" d="M115.614,59.666c-12.165,14.48-27.835,25.49-42.771,37.092c-3.823,2.97-7.639,6.019-10.703,9.766
				c-7.246,8.864-9.585,21.5-5.992,32.37c1.495,4.522,4,8.789,7.642,11.858c3.643,3.069,8.485,4.848,13.214,4.288
				c3.16-0.374,6.114-1.738,8.908-3.258c2.91-1.583,5.751-3.384,8.02-5.8c2.642-2.815,4.395-6.344,5.837-9.924
				c3.516-8.73,5.395-18.046,8.847-26.801s8.869-17.265,17.226-21.593c0,0,16.867-29.819-9.176-28.729L115.614,59.666z"/>
		</g>
		<g>
			<path fill="#736357" d="M231.625,53.756c12.74,13.976,28.845,24.343,44.237,35.331c3.939,2.813,7.877,5.704,11.09,9.324
				c7.598,8.563,10.448,21.095,7.297,32.102c-1.31,4.579-3.641,8.942-7.155,12.157c-3.516,3.215-8.282,5.188-13.031,4.819
				c-3.171-0.245-6.178-1.489-9.031-2.895c-2.972-1.465-5.883-3.148-8.247-5.471c-2.755-2.705-4.647-6.16-6.233-9.68
				c-3.866-8.581-6.121-17.813-9.925-26.42c-2.956-6.692-7.094-13.188-12.796-17.621c-5.699-4.431-9.833-10.695-11.063-17.809
				c-1.256-7.273,0.745-14.542,13.779-14.525L231.625,53.756z"/>
		</g>
		<path fill="#F4DFCC" d="M228.865,118.938c3.54-8.443,5.381-17.854,5.066-27.729c-1.109-34.854-28.555-52.624-61.354-51.58
			c-32.799,1.043-58.529,20.506-57.421,55.359c0.288,9.04,2.363,17.571,5.832,25.243c-6.601,8.196-10.296,17.932-9.968,28.272
			c0.88,27.653,29.928,46.533,65.216,45.411s63.453-21.822,62.572-49.476C238.509,135.006,234.894,126.288,228.865,118.938z"/>
		<path fill="#998675" d="M191.494,56.682c3.563,10.929,1.689,22.796-0.218,34.132c-1.103,6.555-2.204,13.11-3.309,19.664
			c-1.146,6.814-2.26,14.007,0.174,20.474c1.74,4.627,5.296,8.544,9.73,10.727c3.42,1.682,7.25,2.335,11.043,2.696
			c6.505,0.617,13.449,0.323,18.986-3.146c4.239-2.654,7.235-7.658,7.119-12.49c-1.604-3.467-3.659-6.756-6.155-9.8
			c3.54-8.443,5.381-17.854,5.066-27.729c-0.509-15.988-6.57-28.371-16.14-37.003c-4.234-3.665-9.21-6.791-14.45-9.182
			c-6.729-2.907-14.25-4.657-22.228-5.226l-1.358-0.065C184.661,43.969,189.484,50.522,191.494,56.682z"/>
		<path fill="#998675" d="M121.305,141.007c5.537,3.469,12.481,3.762,18.985,3.145c3.793-0.36,7.624-1.015,11.044-2.695
			c4.436-2.183,7.989-6.101,9.73-10.727c2.433-6.468,1.319-13.66,0.173-20.474c-1.103-6.555-2.205-13.109-3.308-19.665
			c-1.907-11.336-3.781-23.203-0.216-34.132c1.964-6.021,6.62-12.404,11.409-16.644c-23.249,1.689-42.458,12.882-50.253,32.444
			c-1.39,3.712-2.402,7.556-3.065,11.475c-0.537,3.554-0.772,7.3-0.647,11.255c0.288,9.04,2.363,17.571,5.832,25.243
			c-2.728,3.387-4.926,7.048-6.582,10.896C115.184,135.073,117.829,138.83,121.305,141.007z"/>
		<path fill="#FFE9D8" d="M208.103,162.403c0,18.141-14.701,29.734-33.2,29.734c-18.5,0-33.793-11.594-33.793-29.734
			s14.923-22.846,33.422-22.846C193.031,139.558,208.103,144.263,208.103,162.403z"/>
	</g>
	<g>
		<circle fill="#4D4D4D" cx="204.457" cy="116.942" r="7.451"/>
		<circle fill="#4D4D4D" cx="145.696" cy="117.242" r="7.451"/>
		<path fill="#4D4D4D" d="M158.699,145.07c0.027,5.344,7.292,13.942,16.199,13.896c8.909-0.044,16.085-8.714,16.057-14.059
			c-0.023-5.344-7.267-9.641-16.175-9.596C165.873,135.356,158.673,139.726,158.699,145.07z"/>
		<path fill="#4D4D4D" d="M188.241,180.479c-3.225,0.511-6.953-2.104-9.295-5.064c-1.773-2.243-2.821-5.148-3.452-8.217v-9.595
			h-1.779v9.669c-0.495,3.036-1.407,5.923-3.053,8.191c-2.205,3.036-5.812,5.77-9.057,5.365c-0.774-0.098-0.732,1.513,0.036,1.608
			c3.585,0.449,7.475-2.525,9.899-5.852c1.569-2.152,2.526-4.798,3.105-7.625c0.707,2.84,1.79,5.484,3.474,7.605
			c2.574,3.245,6.597,6.088,10.157,5.521C189.041,181.967,189.01,180.356,188.241,180.479z"/>
	</g>
</g>
</svg>
