<?xml version="1.0" encoding="utf-8"?>
<!-- Generator: Adobe Illustrator 16.0.0, SVG Export Plug-In . SVG Version: 6.00 Build 0)  -->
<!DOCTYPE svg PUBLIC "-//W3C//DTD SVG 1.1//EN" "http://www.w3.org/Graphics/SVG/1.1/DTD/svg11.dtd">
<svg version="1.1" id="Layer_1" xmlns="http://www.w3.org/2000/svg" xmlns:xlink="http://www.w3.org/1999/xlink" x="0px" y="0px"
	 width="350px" height="350px" viewBox="0 0 350 350" enable-background="new 0 0 350 350" xml:space="preserve">
<g>
	<path fill="#E84766" d="M196.473,199.962c3.073-0.179,5.719-2.027,8.248-3.68c2.668-1.743,5.193-3.749,7.574-5.865
		c5.073-4.509,8.935-9.796,12.865-15.274c-2.016-0.85-4.031-1.7-6.047-2.55c-1.084,4.418,0.064,8.725,0.273,13.169
		c0.209,4.456-1.261,8.091-3.7,11.754c-2.038,3.059-4.378,6.529-7.26,8.861c-0.568,0.459-1.337,0.712-1.876,1.171
		c-1.119,0.169-0.943,0.469,0.526,0.899c-0.102-0.526-0.19-1.055-0.268-1.585c-0.408-2.486-0.79-4.978-1.186-7.467
		c-0.465-2.923-5.412-3.649-6.595-0.861c-1.233,2.909-0.578,6.012,2.322,7.694c3.184,1.849,6.579,0.174,9.052-2.011
		c4.969-4.388,9.004-10.062,12.01-15.937c2.123-4.147-3.69-7.554-6.243-3.648c-3.59,5.492-6.74,11.248-9.278,17.303
		c2.301,0.635,4.604,1.269,6.904,1.903c1.006-2.693,0.839-5.42,0.254-8.188c-0.489-2.314-3.7-3.052-5.269-1.392
		c-2.054,2.175-3.501,4.545-4.65,7.295c-1.302,3.117,4.056,5.395,5.492,2.315c0.922-1.974,2.056-3.631,3.616-5.152
		c-1.794-0.743-3.588-1.486-5.381-2.229c0.213,1.605,0.032,3.087-0.606,4.591c-0.761,1.793-0.522,3.816,1.284,4.898
		c1.548,0.928,4.076,0.46,4.899-1.284c2.673-5.665,5.55-11.162,8.978-16.413c-2.081-1.216-4.162-2.433-6.243-3.648
		c-1.591,3.113-3.418,6.126-5.608,8.858c-1.019,1.271-2.105,2.488-3.24,3.656c-0.563,0.58-1.131,1.177-1.741,1.71
		c-0.315,0.331-0.669,0.613-1.06,0.848c0.502,0.216,0.844,0.597,1.024,1.142c-0.164,0.607-0.328,1.214-0.493,1.821
		c0.07-0.164,0.139-0.328,0.208-0.492c-2.197-0.287-4.396-0.574-6.594-0.861c0.759,4.764,0.447,13.782,7.254,13.679
		c5.337-0.08,9.291-4.966,12.26-8.79c3.341-4.305,6.803-8.912,7.94-14.365c1.274-6.102-0.718-12.217-0.508-18.365
		c0.107-3.115-4.81-4.733-6.165-1.67c-2.48,5.603-6.431,10.72-10.596,15.171c-2.055,2.195-4.264,4.22-6.562,6.157
		c-2.214,1.867-4.802,3.325-6.447,5.734C195.538,199.313,195.939,199.992,196.473,199.962L196.473,199.962z"/>
	<path fill="#E84766" d="M125.022,223.49c2.104,2.252,5.444,3.648,8.259,4.781c3.104,1.249,6.315,2.077,9.575,2.806
		c6.636,1.482,13.627,1.711,20.241,0.008c2.431-0.626,3.667-3.637,2.354-5.784c-2.189-3.582-3.689-7.302-4.632-11.393
		c-0.639-2.769-4.622-3.916-6.542-1.727c-2.481,2.828-5.172,5.419-8.093,7.79c2.026,1.563,4.053,3.128,6.08,4.691
		c2.507-4.673-1.65-8.817-6.395-8.481c-5.063,0.358-10.13,1.084-15.182,1.599c-3.501,0.356-5.639,5.236-1.948,7.193
		c4.728,2.507,10.266,3.071,15.276,1.027c1.957-0.798,3.343-2.604,2.735-4.816c-0.505-1.84-2.853-3.556-4.816-2.734
		c-3.1,1.295-6.268,1.431-9.298-0.144c-0.649,2.397-1.299,4.796-1.949,7.193c2.935-0.324,5.868-0.661,8.805-0.968
		c2.185-0.229,5.686-1.274,7.746-0.474c-0.568-0.331-1.136-0.662-1.704-0.993c-0.077-0.274-0.153-0.55-0.229-0.824
		c0.176-0.651,0.352-1.303,0.528-1.953c-0.085,0.155-0.17,0.312-0.255,0.467c-2.222,4.066,2.756,7.349,6.08,4.691
		c2.939-2.349,5.651-4.92,8.154-7.729c-2.181-0.576-4.361-1.151-6.542-1.728c1.056,4.691,2.887,9.176,5.38,13.286
		c0.784-1.928,1.569-3.856,2.353-5.784c-5.722,1.83-11.47,3.048-17.507,2.855c-2.991-0.096-5.964-0.757-8.826-1.609
		c-2.898-0.862-5.65-2.402-8.563-3.111C125.014,221.359,124.257,222.672,125.022,223.49L125.022,223.49z"/>
	<path fill="#E84766" d="M124.937,216.342c3.382,3.97,10.946,1.439,15.187,0.673c6.92-1.251,13.874-2.443,20.736-3.979
		c2.818-0.631,1.615-5.129-1.198-4.347c-5.843,1.625-11.648,3.349-17.56,4.712c-5.273,1.218-11.073,3.416-16.367,1.572
		C124.897,214.681,124.452,215.773,124.937,216.342L124.937,216.342z"/>
	<path fill="#1D1D1B" d="M253.902,232.798c-0.015,0.14-0.044,0.287-0.047,0.43c-0.011,0.517,0.259,1.025,0.637,1.362
		c0.455,0.406,1.033,0.6,1.639,0.434c0.555-0.152,1.038-0.611,1.177-1.177c0.15-0.609,0.109-1.185-0.284-1.694
		c-0.128-0.166-0.263-0.323-0.4-0.481c-0.414-0.479-1.194-0.561-1.741-0.33c-0.262,0.11-0.464,0.266-0.637,0.491
		C254.013,232.132,253.944,232.418,253.902,232.798L253.902,232.798z"/>
	<path fill="#1D1D1B" d="M173.03,219.735c4.979-4.936,10.75-8.813,17.182-11.6c2.33-1.01,0.32-4.584-2.022-3.46
		c-6.567,3.149-12.443,7.484-17.414,12.806C169.378,218.979,171.566,221.186,173.03,219.735L173.03,219.735z"/>
	<path fill="#1D1D1B" d="M175.979,203.508c1.762,3.998,4.073,7.62,5.599,11.757c0.748,2.028,3.732,0.802,2.746-1.158
		c-1.968-3.907-4.24-8.26-7.486-11.261C176.359,202.402,175.736,202.955,175.979,203.508L175.979,203.508z"/>
	<path fill="#1D1D1B" d="M188.46,195.602c-0.82-1.446-2.324-1.714-3.876-1.938c-2.732-0.393-5.512-0.222-8.195,0.417
		c-5.327,1.268-10.097,4.045-13.852,8.02c-1.248,1.32,0.757,3.329,1.996,1.996c2.952-3.176,6.581-5.711,10.665-7.207
		c1.883-0.689,3.874-1.2,5.856-1.51c1.958-0.305,5.509-1.204,7.049,0.498C188.279,196.072,188.586,195.823,188.46,195.602
		L188.46,195.602z"/>
	<path fill="#1D1D1B" d="M162.106,206.393c4.077-5.03,8.375-9.048,14.861-10.631c1.993-0.486,1.114-3.693-0.848-3.073
		c-6.297,1.991-12.703,6.704-14.775,13.261C161.214,206.363,161.815,206.752,162.106,206.393L162.106,206.393z"/>
	<path fill="#1D1D1B" d="M164.062,202.766c0.119-4.157,5.866-6.646,9.222-7.813c3.488-1.213,7.25-1.771,10.924-1.248
		c6.838,0.974,12.609,5.768,14.63,12.415c5.005,16.472-18.055,25.252-30.357,19c-9.422-4.788-6.588-15.391-2.793-22.995
		c0.955-1.913-1.941-3.599-2.87-1.677c-3.763,7.78-6.689,18.496,1.265,24.846c7.021,5.605,17.988,5.024,25.661,1.184
		c7.1-3.556,12.658-10.854,11.386-19.099c-1.229-7.966-7.869-14.329-15.751-15.596c-4.559-0.733-9.272-0.004-13.461,1.908
		c-3.456,1.578-8.963,4.536-8.356,9.074C163.603,203.075,164.052,203.098,164.062,202.766L164.062,202.766z"/>
	<path fill="#E84766" d="M145.163,147.459c-0.293,9.022,3.29,18.334,8.6,25.523c2.53,3.426,5.874,6.765,10.497,6.354
		c3.713-0.329,6.381-3.017,7.815-6.295c1.626-3.719,1.833-7.706,1.402-11.695c-0.537-4.966-1.553-10.016-3.679-14.563
		c-1.842-3.939-5.17-7.445-9.707-7.84c-3.84-0.334-7.31,1.827-9.191,5.113c-2.052,3.583-2.481,8.292-1.108,12.183
		c1.799,5.097,5.88,8.831,7.933,13.752c1.797,4.306,7.917,3.871,8.284-1.121c0.666-9.068-1.924-18.297-7.253-25.668
		c-1.892-2.618-7.095-2.957-7.775,1.017c-0.383,2.241-0.454,3.909-0.01,6.142c1.977-1.15,3.955-2.302,5.932-3.452
		c-0.473-0.44-0.796-0.973-0.969-1.597c-1.78-4.678-8.665-1.302-6.075,2.562c0.589,0.879,0.959,1.426,1.113,2.487
		c0.458,3.161,5.068,3.251,6.486,0.848c0.919-1.558,1.427-2.941,1.728-4.728c-2.592,0.338-5.184,0.677-7.775,1.016
		c4.58,6.296,6.713,13.604,6.166,21.374c2.761-0.374,5.522-0.748,8.283-1.121c-1.722-4.096-4.378-7.413-6.639-11.194
		c-1.479-2.474-2.68-5.51-1.274-8.327c0.995-1.995,2.603-1.303,3.908,0.361c2.535,3.233,3.475,8.037,4.186,11.972
		c0.589,3.259,1.015,6.955-0.406,10.08c-1.627,3.58-4.392,2.059-6.602-0.268c-6.157-6.479-9.494-14.755-12.035-23.163
		C146.689,146.198,145.197,146.399,145.163,147.459L145.163,147.459z"/>
	<path fill="#1D1D1B" d="M178.493,129.389c-1.833,1.287-3.232,3.067-5.066,4.363c-2,1.412-4.338,2.335-6.726,2.84
		c-4.852,1.025-9.392-0.246-13.313-3.164c-2.471-1.839-5.685,2.3-3.311,4.29c4.855,4.071,11.545,5.106,17.612,3.571
		c4.894-1.239,12.048-5.377,12.106-11.153C179.801,129.519,179.04,129.005,178.493,129.389L178.493,129.389z"/>
	<path fill="#1D1D1B" d="M121.549,151.86c10.046,7.231,25.88-0.187,29.256-11.242c0.851-2.786-3.46-3.949-4.347-1.198
		c-1.535,4.763-4.992,8.531-9.547,10.589c-4.846,2.189-9.73,1.863-14.625,0.104C121.196,149.721,120.731,151.271,121.549,151.86
		L121.549,151.86z"/>
	<path fill="#1D1D1B" d="M140.366,118.926c2.843,6.537,5.766,13.027,8.215,19.729c0.881,2.41,4.791,1.261,3.819-1.053
		c-2.877-6.851-6.218-13.496-10.619-19.503C141.152,117.239,139.945,117.958,140.366,118.926L140.366,118.926z"/>
	<g>
		<g>
			<path fill="#1D1D1B" d="M255.563,217.502c1.572,0,1.572-2.438,0-2.438S253.99,217.502,255.563,217.502L255.563,217.502z"/>
		</g>
	</g>
	<path fill="#1D1D1B" d="M48.268,114.437c-8.517,28.272-11.894,58.179-12.063,87.65c-0.15,26.051,3.667,53.581,19.758,74.942
		c6.838,9.077,15.547,16.942,25.898,21.798c10.53,4.938,24.421,7.986,35.016,1.623c8.686-5.217,12.529-15.337,13.017-25.06
		c0.61-12.157-4.602-23.027-9.542-33.817c-6.73-14.7-14.444-28.922-22.151-43.125c-7.713-14.215-15.296-28.489-22.695-42.87
		c-1.634-3.176-5.996-0.382-4.678,2.734c10.618,25.126,25.503,48.268,37.932,72.503c3.052,5.952,5.991,11.962,8.74,18.061
		c2.354,5.222,4.883,10.511,6.125,16.132c1.921,8.692,1.269,19.122-4.306,26.432c-7.291,9.559-20.468,8.43-30.672,4.941
		c-10.37-3.543-19.348-10.406-26.473-18.631c-16.583-19.141-21.638-44.889-22.583-69.52c-1.201-31.295,1.972-63.154,9.778-93.491
		C49.548,114.028,48.479,113.735,48.268,114.437L48.268,114.437z"/>
	<path fill="#1D1D1B" d="M227.093,53.493c19.858,17.272,37.212,37.209,52.44,58.641c14.255,20.063,27.709,42.795,29.68,67.88
		c0.874,11.119-0.435,22.447-4.522,32.862c-3.963,10.093-11.502,21.107-21.899,25.333c-10.441,4.243-20.728-1.778-26.856-10.249
		c-7.229-9.989-8.592-22.802-10.434-34.665c-4.751-30.596-5.172-61.875-11.43-92.229c-0.605-2.94-5.714-2.331-5.321,0.721
		c3.752,29.157,6.024,58.534,10.4,87.605c1.085,7.205,2.346,14.387,3.889,21.51c1.284,5.932,3.061,11.556,6.24,16.771
		c5.594,9.171,15.093,17.307,26.379,17.146c12.117-0.172,21.925-9.785,28.013-19.432c6.227-9.866,9.332-21.493,9.998-33.077
		c1.484-25.834-9.794-50.105-23.936-71.041c-17.194-25.456-37.82-49.348-61.835-68.581
		C227.338,52.239,226.532,53.006,227.093,53.493L227.093,53.493z"/>
	<path fill="#1D1D1B" d="M185.007,76.478c-2.778-0.116-4.391,2.759-4.359,5.264c0.043,3.579,3.179,5.842,6.572,5.816
		c3.931-0.029,7.9-2.97,8.395-6.997c0.533-4.35-4.031-7.879-7.996-5.631c-1.38,0.782-1.855,2.669-1.057,4.027
		c2.065,3.513,8.858,3.143,8.618-1.703c-0.207-4.166-5.702-5.865-8.483-3.033c-2.713,2.762,1.516,6.996,4.249,4.25
		c-0.742,0.746-1.721,0.074-1.778-0.827c0.295-0.712,0.589-1.424,0.884-2.137c0.401-0.483,1.398,0.22,1.595,0.479
		c-0.352,1.343-0.704,2.686-1.056,4.028c0.05-0.037-0.132-0.123-0.15-0.047c-0.192,0.792-0.215,1.342-0.796,2.003
		c-0.879,0.999-2.323,1.651-3.665,1.517c-2.945-0.296-3.527-4.469-0.778-5.577C185.938,77.612,185.875,76.515,185.007,76.478
		L185.007,76.478z"/>
	<path fill="#1D1D1B" d="M71.796,114.444c-1.731,0.354-2.457,2.037-2.272,3.689c0.214,1.922,1.649,3.357,3.588,3.521
		c2.357,0.199,4.403-1.33,5.414-3.383c1.318-2.676,0.568-5.785-0.841-8.252c-0.524-0.918-1.859-1.568-2.906-1.183
		c-5.338,1.966-4.524,9.637,0.496,11.41c1.525,0.538,3.298-0.617,3.697-2.1c0.428-1.593,0.625-3.404-0.192-4.915
		c-0.891-1.648-2.74-2.643-4.594-2.111c-3.477,0.995-4.342,6.551-0.338,7.48c3.896,0.904,5.535-5.186,1.646-5.971
		c-0.086-0.018-0.171-0.034-0.257-0.052c0.455,0.265,0.91,0.53,1.365,0.795c-0.051-0.045-0.103-0.09-0.154-0.135
		c0.265,0.455,0.53,0.909,0.794,1.363c-0.619,0.829-1.238,1.657-1.856,2.486c-0.515-0.14-1.029-0.278-1.544-0.418
		c-0.729-0.311-0.407-1.205-0.665-0.121c1.232-0.699,2.464-1.399,3.697-2.099c-1.016-0.245-0.164-0.044-0.162-0.062
		c-0.015,0.208-0.057-0.295-0.055-0.253c-0.012-0.216-0.04-0.494,0.106-0.596c-1.04-0.134-2.079-0.269-3.119-0.402
		c1.45,1.475,2.762,4.175,0.409,5.525c-2.182,1.253-3.67-1.961-1.817-3.18C72.781,115.126,72.433,114.314,71.796,114.444
		L71.796,114.444z"/>
	<path fill="#1D1D1B" d="M141.089,107.361c0.961-0.199,1.052-0.984,0.688-1.817c-0.735-1.686-2.676-1.711-4.266-1.796
		c-4.947-0.264-9.936,1.391-13.952,4.247c-3.216,2.288-8.872,7.249-5.467,11.506c2.926,3.657,9.317,2.499,13.292,1.928
		c5.447-0.781,10.712-2.484,15.643-4.918c4.594-2.267,10.053-5.495,13.059-9.756c3.561-5.046,0.694-10.055-4.862-11.469
		c-4.691-1.194-9.767-0.813-14.269,0.933c-4.632,1.796-8.637,4.808-11.518,8.87c-1.398,1.974-2.889,4.464-2.184,6.977
		c0.799,2.848,3.729,3.988,6.44,3.943c5.282-0.087,11.824-2.202,15.664-5.96c3.915-3.832,4.313-11.189-2.157-12.553
		c-2.667-0.562-5.657,0.069-8.284,0.598c-3.133,0.63-6.137,1.655-9.064,2.93c-4.648,2.022-11.067,5.821-9.335,11.935
		c1.604,5.662,8.92,6.49,13.831,6.098c5.166-0.413,11.644-2.224,15.185-6.285c4.337-4.977-0.264-10.657-5.541-11.919
		c-5.03-1.202-11.883,0.341-14.785,4.94c-3.462,5.488,0.448,11.747,5.939,13.738c6.493,2.354,12.459-2.277,16.952-6.416
		c3.758-3.463-1.855-9.054-5.602-5.603c-2.094,1.931-5.436,5.493-8.64,4.583c-2.187-0.622-2.716-2.23-0.558-3.124
		c1.178-0.488,2.732-0.836,4.018-0.702c0.29,0.029,2.502,0.731,2.378,0.859c-0.265-0.488-0.292-0.946-0.082-1.373
		c-0.265,0.252-0.559,0.465-0.883,0.639c-0.759,0.507-1.578,0.95-2.405,1.335c-1.693,0.785-3.584,1.336-5.438,1.576
		c-1.624,0.211-3.39,0.234-5.011-0.018c-0.726-0.113-1.598-0.25-2.201-0.708c0.707,0.536-0.171,0.432,0.707-0.021
		c1.525-0.786,2.909-1.904,4.517-2.639c2.037-0.932,4.18-1.639,6.352-2.182c0.831-0.207,1.668-0.39,2.51-0.544
		c0.88-0.16,2.278-0.051,3.073-0.391c0.827,0.167,0.916,0.007,0.266-0.478c-0.055-0.731-0.167-0.857-0.334-0.377
		c-0.278,0.1-1.244,1.323-1.588,1.563c-1.495,1.037-3.195,1.828-4.924,2.378c-1.018,0.324-2.066,0.599-3.122,0.767
		c-0.475,0.084-0.954,0.139-1.437,0.165c-0.846-0.103-0.822,0.063,0.073,0.498c0.162,0.6,0.324,1.199,0.486,1.799
		c-0.103-1.146,1.586-2.982,2.391-3.86c1.015-1.106,2.127-2.097,3.386-2.915c2.679-1.745,5.794-2.887,9.002-3.061
		c1.713-0.093,3.453-0.008,5.11,0.467c0.507,0.145,1.153,0.222,1.209,0.652c0.069,0.521-0.826,1.339-1.161,1.713
		c-2.647,2.953-6.319,5.271-9.758,7.179c-3.466,1.921-7.145,3.371-10.982,4.357c-1.934,0.498-3.896,0.882-5.878,1.124
		c-1.351,0.165-3.891,0.819-5.184,0.152c-1.101-0.569-0.783-0.924-0.197-2.02c0.485-0.906,1.303-1.728,2.014-2.461
		c1.356-1.401,2.896-2.579,4.589-3.543c1.714-0.975,3.53-1.658,5.434-2.158c1.083-0.285,2.166-0.514,3.282-0.63
		c0.494-0.032,0.987-0.067,1.48-0.104c0.676-0.137,1.258,0.036,1.746,0.519C140.319,106.826,140.568,107.469,141.089,107.361
		L141.089,107.361z"/>
	<path fill="#1D1D1B" d="M48.154,110.149c8.987-7.342,18.01-14.641,27.712-21.029c9.552-6.289,19.526-11.91,29.896-16.738
		c20.679-9.626,42.768-16.237,65.366-19.379c12.808-1.78,25.809-2.451,38.732-2.053c3.137,0.097,3.131-4.763,0-4.872
		c-46.659-1.623-93.525,12.138-132.345,37.976C66.599,91.32,56.07,99.508,47.124,109.119
		C46.473,109.818,47.438,110.734,48.154,110.149L48.154,110.149z"/>
	<path fill="#1D1D1B" d="M106.05,213.647c7.064,2.905,15.54,3.413,23.096,3.336c7.844-0.081,15.637-1.34,23.152-3.573
		c2.076-0.617,1.176-3.905-0.896-3.249c-7.365,2.331-14.979,3.663-22.7,3.962c-7.641,0.297-14.919-1.051-22.476-1.772
		C105.419,212.273,105.426,213.391,106.05,213.647L106.05,213.647z"/>
	<path fill="#1D1D1B" d="M105.696,220.662c2.299,3.059,6.7,4.146,10.082,5.572c4.615,1.947,9.296,3.703,14.084,5.182
		c9.464,2.92,19.298,4.665,29.22,3.799c2.505-0.22,2.49-4.186,0-3.916c-9.125,0.986-18.216-0.204-27.059-2.517
		c-4.332-1.133-8.573-2.55-12.824-3.948c-2.047-0.674-4.085-1.374-6.119-2.087c-2.128-0.746-4.645-1.296-6.277-2.939
		C106.259,219.258,105.202,220.006,105.696,220.662L105.696,220.662z"/>
	<path fill="#1D1D1B" d="M228.898,153.09c-3.712,8.015-7.552,15.665-12.771,22.833c-5.266,7.231-11.604,13.713-18.708,19.15
		c-2.069,1.585,0.132,4.516,2.207,2.86c13.877-11.065,26.1-26.851,30.812-44.194C230.68,152.848,229.311,152.2,228.898,153.09
		L228.898,153.09z"/>
	<path fill="#1D1D1B" d="M235.104,170.391c-2.858,17.879-12.571,34.39-27.877,44.35c-1.814,1.181-0.104,4.116,1.7,2.909
		c15.753-10.54,26.558-28.016,28.01-47.011C237.016,169.603,235.27,169.348,235.104,170.391L235.104,170.391z"/>
	<path fill="#1D1D1B" d="M211.571,215c-3.69,0.742-7.251,1.954-10.825,3.126c-2.404,0.789-1.015,4.317,1.368,3.246
		c3.412-1.533,6.845-3.028,10.053-4.958C212.942,215.947,212.417,214.829,211.571,215L211.571,215z"/>
	<path fill="#1D1D1B" d="M160.453,233.764c3.406,0.117,7.093-1.952,9.782-3.877c1.963-1.404-0.126-4.185-2.042-2.646
		c-1.256,1.009-2.628,1.873-4.082,2.569c-1.393,0.667-2.883,1.042-4.256,1.747C158.763,232.119,159.339,233.726,160.453,233.764
		L160.453,233.764z"/>
</g>
</svg>
