<?xml version="1.0" encoding="utf-8"?>
<!-- Generator: Adobe Illustrator 16.0.0, SVG Export Plug-In . SVG Version: 6.00 Build 0)  -->
<!DOCTYPE svg PUBLIC "-//W3C//DTD SVG 1.1//EN" "http://www.w3.org/Graphics/SVG/1.1/DTD/svg11.dtd">
<svg version="1.1" id="Layer_1" xmlns="http://www.w3.org/2000/svg" xmlns:xlink="http://www.w3.org/1999/xlink" x="0px" y="0px"
	 width="350px" height="350px" viewBox="0 0 350 350" enable-background="new 0 0 350 350" xml:space="preserve">
<g>
	<path fill="#784D25" d="M96.297,157.163c-1.812-6.099-12.214-12.146-17.688-6.949c-3.297,3.131-1.52,7.655,1.1,10.504
		c2.854,3.104,6.623,5.389,10.5,6.958c3.692,1.494,8.466,2.61,11.824-0.231c3.391-2.869,3.461-7.867,0.941-11.333
		c-2.523-3.471-7.089-5.604-10.972-7.169c-4.277-1.724-8.713-1.971-12.874,0.185c-1.53,0.792-2.721,3.25-2.011,4.941
		c3.335,7.948,10.646,13.263,19.392,13.343c3.69,0.034,5.192-3.763,3.87-6.743c-1.912-4.307-6.422-7.37-11.144-7.422
		c-4.86-0.053-6.158,7.688-1.174,8.675c2.279,0.451,3.591,1.08,4.58,3.271c1.29-2.248,2.58-4.496,3.869-6.743
		c-5.146-0.017-9.327-3.137-11.394-7.753c-0.523,1.996-1.047,3.991-1.57,5.987c3.269-1.794,8.039,1.179,10.833,2.827
		c0.783,0.462,1.493,0.928,2.098,1.614c0.141,0.159,0.143,0.429,0.272,0.581c0.396,0.467-0.17-0.086,0.329-0.18
		c-1.451,0.274-3.453-0.487-4.89-1.026c-1.857-0.696-3.641-1.701-5.247-2.861c-0.871-0.628-1.767-1.34-2.483-2.146
		c-0.361-0.406-0.77-1.593-1.026-1.017c-0.248,0.558,0.442,0.183,0.85,0.155c0.441-0.03,0.927-0.001,1.366,0.055
		c0.85,0.11,1.727,0.39,2.521,0.704c2.014,0.797,3.335,2.213,4.852,3.68C94.396,160.401,96.867,159.08,96.297,157.163
		L96.297,157.163z"/>
	<g>
		<path fill="#784D25" d="M132.588,263.073c0.877-0.006,1.755-0.011,2.633-0.017c0.557-0.003,0.934-0.367,1.124-0.855
			c2.827-7.274-10.888-9.703-15.371-8.955c-8.422,1.407-11.931,10.851-6.309,17.346c5.545,6.406,16.245,4.207,20.423-2.632
			c2.153-3.523,2.125-8.216-1.041-11.132c-2.954-2.722-7.417-2.578-10.921-1.146c-4.282,1.75-8.621,5.959-7.462,11.035
			c1.082,4.746,6.628,7.91,10.996,5.148c4.77-3.017,0.345-10.646-4.436-7.589c0.352-0.225,1.601-0.079,1.827,0.189
			c0.169,0.201-0.024,0.876,0.184,0.882c0.013,0.001,1.306-1.209,1.592-1.357c0.606-0.313,1.977-0.92,2.566-0.721
			c-0.533-0.18,0.03-0.268-0.512,0.478c-0.488,0.672-0.932,1.224-1.645,1.711c-1.276,0.871-3.171,1.402-4.669,0.793
			c-3.378-1.373-2.812-5.286,0.138-6.697c2.164-1.036,4.759-0.803,7.045-0.377c1.457,0.271,5.048,0.791,5.306,2.715
			c0.192-0.335,0.384-0.67,0.577-1.006c-0.773,0.394-1.546,0.786-2.318,1.18C131.828,262.313,132.07,263.076,132.588,263.073
			L132.588,263.073z"/>
		<path fill="#784D25" d="M164.551,274.62c2.497,0.025,4.646-0.203,6.978,0.939c2.161,1.058,4.005,2.881,4.81,5.176
			c1.373,3.915-0.642,9.221-4.608,10.827c1.626,1.238,3.251,2.478,4.878,3.716c-0.191-6.671-1.453-13.405-3.253-19.817
			c-1.248-4.444-6.749-3.679-8.282,0c-1.765,4.231-0.239,8.868,1.945,12.635c2.152,3.712,5.761,8.219,10.481,5.17
			c1.775-1.146,3.063-3.196,4.264-4.888c1.254-1.768,2.322-3.708,2.964-5.787c1.25-4.041,0.698-9.234-2.61-12.163
			c-3.459-3.063-9.646,0.939-6.76,5.215c1.199,1.777,1.515,3.277,0.642,5.339c-0.398,0.938-1.007,1.817-1.581,2.655
			c-0.365,0.533-0.743,1.06-1.14,1.568c-0.088,0.113-0.177,0.227-0.265,0.34c-0.537,0.561-0.506,0.604,0.092,0.13
			c0.774,0,1.547,0,2.321,0c0.954,0.89,1.083,0.897,0.386,0.026c-0.297-0.434-0.586-0.872-0.867-1.317
			c-0.456-0.73-0.921-1.482-1.281-2.268c-0.724-1.58-0.9-2.761-0.308-4.372c-2.761,0-5.521,0-8.282,0
			c1.885,5.742,3.05,11.551,3.828,17.534c0.375,2.879,2.985,4.823,5.798,3.327c6.889-3.662,10.306-12.586,6.968-19.772
			c-2.705-5.822-11.785-10.877-17.902-7.11C162.459,272.528,162.99,274.604,164.551,274.62L164.551,274.62z"/>
		<path fill="#784D25" d="M152.769,270.402c-2.526-5.527-10.265-9.629-16.28-7.895c-3.535,1.02-4.714,4.814-3.555,8.039
			c1.128,3.14,3.973,5.555,6.961,6.858c5.85,2.554,16.265,0.796,15.752-7.446c-0.509-8.204-12.886-9.085-16.614-2.859
			c-2.025,3.38-1.575,7.91,1.448,10.521c3.089,2.667,8.441,2.571,11.056-0.748c1.368-1.735,1.977-4.534,0-6.202
			c-1.056-0.891-2.16-1.719-3.261-2.553c-3.899-2.95-8.796,3.5-5.215,6.761c0.747,0.68,1.492,1.354,2.274,1.994
			c-0.229-1.771-0.457-3.543-0.686-5.314c1.27-1.664,1.104-0.179,1.686-0.065c-0.065-0.013,0.133-0.339,0.243-0.337
			c0.307,0.007,0.682,0.043,0.986,0.033c0.194,0.11,0.388,0.222,0.582,0.332c-0.346-0.357-0.457-0.785-0.331-1.283
			c-0.084-0.015-0.62,0.542-0.791,0.626c-1.175,0.582-2.909,0.312-4.095-0.103c-1.346-0.469-2.057-1.364-3.156-2.164
			c-0.136-0.158-0.252-0.331-0.346-0.518c-0.104-0.56-0.2-0.421-0.287,0.418c0.294,0.129,1.596-0.101,1.92-0.087
			c3.426,0.145,6.263,2.037,8.664,4.341C151.39,274.348,153.657,272.345,152.769,270.402L152.769,270.402z"/>
		<path fill="#784D25" d="M256.606,217.618c-1.793-2.944-4.804-4.95-8.132-5.82c-2.86-0.747-6.975-1.071-9.363,1.013
			c-3.162,2.761-1.064,6.882,1.464,9.155c2.72,2.444,5.871,4.365,9.229,5.79c3.296,1.398,6.984,2.532,10.593,2.611
			c4.041,0.088,7.482-3.135,6.166-7.357c-1.093-3.508-4.695-5.942-7.942-7.248c-3.605-1.451-7.488-1.617-11.261-0.749
			c-2.752,0.633-3.686,3.852-2.498,6.141c3.55,6.845,11.761,10.116,19.116,8.218c2.747-0.71,3.921-3.952,2.582-6.346
			c-3.751-6.705-11.643-11.236-19.398-10.197c-2.34,0.313-4.372,1.785-4.372,4.372c0,2.205,2.007,4.577,4.372,4.371
			c4.901-0.429,9.429,1.448,11.938,5.814c0.861-2.115,1.722-4.231,2.582-6.346c-3.803,1.029-7.647-0.731-9.601-4.107
			c-0.833,2.047-1.665,4.095-2.498,6.142c1.617-0.452,3.219-0.593,4.878-0.268c1.83,0.357,3.025,1.342,4.653,2.078
			c0.781,1.062,1.292,0.562,1.532-1.502c-0.279-0.001-0.559-0.01-0.838-0.024c-0.641-0.206-1.515-0.145-2.179-0.255
			c-2.04-0.34-4.081-0.909-5.997-1.689c-1.897-0.771-3.719-1.791-5.401-2.958c-0.631-0.438-1.267-0.895-1.839-1.409
			c-0.34-0.267-0.64-0.571-0.902-0.915c-0.768,0.937-0.732,1.217,0.103,0.841c0.74,0.175,1.959-0.219,2.778-0.151
			c0.937,0.076,1.876,0.277,2.771,0.563c1.794,0.571,3.424,1.662,4.937,2.763C255.614,221.264,257.518,219.115,256.606,217.618
			L256.606,217.618z"/>
		<g>
			<path fill="#1D1D1B" d="M120.288,81.976c19.072,7.224,38.208,14.247,57.122,21.884c19.213,7.759,38.299,15.827,57.199,24.317
				c10.558,4.741,21.067,9.592,31.525,14.547c1.826,0.865,3.429-1.86,1.593-2.725c-37.251-17.54-75.267-33.441-113.905-47.664
				c-11-4.049-22.026-8.034-33.186-11.62C119.823,80.455,119.515,81.683,120.288,81.976L120.288,81.976z"/>
			<path fill="#1D1D1B" d="M265.895,142.115c4.323-11.06,14.284-24.857,27.858-23.118c3.372,0.432,6.44,2.074,7.048,5.682
				c0.645,3.832-0.191,8.247-0.754,12.044c-1.167,7.894-3.481,15.681-6.712,22.975c-1.061,2.395,2.401,4.522,3.58,2.093
				c3.287-6.779,5.665-13.866,7.007-21.286c0.659-3.648,1.079-7.336,1.236-11.041c0.132-3.089,0.118-6.406-1.516-9.148
				c-3.03-5.084-9.827-5.897-15.134-4.953c-5.708,1.016-10.86,4.419-14.687,8.691c-4.453,4.97-7.441,11.313-8.84,17.809
				C264.852,142.469,265.676,142.676,265.895,142.115L265.895,142.115z"/>
			<path fill="#1D1D1B" d="M118.816,83.585c4.235-5.572,8.321-12.04,8.813-19.211c0.427-6.221-2.788-12.099-8.605-14.562
				c-5.739-2.43-12.624-1.324-17.808,1.951c-6.357,4.016-10.531,10.532-14.11,16.967c-1.411,2.537,2.48,4.812,3.891,2.274
				c5.148-9.255,13.363-21.374,25.788-17.771c13.786,3.997,5.5,21.783,0.786,29.625C117.079,83.676,118.271,84.302,118.816,83.585
				L118.816,83.585z"/>
			<path fill="#1D1D1B" d="M86.165,72.279c-12.185,12.653-21.621,27.943-29.897,43.37c-7.977,14.869-15.486,31.008-14.729,48.284
				c1.315,30.008,24.777,53.519,48.388,69.158c13.886,9.197,29.13,16.512,44.509,22.834c16.29,6.696,33.154,12.001,50.345,15.829
				c16.968,3.778,34.63,6.688,52.051,6.799c16.18,0.103,32.268-3.495,44.666-14.416c10.99-9.68,18.062-23.489,21.511-37.576
				c4.393-17.945,3.084-36.709,0.76-54.848c-0.586-4.577-1.243-9.133-2.021-13.681c-0.541-3.167-6.069-2.467-5.665,0.767
				c2.25,18.002,5.362,35.906,3.679,54.115c-1.329,14.372-5.96,28.959-15.028,40.376c-9.753,12.279-23.625,18.645-39.114,19.911
				c-16.38,1.34-33.261-1.159-49.337-4.146c-32.918-6.115-65.096-17.544-94.21-34.13c-23.682-13.49-48.586-33.703-55.015-61.552
				c-3.651-15.817,0.692-31.345,7.424-45.704c7.223-15.405,16.091-30.086,25.857-44.006c2.416-3.443,4.631-7.011,6.924-10.538
				C87.695,72.458,86.712,71.711,86.165,72.279L86.165,72.279z"/>
			<path fill="#1D1D1B" d="M183.843,173.759c-4.074-4.136-10.535-5.471-16.168-4.797c-2.517,0.301-5.65,0.874-7.51,2.765
				c-2.242,2.28-1.624,5.547,0.029,7.955c3.387,4.936,9.808,8.022,15.57,8.931c5.117,0.807,12.495,0.62,15.589-4.358
				c3.558-5.726-1.133-11.948-6.486-14.127c-4.712-1.918-11.391-3.263-16.157-0.796c-5.539,2.866-4.955,9.618-0.997,13.571
				c3.967,3.964,11.727,6.686,16.318,2.155c3.945-3.893,1.266-12.354-4.658-12.259c-3.967,0.063-5.182,3.688-4.059,7.017
				c1.102,3.267,3.933,5.365,7.308,5.627c3.642,0.283,4.146-5.207,0.839-6.196c-1.419-0.425-2.136-1.249-2.036-2.731
				c-0.539,0.939-1.078,1.879-1.616,2.818c-1.56,0.951-0.66-0.996-0.572,0.108c0.02,0.252,0.313,0.49,0.266,0.771
				c-0.152,0.902-1.757,0.815-2.508,0.704c-1.743-0.257-8.137-3.479-5.767-5.873c1.606-1.622,5.524-0.873,7.466-0.488
				c2.617,0.52,9.487,2.15,8.045,6.313c-1.144,3.298-7.679,2.826-10.281,2.439c-3.72-0.553-7.42-2.098-10.371-4.432
				c-1.632-1.292-4.084-3.348-1.614-4.987c1.653-1.097,4.246-1.505,6.178-1.67c4.378-0.374,8.396,0.914,12.373,2.602
				C183.688,175.103,184.425,174.35,183.843,173.759L183.843,173.759z"/>
			<path fill="#1D1D1B" d="M174.201,187.267c-6.209,12.62-11.477,25.781-17.148,38.653c-1.02,2.313,2.274,3.732,3.212,1.354
				c5.162-13.087,10.814-26.091,15.419-39.383C175.982,187.03,174.608,186.44,174.201,187.267L174.201,187.267z"/>
			<path fill="#1D1D1B" d="M127.546,219.691c7.66,5.167,16.336,9.019,24.971,12.256c8.886,3.332,17.997,5.938,27.306,7.776
				c2.184,0.431,3.114-2.925,0.923-3.347c-9.155-1.762-18.213-4.104-27.029-7.142c-8.8-3.033-17.208-6.885-25.771-10.491
				C127.377,218.505,127.089,219.383,127.546,219.691L127.546,219.691z"/>
			<path fill="#1D1D1B" d="M242.912,170.028c-3.924,0.096-6.054,4.761-4.474,8.071c0.341,0.714,1.327,1.038,2.053,0.835
				c1.982-0.554,3.725-1.879,4.692-3.715c1.103-2.091,1.438-4.759-0.874-6.145c-1.941-1.164-4.654-0.668-5.84,1.332
				c-1.25,2.11-0.495,4.874,1.638,6.06c2.778,1.544,5.129-2.53,2.48-4.242c0.151,0.099,0.263,0.521,0.188,0.191
				c-0.079-0.349,0.047,0.134-0.094,0.281c-0.245,0.256-0.444,0.476-0.669,0.15c-0.1-0.369-0.199-0.737-0.299-1.106
				c0.061,1.51-0.729,3.086-2.189,3.69c0.685,0.278,1.368,0.557,2.053,0.835c-1.185-1.867-0.313-4.125,1.665-5.019
				C243.847,170.972,243.528,170.013,242.912,170.028L242.912,170.028z"/>
			<path fill="#1D1D1B" d="M119.983,117.992c-3.453,2.171-3.332,7.94,0.5,9.718c0.565,0.263,1.317,0.409,1.871,0
				c3.004-2.213,3.892-6.58,1.657-9.696c-1.426-1.989-3.963-1.827-5.904-0.625c-2.104,1.303-3.001,3.613-2.384,5.988
				c0.542,2.082,4.192,2.379,4.52,0c0.101-0.733,0.53-1.904,1.418-1.952c-0.577-0.239-1.154-0.478-1.73-0.717
				c1.318,1.077,1.423,2.886,0.178,4.092c0.601-0.159,1.202-0.318,1.803-0.477c-2.077-0.642-2.542-3.741-1-5.127
				C121.558,118.615,120.719,117.53,119.983,117.992L119.983,117.992z"/>
			<path fill="#1D1D1B" d="M143.188,260.915c1.564-0.955,3.882-0.83,5.431,0.054c0.921,0.525,1.611-0.997,0.573-1.359
				c-1.126-0.392-2.308-0.479-3.477-0.225c-1.142,0.249-1.721,0.762-2.582,1.459C143.093,260.877,143.145,260.941,143.188,260.915
				L143.188,260.915z"/>
			<path fill="#1D1D1B" d="M145.991,258.942c-4.079-4.027-10.267,0.586-12.853,4.293c-3.437,4.93-3.541,11.346,0.182,16.132
				c3.518,4.523,9.566,6.787,15.213,6.319c6.063-0.503,12.947-4.123,13.998-10.67c1.243-7.74-6.208-13.538-12.119-16.939
				c-3.451-1.985-6.58,3.379-3.116,5.331c3.535,1.992,11.279,6.652,8.999,11.785c-2.059,4.635-9.023,5.369-13.26,4.158
				c-4.692-1.342-8.125-5.407-7.067-10.43c0.481-2.284,1.749-4.467,3.567-5.944c0.891-0.725,1.923-1.268,3.039-1.542
				c1.27-0.312,2.089-0.795,3.267-1.326C146.284,259.911,146.303,259.25,145.991,258.942L145.991,258.942z"/>
			<path fill="#1D1D1B" d="M300.578,161.665c3.97-7.649,4.021-17.36,2.906-25.717c-0.359-2.698-4.116-2.24-3.718,0.503
				c1.225,8.439,0.197,16.597,0.182,25.043C299.947,161.82,300.421,161.969,300.578,161.665L300.578,161.665z"/>
			<path fill="#1D1D1B" d="M267.214,143.347c2.326-3.746,3.802-7.829,6.526-11.37c2.704-3.514,5.971-6.664,9.615-9.184
				c2.45-1.694,0.087-5.74-2.343-4.008c-4.11,2.931-7.665,6.376-10.531,10.542c-2.627,3.818-5.405,8.639-5.703,13.36
				C264.693,144.037,266.567,144.388,267.214,143.347L267.214,143.347z"/>
			<path fill="#1D1D1B" d="M89.805,65.464c-5.57,3.436-9.888,10.071-12.938,15.708c-1.165,2.151,2.179,4.079,3.269,1.911
				c1.487-2.958,3.118-5.842,4.994-8.57c1.846-2.686,4.121-5.127,5.847-7.876C91.431,65.911,90.527,65.019,89.805,65.464
				L89.805,65.464z"/>
			<path fill="#1D1D1B" d="M277.285,147.484c1.639-3.517,3.183-7.083,5.521-10.211c0.534-0.713,2.989-4.208,4.01-3.847
				c0.488,0.172,0.594,2.109,0.518,2.729c-0.192,1.557-1.088,3.094-1.983,4.351c-0.546,0.766-1.177,1.463-1.86,2.109
				c-0.243,0.229-1.685,1.104-1.763,1.328c-0.734,0.26-0.315,0.613,1.255,1.057c0.038-0.408,0.115-0.809,0.229-1.203
				c0.223-0.897,0.563-1.717,1.021-2.519c0.925-1.62,2.195-2.85,3.782-3.813c-1.778-1.368-3.558-2.735-5.337-4.103
				c-1.217,4.016-2.771,8.138-3.319,12.301c-0.458,3.487,5.253,4.942,6.677,1.808c1.729-3.805,2.565-8.147,3.648-12.178
				c0.791-2.941-2.617-5.873-5.336-4.103c-3.144,2.046-5.552,4.791-6.982,8.272c-1.336,3.249-2.274,7.966,1.072,10.353
				c6.226,4.44,13.213-5.793,14.646-10.768c1.48-5.136-1.627-13.688-8.344-10.665c-3.084,1.388-5.079,5.167-6.467,8.063
				c-1.601,3.339-2.657,6.905-2.5,10.627C275.805,147.814,276.924,148.261,277.285,147.484L277.285,147.484z"/>
			<path fill="#1D1D1B" d="M112.221,67.011c0.766-1.837,1.042-3.82-0.094-5.594c-0.956-1.492-2.729-2.202-4.425-1.705
				c-3.751,1.098-6.75,7.062-6.968,10.703c-0.116,1.932,0.683,3.92,2.566,4.699c1.981,0.82,4.161-0.085,5.823-1.226
				c3.741-2.568,5.732-6.931,5.756-11.41c0.011-2.173-2.349-4.332-4.578-3.487c-3.551,1.344-7.564,3.917-9.59,7.231
				c-2.299,3.759-0.588,8.458,3.697,9.672c6.495,1.841,15.401-7.526,11.303-13.725c-2.517-3.809-8.362-2.984-11.3-0.159
				c-2.774,2.667-3.242,6.831-0.991,9.977c2.401,3.356,7.39,4.195,10.342,1.021c2.868-3.083,2.442-7.53-0.894-9.978
				c-3.145-2.308-7.906,2.343-5.488,5.488c0.571,0.743-0.033-0.257,0.206-0.853c0.388-0.969,1.829-0.703,2.35-0.428
				c0.142,0.075,0.293,0.641,0.187,0.486c0.109-0.052,0.224-0.084,0.344-0.097c0.261-0.012,0.182-0.003-0.237,0.024
				c-0.479-0.479-0.958-0.958-1.437-1.437c-0.769-1.054,0.337-0.984-0.177-0.545c-0.275,0.236-0.469,0.785-0.71,1.098
				c-0.383,0.498-0.832,0.931-1.271,1.378c-0.674,0.688-0.244-0.097-0.152,0.219c-0.011-0.331,0.127-0.045,0.417,0.856
				c0.146,0.968,0.383,1.135,0.711,0.501c0.468-0.141,1.113-1.13,1.531-1.494c1.206-1.05,2.583-1.799,3.944-2.625
				c-1.771-0.721-3.542-1.441-5.313-2.162c0.246,1.36-0.172,2.738-0.901,3.891c-0.312,0.493-0.619,0.883-1.041,1.29
				c-0.247,0.259-0.52,0.489-0.817,0.687c-1.102,0.47-0.68,0.839,1.268,1.108c0.28-0.273,0.378-2.082,0.537-2.549
				c0.236-0.695,0.535-1.353,0.898-1.992c0.203-0.355,1.358-2.441,1.791-2.372c1.017,0.165,0.921,2.542,0.985,3.275
				C110.585,67.803,111.84,67.923,112.221,67.011L112.221,67.011z"/>
			<path fill="#1D1D1B" d="M142.834,258.849c-3.306-1.999-6.342-4.291-9.252-6.836c-2.822-2.469-5.823-4.939-9.46-6.084
				c-7.799-2.452-14.196,3.114-16.11,10.409c-0.942,3.592-1.24,7.573-1.117,11.279c0.1,3.016,0.624,6.207,2.517,8.65
				c2.213,2.858,5.601,3.607,9.066,3.355c4.658-0.337,9.325-0.895,13.959-1.468c3.21-0.398,3.327-5.457,0-5.138
				c-3.664,0.351-7.314,0.794-10.969,1.228c-2.639,0.313-6.48,1.37-8.354-1.152c-1.372-1.847-1.475-4.536-1.49-6.739
				c-0.022-3.189,0.12-6.526,1.008-9.604c0.803-2.781,2.548-5.707,5.418-6.731c3.228-1.152,6.843,0.403,9.598,2.066
				c4.765,2.876,8.911,8.067,14.869,7.94C143.142,260.011,143.374,259.175,142.834,258.849L142.834,258.849z"/>
			<path fill="#1D1D1B" d="M160.735,269.906c6.962-1.043,14.9-0.728,21.414,2.222c3.188,1.443,4.483,3.836,4.204,7.287
				c-0.226,2.801-1.09,5.675-2.011,8.322c-0.779,2.238-1.884,4.747-3.818,6.237c-2.392,1.843-5.368,1.198-7.747-0.306
				c-5.507-3.479-8.005-10.023-8.945-16.169c-0.466-3.045-5.626-2.352-5.4,0.73c0.486,6.642,3.642,13.38,8.641,17.844
				c4.613,4.119,11.354,6.168,16.629,2.02c4.341-3.415,5.987-9.417,7.069-14.592c1.355-6.48-0.012-12.507-6.615-15.202
				c-7.272-2.969-16.536-2.3-24.009-0.523C158.734,268.113,159.367,270.111,160.735,269.906L160.735,269.906z"/>
			<path fill="#1D1D1B" d="M159.731,276.17c5.623,0.787,10.261,2.405,15.191,5.229c2.055,1.178,3.662-1.775,1.819-3.113
				c-4.59-3.331-11.034-5.048-16.687-4.506C158.813,273.898,158.264,275.965,159.731,276.17L159.731,276.17z"/>
			<path fill="#1D1D1B" d="M134.068,266.35c-0.411-0.916-0.653-1.851-1.235-2.69c-0.562-0.812-1.267-1.56-1.947-2.274
				c-1.398-1.469-2.95-2.802-4.745-3.76c-2.313-1.235-4.228,2.073-2.047,3.502c1.47,0.964,3.007,1.834,4.421,2.881
				c0.706,0.522,1.333,1.13,2.018,1.675c0.735,0.586,1.609,1.004,2.333,1.595C133.551,267.838,134.432,267.156,134.068,266.35
				L134.068,266.35z"/>
			<path fill="#1D1D1B" d="M133.476,267.478c-3.177-0.767-6.527-0.991-9.776-1.288c-2.013-0.185-2.022,2.999,0,3.154
				c3.132,0.24,6.338,0.563,9.477,0.347C134.385,269.607,134.776,267.791,133.476,267.478L133.476,267.478z"/>
			<path fill="#1D1D1B" d="M159.45,278.461c5.456,1.43,10.01,4.434,13.4,8.952c1.337,1.782,3.834-0.098,2.442-1.884
				c-3.777-4.846-9.558-7.908-15.645-8.529C158.803,276.914,158.655,278.252,159.45,278.461L159.45,278.461z"/>
		</g>
		<path fill="#1D1D1B" d="M180.58,162.786c-16.254-3.622-32.173,3.471-45.046,13.065c-11.833,8.819-21.733,20.164-28.903,33.063
			c-4.146,7.459-6.913,15.313-10.136,23.169c-0.866,2.111,3.062,3.185,3.39,0.935c1.015-6.948,3.895-13.793,7.113-20.005
			c3.323-6.416,7.361-12.488,11.971-18.05c9.328-11.255,21.147-20.822,34.571-26.739c8.303-3.66,17.849-5.717,26.927-4.597
			C180.945,163.687,181.047,162.891,180.58,162.786L180.58,162.786z"/>
		<path fill="#1D1D1B" d="M177.067,163.095c6.791,2.301,12.856,5.495,17.809,10.782c5.197,5.548,8.695,12.294,10.724,19.596
			c4.6,16.557,2.7,34.908-0.47,51.551c-1.863,9.786-4.756,19.166-7.778,28.637c-0.792,2.482,3.006,3.469,3.867,1.066
			c6.313-17.603,8.75-36.862,9.294-55.465c0.473-16.137-1.845-33.501-13.017-45.979c-5.143-5.744-12.396-10.737-20.309-11.073
			C176.659,162.188,176.604,162.938,177.067,163.095L177.067,163.095z"/>
		<path fill="#1D1D1B" d="M120.523,79.654c4.166,2.724,9.047,4.479,13.6,6.447c4.665,2.016,9.342,3.995,14.03,5.956
			c9.483,3.966,18.944,7.987,28.423,11.964c18.862,7.915,37.663,15.978,56.402,24.179c10.557,4.621,21.094,9.288,31.611,13.997
			c3.583,1.604,6.691-3.725,3.094-5.292c-37.567-16.374-75.336-32.337-113.475-47.334c-5.284-2.078-10.562-4.168-15.885-6.141
			c-5.519-2.045-11.186-4.632-17.001-5.67C120.183,77.557,119.502,78.986,120.523,79.654L120.523,79.654z"/>
	</g>
</g>
</svg>
