<?xml version="1.0" encoding="utf-8"?>
<!-- Generator: Adobe Illustrator 16.0.0, SVG Export Plug-In . SVG Version: 6.00 Build 0)  -->
<!DOCTYPE svg PUBLIC "-//W3C//DTD SVG 1.1//EN" "http://www.w3.org/Graphics/SVG/1.1/DTD/svg11.dtd">
<svg version="1.1" id="Layer_1" xmlns="http://www.w3.org/2000/svg" xmlns:xlink="http://www.w3.org/1999/xlink" x="0px" y="0px"
	 width="350px" height="350px" viewBox="0 0 350 350" enable-background="new 0 0 350 350" xml:space="preserve">
<g>
	<ellipse fill="#B2CEC0" cx="175" cy="302.428" rx="114.184" ry="15.734"/>
	<g>
		<g>
			<path fill="#F7F7F7" d="M238.754,281.475c-4.601-5.758-5.023-6.561-10.601-10.848c5.185-19.484,8.378-40.088,6.629-60.459
				c-1.749-20.369-8.827-40.555-21.55-53.949l-80.237-1.677c-12.723,13.396-19.802,33.582-21.551,53.953
				c-1.748,20.369,1.444,40.973,6.629,60.457c-5.577,4.289-6,5.088-10.6,10.846c-2.801,3.508-5.58,8.109-4.602,12.854
				c0.709,3.443,3.235,5.861,5.785,7.582c10.575,7.148,19.662,10.781,29.745,2.648c1.005-0.813,2.019-1.713,3.206-1.973
				c0.672-0.146,1.353-0.068,2.029,0.072c18.775,6.314,38.809,7.008,57.84,1.945c1.033-0.275,2.101-0.568,3.143-0.342
				c1.188,0.258,2.2,1.16,3.206,1.971c10.082,8.137,19.169,4.502,29.745-2.645c2.55-1.725,5.075-4.139,5.785-7.584
				C244.333,289.582,241.555,284.979,238.754,281.475z"/>
		</g>
		<g>
			<g>
				<g>
					<path fill="#FFFFFF" d="M211.516,310.227c0.019-0.01,0.036-0.021,0.056-0.031c5.868-2.984,9.688-8.771,9.649-14.633
						c-0.028-4.297-1.947-8.377-3.333-12.498c-4.501-13.391-3.43-27.646-3.852-41.604c-0.361-11.922-2.119-24.379-8.82-34.598
						c-1.793-2.736-5.391-4.4-9.272-4.348l0,0c-3.915,0.057-7.51,1.859-9.237,4.684c-6.519,10.652-7.715,23.436-7.502,35.592
						c0.244,13.963,1.996,28.148-1.859,41.74c-1.188,4.182-2.91,8.35-2.733,12.641c0.243,5.859,4.333,11.455,10.337,14.156
						c0.02,0.008,0.037,0.02,0.057,0.029c0.159,0.07,0.323,0.127,0.483,0.191c0.11,0.02,0.219,0.041,0.329,0.059
						C194.423,313.074,203.918,314.057,211.516,310.227z"/>
				</g>
			</g>
		</g>
		<g>
			<g>
				<g>
					<path fill="#FFFFFF" d="M163.229,310.432c0.019-0.01,0.037-0.021,0.057-0.031c5.869-2.984,9.688-8.771,9.65-14.635
						c-0.028-4.295-1.948-8.375-3.333-12.498c-4.502-13.391-3.43-27.645-3.853-41.602c-0.362-11.924-2.119-24.381-8.819-34.6
						c-1.793-2.734-5.392-4.398-9.271-4.344l0,0c-3.916,0.055-7.512,1.857-9.239,4.68c-6.519,10.654-7.714,23.439-7.502,35.594
						c0.245,13.963,1.997,28.146-1.86,41.74c-1.186,4.182-2.909,8.35-2.732,12.643c0.242,5.857,4.333,11.455,10.337,14.154
						c0.02,0.01,0.039,0.02,0.058,0.029c0.158,0.07,0.321,0.125,0.481,0.193c0.11,0.018,0.221,0.039,0.332,0.057
						C146.137,313.277,155.632,314.262,163.229,310.432z"/>
				</g>
			</g>
		</g>
		<g>
			<path fill="#E6E6E6" d="M154.689,312.592c0,0-3.442-5.869-1.81-12.25c0,0-4.388,8.834-3.741,12.846
				C149.138,313.188,152.631,313.578,154.689,312.592z"/>
			<path fill="#E6E6E6" d="M138.924,311.926c0,0-1.751-8.477-0.1-12.834c0,0-4.296,6.59-4.626,11.08
				C134.198,310.172,136.945,311.984,138.924,311.926z"/>
			<path fill="#E6E6E6" d="M187.364,311.469c0,0,4.034-5.479,3.074-11.994c0,0,3.444,9.24,2.384,13.164
				C192.822,312.639,189.309,312.664,187.364,311.469z"/>
			<path fill="#E6E6E6" d="M205.211,312.07c0,0,1.517-8.096-0.131-12.451c0,0,4.291,6.594,4.615,11.084
				C209.695,310.703,207.189,312.131,205.211,312.07z"/>
		</g>
	</g>
	<g>
		<g>
			<g>
				<path fill="#F2F2F2" d="M110.807,85.742c2.918,9.875,7.476,18.737,10.006,28.817c2.529,10.078,2.587,22.454-2.712,30.183
					c-3.214,4.685-7.998,7.082-10.709,12.343c-2.61,5.065-2.785,11.777-4.61,17.469c-0.444,1.386-1.015,2.753-1.901,3.64
					c-0.692,0.691-1.53,1.043-2.363,1.289c-4.222,1.246-8.707,0.043-12.556-2.666c-3.851-2.711-7.108-6.852-9.835-11.5
					c-1.201-2.047-2.32-4.225-3.035-6.673c-1.097-3.754-1.184-7.909-1.256-11.96c-0.169-9.446-0.311-19.139,1.951-28.051
					c2.187-8.611,6.455-15.846,10.642-22.884c3.473-5.837,6.999-11.745,11.438-16.138c3.039-3.007,6.434-5.231,9.809-7.44
					L110.807,85.742z"/>
			</g>
			<circle fill="#F2F2F2" cx="97.45" cy="75.859" r="8.092"/>
			<circle fill="#F2F2F2" cx="91.38" cy="87.098" r="8.092"/>
			<circle fill="#F2F2F2" cx="80.816" cy="92.942" r="8.092"/>
			<circle fill="#F2F2F2" cx="80.142" cy="104.181" r="8.092"/>
			<circle fill="#F2F2F2" cx="74.748" cy="115.644" r="8.092"/>
			<circle fill="#F2F2F2" cx="72.5" cy="128.68" r="8.092"/>
			<circle fill="#F2F2F2" cx="72.051" cy="141.268" r="8.092"/>
			<circle fill="#F2F2F2" cx="75.872" cy="151.158" r="8.092"/>
			<circle fill="#F2F2F2" cx="77.67" cy="163.52" r="8.092"/>
			<circle fill="#F2F2F2" cx="83.738" cy="175.208" r="8.092"/>
			<circle fill="#F2F2F2" cx="96.101" cy="175.882" r="8.092"/>
			<circle fill="#F2F2F2" cx="104.642" cy="168.69" r="8.092"/>
			<circle fill="#F2F2F2" cx="106.216" cy="156.328" r="8.092"/>
		</g>
		<g>
			<g>
				<path fill="#F2F2F2" d="M235.369,84.394c-2.919,9.874-7.476,18.737-10.007,28.816c-2.53,10.078-2.588,22.454,2.712,30.183
					c3.213,4.685,7.996,7.082,10.71,12.343c2.609,5.066,2.785,11.778,4.61,17.469c0.443,1.385,1.013,2.753,1.899,3.639
					c0.691,0.693,1.529,1.043,2.363,1.289c4.222,1.248,8.706,0.045,12.556-2.666c3.851-2.711,7.106-6.852,9.835-11.5
					c1.201-2.047,2.32-4.225,3.034-6.672c1.099-3.754,1.185-7.909,1.258-11.96c0.169-9.445,0.311-19.139-1.953-28.051
					c-2.184-8.612-6.452-15.846-10.64-22.884c-3.473-5.837-6.999-11.745-11.438-16.138c-3.037-3.006-6.434-5.231-9.809-7.44
					L235.369,84.394z"/>
			</g>
			<circle fill="#F2F2F2" cx="248.725" cy="74.511" r="8.092"/>
			<circle fill="#F2F2F2" cx="254.794" cy="85.75" r="8.092"/>
			<circle fill="#F2F2F2" cx="265.357" cy="91.593" r="8.092"/>
			<circle fill="#F2F2F2" cx="266.033" cy="102.832" r="8.092"/>
			<circle fill="#F2F2F2" cx="271.428" cy="114.295" r="8.092"/>
			<circle fill="#F2F2F2" cx="273.675" cy="127.332" r="8.092"/>
			<circle fill="#F2F2F2" cx="274.124" cy="139.919" r="8.092"/>
			<circle fill="#F2F2F2" cx="270.303" cy="149.809" r="8.092"/>
			<circle fill="#F2F2F2" cx="268.505" cy="162.171" r="8.092"/>
			<circle fill="#F2F2F2" cx="262.436" cy="173.859" r="8.092"/>
			<circle fill="#F2F2F2" cx="250.073" cy="174.534" r="8.092"/>
			<circle fill="#F2F2F2" cx="241.532" cy="167.341" r="8.092"/>
			<circle fill="#F2F2F2" cx="239.959" cy="154.979" r="8.092"/>
		</g>
		<path fill="#FFFFFF" stroke="#EEEEEE" stroke-miterlimit="10" d="M227.234,128.626c3.58-8.538,5.44-18.05,5.123-28.033
			c-1.123-35.238-28.869-53.204-62.03-52.15c-33.159,1.055-59.173,20.731-58.052,55.97c0.29,9.14,2.389,17.765,5.896,25.522
			c-6.673,8.286-10.41,18.127-10.078,28.583c0.89,27.959,30.257,47.045,65.933,45.913c35.678-1.135,64.153-22.064,63.263-50.021
			C236.984,144.869,233.33,136.056,227.234,128.626z"/>
		<ellipse fill="#F7F7F7" cx="171.929" cy="169.289" rx="34.315" ry="29.446"/>
		<path fill="#FFFFFF" stroke="#EEEEEE" stroke-miterlimit="10" d="M244.604,70.765c0-5.38-4.429-9.74-9.892-9.74
			c-0.149,0-0.297,0.016-0.446,0.022c-0.055-5.226-4.274-9.458-9.546-9.651c-0.912-4.467-4.919-7.833-9.725-7.833
			c-1.014,0-1.989,0.151-2.91,0.428c-1.404-2.232-3.689-3.87-6.383-4.427c-0.955-4.414-4.934-7.726-9.701-7.726
			c-4.138,0-7.682,2.497-9.169,6.041c-1.767-1.598-4.117-2.583-6.706-2.583c-2.657,0-5.063,1.035-6.844,2.708
			c-1.801-2.457-4.727-4.06-8.039-4.06c-4.558,0-8.389,3.031-9.551,7.154c-1.755-1.545-4.066-2.496-6.607-2.496
			c-3.42,0-6.436,1.706-8.219,4.298c-1.811-1.901-4.376-3.094-7.23-3.094c-5.48,0-9.922,4.374-9.922,9.77
			c0,0.074,0.009,0.148,0.011,0.222c-1.218-0.527-2.563-0.824-3.979-0.824c-5.48,0-9.921,4.375-9.921,9.771
			c0,1.37,0.288,2.671,0.804,3.854c-4.854,0.638-8.601,4.718-8.601,9.672c0,2.397,0.88,4.59,2.335,6.29
			c-2.205,1.791-3.611,4.504-3.611,7.539c0,5.396,4.442,9.77,9.922,9.77c2.232,0,4.285-0.735,5.943-1.959
			c12.192,8.353,32.593,13.832,55.715,13.832c23.768,0,44.658-5.792,56.713-14.543c1.361,0.693,2.9,1.092,4.539,1.092
			c5.463,0,9.892-4.36,9.892-9.74c0-2.423-0.905-4.634-2.393-6.339C243.234,76.425,244.604,73.754,244.604,70.765z"/>
	</g>
	<g>
		<circle fill="#333333" cx="197.463" cy="118.964" r="7.533"/>
		<circle fill="#333333" cx="149.743" cy="118.968" r="7.533"/>
		<path fill="#333333" d="M158.153,146.187c0.027,5.403,5.868,14.103,13.022,14.067c7.153-0.036,12.909-8.792,12.88-14.196
			c-0.026-5.405-5.848-9.755-13-9.719C163.903,136.374,158.125,140.783,158.153,146.187z"/>
		<path fill="#333333" d="M190.221,181.91c-4.408,0.521-9.49-2.287-12.675-5.457c-2.411-2.4-3.828-5.498-4.67-8.768l0.054-10.211
			l-2.43-0.015l-0.056,10.289c-0.694,3.229-1.958,6.294-4.222,8.695c-3.031,3.215-7.977,6.1-12.411,5.643
			c-1.058-0.107-1.009,1.604,0.041,1.713c4.897,0.504,10.23-2.633,13.565-6.152c2.156-2.28,3.48-5.088,4.289-8.093
			c0.948,3.028,2.414,5.851,4.702,8.121c3.501,3.471,8.98,6.525,13.853,5.949C191.307,183.5,191.272,181.787,190.221,181.91z"/>
	</g>
	<g>
		<path fill="#65C8D0" d="M222.434,80.981c0,0-4.114-28.718-12.63-24.544c-8.513,4.176-41.55,33.512,3.067,34.978L222.434,80.981z"
			/>
		<path fill="#4EC1C4" d="M220.104,79.094c0,0-1.563-22.163-8.972-21.396C202.866,58.552,220.104,79.094,220.104,79.094z"/>
		<path fill="#65C8D0" d="M220.674,80.929c0,0,27.753-8.459,27.583,1.023c-0.17,9.481-12.72,51.843-32.974,12.062L220.674,80.929z"
			/>
		<path fill="#4EC1C4" d="M223.372,82.237c0,0,20.733-7.986,23.181-0.952C249.285,89.133,223.372,82.237,223.372,82.237z"/>
		
			<ellipse transform="matrix(0.8439 0.5366 -0.5366 0.8439 80.2479 -103.169)" fill="#4EC1C4" cx="217.392" cy="86.3" rx="7.755" ry="8.092"/>
	</g>
</g>
</svg>
