<?xml version="1.0" encoding="utf-8"?>
<!-- Generator: Adobe Illustrator 16.0.0, SVG Export Plug-In . SVG Version: 6.00 Build 0)  -->
<!DOCTYPE svg PUBLIC "-//W3C//DTD SVG 1.1//EN" "http://www.w3.org/Graphics/SVG/1.1/DTD/svg11.dtd">
<svg version="1.1" id="Layer_1" xmlns="http://www.w3.org/2000/svg" xmlns:xlink="http://www.w3.org/1999/xlink" x="0px" y="0px"
	 width="350px" height="350px" viewBox="0 0 350 350" enable-background="new 0 0 350 350" xml:space="preserve">
<g>
	<ellipse fill="#B2CEC0" cx="166.291" cy="281.818" rx="101.179" ry="13.941"/>
	<g>
		<g>
			<path fill="#B3B3B3" d="M105.435,159.117c-6.672-4.472-22.775-8.759-30.513-10.914c-9.023-2.511-18.758-1.567-27.664,1.334
				c-2.91,0.948-5.741,2.095-8.507,3.392c-5.356,2.511-4.484,10.398,1.323,11.522c16.736,3.238,32.782,10.07,46.652,19.984
				L105.435,159.117z"/>
		</g>
		<path fill="#B3B3B3" d="M189.12,251.701c0,0-5.077,23.185,4.195,29.366c9.271,6.182,19.43,0.441,19.43,0.441l-0.222-31.794
			l-24.287,2.207L189.12,251.701z"/>
		<path fill="#B3B3B3" d="M143.796,251.555c0,0,5.078,23.183-4.195,29.366c-9.273,6.182-19.43,0.439-19.43,0.439l0.221-31.793
			l24.287,2.208L143.796,251.555z"/>
		<g>
			<path fill="#BFBFBF" d="M250.15,154.845c12.313,22.165,11.956,50.836-0.908,72.686c-3.1,5.27-6.893,10.211-8.935,15.972
				c-2.905,8.185-2.002,17.188-3.396,25.761c-1.392,8.572-6.475,17.811-15.062,19.113c-6.838,1.037-13.529-3.563-17.128-9.47
				c-3.597-5.908-4.771-12.927-5.974-19.739c-0.183-1.037-0.438-2.187-1.313-2.772c-0.497-0.332-1.111-0.421-1.703-0.5
				c-21.231-2.825-42.711-3.79-64.11-2.876c-0.974,0.041-1.998,0.102-2.824,0.62c-1.814,1.14-1.774,3.746-1.545,5.877
				c0.546,5.077,0.939,10.274-0.263,15.237c-1.203,4.963-4.259,9.726-8.938,11.773c-5.774,2.527-12.771,0.332-17.462-3.875
				c-4.691-4.21-7.507-10.084-9.9-15.914c-7.242-17.638-11.689-36.271-16.109-54.818c-1.306-5.478-2.619-11.037-2.418-16.664
				c0.194-5.444,1.804-10.744,3.764-15.828c1.748-4.535,3.825-9.021,6.973-12.725c6.286-7.392,16.02-10.785,25.43-13.152
				c8.375-2.108,16.888-3.663,25.468-4.648c13.43-1.545,27.645-1.89,39.196-8.914"/>
		</g>
		<g>
			<path fill="#BFBFBF" d="M83.519,224.527c-5.867,13.383,0.57,19.197-7.915,31.602c8.462-1.282,2.863,2.869,9.592-1.527
				c0.774,3.543-1.894,8.813-0.172,12.125c3.734-2.661,10.445-8.015,11.835-11.907c3.35,4.137,7.333,7.927,11.827,11.255
				c0.506,0.375,1.096,0.767,1.777,0.737c0.954-0.042,1.533-0.854,1.936-1.564c2.274-4.013,4.549-8.026,6.824-12.039
				c2.807,2.377,5.614,4.754,8.42,7.13c0.575,0.487,1.248,1.01,2.075,1.003c0.797-0.005,1.446-0.5,2.007-0.964
				c1.947-1.608,3.893-3.218,5.839-4.826c2.176,2.323,4.351,4.644,6.525,6.966c2.827-0.798,2.393-4.488,4.769-5.974
				c1.921-1.2,4.779-0.381,6.564,0.953c1.785,1.334,3.056,3.121,5.048,4.241c1.991,1.121,5.225,1.218,6.397-0.511
				c1.32-1.948-0.375-5.337,2.196-6.06c0.085,2.522,4.46,3.198,7.355,2.339c2.896-0.859,5.876-2.468,8.794-1.658
				c3.235,0.896,5.585,4.59,8.783,3.608c1.585-0.487,2.317-1.948,3.488-2.95c3.659-3.134,10.399-0.909,13.571,2.562
				c-0.652-1.65,1.106-3.476,3.192-3.77c2.087-0.294,4.201,0.618,5.635,1.892c2.094,1.863,4.158,4.849,7.106,4.09
				c2.651-0.682,13.782-0.887,16.415-1.619c0,0-4.416-4.12,0-7.358c4.416-3.239,1.764-14.13,1.764-14.13L83.519,224.527z"/>
		</g>
		<g>
			<path fill="#B3B3B3" d="M74.34,205.548c-1.358,11.437-2.392,32.672-3.749,44.106c2.802-3.328,5.038-7.199,6.563-11.366
				c2.34,4.182,4.679,8.363,7.02,12.546c2.766-5.608,5.532-11.218,8.298-16.826c5.857,9.46,15.712,15.049,25.155,20.251
				c2.159-5.353,4.316-10.705,6.476-16.059c1.527,2.531,3.054,5.062,4.583,7.592c0.349,0.579,0.773,1.211,1.412,1.317
				c0.636,0.105,1.221-0.357,1.721-0.792c2.494-2.17,4.988-4.341,7.483-6.512c1.035,3.226,3.338,7.194,6.384,6.142
				c3.185-1.102,3.871-7.104,7.204-6.813c1.317,0.116,2.292,1.278,3.333,2.144c3.576,2.974,9.288,2.432,12.336-1.168
				c1.251-1.478,2.575-3.592,4.395-3.171c1,0.23,1.675,1.19,2.313,2.043c3.502,4.681,8.615,7.958,14.136,9.063
				c0.873-3.931,2.364-7.706,4.396-11.117c6.945,3.81,13.727,7.955,20.32,12.421c0.505-4.693,1.009-9.387,1.516-14.08
				c7.755,5.05,14.006,12.677,17.663,21.55c1.504-4.914,3.007-9.826,4.51-14.74c0.196-0.646,0.445-1.355,1.016-1.653
				c0.916-0.478,1.915,0.396,2.601,1.196c1.922,2.248,3.845,4.497,5.767,6.745c1.475-2.771,2.947-5.54,4.42-8.311
				c2.48,4.281,6.751,7.33,11.41,8.143c-1.161-6.637-2.324-13.273-3.485-19.911c2.062,2.448,5.021,4.009,8.1,4.273
				c-3.663-11.725-8.177-23.146-13.491-34.123L74.34,205.548z"/>
		</g>
		<g>
			<path fill="#BFBFBF" d="M79.87,177.782c-5.868,13.383-13.094,26.366-21.579,38.769c8.463-1.282,16.527-4.297,23.256-8.693
				c0.775,3.542,2.04,7.013,3.762,10.323c3.734-2.661,6.513-6.214,7.902-10.105c3.349,4.135,7.333,7.927,11.828,11.254
				c0.506,0.376,1.095,0.768,1.776,0.737c0.954-0.04,1.533-0.854,1.936-1.564c2.275-4.013,4.55-8.025,6.824-12.038
				c2.807,2.376,5.614,4.753,8.421,7.13c0.575,0.487,1.247,1.01,2.074,1.004c0.797-0.005,1.446-0.502,2.008-0.965
				c1.946-1.609,3.893-3.218,5.839-4.827c2.175,2.322,4.351,4.645,6.525,6.966c2.826-0.797,2.393-4.487,4.769-5.974
				c1.92-1.2,4.779-0.379,6.564,0.954c1.786,1.334,3.056,3.12,5.047,4.24c1.992,1.121,5.225,1.22,6.398-0.511
				c1.32-1.947-0.375-5.335,2.196-6.06c0.084,2.522,4.46,3.198,7.355,2.339c2.895-0.86,5.877-2.466,8.793-1.658
				c3.235,0.898,5.585,4.59,8.783,3.609c1.586-0.487,2.317-1.948,3.488-2.951c3.66-3.132,10.399-0.91,13.572,2.563
				c-0.653-1.651,1.104-3.478,3.191-3.771c2.087-0.292,4.2,0.617,5.635,1.894c2.094,1.861,4.158,4.846,7.106,4.088
				c2.651-0.682,3.097-4.019,5.729-4.749c3.497-0.975,6.44,3.538,10.056,2.924c2.763-0.47,4.377-3.792,7.132-3.285
				c0.818,0.149,1.473,0.632,2.089,1.097c2.136,1.611,4.271,3.221,6.406,4.832c0.587-3.613,13.428-7.943,16.795-5.564
				c-2.815-9.231-12.111-15.809-14.928-25.039c-1.278-4.188-2.593-8.449-5.332-12.138c-4.625-6.237-12.754-10.114-20.85-13.157
				c-8.097-3.042-16.646-5.582-23.557-10.187c-3.644-2.427-7.075-5.519-11.712-6.132c-4.022-0.532-7.975,0.952-11.822,2.053
				c-18.27,5.23-38.513,2.146-57.541,5.046c-8.354,1.274-16.375,3.688-24.351,6.092c-4.116,1.24-8.38,2.558-11.433,5.138
				c-2.224,1.88-3.639,4.3-5.651,6.333c-6.265,6.333-17.05,7.966-26.89,9.172c7.206,1.387,14.573,2.211,21.969,2.456L79.87,177.782z
				"/>
		</g>
	</g>
	<path fill="#65C8D0" d="M230.01,186.318c-0.921,0.48-1.956,0.634-2.96,0.373c-24.533-6.369-50.896-35.532-58.167-46.813
		c-0.037-0.056-0.078-0.125-0.115-0.186c-0.175,0.368-0.332,0.674-0.463,0.882l-2.464,2.055c-1.174,1.868,0.643,5.259,1.863,7.153
		c7.273,11.283,33.636,40.444,58.168,46.814c1.003,0.26,2.037,0.106,2.96-0.374c5.896-3.07,28.353-15.403,35.381-28.587
		c0,0,2.646-4.577-0.07-7.819C256.021,172.194,235.595,183.411,230.01,186.318z"/>
	<g>
		<path fill="#B3B3B3" d="M254.475,63.073c0,0,38.402-6.6,47.248,11.923c8.847,18.523,22.45,51.39,3.644,46.486
			c-18.806-4.903-29.714-33.411-35.105-30.109C264.867,94.674,254.475,63.073,254.475,63.073z"/>
		<path fill="#B3B3B3" d="M194.42,60.96c0,0-37.465-10.707-48.259,6.753c-10.793,17.46-27.864,48.666-8.64,45.821
			c19.226-2.845,33.148-30.009,38.152-26.145S194.42,60.96,194.42,60.96z"/>
		<path fill="#BFBFBF" d="M158.294,118.795c-0.395,44.123,29.11,50.247,63.208,50.552c34.098,0.305,59.874-5.324,60.268-49.447
			c0.396-44.123-28.763-65.844-57.322-65.659C194.038,54.442,158.688,74.671,158.294,118.795z"/>
	</g>
	<g>
		<g>
			<path fill="#E6E6E6" d="M166.085,135.051c-14.352,4.416-17.062,21.107-20.763,31.634c4.73-4.532,9.007-9.537,12.745-14.917
				c0.087,6.013,2.744,11.77,6.445,16.509c3.702,4.738,8.412,8.578,13.171,12.252c-2.249-6.682-2.862-13.907-1.771-20.873
				c2.218,4.861,5.766,9.109,10.152,12.159c3.841,2.669,8.255,4.406,12.188,6.934s7.54,6.166,8.343,10.773
				c0.119-6.709,0.242-13.418,0.361-20.127c8.957,9.101,16.928,19.174,23.725,29.987c-0.47-7.345-0.017-14.749,1.343-21.981
				c3.242,4.631,5.646,9.848,7.057,15.322c4.103-7.765,8.841-15.194,14.15-22.191c2.24,6.234,8.67,13.57,9.338,20.16
				c5.661-8.566,4.81-18.989,7.089-29.001c2.253,2.457,4.506,4.913,6.759,7.369c2.245,2.45,4.653,5.001,7.838,5.949
				c-4.815-7.761-7.687-16.718-8.281-25.833c3.617,2.814,6.243,6.882,7.32,11.336c1.642-7.313,0.889-15.949-4.166-21.484
				L166.085,135.051z"/>
		</g>
		<g>
			<path fill="#F2F2F2" d="M234.693,96.644c0.821-1.188,2.278-1.737,3.653-2.185c4.506-1.469,9.12-2.603,13.792-3.39
				c4.142-0.695,8.413-1.114,12.519-0.235c4.104,0.879,8.064,3.226,10.041,6.928c-1.974-0.953-4.296-1.163-6.412-0.581
				c1.332,0.77,2.654,1.56,3.961,2.371c1.434,0.887,2.926,1.814,3.845,3.227c2.624,4.042,1.703,6.088,2.626,8.943
				c-1.154-2.366-3.651-4.383-6.083-5.396c-2.43-1.013-5.062-1.426-7.664-1.826c0.419,1.613,0.835,3.226,1.253,4.837
				c0.186,0.716,0.117,1.795-0.621,1.81c-1.487-2.077-2.993-4.172-4.906-5.864c-4.751-4.196-11.477-5.413-17.812-5.241
				c-3.858,0.104-7.703,0.658-11.435,1.648L234.693,96.644z"/>
		</g>
		<g>
			<path fill="#F2F2F2" d="M213.854,95.704c-0.581-1.326-1.906-2.14-3.169-2.843c-4.142-2.303-8.456-4.297-12.894-5.961
				c-3.93-1.473-8.043-2.7-12.24-2.621c-4.198,0.079-8.532,1.627-11.182,4.885c2.121-0.56,4.441-0.323,6.405,0.653
				c-1.454,0.5-2.901,1.024-4.34,1.571c-1.577,0.598-3.218,1.223-4.389,2.434c-3.348,3.466-2.834,5.653-4.285,8.278
				c1.585-2.103,4.422-3.606,7.001-4.137c2.579-0.53,5.241-0.432,7.872-0.329c-0.72,1.503-1.437,3.006-2.154,4.51
				c-0.317,0.666-0.458,1.74,0.265,1.893c1.857-1.754,3.734-3.524,5.938-4.819c5.465-3.213,12.296-3.123,18.483-1.745
				c3.767,0.839,7.437,2.118,10.908,3.801L213.854,95.704z"/>
		</g>
		<g>
			<path fill="#FFFFFF" d="M228.715,129.164c14.866-5.153,23.055-0.4,26.127,0.176c11.828,2.211,20.608,8.127,32.043,10.895
				c-6.642,0.653-13.242,0.776-19.619,0.365c4.24,3.124,10.462,4.792,14.739,7.895c4.647,3.371,6.638,8.158,8.521,12.806
				c-3.206-1.621-6.412-3.242-9.618-4.863c1.116,6.479-0.3,13.478-4.081,20.155c-3.382-6.542-8.905-12.288-15.663-17.185
				c1.658,4.663,1.814,9.751,0.458,14.858c-0.654,2.47-1.661,5.047-0.867,7.305c-1.573-4.25-4.178-8.199-7.691-11.665
				c-2.81-2.771-6.184-5.223-9.134-7.917c-4.093-3.743-7.345-7.93-10.47-12.154c-3.165-4.276-6.284-8.88-5.341-14.122
				L228.715,129.164z"/>
		</g>
		<g>
			<path fill="#FFFFFF" d="M213.555,128.206c-3.045-1.382-21.028-1.384-24.069-0.953c-11.703,1.655-20.634,7.145-31.983,9.374
				c6.464,0.961,12.917,1.39,19.183,1.276c-4.329,2.919-9.77,4.411-14.132,7.306c-4.742,3.145-7.708,7.708-9.816,12.255
				c3.23-1.468,6.46-2.935,9.691-4.403c-1.462,6.409-0.474,13.457,2.846,20.291c3.683-6.366,9.418-11.839,16.31-16.407
				c-1.887,4.572-2.331,9.64-1.296,14.795c0.501,2.493,1.34,5.109,0.433,7.325c1.782-4.165,4.556-7.983,8.194-11.276
				c2.908-2.63,6.352-4.919,9.39-7.469c4.223-3.542,7.642-7.567,10.941-11.633c3.342-4.117,6.657-8.564,6.033-13.834
				L213.555,128.206z"/>
		</g>
	</g>
	<g>
		<circle fill="#333333" cx="245.027" cy="111.715" r="7.638"/>
		<circle fill="#333333" cx="202.24" cy="110.763" r="7.639"/>
		<path fill="#333333" d="M211.246,132.317c0.105,3.637,5.421,9.359,11.769,9.175c6.349-0.184,11.325-6.204,11.221-9.839
			s-5.337-6.434-11.685-6.25C216.202,125.587,211.142,128.682,211.246,132.317z"/>
	</g>
	<g>
		<path fill="#C4C4C4" d="M211.114,284.733c0,0,5.313-4.059,6.201-10.468c0,0,0.703,9.664-1.376,13.07
			C215.939,287.336,212.619,286.395,211.114,284.733z"/>
		<path fill="#C4C4C4" d="M220.773,287.854c0,0,3.032-7.498,2.293-12.014c0,0,2.85,7.184,2.29,11.57
			C225.356,287.41,222.667,288.298,220.773,287.854z"/>
		<path fill="#C4C4C4" d="M103.148,284.363c0,0,5.313-4.056,6.2-10.465c0,0,0.706,9.664-1.374,13.07
			C107.975,286.969,104.653,286.025,103.148,284.363z"/>
		<path fill="#C4C4C4" d="M112.808,287.486c0,0,3.032-7.5,2.293-12.014c0,0,2.849,7.182,2.29,11.57
			C117.392,287.043,114.702,287.93,112.808,287.486z"/>
	</g>
</g>
</svg>
