<?xml version="1.0" encoding="utf-8"?>
<!-- Generator: Adobe Illustrator 16.0.0, SVG Export Plug-In . SVG Version: 6.00 Build 0)  -->
<!DOCTYPE svg PUBLIC "-//W3C//DTD SVG 1.1//EN" "http://www.w3.org/Graphics/SVG/1.1/DTD/svg11.dtd">
<svg version="1.1" id="Layer_1" xmlns="http://www.w3.org/2000/svg" xmlns:xlink="http://www.w3.org/1999/xlink" x="0px" y="0px"
	 width="350px" height="350px" viewBox="0 0 350 350" enable-background="new 0 0 350 350" xml:space="preserve">
<g>
	<ellipse fill="#B2CEC0" cx="185.074" cy="302.956" rx="116.574" ry="16.065"/>
	<g>
		<path fill="#E6E6E6" d="M210.01,268.076c0,0-5.277,24.095,4.36,30.521c9.638,6.425,20.193,0.459,20.193,0.459l-0.229-33.045
			l-25.242,2.295L210.01,268.076z"/>
		<path fill="#E6E6E6" d="M162.903,267.926c0,0,5.278,24.095-4.36,30.52c-9.638,6.426-20.194,0.459-20.194,0.459l0.229-33.044
			l25.242,2.295L162.903,267.926z"/>
		<g>
			<path fill="#F7F7F7" d="M97.583,168.097c-12.799,23.039-12.426,52.836,0.943,75.547c3.224,5.475,7.164,10.611,9.289,16.599
				c3.017,8.507,2.08,17.865,3.526,26.775c1.449,8.91,6.73,18.509,15.656,19.864c7.106,1.079,14.061-3.702,17.801-9.843
				c3.738-6.142,4.957-13.435,6.208-20.517c0.19-1.075,0.458-2.273,1.366-2.881c0.517-0.346,1.155-0.438,1.77-0.518
				c22.067-2.938,44.391-3.941,66.632-2.991c1.014,0.043,2.076,0.106,2.936,0.646c1.886,1.184,1.845,3.895,1.606,6.106
				c-0.568,5.278-0.978,10.68,0.273,15.838c1.25,5.159,4.427,10.107,9.289,12.237c6,2.626,13.273,0.346,18.148-4.028
				c4.876-4.375,7.802-10.48,10.29-16.539c7.528-18.333,12.149-37.7,16.743-56.978c1.356-5.692,2.723-11.471,2.513-17.318
				c-0.2-5.658-1.873-11.165-3.909-16.45c-1.818-4.714-3.977-9.377-7.249-13.226c-6.532-7.683-16.649-11.208-26.431-13.67
				c-8.704-2.191-17.551-3.806-26.469-4.832c-13.958-1.604-28.732-1.964-40.739-9.264L97.583,168.097z"/>
		</g>
		<g display="none">
			<path display="inline" fill="#333333" d="M278.921,188.681l0.161-0.003c0,0-0.766-14.992-21.877-23.252
				c-21.112-8.261-46.813-11.933-46.813-11.933l-6.984,10.493c0.978,1.519,1.974,3.047,3.016,4.541L88.847,202.371
				c0.688,31.667,10.129,34.744,19.195,51.861c1.117,2.108,3.035,6.42,5.359,6.959c2.069,0.482,5.695-1.234,7.381-2.527
				c4.12-3.157,7.212-7.462,11.121-10.879c3.906-3.417,9.215-5.982,14.209-4.571c5.147,1.456,5.192,4.657,10.43,5.74
				c4.122,0.85,6.881,0.862,9.735-2.23c2.853-3.092,4.511-7.081,5.966-11.028c1.427-3.875,2.822-7.97,5.85-10.775
				c2.037-1.89,4.671-3.033,7.363-3.722c2.551-0.65,33.504-9.878,50.336-2.194c2.531,1.154,4.736,2.734,6.386,4.974
				c2.055,2.786,4.107,5.571,6.16,8.357c1.742,2.367,3.531,4.776,5.959,6.435c2.426,1.658,5.651,2.447,8.346,1.274
				c1.811-0.785,3.297-2.395,5.258-2.632c3.876-0.462,5.997,4.313,6.851,8.125C274.751,245.537,289.68,210.08,278.921,188.681z"/>
		</g>
		<g>
			<path fill="#4D4D4D" d="M304.039,167.467c0.063-5.071-0.438-10.117-1.287-15.118c-0.421-2.493-2.538-3.837-4.645-3.792
				c-0.35-0.056-0.727,0.024-1.068,0.147c-0.008,0.003-0.015,0.004-0.021,0.007c-0.004,0.001-0.008,0.003-0.011,0.004
				c-1.026,0.273-1.965,0.91-2.621,1.937c-0.079,0.125-0.165,0.24-0.235,0.376c-5.766,11.121-13.237,21.353-22.049,30.257
				c-0.229-0.289-0.448-0.583-0.688-0.864c-6.532-7.683-16.649-11.208-26.431-13.67c-8.704-2.191-17.551-3.806-26.469-4.832
				c-9.406-1.081-19.181-1.605-28.23-4.061c-4.38-1.188-8.593-2.822-12.509-5.203l-80.192,15.441
				c-9.887,17.798-11.879,39.618-6.126,59.1c1.694,5.736,4.028,11.28,7.069,16.447c1.334,2.266,2.786,4.475,4.187,6.708
				c16.798,8.645,35,9.539,52.612,3.432c9.131-3.168,17.842-8.301,26.834-12.162c9.579-4.116,19.479-6.784,29.47-7.942
				c13.561-1.57,27.833-0.135,39.642,9.281c7.069,5.635,12.914,13.85,19.296,20.884c3.661-11.988,6.585-24.226,9.493-36.429
				c1.058-4.439,2.109-8.928,2.429-13.464c5.16-6.285,10.476-14.217,13.614-18.815C301.591,187.097,303.918,177.2,304.039,167.467z"
				/>
		</g>
		<path fill="#E6E6E6" d="M230.957,302.331c0,0,5.521-4.215,6.445-10.877c0,0,0.731,10.043-1.43,13.584
			C235.973,305.038,232.521,304.058,230.957,302.331z"/>
		<path fill="#E6E6E6" d="M240.996,305.574c0,0,3.152-7.792,2.385-12.485c0,0,2.96,7.465,2.379,12.026
			C245.76,305.115,242.965,306.036,240.996,305.574z"/>
		<path fill="#E6E6E6" d="M119.432,303.555c0,0,5.522-4.216,6.445-10.878c0,0,0.731,10.043-1.429,13.586
			C124.448,306.263,120.995,305.281,119.432,303.555z"/>
		<path fill="#E6E6E6" d="M129.471,306.798c0,0,3.152-7.793,2.384-12.486c0,0,2.96,7.467,2.379,12.026
			C134.234,306.338,131.439,307.259,129.471,306.798z"/>
	</g>
	<g>
		<path fill="#41B7B7" d="M215.58,163.032c0,0-9.518-3.35-6.206-11.467c3.313-8.117,10.688-17.518,10.688-17.518
			s13.643,12.209,1.188,29.963L215.58,163.032z"/>
		<path fill="#4EC1C4" d="M216.36,158.984c0,0-5.355-8.551,2.293-12.835c7.649-4.284,19.275-7.037,19.275-7.037
			s3.061,18.052-17.745,24.172L216.36,158.984z"/>
		<path fill="#65C8D0" d="M221.766,170.52c-8.646,15.243-43.364,63.915-76.837,75.039c-1.368,0.455-2.836,0.388-4.192-0.109
			c-8.669-3.179-41.773-16.092-53.401-31.988c0,0-5.072-6.426,0-11.015c4.505-4.075,99.564-39.352,121.149-46.659
			c2.574-0.871,9.408,1.002,11.19,3.098l3.728,2.308C225.299,163.424,223.218,167.961,221.766,170.52z"/>
	</g>
	<g>
		<path fill="#474747" d="M97.63,66.939c0,0-7.518-25.841-48.081-12.345c0,0-8.751,35.421,21.847,42.037
			C71.396,96.631,101.386,84.224,97.63,66.939z"/>
		<path fill="#FCB6B6" d="M91.705,71.305c0,0-9.405-18.683-34.694-8.494c0,0-1.243,23.748,19.313,28.974
			C76.324,91.785,89.037,85.566,91.705,71.305z"/>
		<path fill="#474747" d="M140.862,61.064c0,0-2.499-26.797,40.188-29.138c0,0,21.146,29.733-4.884,47.123
			C176.166,79.048,143.715,78.52,140.862,61.064z"/>
		<path fill="#FCB6B6" d="M147.976,62.95c0,0,1.888-20.832,29.151-20.641c0,0,9.876,21.633-7.325,34.042
			C169.802,76.351,155.694,75.234,147.976,62.95z"/>
		<path fill="#F7F7F7" d="M215.447,157.149c-0.811-7.334-4.932-13.825-11.504-19.159l-14.695,2.099
			c-3.905-36.807-34.499-60.202-61.161-60.335c-26.673-0.133-54.015,27.971-53.699,68.873c0.021,2.697,0.16,5.296,0.396,7.811
			l-13.52,1.931c-3.56,5.759-6.676,12.458-6.004,18.53c2.492,22.558,36.169,37.199,76.899,34.381
			c8.111-0.188,15.922-1.34,23.215-3.457C191.856,199.393,217.787,178.322,215.447,157.149z"/>
		<path fill="#4D4D4D" d="M200.297,138.512l2.701-0.386c-1.309-45.092-41.543-79.96-76.532-80.118
			c-33.245-0.149-67.536,37.182-67.143,83.041c0.054,6.252,0.708,12.059,1.863,17.453c0.021-0.036,0.043-0.074,0.064-0.11
			l-0.127,0.472c10.484,6.745,13.713-2.013,13.713-2.013l-0.17-0.394l0.118-0.017c-0.236-2.515-0.375-5.114-0.396-7.811
			c-0.135-17.539,4.824-32.712,12.626-44.327l-0.69,1.225l0.768-0.297c7.549-3.661,13.286-1.824,17.877,1.245
			c2.223,1.486,3.94,3.518,5.55,5.57c8.973,11.448,13.954,26.857,17.659,40.569l5.778,1.568l-0.297-2.482l4.516-2.427
			c0.052-14.133,0.903-30.196,6.656-43.293c1.031-2.348,2.173-4.7,3.948-6.633c3.489-3.802,8.277-6.737,15.866-5.384
			c12.696,10.479,22.456,26.305,24.583,45.983l-0.063,0.008c0,0,0.031,0.043,0.079,0.108c0,0.009,0.002,0.019,0.004,0.028
			l0.016-0.002c0.688,0.911,5.381,6.36,13.736-1.925L200.297,138.512z"/>
	</g>
	<g>
		<circle fill="#333333" cx="162.36" cy="134.899" r="7.94"/>
		<circle fill="#333333" cx="97.954" cy="143.237" r="7.94"/>
		<path fill="#333333" d="M151.492,182.826c-3.247,0.905-7.377-1.338-10.127-4.099c-2.081-2.092-3.499-4.947-4.507-8.019
			l-1.129-9.84l-1.823,0.209l1.138,9.915c-0.15,3.172-0.748,6.24-2.167,8.756c-1.904,3.374-5.281,6.605-8.657,6.569
			c-0.805-0.008-0.572,1.639,0.228,1.646c3.729,0.039,7.366-3.469,9.462-7.164c1.355-2.392,2.026-5.218,2.288-8.185
			c1.058,2.829,2.479,5.413,4.457,7.391c3.021,3.022,7.479,5.466,11.065,4.466C152.487,184.257,152.265,182.61,151.492,182.826z"/>
		<path fill="#333333" d="M147.375,154.722c0.452,4.428-4.801,12.194-12.182,12.947c-7.381,0.754-14.095-5.79-14.547-10.218
			c-0.454-4.428,5.165-8.629,12.546-9.383C140.574,147.314,146.924,150.293,147.375,154.722z"/>
	</g>
</g>
</svg>
