<?xml version="1.0" encoding="utf-8"?>
<!-- Generator: Adobe Illustrator 16.0.0, SVG Export Plug-In . SVG Version: 6.00 Build 0)  -->
<!DOCTYPE svg PUBLIC "-//W3C//DTD SVG 1.1//EN" "http://www.w3.org/Graphics/SVG/1.1/DTD/svg11.dtd">
<svg version="1.1" id="Layer_1" xmlns="http://www.w3.org/2000/svg" xmlns:xlink="http://www.w3.org/1999/xlink" x="0px" y="0px"
	 width="350px" height="350px" viewBox="0 0 350 350" enable-background="new 0 0 350 350" xml:space="preserve">
<g>
	<ellipse fill="#B2CEC0" cx="175" cy="301.177" rx="124.273" ry="17.124"/>
	<g>
		<g>
			<path fill="#736357" d="M223.366,259.725c8.111-0.583,24.45,3.155,32.348,4.877c9.21,2.009,17.328,7.066,23.74,13.303
				c2.095,2.037,4.023,4.198,5.817,6.448c3.477,4.357-1.217,10.207-6.899,8.525c-16.375-4.847-33.927-6.548-51.097-4.847
				L223.366,259.725z"/>
		</g>
		<g>
			<path fill="#E2CCBA" d="M94.43,266.366c4.388-17.715,2.905-36.39,2.999-54.72c0.093-18.33,2.156-37.691,12.308-52.407
				l101.832,1.223c1.046,9.807,5.501,18.818,10.733,26.909c5.235,8.09,11.318,15.526,16.267,23.822
				c9.77,16.387,14.829,36.915,10.037,55.725c-4.191,16.462-17.1,30.69-32.369,33.792c-18.329,4.595-37.38-1.588-56.247-2.383
				c-3.904-0.165-7.799-0.104-11.677,0.338c-6.601,0.751-13.047,2.578-19.523,4.157c-8.99,2.193-18.926,3.782-26.992-1.008
				c-0.021-0.011-0.04-0.026-0.061-0.038c-6.232-3.734-10.383-11.207-10.489-18.903C91.169,277.235,93.081,271.818,94.43,266.366z"
				/>
		</g>
		<g>
			<path fill="#DBC1AD" d="M194.815,246.379c0,0,56.266-7.339,44.278-33.025c0,0,12.966,12.231,3.67,26.42
				C233.467,253.963,194.815,246.379,194.815,246.379z"/>
			<path fill="#DBC1AD" d="M192.206,227.298c0,0,44.931-6.85,34.329-32.699c0,0,12.966,12.231,3.67,26.421
				C220.909,235.208,192.206,227.298,192.206,227.298z"/>
			<path fill="#DBC1AD" d="M196.885,262.734c0,0,53.951,2.971,51.627-24.673c0,0,7.951,15.656-3.419,28.992
				C234.086,279.962,196.885,262.734,196.885,262.734z"/>
		</g>
	</g>
	<path fill="#65C8D0" d="M98.43,191.763c0,0,63.767,29.295,120.521-8.824l-4.403-10.766l-113.509,4.589L98.43,191.763z"/>
	<path fill="#FFFFFF" d="M155.391,201.716c0.799-0.6,1.361-1.556,1.445-2.685c0.151-2.007-1.23-3.766-3.084-3.928
		c-1.649-0.144-3.11,1.024-3.521,2.692l-14.068-1.23c-0.159-1.718-1.426-3.125-3.075-3.268c-1.854-0.163-3.478,1.332-3.627,3.338
		c-0.084,1.132,0.329,2.172,1.026,2.903c-0.797,0.601-1.361,1.556-1.445,2.688c-0.149,2.007,1.233,3.763,3.086,3.926
		c1.707,0.148,3.205-1.112,3.551-2.877l14.034,1.228c0.081,1.802,1.371,3.308,3.077,3.457c1.854,0.162,3.48-1.334,3.629-3.341
		C156.503,203.49,156.091,202.448,155.391,201.716z"/>
	<g>
		<g>
			<path fill="#E8D9C8" d="M96.815,302.002c-0.019-0.01-0.038-0.021-0.059-0.032c-6.187-3.081-10.215-9.054-10.177-15.101
				c0.027-4.432,2.049-8.643,3.505-12.891c4.738-13.813,3.601-28.519,4.038-42.916c0.375-12.301,2.221-25.151,9.277-35.689
				c1.888-2.821,5.682-4.537,9.77-4.479l0,0c4.126,0.06,7.917,1.921,9.74,4.836c6.876,10.993,8.144,24.183,7.926,36.722
				c-0.25,14.402-2.089,29.036,1.983,43.059c1.252,4.315,3.07,8.616,2.886,13.044c-0.252,6.044-4.56,11.815-10.888,14.6
				c-0.021,0.008-0.04,0.02-0.061,0.029c-0.167,0.072-0.338,0.13-0.507,0.198c-0.116,0.02-0.233,0.04-0.35,0.06
				C114.832,304.947,104.825,305.958,96.815,302.002z"/>
		</g>
		<g>
			<path fill="#E8D9C8" d="M153.824,307.865c-0.021-0.009-0.039-0.021-0.06-0.03c-6.187-3.083-10.215-9.053-10.177-15.103
				c0.026-4.432,2.047-8.64,3.505-12.891c4.738-13.813,3.599-28.519,4.038-42.916c0.375-12.3,2.219-25.149,9.277-35.689
				c1.888-2.82,5.68-4.537,9.77-4.478l0,0c4.126,0.059,7.916,1.921,9.74,4.835c6.876,10.993,8.142,24.183,7.925,36.722
				c-0.25,14.402-2.089,29.037,1.984,43.062c1.252,4.313,3.069,8.615,2.886,13.044c-0.252,6.043-4.561,11.813-10.888,14.598
				c-0.021,0.007-0.04,0.019-0.062,0.028c-0.166,0.072-0.338,0.13-0.507,0.198c-0.116,0.02-0.232,0.041-0.35,0.06
				C171.839,310.813,161.832,311.822,153.824,307.865z"/>
		</g>
		<g>
			<path fill="#DBC1AD" d="M154.451,307.904c0,0,5.032-5.434,4.79-12.599c0,0,2.597,10.416,0.971,14.528
				C160.211,309.834,156.408,309.433,154.451,307.904z"/>
			<path fill="#DBC1AD" d="M172.464,310.275c0,0,3.498-8.25,2.762-13.268c0,0,3.023,8.01,2.324,12.86
				C177.55,309.868,174.555,310.801,172.464,310.275z"/>
			<path fill="#DBC1AD" d="M117.597,303.731c0,0-3.912-6.289-2.316-13.276c0,0-4.523,9.733-3.708,14.081
				C111.573,304.536,115.386,304.861,117.597,303.731z"/>
			<path fill="#DBC1AD" d="M99.322,302.375c0,0-0.957-8.91,1.201-13.499c0,0-5.216,6.791-5.952,11.636
				C94.571,300.512,97.17,302.273,99.322,302.375z"/>
		</g>
	</g>
	<g>
		<path fill="#605249" d="M65.426,75.43l10.41,14.114l52.149-49.534c0,0-11.741-8.692-13.769-7.909"/>
		<path fill="#605249" d="M245.47,85.833l-12.457,12.344L189.104,41.21c0,0,12.938-6.783,14.821-5.695"/>
		<path fill="#E8D9C8" d="M65.424,118.726c-0.438,48.888,39.355,73.853,87.521,74.283c48.166,0.432,86.468-23.833,86.906-72.721
			c0.438-48.889-41.209-88.718-81.554-88.588C115.342,31.835,65.861,69.838,65.424,118.726z"/>
		<g>
			<path fill="#E2CCBA" d="M124.428,88.313c5.946,0.677,10.986,4.509,16.769,5.856c4.306,1.003,8.822,1.193,13.208,0.797
				c11.362-1.022,22.273-6.981,33.667-3.071c3.073,1.055,4.395-3.811,1.34-4.858c-10.362-3.557-19.708,0.168-29.992,2.133
				c-7.492,1.43-14.611,1.296-21.774-1.487c-4.623-1.796-8.258-3.844-13.218-4.409C121.209,82.906,121.236,87.95,124.428,88.313
				L124.428,88.313z"/>
			<path fill="#E2CCBA" d="M135.175,72.674c4.201,0.478,7.759,3.186,11.845,4.136c3.041,0.709,6.232,0.843,9.331,0.564
				c8.025-0.723,15.733-4.931,23.781-2.169c2.171,0.746,3.104-2.691,0.945-3.432c-7.319-2.511-13.921,0.118-21.185,1.506
				c-5.292,1.011-10.32,0.916-15.379-1.049c-3.266-1.269-5.835-2.716-9.338-3.113C132.902,68.855,132.921,72.418,135.175,72.674
				L135.175,72.674z"/>
			<path fill="#E2CCBA" d="M139.353,56.79c3.547,0.403,6.555,2.691,10.005,3.494c2.571,0.598,5.266,0.713,7.884,0.476
				c6.781-0.61,13.292-4.167,20.093-1.833c1.832,0.631,2.622-2.274,0.799-2.899c-6.185-2.123-11.762,0.102-17.898,1.273
				c-4.473,0.854-8.721,0.774-12.995-0.887c-2.76-1.072-4.929-2.293-7.887-2.632C137.432,53.564,137.447,56.572,139.353,56.79
				L139.353,56.79z"/>
		</g>
		<path fill="#998675" d="M200.834,165c-1.595,18.508-28.634,25.444-57.747,22.937c-29.111-2.506-51.327-13.801-49.733-32.309
			c1.592-18.506,26.525-30.382,56.001-28.173C181.658,129.876,202.426,146.494,200.834,165z"/>
		<circle fill="#998675" cx="188.808" cy="121.595" r="22.934"/>
		<circle fill="#998675" cx="109.493" cy="117.315" r="22.935"/>
		<path fill="#736357" d="M114.216,32.101c0,0,22.182,48.135,4.174,55.847c-18.007,7.709-46.113-6.204-46.113-6.204
			s-8.358-1.59-6.418-8.524C67.797,66.287,75.326,31.063,114.216,32.101z"/>
		<path fill="#736357" d="M203.926,35.515c0,0-29.323,44.148-12.715,54.538c16.606,10.391,46.519,0.965,46.519,0.965
			s8.501-0.285,7.652-7.435C244.533,76.435,242.515,40.472,203.926,35.515z"/>
	</g>
	<g>
		<circle fill="#333333" cx="187.805" cy="122.692" r="8.465"/>
		<circle fill="#333333" cx="111.311" cy="118.241" r="8.464"/>
		<path fill="#333333" d="M131.19,129.132c-0.627,5.705,6.058,15.77,15.557,16.815c9.499,1.047,18.213-7.322,18.84-13.029
			c0.629-5.705-6.561-11.179-16.06-12.224C140.029,119.649,131.818,123.426,131.19,129.132z"/>
		<path fill="#333333" d="M164.655,171.7c-4.828,0.226-10.127-3.218-13.338-6.905c-2.431-2.792-3.729-6.267-4.392-9.881
			l0.848-11.081l-2.637-0.203l-0.856,11.165c-1.003,3.452-2.612,6.682-5.255,9.113c-3.54,3.254-9.132,6.003-13.91,5.166
			c-1.139-0.201-1.22,1.663-0.088,1.862c5.278,0.927,11.31-2.066,15.201-5.63c2.519-2.307,4.172-5.254,5.283-8.451
			c0.795,3.358,2.167,6.536,4.478,9.177c3.532,4.039,9.244,7.779,14.579,7.53C165.709,173.508,165.807,171.647,164.655,171.7z"/>
	</g>
</g>
</svg>
