<?xml version="1.0" encoding="utf-8"?>
<!-- Generator: Adobe Illustrator 16.0.0, SVG Export Plug-In . SVG Version: 6.00 Build 0)  -->
<!DOCTYPE svg PUBLIC "-//W3C//DTD SVG 1.1//EN" "http://www.w3.org/Graphics/SVG/1.1/DTD/svg11.dtd">
<svg version="1.1" id="Layer_1" xmlns="http://www.w3.org/2000/svg" xmlns:xlink="http://www.w3.org/1999/xlink" x="0px" y="0px"
	 width="350px" height="350px" viewBox="0 0 350 350" enable-background="new 0 0 350 350" xml:space="preserve">
<g>
	<path d="M116.76,153.406c-3.478,0-6.314,2.822-6.314,6.312c0,3.49,2.836,6.312,6.314,6.312c3.503,0,6.324-2.822,6.324-6.312
		C123.084,156.228,120.263,153.406,116.76,153.406z"/>
	<path d="M263.844,194.217c0-5.954-0.947-11.223-3.586-14.771c2.812-3.55,3.809-8.937,3.809-15.071l5.806-29.682
		c0-10.698,6.827-19.367-3.867-19.367h-9.032c-10.7,0-19.367,8.669-19.367,19.367l-9.053,17.362
		c-5.076-5.071-11.982-9.511-20.274-13.719c0.015-0.104,0.024-0.192,0.044-0.293c-10.788-0.367-6.299-3.707,0.493-3.588
		c2.595-16.689,8.411-30.262-10.793-27.322c-16.57,2.533-46.001,10.125-61.53,21.895c-18.218,3.197-58.511,24.177-58.511,44.565
		c0,1.652,23.082,33.441,55.023,40.062c12.831,14.606,48.171,23.986,66.961,26.855c21.281,3.261,11.864-13.746,10.133-32.79
		c-10.241,3.473-5.634-1.875,0.567-3.991c4.666-2.513,8.869-4.795,12.485-7.104l14.241,27.29c0,10.689,8.668,19.357,19.362,19.357
		h9.033c10.694,0,3.872-8.668,3.872-19.357L263.844,194.217z M115.413,169.401c-5.342,0-9.684-4.329-9.684-9.684
		c0-5.343,4.341-9.681,9.684-9.681c5.348,0,9.679,4.338,9.679,9.681C125.092,165.072,120.761,169.401,115.413,169.401z"/>
</g>
</svg>
