<?xml version="1.0" encoding="utf-8"?>
<!-- Generator: Adobe Illustrator 16.0.0, SVG Export Plug-In . SVG Version: 6.00 Build 0)  -->
<!DOCTYPE svg PUBLIC "-//W3C//DTD SVG 1.1//EN" "http://www.w3.org/Graphics/SVG/1.1/DTD/svg11.dtd">
<svg version="1.1" id="Layer_1" xmlns="http://www.w3.org/2000/svg" xmlns:xlink="http://www.w3.org/1999/xlink" x="0px" y="0px"
	 width="350px" height="350px" viewBox="0 0 350 350" enable-background="new 0 0 350 350" xml:space="preserve">
<g>
	<path fill="#05658D" d="M234.056,255.978c0,0-22.522,56.308-79.903,48.265c0,0,49.873-16.088,39.147-72.396
		C193.3,231.846,222.794,229.701,234.056,255.978z"/>
	<path fill="#059DBF" d="M251.007,168.879c17.697,38.604,65.96,24.126,65.96,24.126c-34.899,76.933-82.096,81.222-124.621,64.399
		c-2.831-1.121-5.637-2.333-8.419-3.625c-5.348-2.478-10.598-5.245-15.713-8.194c-2.655-1.528-5.271-3.104-7.852-4.719
		c-34.61-21.617-62.045-49.314-70.427-46.955c-1.035,0.289-1.775,1.04-2.209,2.312c-14.479,42.633-45.851,30.566-45.851,30.566
		c14.431-9.503,21.815-19.579,24.55-29.532c12.715-36.749-34.262-69.445-39.378-69.67c-0.149,0.091-0.3,0.177-0.45,0.268
		c0.135-0.091,0.273-0.182,0.407-0.268c1.25-0.815,2.553-1.47,3.899-1.984c11.207-4.285,25.301,1.4,35.425,10.205
		c4.757,4.135,8.634,8.956,10.935,13.755c0,0.006,0.005,0.011,0.005,0.011c3.009,6.296,7.047,11.937,12.731,15.696
		c0.091,0.059,0.177,0.118,0.263,0.172c12.801,8.264,32.99,7.459,61.81-13.455c49.872-36.198-16.088-106.175-16.088-106.175
		c9.095-0.799,17.605-1.008,25.574-0.713c3.77,0.145,7.416,0.402,10.945,0.767c5.239,0.536,10.21,1.313,14.94,2.301
		c4.15,0.868,8.113,1.893,11.889,3.072c44.691,13.873,64.088,48.033,73.393,74.203c12.87,36.197,50.677,38.61,50.677,38.61
		C304.901,200.244,251.007,168.879,251.007,168.879z"/>
	<circle fill="#FFFFFF" cx="243.144" cy="130.537" r="22.437"/>
	<circle fill="#2B0804" cx="241.97" cy="132.353" r="15.493"/>
	<circle fill="#FFFFFF" cx="236.581" cy="129.753" r="6.947"/>
	<g>
		<path fill="#05658D" d="M192.833,180.896c-4.51,21.788-12.752,43.432-24.619,64.688c-2.655-1.528-5.271-3.104-7.852-4.719
			c31.489-56.796,30.567-106.614,22.894-140.667c-5.325-23.627-14.372-42.542-21.697-55.101c3.77,0.145,7.416,0.402,10.945,0.767
			c7.004,12.913,14.763,30.679,19.644,52.333C198.304,125.511,198.534,153.338,192.833,180.896z"/>
	</g>
	<g>
		<path fill="#05658D" d="M216.707,188.296c-4.493,23.15-12.655,46.279-24.361,69.108c-2.831-1.121-5.637-2.333-8.419-3.625
			c30.995-60.329,30.84-112.325,24.132-147.391c-4.945-25.826-13.896-45.861-20.614-58.221c4.15,0.868,8.113,1.893,11.889,3.072
			c6.322,12.94,13.401,31.06,17.681,53.438C222.258,132.102,222.156,160.234,216.707,188.296z"/>
	</g>
	<path fill="#05658D" d="M203.314,184.057c-0.898,26.875-28.247,59.587-61.573,10.479
		C141.741,194.535,184.184,202.888,203.314,184.057z"/>
	<path fill="#F47421" d="M27.005,127.587h0.043c-0.149,0.091-0.3,0.177-0.45,0.268C26.604,127.673,26.748,127.582,27.005,127.587z"
		/>
	<path fill="#05658D" d="M89.936,193.911c-1.035,0.289-1.775,1.04-2.209,2.312c-14.479,42.633-45.851,30.566-45.851,30.566
		c13.632-9.776,21.183-19.793,24.55-29.532c12.715-36.749-34.262-69.445-39.378-69.67c1.309-0.762,2.596-1.421,3.856-1.984
		c14.683-6.521,26.175,0.354,35.425,10.205c4.049,4.306,7.663,9.181,10.935,13.755c0,0.006,0.005,0.011,0.005,0.011
		c4.961,6.945,9.111,13.192,12.731,15.696c0.091,0.059,0.177,0.118,0.263,0.172C86.364,171.34,84.976,180.301,89.936,193.911z"/>
	<g>
		<path fill="#FFFFFF" d="M199.634,190.933c0,0-0.043,0.228-0.123,0.653c-1.343,6.347-4.342,12.397-7.709,16.354
			c-5.311,6.285-11.938,9.117-20.283,7.835c-0.849-0.129-1.803-0.312-2.617-0.547c-6.293-1.68-10.768-6.812-11.785-10.882
			l0.15-0.057c3.666,9.615,19.311,14.033,29.645,6.297c6.698-5.005,11.152-14.593,12.568-19.697L199.634,190.933z"/>
		<path fill="#FFFFFF" d="M197.659,192.026c-5.344,11.839-21.647,22.677-36.937,9.678l0.089-0.135
			c5.529,3.394,8.642,4.279,12.603,4.571c9.61,0.782,19.373-6.543,24.107-14.199L197.659,192.026z"/>
	</g>
	<circle fill="#90E6F4" cx="227.442" cy="215.759" r="7.508"/>
	<circle fill="#90E6F4" cx="254.97" cy="211.826" r="6.078"/>
	<circle fill="#90E6F4" cx="248.177" cy="231.847" r="3.575"/>
	<circle fill="#90E6F4" cx="230.66" cy="243.645" r="5.363"/>
	<circle fill="#90E6F4" cx="269.271" cy="230.774" r="5.362"/>
	<circle fill="#90E6F4" cx="246.032" cy="196.453" r="3.575"/>
	<circle fill="#90E6F4" cx="121.977" cy="183.94" r="5.005"/>
	<circle fill="#90E6F4" cx="146.645" cy="169.998" r="5.72"/>
	<circle fill="#90E6F4" cx="139.853" cy="181.438" r="3.933"/>
	<circle fill="#90E6F4" cx="129.127" cy="202.889" r="5.005"/>
	<circle fill="#90E6F4" cx="150.221" cy="217.188" r="4.29"/>
	<circle fill="#90E6F4" cx="167.38" cy="179.65" r="5.005"/>
	<path fill="#FFFFFF" d="M201.7,264.381c0,0-4.646,27.885-28.601,34.32C173.1,298.701,199.556,298.701,201.7,264.381z"/>
	<path fill="#FFFFFF" d="M208.136,267.598c0,0-0.715,14.658-10.367,22.523C197.769,290.121,212.068,284.758,208.136,267.598z"/>
</g>
</svg>
