<?xml version="1.0" encoding="utf-8"?>
<!-- Generator: Adobe Illustrator 16.0.0, SVG Export Plug-In . SVG Version: 6.00 Build 0)  -->
<!DOCTYPE svg PUBLIC "-//W3C//DTD SVG 1.1//EN" "http://www.w3.org/Graphics/SVG/1.1/DTD/svg11.dtd">
<svg version="1.1" id="Layer_1" xmlns="http://www.w3.org/2000/svg" xmlns:xlink="http://www.w3.org/1999/xlink" x="0px" y="0px"
	 width="350px" height="350px" viewBox="0 0 350 350" enable-background="new 0 0 350 350" xml:space="preserve">
<g>
	<path fill="#720F72" d="M196.011,114.715c0,0,37.954-32.845,62.04-21.896s-32.115,21.896-32.115,21.896s22.626-1.46,26.276,8.758
		c3.648,10.219-18.247,5.84-18.247,5.84s24.815,5.84,19.706,19.707S208.418,145.371,196.011,114.715z"/>
	<path fill="#720F72" d="M128.487,104.287c0,0,20.77-59.635,43.77-49.635c17.231,7.491-10,35-10,35s10.215-9.62,20.91-0.531
		c10.695,9.091-18.113,29.239-47.449,28.749C135.717,117.87,127.018,116.854,128.487,104.287z"/>
	<path fill="#720F72" d="M250.022,202.301c0,0,12.082-72.884,35.033-70.798c24.086,2.189-3.799,49.149-3.799,49.149
		s10,3,11.828,18.729c1.433,12.325-8.828,22.271-8.828,22.271s15.396,40.499-2.12,47.798
		C264.619,276.748,250.022,202.301,250.022,202.301z"/>
	<path fill="#EF4C6A" d="M259.51,202.301c-1.253-93.649-179.253-160.649-204.367-4.379c0,0,55.958,25.789,90.505-4.379
		c0,0-10.216,56.93-87.586,36.493C60.256,292.651,216.257,352.651,259.51,202.301z"/>
	<circle fill="#FFFFFF" cx="108.668" cy="167.266" r="24.816"/>
	<circle fill="#26050C" cx="111.101" cy="168.727" r="16.058"/>
	<circle fill="#FFFFFF" cx="114.021" cy="168.727" r="6.327"/>
	<path fill="#720F72" d="M152.407,210.357c0,0,0,60.582,20.437,62.77c20.437,2.191,8.03-28.464,8.03-28.464
		s33.574,3.649,31.385-14.599C210.068,211.818,152.407,210.357,152.407,210.357z"/>
	<circle fill="#F4829B" cx="164.625" cy="123.473" r="9.489"/>
	<circle fill="#F4829B" cx="204.77" cy="162.887" r="10.948"/>
	<circle fill="#F4829B" cx="173.384" cy="184.783" r="9.489"/>
	<circle fill="#F4829B" cx="214.257" cy="198.651" r="8.029"/>
	<circle fill="#F4829B" cx="172.654" cy="154.129" r="6.569"/>
	<circle fill="#F4829B" cx="126.671" cy="127.853" r="6.569"/>
	<circle fill="#F4829B" cx="120.833" cy="255.582" r="12.408"/>
	<circle fill="#F4829B" cx="143.459" cy="237.335" r="7.298"/>
	<circle fill="#F4829B" cx="143.458" cy="285.506" r="5.839"/>
	<circle fill="#F4829B" cx="210.608" cy="261.422" r="5.109"/>
	<circle fill="#FEE110" cx="147.108" cy="148.29" r="5.839"/>
	<circle fill="#FEE110" cx="144.256" cy="122.652" r="6.568"/>
	<circle fill="#FEE110" cx="185.792" cy="123.473" r="6.569"/>
	<circle fill="#FEE110" cx="224.476" cy="174.565" r="5.109"/>
	<circle fill="#FEE110" cx="191.631" cy="203.031" r="4.379"/>
	<circle fill="#FEE110" cx="241.993" cy="204.49" r="4.379"/>
	<circle fill="#FEE110" cx="231.775" cy="226.387" r="5.11"/>
	<circle fill="#FEE110" cx="194.256" cy="262.651" r="8.029"/>
	<circle fill="#FEE110" cx="184.257" cy="280.651" r="5.838"/>
	<circle fill="#FEE110" cx="150.027" cy="272.369" r="4.379"/>
	<circle fill="#FEE110" cx="86.527" cy="250.473" r="2.919"/>
</g>
</svg>
