<?xml version="1.0" encoding="utf-8"?>
<!-- Generator: Adobe Illustrator 16.0.0, SVG Export Plug-In . SVG Version: 6.00 Build 0)  -->
<!DOCTYPE svg PUBLIC "-//W3C//DTD SVG 1.1//EN" "http://www.w3.org/Graphics/SVG/1.1/DTD/svg11.dtd">
<svg version="1.1" id="Layer_1" xmlns="http://www.w3.org/2000/svg" xmlns:xlink="http://www.w3.org/1999/xlink" x="0px" y="0px"
	 width="350px" height="350px" viewBox="0 0 350 350" enable-background="new 0 0 350 350" xml:space="preserve">
<g>
	<path fill="#C59981" d="M110.284,264.172c22.006-32.466,8.211-63.127,2.687-72.896c-18.753,7.307-35.158,20.087-46.96,37.167
		c11.208,16.221,26.577,28.543,44.157,36.004C110.22,264.359,110.226,264.258,110.284,264.172z M88.156,214.747l17.609-8.805
		l4.157,8.313l-17.609,8.806L88.156,214.747z"/>
	<path fill="#C59981" d="M150.16,184.293c-9.715,0-19.205,1.403-28.272,4.002c6.709,12.721,19.301,45.163-2.871,79.461
		c9.92,3.16,20.4,4.838,31.143,4.838c33.777,0,65.006-16.445,84.15-44.15C215.166,200.739,183.938,184.293,150.16,184.293z"/>
	<polygon fill="#C59981" points="284.934,258.818 284.934,202.715 246.361,230.767 	"/>
</g>
<g>
	<path fill="#314E55" d="M291.689,189.447c-1.553-0.792-3.43-0.645-4.844,0.383l-45.249,32.909
		c-20.905-29.943-54.776-47.74-91.437-47.74c-12.259,0-24.2,2.015-35.46,5.777c-0.918,0.011-1.842,0.21-2.645,0.788
		c-0.091,0.064-0.134,0.164-0.219,0.234c-22.396,8.174-41.887,23.412-55.316,44.115c-0.999,1.538-0.999,3.521,0,5.06
		c20.68,31.881,55.687,50.915,93.639,50.915c35.4,0,68.229-16.572,89.267-44.672l47.419,34.487c0.811,0.591,1.771,0.89,2.735,0.89
		c0.718,0,1.442-0.168,2.108-0.506c1.558-0.794,2.539-2.394,2.539-4.142v-74.358C294.229,191.841,293.248,190.241,291.689,189.447z
		 M66.011,228.443c11.802-17.08,28.206-29.86,46.96-37.167c5.524,9.769,19.319,40.43-2.687,72.896
		c-0.058,0.086-0.063,0.188-0.115,0.274C92.588,256.986,77.219,244.664,66.011,228.443z M150.16,272.594
		c-10.743,0-21.223-1.678-31.144-4.838c22.173-34.299,9.58-66.741,2.872-79.462c9.067-2.598,18.557-4.001,28.272-4.001
		c33.778,0,65.006,16.445,84.149,44.15C215.166,256.148,183.938,272.594,150.16,272.594z M284.934,258.818l-38.572-28.052
		l38.572-28.052V258.818z"/>
	
		<rect x="89.194" y="209.856" transform="matrix(0.8944 -0.4472 0.4472 0.8944 -85.4714 66.9343)" fill="#314E55" width="19.686" height="9.295"/>
	<path fill="#314E55" d="M146.382,148.268c-2.171,1.369-2.825,4.237-1.457,6.408c0.882,1.405,2.394,2.172,3.938,2.172
		c0.846,0,1.702-0.231,2.471-0.715c0.814-0.513,19.751-12.933,3.319-45.655c-4.437-8.834-5.598-16.509-3.451-22.81
		c2.514-7.391,8.958-10.623,9.136-10.709c2.308-1.089,3.309-3.839,2.233-6.159c-1.083-2.331-3.849-3.332-6.172-2.26
		c-0.409,0.19-10.033,4.763-13.929,15.937c-3.066,8.793-1.761,18.943,3.878,30.171C158.813,139.472,146.836,147.959,146.382,148.268
		z"/>
	<path fill="#314E55" d="M169.619,148.268c-2.171,1.369-2.825,4.237-1.457,6.408c0.882,1.405,2.394,2.172,3.938,2.172
		c0.846,0,1.702-0.231,2.471-0.715c0.814-0.513,19.751-12.933,3.32-45.655c-4.437-8.834-5.599-16.509-3.452-22.81
		c2.514-7.391,8.958-10.622,9.136-10.709c2.307-1.089,3.308-3.839,2.232-6.159c-1.083-2.331-3.851-3.332-6.173-2.26
		c-0.408,0.19-10.032,4.763-13.928,15.937c-3.066,8.793-1.761,18.943,3.878,30.171C182.049,139.472,170.073,147.959,169.619,148.268
		z"/>
	<path fill="#314E55" d="M192.855,148.268c-2.172,1.369-2.825,4.237-1.457,6.408c0.883,1.405,2.394,2.172,3.938,2.172
		c0.846,0,1.701-0.231,2.471-0.715c0.815-0.513,19.752-12.933,3.319-45.655c-4.436-8.834-5.598-16.509-3.45-22.81
		c2.514-7.391,8.958-10.622,9.136-10.709c2.307-1.089,3.309-3.839,2.232-6.159c-1.08-2.331-3.845-3.332-6.172-2.26
		c-0.409,0.19-10.033,4.763-13.93,15.937c-3.065,8.793-1.76,18.943,3.879,30.171C205.286,139.472,193.31,147.959,192.855,148.268z"
		/>
</g>
</svg>
