<?xml version="1.0" encoding="utf-8"?>
<!-- Generator: Adobe Illustrator 16.0.0, SVG Export Plug-In . SVG Version: 6.00 Build 0)  -->
<!DOCTYPE svg PUBLIC "-//W3C//DTD SVG 1.1//EN" "http://www.w3.org/Graphics/SVG/1.1/DTD/svg11.dtd">
<svg version="1.1" id="Layer_1" xmlns="http://www.w3.org/2000/svg" xmlns:xlink="http://www.w3.org/1999/xlink" x="0px" y="0px"
	 width="350px" height="350px" viewBox="0 0 350 350" enable-background="new 0 0 350 350" xml:space="preserve">
<g id="Alien_Shotgun">
	<rect id="Background_4_" x="55" y="55" fill="#273554" width="240" height="240"/>
	<polygon opacity="0.1" points="295,186.24 261.271,152.907 255.084,153.313 240.786,139.016 236.453,144.522 229.021,139.016 
		225.044,146.711 217.35,139.016 213.873,147.238 205.65,139.016 199.884,149.86 183.973,133.948 183.973,134.561 107.84,149.795 
		102.514,179.255 115.375,192.115 95.423,224.063 166.926,295 295,295 	"/>
	<g id="Alien_Shotgun_2_">
		<g id="Alien_Shotgun_1_">
			<rect x="184.674" y="152.61" fill="#FFFFFF" width="70.656" height="8.184"/>
			<circle fill="#FFFFFF" cx="252.454" cy="156.564" r="9.544"/>
			<path fill="#ECC200" d="M233.628,174.113c0,1.778,1.455,3.232,3.233,3.232h0.691c1.778,0,3.233-1.455,3.233-3.232v-35.097
				c0-1.778-1.455-3.233-3.233-3.233h-0.691c-1.778,0-3.233,1.455-3.233,3.233V174.113z"/>
			<path fill="#ECC200" d="M221.864,174.113c0,1.778,1.454,3.232,3.232,3.232h0.692c1.778,0,3.232-1.455,3.232-3.232v-35.097
				c0-1.778-1.454-3.233-3.232-3.233h-0.692c-1.778,0-3.232,1.455-3.232,3.233V174.113z"/>
			<path fill="#ECC200" d="M210.191,174.113c0,1.778,1.455,3.232,3.232,3.232h0.693c1.777,0,3.232-1.455,3.232-3.232v-35.097
				c0-1.778-1.455-3.233-3.232-3.233h-0.693c-1.777,0-3.232,1.455-3.232,3.233V174.113z"/>
			<path fill="#ECC200" d="M198.492,174.113c0,1.778,1.455,3.232,3.233,3.232h0.692c1.777,0,3.232-1.455,3.232-3.232v-35.097
				c0-1.778-1.455-3.233-3.232-3.233h-0.692c-1.778,0-3.233,1.455-3.233,3.233V174.113z"/>
			<circle fill="#ECC200" cx="101.548" cy="154.458" r="13.546"/>
			<polygon fill="#57C6CE" points="98.423,217.613 126.967,224.063 145.4,170.525 118.183,161.153 			"/>
			<path fill="#90ECFF" d="M94.481,221.789c0,1.777,1.454,3.232,3.232,3.232l30.899-0.006c1.777,0,3.232-1.455,3.231-3.232v-1.811
				c-0.001-1.777-1.456-3.232-3.233-3.232l-30.898,0.006c-1.778,0-3.232,1.455-3.232,3.232L94.481,221.789z"/>
			<polygon fill="#0C161E" points="146.344,190.479 150.962,187.322 150.962,176.932 146.344,176.932 			"/>
			<path fill="#90ECFF" d="M101.549,176.958c0,1.778,1.455,3.231,3.232,3.231h89.744c1.777,0,2.82-1.395,2.317-3.1l-12.491-42.289
				c-0.503-1.706-2.37-3.101-4.147-3.101h-75.423c-1.777,0-3.232,1.455-3.232,3.233V176.958z"/>
			<polygon fill="#57C6CE" points="106.859,124.979 116.096,124.979 125.332,131.701 106.859,131.701 			"/>
			<rect x="106.859" y="135.783" fill="#FFFFFF" width="37.406" height="8.361"/>
		</g>
		<g id="Star_4_">
			<path fill="#FFFFFF" d="M138.908,98.301c-6.299,0-11.406-5.107-11.406-11.407c0,6.3-5.107,11.407-11.406,11.407
				c6.299,0,11.406,5.106,11.406,11.406C127.502,103.407,132.609,98.301,138.908,98.301z"/>
			<path fill="#FFFFFF" d="M177.083,272.246c-3.698,0-6.697-2.998-6.697-6.697c0,3.699-2.998,6.697-6.697,6.697
				c3.699,0,6.697,2.998,6.697,6.697C170.386,275.244,173.385,272.246,177.083,272.246z"/>
			<path fill="#FFFFFF" d="M224.047,216.74c-3.699,0-6.697-2.998-6.697-6.697c0,3.699-2.999,6.697-6.697,6.697
				c3.698,0,6.697,2.999,6.697,6.697C217.35,219.739,220.348,216.74,224.047,216.74z"/>
			<path fill="#FFFFFF" d="M235.72,109.707c-3.699,0-6.698-2.999-6.698-6.697c0,3.699-2.998,6.697-6.697,6.697
				c3.699,0,6.697,2.999,6.697,6.698C229.021,112.705,232.021,109.707,235.72,109.707z"/>
		</g>
	</g>
</g>
</svg>
