<?xml version="1.0" encoding="utf-8"?>
<!-- Generator: Adobe Illustrator 16.0.0, SVG Export Plug-In . SVG Version: 6.00 Build 0)  -->
<!DOCTYPE svg PUBLIC "-//W3C//DTD SVG 1.1//EN" "http://www.w3.org/Graphics/SVG/1.1/DTD/svg11.dtd">
<svg version="1.1" id="Layer_1" xmlns="http://www.w3.org/2000/svg" xmlns:xlink="http://www.w3.org/1999/xlink" x="0px" y="0px"
	 width="350px" height="350px" viewBox="0 0 350 350" enable-background="new 0 0 350 350" xml:space="preserve">
<path fill="#656D78" d="M195.598,214.642c-4.7,0-8.51,3.81-8.51,8.51v28.826c0,4.7,3.81,8.511,8.51,8.511s8.511-3.811,8.511-8.511
	v-28.826C204.108,218.451,200.298,214.642,195.598,214.642z"/>
<path fill="#434A54" d="M235.236,214.642c-4.7,0-8.51,3.81-8.51,8.51v28.826c0,4.7,3.81,8.511,8.51,8.511s8.511-3.811,8.511-8.511
	v-28.826C243.748,218.451,239.937,214.642,235.236,214.642z"/>
<path fill="#656D78" d="M279.232,251.978c0,4.698-3.808,8.511-8.511,8.511H162.479c-4.704,0-8.511-3.813-8.511-8.511
	c0-4.697,3.807-8.51,8.511-8.51h108.243C275.425,243.468,279.232,247.28,279.232,251.978z"/>
<path fill="#434A54" d="M279.232,251.978c0,4.698-3.808,8.511-8.511,8.511h-55.507v-17.021h55.507
	C275.425,243.468,279.232,247.28,279.232,251.978z"/>
<path fill="#656D78" d="M213.31,98.657v24.97c0,4.641-3.712,8.409-8.323,8.505c-0.063,0.006-0.126,0.006-0.188,0.006
	c-4.703,0-8.51-3.808-8.51-8.51v-24.97c0-4.698,3.807-8.511,8.51-8.511c0.062,0,0.125,0,0.188,0.006
	C209.598,90.249,213.31,94.021,213.31,98.657z"/>
<path fill="#434A54" d="M213.31,98.657v24.97c0,4.641-3.712,8.409-8.323,8.505v-41.98C209.598,90.249,213.31,94.021,213.31,98.657z"
	/>
<path fill="#656D78" d="M285.553,98.022c0,4.698-3.813,8.51-8.51,8.51H132.935c-4.704,0-8.51-3.813-8.51-8.51
	c0-4.698,3.807-8.511,8.51-8.511h144.107C281.74,89.511,285.553,93.324,285.553,98.022z"/>
<path fill="#434A54" d="M285.553,98.022c0,4.698-3.813,8.51-8.51,8.51h-72.058V89.511h72.057
	C281.74,89.511,285.553,93.324,285.553,98.022z"/>
<path fill="#656D78" d="M146.688,174.056c0,4.703-3.813,8.51-8.51,8.51H92.407c-4.698,0-8.51-3.807-8.51-8.51
	c0-0.103,0-0.204,0.006-0.307c0.165-4.556,3.909-8.204,8.505-8.204h45.77c4.596,0,8.34,3.648,8.505,8.204
	C146.688,173.851,146.688,173.953,146.688,174.056z"/>
<path fill="#434A54" d="M146.682,173.749H83.903c0.165-4.556,3.909-8.204,8.505-8.204h45.77
	C142.773,165.544,146.518,169.193,146.682,173.749z"/>
<path fill="#FF576F" d="M76.039,149.21c-13.532,0-24.539,11.013-24.539,24.539c0,13.532,11.007,24.545,24.539,24.545
	c13.532,0,24.539-11.013,24.539-24.545C100.578,160.223,89.571,149.21,76.039,149.21z M76.039,181.272
	c-4.147,0-7.518-3.376-7.518-7.523c0-4.142,3.371-7.518,7.518-7.518c4.147,0,7.518,3.376,7.518,7.518
	C83.557,177.896,80.186,181.272,76.039,181.272z"/>
<path fill="#F23652" d="M100.578,173.749c0,13.532-11.007,24.545-24.539,24.545v-17.021c4.147,0,7.518-3.376,7.518-7.523
	c0-4.142-3.371-7.518-7.518-7.518V149.21C89.571,149.21,100.578,160.223,100.578,173.749z"/>
<path fill="#E6E9ED" d="M298.5,197.635c0,18.417-14.984,33.402-33.401,33.402h-91.2c-24.391,0-44.232-19.842-44.232-44.238v-27.444
	c0-24.391,19.841-44.238,44.232-44.238h42.144c43.535,0.034,79.291,33.957,82.259,76.759C298.432,193.777,298.5,195.7,298.5,197.635
	z"/>
<path fill="#CCD1D9" d="M298.5,197.635c0,18.417-14.984,33.402-33.401,33.402h-49.884v-115.92h0.828
	c43.535,0.034,79.291,33.957,82.259,76.759C298.432,193.777,298.5,195.7,298.5,197.635z"/>
<path fill="#4BB9EC" d="M298.287,191.877h-73.362c-1.854,0-3.578-0.603-4.979-1.617c-0.986-0.714-1.813-1.637-2.419-2.7
	c-0.944-1.367-1.497-3.029-1.497-4.817v-67.625c21.861,0.012,41.765,8.585,56.537,22.522
	C287.206,151.46,296.811,170.565,298.287,191.877z"/>
<path fill="#0088FF" d="M298.287,191.877h-73.362c-1.854,0-3.578-0.603-4.979-1.617l52.621-52.621
	C287.206,151.46,296.811,170.565,298.287,191.877z"/>
<path fill="#FF576F" d="M202.933,172.495c0,4.698-3.813,8.511-8.512,8.511h-4.385v4.386c0,4.697-3.808,8.51-8.511,8.51
	c-4.697,0-8.511-3.813-8.511-8.51v-4.386h-4.385c-4.698,0-8.511-3.813-8.511-8.511c0-4.704,3.813-8.51,8.511-8.51h4.385v-4.386
	c0-4.698,3.813-8.51,8.511-8.51c4.703,0,8.511,3.813,8.511,8.51v4.386h4.385C199.119,163.984,202.933,167.792,202.933,172.495z"/>
<path fill="#F23652" d="M202.933,172.495c0,4.698-3.813,8.511-8.512,8.511h-4.385v4.386c0,4.697-3.808,8.51-8.511,8.51v-42.813
	c4.703,0,8.511,3.813,8.511,8.51v4.386h4.385C199.119,163.984,202.933,167.792,202.933,172.495z"/>
</svg>
