<?xml version="1.0" encoding="utf-8"?>
<!-- Generator: Adobe Illustrator 16.0.0, SVG Export Plug-In . SVG Version: 6.00 Build 0)  -->
<!DOCTYPE svg PUBLIC "-//W3C//DTD SVG 1.1//EN" "http://www.w3.org/Graphics/SVG/1.1/DTD/svg11.dtd">
<svg version="1.1" id="Layer_1" xmlns="http://www.w3.org/2000/svg" xmlns:xlink="http://www.w3.org/1999/xlink" x="0px" y="0px"
	 width="350px" height="350px" viewBox="0 0 350 350" enable-background="new 0 0 350 350" xml:space="preserve">
<path fill="#6FA523" d="M78.777,252.816c0,0-19.488-8.647-8.696-18.916c10.793-10.27,20.24-6.396,20.24-6.396
	s-2.531-11.938,20.14-16.22c22.672-4.282,29.503,8.397,29.503,8.397s6.131-14.786,20.216-13.785
	c14.084,0.999,12.309,12.86,12.309,12.86s18.308-14.588,27.086-10.795c8.777,3.791,13.658,7.906,13.658,7.906
	s-0.054-19.318,17.326-18.446c17.383,0.87,14.484,16.973,14.484,16.973s15.638-18.702,27.357-13.175
	c12.755,6.016,10.38,23.884,10.38,23.884s10.169-8.014,13.46,1.373c5.543,15.814-3.167,17.985-3.167,17.985s7.918,6.88-1.584,15.59
	c-9.501,8.71-28.286,4.751-28.286,4.751s-18.887,19.003-30.535,11.877c0,0-10.246,12.668-24.805,14.252
	c-14.556,1.583-18.666-11.085-18.666-11.085s-14.079,17.693-31.113,11.223c-17.035-6.472-18.121-15.974-18.121-15.974
	s-9.254,10.293-17.941,7.126c-8.686-3.167-8.259-12.596-8.259-12.596S72.312,278.838,78.777,252.816"/>
<path fill="#9D6100" d="M246.765,96.304c0,0-5.472-7.751,0-22.341c5.472-14.591,13.68-17.326,11.399,0
	c0,0,8.631-12.767,20.273-8.208c11.644,4.559,16.657,15.047,3.435,15.503c0,0,11.179,9.574,7.869,18.693
	c-3.31,9.12-10.634,13.375-11.304,2.128c0,0-0.546,10.168-11.094,6.756C256.795,105.423,248.396,100.165,246.765,96.304"/>
<g>
	<defs>
		<path id="SVGID_1_" d="M246.765,73.963c-5.472,14.589,0,22.341,0,22.341c1.63,3.859,10.03,9.12,20.58,12.531
			c10.547,3.415,11.092-6.756,11.092-6.756c0.671,11.247,7.995,6.992,11.306-2.128c3.31-9.119-7.87-18.693-7.87-18.693
			c13.225-0.456,8.207-10.943-3.436-15.503c-11.642-4.559-20.271,8.208-20.271,8.208c1.091-8.294-0.221-11.991-2.486-11.991
			C253.214,61.973,249.618,66.357,246.765,73.963"/>
	</defs>
	<clipPath id="SVGID_2_">
		<use xlink:href="#SVGID_1_"  overflow="visible"/>
	</clipPath>
	<path clip-path="url(#SVGID_2_)" fill="#7F4D04" d="M261.355,84.488c0,0,3.964,1.929,4.341,6.271
		c0.378,4.34-0.188,13.022,4.907,13.589c5.096,0.565,8.494-7.245,8.494-7.245s2.642,7.811,4.528,4.037
		c1.889-3.776,3.466-13.251,0.129-18.045c-3.336-4.794,9.875,5.586,11.196,9.74c1.32,4.152-13.023,21.106-19.63,20.745
		c-6.606-0.361-14.531,1.748-20.382-3.554c-5.852-5.302-11.585-4.358-10.605-7.566C245.312,99.252,255.315,83.692,261.355,84.488"/>
</g>
<path fill="#EEC000" d="M272.51,187.353c0,0-5.227-13.04-11.61-19.444c-6.384-6.404-47.875-50.63-12.312-78.443
	c0,0,8.665-9.955,12.767-4.978c4.104,4.978-2.734,5.888-2.734,5.888s7.751,7.792,2.734,7.771
	c-5.014-0.019-11.854,6.364-11.854,22.322c0,15.959,29.181,51.238,34.197,66.883c5.014,15.644-0.999,37.557-12.313,43.457
	c-11.313,5.899-3.495-5.556-0.455-10.286C273.972,215.792,275.458,199.063,272.51,187.353"/>
<g>
	<defs>
		<path id="SVGID_3_" d="M248.59,89.465c-35.565,27.814,5.926,72.04,12.31,78.442c6.384,6.405,11.61,19.446,11.61,19.446
			c2.948,11.709,1.462,28.439-1.58,33.171c-3.04,4.732-10.857,16.184,0.455,10.284c11.313-5.898,17.326-27.813,12.313-43.455
			c-5.017-15.645-34.197-50.925-34.197-66.882c0-15.958,6.841-22.343,11.854-22.323c5.017,0.021-2.734-7.771-2.734-7.771
			s6.838-0.912,2.734-5.889c-0.82-0.995-1.823-1.394-2.901-1.394C254.134,83.096,248.59,89.465,248.59,89.465"/>
	</defs>
	<clipPath id="SVGID_4_">
		<use xlink:href="#SVGID_3_"  overflow="visible"/>
	</clipPath>
	<path clip-path="url(#SVGID_4_)" fill="#D7AD00" d="M256.638,83.095c0,0,6.795,1.739,0,6.966c0,0,0.377,2.584-3.776,5.227
		c-4.151,2.643-10.263,9.462-8.529,23.04c1.736,13.576,10.048,27.734,21.234,44.774c10.404,15.848,6.942,24.25,1.262,34.673
		c-1.948,3.572-1.132,26.05-3.774,30.673c-2.642,4.62,11.351,11.363,11.528,10.282c0.177-1.08,5.395-4.944,10.899-18.892
		c5.506-13.948,9.658-26.505-2.421-41.933c-12.08-15.427-24.159-35.055-27.556-49.399c-3.397-14.346,1.652-22.018,4.411-24.787
		c2.76-2.769,10.309-9.999,3.517-11.828C263.433,91.892,267.206,78.452,256.638,83.095"/>
</g>
<path fill="#C3A00E" d="M90.375,240.84c-0.045-13.654,15.861-9.748,19.411-8.381c3.548,1.367,19.949-1.559,19.949-1.559
	c-0.562-4.103-7.243-38.98-7.243-38.98c21.173-1.043,36.731,35.696,39.108,37.521c2.375,1.825-2.489,9.439-4.199,13.223
	c-1.712,3.784-11.399,1.824-22.495,2.642c-6.967,0.513-20.792,1.678-30.11,2.474C104.795,247.778,90.393,246.158,90.375,240.84"/>
<path fill="#665C31" d="M92.528,237.787c0,0-3.303,0.187-2.831,5.096l2.163-0.505C91.859,242.378,91.772,239.014,92.528,237.787"/>
<path fill="#665C31" d="M95.548,238.73c0,0-4.057,2.295-3.02,6.574c0,0,1.506,0.25,2.263,0
	C94.791,245.305,94.509,239.863,95.548,238.73"/>
<path fill="#665C31" d="M98.662,240.334c0,0-2.924,2.645-2.264,6.701c0,0,1.671-0.587,2.264-0.435
	C98.662,246.601,97.623,242.222,98.662,240.334"/>
<path fill="#EEC000" d="M127.909,207.273c0,0,0.678,25.359,33.778,33.566c33.1,8.207,80.519,3.191,91.003,0
	c10.488-3.19,33.286-26.444,23.255-47.419c-10.031-20.973-34.593-22.163-69.701-18.071
	C171.136,179.443,109.215,170.342,127.909,207.273"/>
<g>
	<defs>
		<path id="SVGID_5_" d="M206.244,175.35c-35.108,4.092-97.028-5.007-78.336,31.923c0,0,0.68,25.359,33.778,33.564
			c33.102,8.209,80.52,3.193,91.007,0c10.485-3.19,33.283-26.442,23.252-47.417c-7.224-15.104-21.986-19.947-42.789-19.947
			C225.068,173.474,216.07,174.205,206.244,175.35"/>
	</defs>
	<clipPath id="SVGID_6_">
		<use xlink:href="#SVGID_5_"  overflow="visible"/>
	</clipPath>
	<path clip-path="url(#SVGID_6_)" fill="#D7AD00" d="M129.804,210.003c0,0,33.471-23.363,43.769,19.886
		c16.628,1.671,32.846,0.73,38.515-1.44c5.669-2.175,31.338-10.53,40.02-13.121c8.684-2.592,24.777-7.061,25.634-16.854
		c2.233-25.527,11.36,17.987-7.514,36.105c-18.875,18.12-92.523,20.384-96.654,19.252
		C169.439,252.698,125.275,232.651,129.804,210.003"/>
</g>
<path fill="#EEC000" d="M167.628,197.664c0,0-4.104,14.235,0,22.391c4.103,8.158,6.839,14.54,6.839,14.54
	s-21.885,5.016-25.078,4.103c-3.191-0.912-23.966-3.184-23.966,15.502c0,0,14.417,11.39,33.086,0c0,0,36.492-1.5,43.314-8.661
	c6.822-7.162-7.732-29.645-8.207-37.844C193.143,199.493,179.939,179.425,167.628,197.664"/>
<path fill="#665C31" d="M129.169,248.558c0,0-5.962,0.943-3.745,7.173h2.417C127.841,255.73,127.489,251.201,129.169,248.558"/>
<path fill="#665C31" d="M132.738,249.313c0,0-4.871,5.286-3.568,9.06l2.848-0.776C132.018,257.596,131.927,250.633,132.738,249.313"
	/>
<path fill="#665C31" d="M138.265,250.366c0,0-3.531,4.421-1.697,9.705l2.398-0.941C138.966,259.13,137.322,252.442,138.265,250.366"
	/>
<path fill="#B9980F" d="M203.023,243.618c0,0,2.142-4.813,0.657-10.599c-1.488-5.789-8.594-17.413-9.695-23.114
	c0,0,3.487,11.871,5.795,16.835C202.086,231.708,203.628,239.961,203.023,243.618"/>
<path fill="#B9980F" d="M155.936,238.256c0,0,16.88-3.625,18.169-4.494c0,0-6.1-10.702-7.255-15.607c0,0,6.616,14.738,9.656,16.436
	C176.506,234.59,162.48,237.813,155.936,238.256"/>
<path fill="#EEC000" d="M271.304,187.949c0,0-41.947-14.59-51.067,0c-9.117,14.592,10.488,41.037,25.532,45.596
	c0,0-19.148,5.926-24.619,5.926c0,0-22.593-10.942-17.452,15.047c0,0,18.362,4.56,29.307,0c0,0,35.563-9.575,44.227-9.575
	C285.894,244.942,286.806,206.188,271.304,187.949"/>
<path fill="#665C31" d="M204.364,247.508c0,0-3.963,1.889-2.642,7.171l3.586-0.51C205.309,254.169,203.62,249.084,204.364,247.508"
	/>
<path fill="#665C31" d="M208.87,246.753c0,0-5.261,4.152-3.562,10.568l3.562-1.79C208.87,255.531,207.526,249.773,208.87,246.753"/>
<path fill="#665C31" d="M214.368,248.263c0,0-4.152,5.176-2.644,9.948l2.644-1.972C214.368,256.239,212.668,250.905,214.368,248.263
	"/>
<path fill="#B9980F" d="M220.212,207.268c0,0,8.016,14.395,17.222,19.799c9.209,5.405,17.514,4.148,17.514,4.148
	s-14.534,5.157-19.44,6.385c-4.907,1.227-12.592,1.738-12.592,1.738s13.679-3.461,22.855-5.793
	C245.771,233.545,231.906,232.331,220.212,207.268"/>
<path fill="#D7AD00" d="M164.533,220.252c0,0,14.092,2.121,15.853-16.251c0,0,30.31,21.896,31.009-21.137
	c0,0,7.998-2.669,3.971-11.904c-4.025-9.235-21.38,6.859-21.38,6.859S156.229,190.446,164.533,220.252"/>
<path fill="#9D6100" d="M142.241,77.137c0,0,21.353-9.68,37.296-1.423c15.944,8.257,5.125,11.958,5.125,11.958
	s29.041,12.243,31.318,27.332c2.276,15.089-7.119,8.826-7.119,8.826s7.974,14.236,9.396,36.442
	c1.423,22.206-11.957,17.653-11.957,17.653s5.125,17.367-6.263,25.909c-11.389,8.54-23.915-6.833-23.915-6.833
	s0.285,21.352-9.396,23.059c-9.68,1.709-11.389-8.255-11.389-8.255s-6.786,19.789-23.916,15.944
	c-13.362-3-12.811-15.66-12.811-15.66s-7.972,12.526-16.229,10.25c-8.256-2.279-11.958-17.937-11.958-17.937
	s-1.993,7.972-9.111,5.979c-7.116-1.995-10.819-19.361-8.541-29.325c0,0-5.124,5.692-8.827,3.132
	c-3.701-2.563-6.263-31.318,4.556-43.561c0,0-9.68,0.284-11.673-9.111c-1.993-9.396,12.243-34.45,28.755-40.428
	c0,0-6.263-0.285-6.833-3.702C78.182,83.971,94.979,50.945,142.241,77.137"/>
<g>
	<defs>
		<path id="SVGID_7_" d="M78.751,87.387c0.569,3.416,6.834,3.701,6.834,3.701c-16.512,5.979-30.75,31.034-28.755,40.429
			c1.992,9.395,11.672,9.11,11.672,9.11c-10.819,12.243-8.257,40.999-4.556,43.561c3.701,2.563,8.827-3.134,8.827-3.134
			c-2.279,9.966,1.422,27.334,8.54,29.326c7.119,1.991,9.11-5.978,9.11-5.978s3.702,15.656,11.958,17.935
			c8.256,2.277,16.23-10.249,16.23-10.249s-0.553,12.66,12.811,15.66c17.128,3.845,23.915-15.944,23.915-15.944
			s1.709,9.966,11.389,8.255c9.678-1.707,9.394-23.061,9.394-23.061s12.527,15.373,23.916,6.832
			c11.388-8.539,6.263-25.907,6.263-25.907s13.382,4.556,11.957-17.651c-1.422-22.208-9.395-36.443-9.395-36.443
			s9.395,6.265,7.118-8.826c-2.279-15.088-31.318-27.332-31.318-27.332s10.819-3.701-5.125-11.957
			c-15.944-8.258-37.295,1.422-37.295,1.422c-13.232-7.333-24.072-10.024-32.815-10.022C86.94,67.116,78.341,84.928,78.751,87.387"
			/>
	</defs>
	<clipPath id="SVGID_8_">
		<use xlink:href="#SVGID_7_"  overflow="visible"/>
	</clipPath>
	<path clip-path="url(#SVGID_8_)" fill="#7F4D04" d="M68.502,140.627c0,0-6.266,31.385-2.114,32.847c4.152,1.461,12.08,0,12.08,0
		s-1.511,26.753,5.284,27.508c6.795,0.755,13.729-9.084,13.729-9.084s0.959,19.116,11.044,19.654
		c10.086,0.536,15.942-13.968,15.942-13.968s6.376,16.609,18.273,11.805c14.531-5.871,13.196-13.692,13.196-13.692
		s7.852,6.442,13.891-1.483c6.039-7.927,4.52-16.395,4.52-16.395s7.925,6.849,15.756,1.565c7.831-5.285,7.823-27.941,7.823-27.941
		s13.896,0.591,13.469-8.882c-0.424-9.471-4.473-21.844-4.473-21.844s7.942,6.657,9.578-0.893c1.634-7.549,0,17.398,0,17.398
		s12.976,35.072-2.132,47.905c0,0,0.369,21.34-18.126,24.776c-18.498,3.435-16.337-2.637-16.337-2.637s-11.221,28.247-22.167,13.059
		c0,0-30.709,28.694-40.269,2.977c0,0-22.674,17.315-27.819-7.977c0,0-22.507,0.329-20.621-23.428
		C69.029,191.898,43.816,169.357,68.502,140.627"/>
</g>
<path fill="#EEC000" d="M101.101,122.691c0,0,3.641-9.538,9.72-7.473c0,0,0.864-11.104,6.842-9.184c0,0-6.191-15.159-18.363-5.978
	C87.129,109.238,87.221,116.711,101.101,122.691"/>
<g>
	<defs>
		<path id="SVGID_9_" d="M99.3,100.056c-12.17,9.183-12.078,16.656,1.801,22.635c0,0,3.64-9.538,9.722-7.475
			c0,0,0.863-11.104,6.841-9.182c0,0-3.649-8.931-10.849-8.931C104.635,97.102,102.13,97.923,99.3,100.056"/>
	</defs>
	<clipPath id="SVGID_10_">
		<use xlink:href="#SVGID_9_"  overflow="visible"/>
	</clipPath>
	<path clip-path="url(#SVGID_10_)" fill="#D7AD00" d="M117.471,107.871c0,0-4.391-7.046-8.989-7.046
		c-4.598,0-14.978,8.647-12.933,12.628c2.044,3.981,10.83,8.007,10.83,8.007S115.959,110.639,117.471,107.871"/>
</g>
<path fill="#EEC000" d="M135.408,113.581c0,0,12.499,17.515,16.523,14.483c2.911-2.192,3.406-8.504,3.406-8.504
	s3.674,18.021,7.596,17.055c2.784-0.688,3.223-3.959,3.223-3.959s-2.375,23.471-4.271,32.457
	c-2.135,10.125-11.922,22.07-20.783,23.538c-5.136,0.851-20.928,3.143-28.899-11.66c-5.258-9.766-4.26-42.473-3.844-42.158
	c0.417,0.316,5.98,6.933,10.25-2.463c4.269-9.395,4.082-13.97,4.082-13.97S126.866,135.787,135.408,113.581"/>
<g>
	<defs>
		<path id="SVGID_11_" d="M122.69,118.4c0,0,0.19,4.575-4.079,13.972c-4.273,9.396-9.834,2.778-10.25,2.463
			c-0.417-0.315-1.415,32.392,3.843,42.155c7.972,14.805,23.764,12.513,28.897,11.662c8.864-1.47,18.65-13.414,20.785-23.539
			c1.895-8.983,4.271-32.457,4.271-32.457s-0.439,3.273-3.223,3.959c-3.922,0.967-7.596-17.055-7.596-17.055
			s-0.496,6.312-3.406,8.505c-4.023,3.031-16.523-14.485-16.523-14.485C126.867,135.788,122.69,118.4,122.69,118.4"/>
	</defs>
	<clipPath id="SVGID_12_">
		<use xlink:href="#SVGID_11_"  overflow="visible"/>
	</clipPath>
	<path clip-path="url(#SVGID_12_)" fill="#D7AD00" d="M108.003,138.932c0,0,4.2,4.851,6.835,3.629
		c2.635-1.221,9.564-16.57,9.564-16.57s1.346,4.277,4.884,3.27c3.538-1.006,6.754-10.82,6.754-10.82s11.127,17.05,15.656,17.804
		c4.531,0.755,4.238-5.646,4.238-5.646s2.942,12.048,6.196,11.31c0,0-0.67,35.653-19.393,46.356c0,0,10.218,0.891,14.747-2.13
		c4.53-3.02,13.837-45.8,13.462-52.595c-0.375-6.795-6.667-22.396-10.19-26.172c-3.523-3.775-36.289-1.761-36.289-1.761
		S102.308,124.191,108.003,138.932"/>
</g>
<path fill="#D7AD00" d="M147.107,156.332c-13.112-1.324-40.896,2.751-32.269,15.06c0.184,0.263,0.361,0.506,0.54,0.752
	c-0.676,0.73-1.84,2.121-1.787,3.028c0,0,1.928,0.627,3.409-0.936v-0.001c6.943,8.32,9.308,2.755,9.308,2.755
	s2.552,3.421,5.382,4.476c1.438,0.536,5.26-1.01,8.742-2.706l0.171,0.626c0,0,1.172,0.039,2.163-1.146
	c0.266-0.317,0.507-0.683,0.722-1.043c1.977-1.053,3.449-1.914,3.619-2.025c0.505-0.33,5.911-1.557,5.724-8.35
	C152.642,160.026,147.107,156.332,147.107,156.332"/>
<path d="M144.448,142.562c0,1.643-0.752,2.977-1.682,2.977c-0.929,0-1.682-1.334-1.682-2.977c0-1.644,0.753-2.978,1.682-2.978
	C143.695,139.584,144.448,140.918,144.448,142.562"/>
<path d="M127.765,141.909c0,1.644-0.752,2.978-1.682,2.978c-0.928,0-1.682-1.333-1.682-2.978c0-1.643,0.754-2.977,1.682-2.977
	C127.013,138.932,127.765,140.266,127.765,141.909"/>
<path fill="#FFFFFF" d="M112.204,168.066c0,0,0.642,6.417,1.387,7.105c0.748,0.689,3.88-4.212,3.88-4.212L112.204,168.066z"/>
<path fill="#FFFFFF" d="M136.227,172.977c0,0,3.31,6.299,4.377,6.406c1.067,0.107,2.136-8.423,2.136-8.423L136.227,172.977z"/>
<path fill="#FFE371" d="M108.646,163.974c-0.69-2.762,1.715-12.857,4.562-12.531c2.847,0.328,14.467,4.216,19.813,4.118
	c5.346-0.1,14.629-1.674,15.483,3.085c0.855,4.759,0.855,10.453-1.708,11.592c-2.564,1.138-17.369,10.818-20.785,4.271
	c0,0-1.423,3.375-3.986,2.254C119.464,175.646,109.784,168.529,108.646,163.974"/>
<path fill="#473A04" d="M126.04,164.62c0,0,0.676,10.58-3.159,10.458c-3.835-0.123-12.059-7.386-12.059-7.386s3.486,3.82,6.649,6.12
	c3.163,2.298,6.105,5.571,8.541,0.696c0,0,2.313,4.129,5.837,3.167c3.524-0.961,11.974-5.843,11.974-5.843
	s-10.798,4.349-13.255,3.922c-2.456-0.427-2.348-1.175-2.456-2.776c-0.106-1.602,1.068-8.328,1.174-8.755
	C129.393,163.795,126.04,164.62,126.04,164.62"/>
<path fill="#F1D353" d="M117.941,152.551c0,0,2.174-1.115,4.817-2.654c3.884-1.242,10.821-1.667,16.726,1.573
	c1.116,2.311-0.151,2.961,0.809,3.674C142.859,157.048,123.19,157.217,117.941,152.551"/>
<path fill="#2D2504" d="M122.758,149.897c0,0-3.391,1.703-3.425,2.361s5.516,1.823,5.516,1.823s12.315,1.504,13.702,1.042
	c1.386-0.462,1.489-2.081,0.934-3.653c0,0,2.031,1.699,2.022,3.771c-0.003,0.992-8.997,10.482-13.464,10.276
	c-4.468-0.208-10.698-12.156-10.571-13.259C117.598,151.156,122.758,149.897,122.758,149.897"/>
<path fill="#7F4D04" d="M182.457,137.224c0,0,14.716,6.576,18.996,0c4.281-6.577,0.802-18.155-3.527-21.551
	c-4.328-3.397-13.489-5.646-13.489-5.646S192.076,135.748,182.457,137.224"/>
<path fill="#EEC000" d="M170.947,117.305c0,0,4.035,0.261,4.249,6.026c0,0,9.395,5.364,7.259,13.893c0,0,24.343-4.923,11.959-20.512
	C182.03,101.125,170.947,117.305,170.947,117.305"/>
<g>
	<defs>
		<path id="SVGID_13_" d="M170.947,117.306c0,0,4.035,0.261,4.249,6.025c0,0,9.395,5.364,7.261,13.891
			c0,0,24.343-4.922,11.957-20.51c-4.025-5.066-7.915-6.776-11.329-6.776C175.996,109.934,170.947,117.306,170.947,117.306"/>
	</defs>
	<clipPath id="SVGID_14_">
		<use xlink:href="#SVGID_13_"  overflow="visible"/>
	</clipPath>
	<path clip-path="url(#SVGID_14_)" fill="#D7AD00" d="M173.597,118.719c0,0,7.341-6.225,10.839-5.139
		c3.498,1.085,10.086,7.283,8.281,13.919c-1.805,6.635-13.088,6.292-13.088,6.292L173.597,118.719z"/>
</g>
</svg>
