<?xml version="1.0" encoding="utf-8"?>
<!-- Generator: Adobe Illustrator 16.0.0, SVG Export Plug-In . SVG Version: 6.00 Build 0)  -->
<!DOCTYPE svg PUBLIC "-//W3C//DTD SVG 1.1//EN" "http://www.w3.org/Graphics/SVG/1.1/DTD/svg11.dtd">
<svg version="1.1" id="Layer_1" xmlns="http://www.w3.org/2000/svg" xmlns:xlink="http://www.w3.org/1999/xlink" x="0px" y="0px"
	 width="350px" height="350px" viewBox="0 0 350 350" enable-background="new 0 0 350 350" xml:space="preserve">
<g>
	<path d="M263.603,108.161c2.13-1.064,4.084,2.131,7.279,2.842c3.196,0.709,4.261-1.953,7.102-1.243
		c2.841,0.71,3.552,7.458,3.552,7.458s2.841-6.748,0.709-12.251c-2.13-5.505-9.586-6.571-9.586-6.571s3.195-3.55,6.391-6.036
		c3.195-2.485,8.167,1.065,8.167,1.065s-2.84-6.392-6.392-8.699c-3.55-2.308-7.988-0.354-7.988-0.354s0.177-3.197,1.419-5.328
		c1.243-2.129,6.037-2.307,6.037-2.307s-1.42-2.131-5.149-2.841c-3.728-0.71-7.102,0.887-7.102,0.887s-4.615-2.486-9.587,1.599
		c-4.971,4.084-5.149,22.015-5.149,22.015s-4.083,3.73-7.279,6.216c-3.196,2.485-10.476,7.634-10.476,7.634
		s-6.094-6.689-10.12-9.056c-2.366-1.391-6.768-3.269-10.003-4.585c-4.063-0.469-8.144-0.322-12.072,1.271
		c-0.608,0.248-1.042-0.788-0.447-1.059c3.726-1.697,8.021-2.601,12.131-2.155c0.912-0.108,1.962-0.238,3.112-0.396
		c3.905-0.532,7.812,0.356,7.812,0.356s-3.373-2.663-6.037-5.504c-2.663-2.841-3.372-5.15-3.372-5.15s2.307,0.356,5.326-0.887
		c3.018-1.242,4.794-3.373,4.083-6.392c-0.709-3.018-2.484-2.664-6.925-1.065c-2.298,0.829-5.644,0.983-8.804,0.477
		c1.044-1.819,3.4-5.2,6.873-6.004c4.808-1.11,9.326,5.877,13.948,6.188c4.621,0.31,7.875-2.563,8.271-6.598
		c0.396-4.039-0.257-9.113-5.374-10.742c-5.115-1.628-7.981,3.176-7.981,3.176s4.652-1.488,8.383,1.539
		c3.731,3.027,1.109,9.484-2.019,9.849c-3.129,0.364-6.54-2.51-9.164-4.11c-2.625-1.6-4.92-2.652-9.023-1.148
		c-3.053,1.119-4.978,5.369-5.765,7.474c-2.226-0.565-4.222-1.484-5.501-2.764c-3.373-3.374-1.42-10.297,1.775-11.896
		c3.195-1.599,5.504,1.065,5.504,1.065s1.243,1.598,1.776,3.373c0.532,1.776-0.711,3.196-0.711,3.196s2.485-0.888,3.196-2.485
		c0.71-1.598,0.887-2.308,0.887-2.308s2.31,0,3.551-1.954c1.243-1.952,0.533-4.793,0.533-4.793l2.131-2.842
		c0,0,2.131-3.906-2.486-6.214c-4.615-2.308-13.315-0.354-13.315-0.354s0.71-4.972-5.682-4.617
		c-6.392,0.354-21.129,8.168-21.129,8.168s-4.793-1.6-11.717-1.6c-6.924,0-13.494,1.242-13.494,1.242s2.841,2.843,4.971,4.263
		c2.131,1.42,4.084,8.344,4.084,8.344s1.775,15.979-0.533,25.035c-2.308,9.054-9.765,15.979-9.765,15.979s3.551,0.709,7.279-0.178
		c1.452-0.345,2.629-1.122,3.532-1.941c1.714-3.351,3.272-6.759,3.861-10.593c0.088-0.572,1.015-0.428,0.998,0.135
		c-0.105,3.442-1.216,6.67-2.735,9.765c-0.073,1.546-0.284,3.976-0.861,7.25c-1.065,6.036-8.701,14.736-8.701,14.736
		s2.309,1.421,5.504,0.887c0.63-0.105,1.209-0.322,1.737-0.601c1.146-1.418,2.305-2.82,3.209-4.429
		c1.448-2.576,2.421-5.337,3.454-8.094c0.112-0.298,0.621-0.282,0.594,0.081c-0.295,3.913-1.86,8.205-4.426,11.494
		c-0.448,1.701-1.122,4.033-1.904,5.989c-1.421,3.551-5.149,6.747-5.149,6.747s3.374,0.533,6.569-0.709
		c0.917-0.357,1.717-0.724,2.412-1.073c2.716-2.468,5.09-5.066,6.479-8.748c0.088-0.234,0.413-0.143,0.373,0.103
		c-0.487,3.016-2.383,5.349-4.619,7.39c0.318-0.204,0.503-0.335,0.503-0.335s-0.71,3.551-2.307,6.569
		c-1.599,3.019-6.925,6.747-6.925,6.747s3.551-0.178,6.925-0.355c1.185-0.062,2.137-0.326,2.892-0.635
		c1.005-0.956,1.911-2.014,2.669-3.212c1.204-1.901,2.058-4.104,3.497-5.835c0.262-0.317,0.729,0.025,0.646,0.375
		c-0.726,3.036-2.52,5.992-4.873,8.293c-0.458,2.988-1.988,12.371-3.767,16.816c-2.13,5.326-17.136,13.088-23.969,17.933
		c-1.308,0.928-2.475,2.427-3.562,4.875c-7.93-1.299-18.772,1.374-22.417-5.916c-3.691-7.385-1.844-24.214,10.299-35.931
		c12.143-11.716,17.895-30.889,15.338-41.754c-2.556-10.864-9.8-23.859-25.563-18.959c-15.764,4.9-15.551,23.859-15.978,37.92
		c-0.426,14.059-2.982,15.549-9.586,19.171c-6.604,3.622-10.012,9.161-15.977,12.782c-5.965,3.622-15.125,2.984-15.125,2.984
		s3.622,3.834,7.456,4.686c3.835,0.853,9.373-2.129,9.373-2.129s-2.77,1.491,0.853,7.029c3.622,5.538,7.243,10.013,5.539,15.764
		c-1.704,5.752-8.734,11.929-8.734,11.929s15.337-4.047,15.764-14.059s-4.047-19.599-4.047-19.599s1.704-1.064,4.047,2.344
		c2.344,3.409,4.261,11.717,4.261,11.717s1.491-12.143-0.852-17.895c-2.343-5.751-3.622-7.455-3.622-7.455s5.965-2.556,10.651-8.096
		c4.687-5.538,5.752-13.633,5.539-25.563c-0.213-11.929,1.491-24.924,14.272-25.137c12.782-0.213,14.061,10.651,14.273,17.894
		s-2.13,17.895-11.93,30.25c-9.8,12.356-12.569,18.107-14.699,27.269c-2.13,9.161,0.639,21.302,7.882,25.35
		c6.489,3.626,15.363,1.279,21.278,2.281c-0.171,4.313,0.61,8.737,1.538,11.687c1.953,6.214,7.989,8.877,7.989,13.316
		c0,4.438-18.287,1.065-22.547,2.664c-4.261,1.597-5.327,8.166-5.327,8.166s-2.841-0.355-6.569-0.532
		c-3.729-0.178-5.326-3.019-5.326-3.019s1.953,4.793,5.858,8.344c3.907,3.552,7.103,1.777,7.103,1.777s-0.71,2.662-1.953,5.681
		s-1.421,11.185-1.421,11.185s2.486-4.083,4.261-5.148c0.642-0.385,1.28-0.51,1.836-0.52c2.352-1.944,5.142-3.447,7.639-4.428
		c0.311-0.122,0.458,0.341,0.215,0.508c-2.128,1.451-4.285,2.876-6.255,4.485c-0.418,0.806-1.949,3.783-3.612,7.412
		c-1.953,4.261-0.888,13.315-0.888,13.315s2.841-4.083,4.261-6.746c0.884-1.656,2.111-1.87,2.912-1.796
		c1.626-2.407,3.707-4.553,5.789-6.313c0.263-0.223,0.752,0.081,0.513,0.396c-1.847,2.425-4.09,4.763-5.793,7.356
		c-0.473,2.111-1.274,6.673-0.756,11.719c0.71,6.925,2.13,9.588,2.13,9.588s3.195-5.505,6.037-6.037s3.551,3.906,3.551,3.906
		s2.13,13.671,4.971,18.642c2.841,4.972,6.214,6.394,6.214,6.394s-1.42-7.102-1.42-10.83s1.243-4.085,4.971-3.02
		c3.729,1.065,6.391-1.243,9.766-2.841c3.373-1.598,10.12,8.7,10.12,8.7s1.243-4.971,0.178-8.522s-4.262-6.214-4.262-6.214
		s3.551,0,6.925,1.42c3.373,1.42,5.148,3.729,5.148,3.729s-0.177-6.037-1.419-9.766c-1.244-3.728-5.327-5.148-5.327-5.148
		s0.355-4.083-2.486-6.036s-7.634-0.711-12.961-0.178c-5.327,0.533-8.699-4.617-9.942-9.942c-1.243-5.327-0.177-13.85-0.177-13.85
		s4.083,1.421,9.232,3.552c5.148,2.13,15.269,1.421,15.269,1.421s-4.794-2.842-6.569-3.729c-0.39-0.195-0.719-0.445-1.01-0.71
		c-2.978-1.42-5.582-3.899-5.823-7.129c-0.054-0.731,1.148-0.896,1.282-0.173c0.719,3.908,4.978,5.489,8.158,7.252
		c1.833,0.695,3.864,1.399,5.56,1.824c4.261,1.064,7.456-0.532,7.456-0.532s-4.261-1.598-5.858-3.196s-1.598-2.664-1.598-2.664
		s6.391-7.279,9.055-13.138c1.787-3.931,1.096-7.693,0.446-9.751c-1.281-2.381-2.241-4.944-2.1-7.299
		c0.271-4.535,1.986-8.757,4.209-12.681c3.243-5.726,7.438-10.095,12.933-12.898c1.777-1.34,5.068-4.154,7.771-8.328
		c3.905-6.036,0.177-14.025,0.177-14.025s3.196,3.018,5.682,6.036s-0.355,12.072-0.355,12.072s3.196-2.664,4.616-5.503
		c1.421-2.841,1.243-4.439,1.243-4.439s0.008,0.009,0.012,0.012c-0.602-2.398-1.347-4.724-2.464-7.167
		c-0.149-0.327,0.259-0.72,0.531-0.411c2.227,2.53,3.394,6.021,3.669,9.467c0.907,0.996,2.063,2.279,3.224,3.604
		c2.484,2.839,2.841,10.474,2.841,10.474s1.775-3.729,2.131-7.102c0.354-3.373-0.324-4.197-1.469-7.439
		c-1.144-3.242-2.078-4.467-3.771-8.042c-0.177-0.373,0.182-0.756,0.563-0.562c4.231,2.151,5.971,8.687,6.265,13.825
		c1.172,1.46,2.524,3.246,3.383,4.704c1.775,3.019,1.954,8.878,1.954,8.878s1.063-4.439,1.242-6.747
		c0.177-2.308-0.888-4.26-0.888-4.26s3.728,0.709,7.102,3.372c3.373,2.664,3.196,3.729,8.7,9.055
		c5.503,5.327,8.522,1.243,10.831,0.533c2.307-0.71,5.147,8.521,5.147,8.521s1.776-6.923,0.711-11.895s-4.438-6.036-4.438-6.036
		s2.309-0.889,7.634-1.776c5.326-0.888,7.636,3.906,7.636,3.906s-0.355-6.037-3.552-11.363c-3.196-5.326-7.813-7.457-7.813-7.457
		s1.599-1.242,3.907-1.42c2.308-0.178,5.681,1.953,5.681,1.953s-1.775-4.084-4.972-6.392c-3.195-2.307-5.859-1.42-5.859-1.42
		s-0.354-1.953-3.728-1.42c-3.373,0.533-9.41,11.185-11.542,11.54c-2.129,0.356-6.567-3.55-9.765-8.521
		c-3.195-4.972-4.616-7.813-4.616-7.813s3.553-12.251,5.682-14.026c2.132-1.776,4.617,3.194,4.617,3.194s0-4.615,0.354-7.634
		c0.355-3.018,0-5.859,0-5.859s0.024,0.025,0.034,0.034c-0.955-2.868-2.486-5.562-3.765-8.431c-0.149-0.338,0.266-0.744,0.552-0.425
		c2.793,3.125,4.807,6.942,5.234,11.007c0.445,0.496,0.903,1.025,1.318,1.543c1.42,1.777,2.485,4.795,2.485,4.795
		s0.533-4.972,0.888-10.121c0.355-5.148-1.065-8.345-1.065-8.345S261.472,109.227,263.603,108.161z M166.553,62.923
		c-0.738,0.512-2.576-2.244-3.236-3.155c-0.661-0.91-1.528-2.301-2.023-3.573c-0.166-0.426,0.406-0.627,0.687-0.398
		c1.07,0.868,2.513,4.286,4.303,6.164c0.498-0.462,0.886-1.491,1.691-2.49c0.806-1,1.604-2.039,1.897-1.906
		C170.166,57.698,167.291,62.411,166.553,62.923z M200.793,50.672c-1.546,1.417-0.988,3.61,1.29,5.629
		c-6.618-3.095-11.474-3.439-11.474-3.439S197.011,49.598,200.793,50.672z M231.528,114.779c-4.326-2.527-9.96-2.655-14.843-2.454
		c-3.062,0.125-6.101,0.393-9.097,1.065c-0.157,0.035-0.314,0.072-0.47,0.108c6.222,2.21,13.228,6.027,14.969,12.672
		c0.203,0.776-0.558,1.72-1.4,1.401c-6.317-2.39-12.758-4.613-19.518-5.137c2.426,5.291,5.623,9.771,5.62,15.899
		c-0.001,1.035-1.353,1.345-1.885,0.511c-1.236-1.933-2.678-3.873-4.658-5.119c-0.593-0.373-5.532-3.462-5.73-1.384
		c-0.285,2.977-1.027,6.057-1.924,8.907c-1.813,5.768-4.19,11.145-7.578,16.171c-0.644,0.956-2.203,0.376-1.892-0.797
		c1.733-6.542,3.605-13.159,1.88-19.91c-0.222-0.869,1.04-1.198,1.329-0.367c1.676,4.823,1.284,9.732,0.292,14.582
		c3.438-6.362,5.401-13.2,6.557-20.532c0.049-0.308,0.431-0.593,0.738-0.563c4.321,0.432,7.85,2.198,10.604,5.206
		c-0.867-4.771-3.798-8.661-5.8-13.214c-0.292-0.661,0.034-1.534,0.866-1.514c6.701,0.16,13.103,2.022,19.378,4.232
		c-3.02-5.492-10.727-8.39-16.362-9.738c-0.539-0.128-0.943-0.676-0.933-1.223c0.002-0.086,0.004-0.172,0.006-0.258
		c0.012-0.558,0.376-1.075,0.929-1.218c8.829-2.306,21.736-3.964,30.018,0.794C233.841,113.6,232.741,115.487,231.528,114.779z"/>
	<path d="M260.051,228.361c0,0-2.485-3.729-5.325-4.971c-2.841-1.243-8.878,0.177-8.878,0.177s-1.953-3.906-9.41-1.952
		c-7.456,1.952-5.504,11.54-5.504,11.54s-7.636,1.242-16.689-0.354c-9.056-1.598-6.036-5.327-6.036-5.327s7.812-2.484,16.866-6.923
		c9.056-4.44,10.476-13.494,10.476-13.494s-4.794,3.905-7.28,5.325c-1.522,0.87-3.377,1.272-4.586,1.456
		c-0.438,0.387-0.875,0.778-1.336,1.137c-2.184,1.693-4.878,2.487-7.135,4.063c-0.28,0.196-0.637-0.262-0.366-0.475
		c2.615-2.062,5.764-3.161,8.233-5.46c0.28-0.261,0.546-0.536,0.816-0.807c1.15-1.41,2.727-3.593,3.842-6.128
		c1.953-4.438,1.063-7.28-5.859-13.316c-5.361-4.674-14.974-7.749-19.044-8.9c-1.296,0.619-2.563,1.296-3.745,2.128
		c-3.861,2.714-5.97,6.273-7.96,10.438c-1.737,3.635-4.985,9.483-3.478,13.698c0.355,0.991,0.81,1.937,1.293,2.867l10.029-3.009
		c0,0-1.421,6.57-4.262,10.653c-2.84,4.083-10.475,14.56-10.12,17.933c0.355,3.372,5.683,6.746,8.346,8.877
		c2.663,2.13-0.355,11.186-0.355,11.186s2.308-2.662,4.084-6.037c1.12-2.13,1.956-3.406,2.423-4.062
		c-0.885-3.156-2.09-6.214-3.13-9.417c-0.192-0.593,0.758-1.007,1.017-0.429c1.635,3.646,3.463,7.209,4.076,11.015
		c0.712,0.856,1.537,1.939,2.185,3.07c1.419,2.485-0.533,10.477-0.533,10.477s3.905-4.617,4.972-8.701
		c0.421-1.616,0.59-2.698,0.644-3.423c-0.717-1.942-1.465-3.862-2.6-5.633c-0.401-0.628,0.579-1.407,1.044-0.806
		c1.646,2.128,2.963,4.56,3.407,7.199c0.989,1.047,2.184,2.276,3.186,3.194c2.13,1.953,3.373,9.233,3.373,9.233
		s1.421-4.438,1.776-7.813c0.354-3.372,0-5.681,0-5.681s6.747,1.421,10.829,2.664c4.084,1.243,5.149-2.485,5.149-2.485
		s3.906,2.485,7.99,2.84c4.083,0.354,5.149-3.729,8.167-4.971c3.019-1.244,8.167,4.438,8.167,4.438s-2.13-5.327-4.972-7.99
		c-2.841-2.663-7.103-5.681-7.103-5.681s2.841-1.243,5.683-1.953c2.841-0.711,6.747,2.13,6.747,2.13s-1.421-4.438-5.15-6.747
		c-3.728-2.308-7.279-3.196-7.279-3.196s2.841-2.308,5.683-3.195C255.258,225.876,260.051,228.361,260.051,228.361z"/>
</g>
</svg>
