<?xml version="1.0" encoding="utf-8"?>
<!-- Generator: Adobe Illustrator 16.0.0, SVG Export Plug-In . SVG Version: 6.00 Build 0)  -->
<!DOCTYPE svg PUBLIC "-//W3C//DTD SVG 1.1//EN" "http://www.w3.org/Graphics/SVG/1.1/DTD/svg11.dtd">
<svg version="1.1" id="Layer_1" xmlns="http://www.w3.org/2000/svg" xmlns:xlink="http://www.w3.org/1999/xlink" x="0px" y="0px"
	 width="350px" height="350px" viewBox="0 0 350 350" enable-background="new 0 0 350 350" xml:space="preserve">
<g>
	<path fill="none" d="M204.679,140.32c-0.849-0.329-1.73-0.344-2.578-0.165c0.588,0.387,0.978,1.052,0.978,1.809
		c0,1.196-0.97,2.167-2.167,2.167s-2.167-0.971-2.167-2.167c0-0.026,0.007-0.052,0.008-0.078c-0.436,0.373-0.799,0.756-1.053,1.102
		c-1.111,1.512-1.022,3.334,0.667,4.134c1.688,0.801,5.867,0.044,7.068-2.4C206.635,142.276,206.013,140.897,204.679,140.32z"/>
	<path fill="none" d="M151.634,147.121c1.689-0.8,1.778-2.622,0.667-4.134c-0.254-0.346-0.617-0.729-1.052-1.101
		c0.001,0.026,0.008,0.051,0.008,0.077c0,1.196-0.97,2.167-2.167,2.167c-1.197,0-2.167-0.971-2.167-2.167
		c0-0.757,0.39-1.422,0.978-1.809c-0.847-0.179-1.729-0.164-2.578,0.165c-1.333,0.577-1.956,1.956-0.756,4.4
		C145.766,147.165,149.945,147.922,151.634,147.121z"/>
	<path d="M163.015,157.745c0,0-3.735,0.711-5.157,1.778c-1.423,1.066,1.6-1.956,1.511-4.979c-0.088-3.023-1.066-4.269-1.066-4.269
		s-0.178,3.824-1.6,6.402c-1.423,2.578-4.624,9.603-3.557,15.56c1.067,5.957,2.4,6.846,2.4,6.846s-1.868-4.179-0.356-6.935
		c1.512-2.757,5.513-5.513,5.513-5.513s-1.245-0.355-3.023,0.711c-1.778,1.067-2.845,2.668-2.845,2.668s-0.978-2.669,1.512-6.225
		C158.835,160.235,163.015,157.745,163.015,157.745z"/>
	<path d="M152.256,140.497c-3.111-1.689-5.779-2.846-9.602-1.067c-3.823,1.778-6.135,2.49-6.135,2.49s0.889,0.889,2.312,1.156
		c1.423,0.267,2.756-0.179,2.756-0.179s-0.444,3.379,3.201,4.624c3.646,1.244,8.447,0.578,8.447,0.578s0.667,0.666,1.111,1.2
		c0.444,0.533,2,0.889,2,0.889S155.368,142.186,152.256,140.497z M149.285,141.336c0,0.462-0.374,0.835-0.835,0.835
		s-0.834-0.373-0.834-0.835c0-0.461,0.374-0.834,0.834-0.834S149.285,140.875,149.285,141.336z M151.634,147.121
		c-1.689,0.801-5.868,0.044-7.069-2.4c-1.2-2.444-0.577-3.823,0.756-4.4c0.849-0.329,1.73-0.344,2.578-0.165
		c-0.588,0.387-0.978,1.052-0.978,1.809c0,1.196,0.97,2.167,2.167,2.167c1.197,0,2.167-0.971,2.167-2.167
		c0-0.026-0.007-0.051-0.008-0.077c0.436,0.372,0.798,0.755,1.052,1.101C153.412,144.499,153.323,146.321,151.634,147.121z"/>
	<path d="M147.011,151.922c-3.401,0.534-5.513-4.022-7.646-5.38c-2.134-1.356-3.067-0.177-3.067-0.177s1.623,0.712,2.778,1.912
		s5.068,5.623,7.891,5.001c2.822-0.622,6.135-2.022,6.135-2.022S150.411,151.389,147.011,151.922z"/>
	<path d="M158.657,147.565c0,0,0.267,0.8,2.667,0.667c2.4-0.134,4.668-2.668,8.402-2.668c2.725,0,5.272,2.892,5.272,2.892
		s2.548-2.892,5.274-2.892c3.733,0,6.001,2.534,8.401,2.668c2.4,0.133,2.667-0.667,2.667-0.667s-1.467,0.133-3.733-1.601
		c-2.268-1.733-7.469-4.135-9.736-3.2c-1.648,0.679-2.518,1.778-2.873,2.329c-0.353-0.551-1.223-1.65-2.872-2.329
		c-2.268-0.935-7.469,1.467-9.736,3.2C160.124,147.698,158.657,147.565,158.657,147.565z"/>
	<path d="M191.697,150.276c0,0-0.979,1.245-1.066,4.269c-0.089,3.022,2.934,6.045,1.511,4.979c-1.422-1.067-5.156-1.778-5.156-1.778
		s4.179,2.49,6.668,6.046c2.49,3.556,1.512,6.225,1.512,6.225s-1.066-1.601-2.846-2.668c-1.778-1.066-3.022-0.711-3.022-0.711
		s4.001,2.756,5.513,5.513c1.512,2.756-0.356,6.935-0.356,6.935s1.334-0.889,2.401-6.846c1.066-5.957-2.134-12.981-3.557-15.56
		S191.697,150.276,191.697,150.276z"/>
	<path d="M207.346,139.43c-3.822-1.778-6.49-0.622-9.602,1.067c-3.112,1.688-4.091,9.691-4.091,9.691s1.556-0.355,2-0.889
		c0.444-0.534,1.112-1.2,1.112-1.2s4.801,0.666,8.446-0.578c3.646-1.245,3.201-4.624,3.201-4.624s1.333,0.445,2.757,0.179
		c1.421-0.268,2.311-1.156,2.311-1.156S211.17,141.208,207.346,139.43z M201.551,140.502c0.46,0,0.834,0.373,0.834,0.834
		c0,0.462-0.374,0.835-0.834,0.835c-0.462,0-0.836-0.373-0.836-0.835C200.715,140.875,201.089,140.502,201.551,140.502z
		 M205.435,144.721c-1.201,2.444-5.38,3.201-7.068,2.4c-1.689-0.8-1.778-2.622-0.667-4.134c0.254-0.346,0.617-0.729,1.053-1.102
		c-0.001,0.026-0.008,0.052-0.008,0.078c0,1.196,0.97,2.167,2.167,2.167s2.167-0.971,2.167-2.167c0-0.757-0.39-1.422-0.978-1.809
		c0.848-0.179,1.729-0.164,2.578,0.165C206.013,140.897,206.635,142.276,205.435,144.721z"/>
	<path d="M210.636,146.542c-2.135,1.357-4.245,5.914-7.646,5.38c-3.401-0.533-6.091-0.666-6.091-0.666s3.313,1.4,6.135,2.022
		s6.735-3.801,7.891-5.001c1.157-1.2,2.779-1.912,2.779-1.912S212.77,145.186,210.636,146.542z"/>
	<path d="M137.02,123.972c0,0,0.249-1.41,0.414-2.903c0.167-1.493,1.743-3.567,1.328-4.148c-0.415-0.58-2.82,0.498-2.903-0.166
		c-0.083-0.663,0.996-1.244,2.323-2.405c1.327-1.162,4.563-3.236,4.563-3.236s-5.641-2.903-9.208-4.313
		c-3.568-1.41-7.55-2.322-10.702-2.24c-3.153,0.083-6.222,3.402-5.891,7.633c0.332,4.23,4.231,9.374,4.231,9.374l-1.3,0.388
		c0,0-3.429-4.535-4.867-10.066c-1.438-5.53,2.876-8.959,9.292-9.844c6.416-0.885,21.349,6.305,21.349,6.305
		s5.087-4.978,8.406-7.189c3.319-2.213,10.84-4.093,10.84-4.093s-5.808-3.789-14.187-3.706s-12.527,4.397-12.527,4.397
		s6.72-0.747,9.955-0.332c3.235,0.414,5.061,1.742,5.061,1.742s-1.742,0.829-3.153,1.41c-1.41,0.581-2.073,1.161-4.313,1.493
		s-14.933-6.388-25.137-3.733c-10.204,2.655-8.877,10.95-7.881,15.182c0.996,4.231,6.471,9.706,6.471,9.706
		s-0.913,0.747-1.825,1.494c-0.913,0.746-1.742,2.903-1.742,2.903s7.466-4.065,11.282-4.563c2.049-0.267,4.815,0.016,6.938,0.335
		c-0.165,0.007-0.34,0.017-0.526,0.031c-0.708,0.052-1.568,0.152-2.545,0.344c-0.979,0.186-2.075,0.463-3.245,0.866
		c-0.589,0.193-1.191,0.429-1.807,0.694c-0.618,0.265-1.249,0.561-1.88,0.902c-1.27,0.673-2.554,1.506-3.801,2.49
		c-0.617,0.499-1.228,1.03-1.821,1.6c-0.287,0.293-0.586,0.579-0.862,0.89l-0.423,0.461l-0.053,0.059l-0.081,0.095l-0.094,0.11
		c-0.067,0.081-0.115,0.128-0.204,0.246c-0.346,0.435-0.575,0.798-0.827,1.207c-0.234,0.401-0.457,0.809-0.649,1.218
		c-0.401,0.818-0.69,1.655-0.951,2.483c-0.26,0.829-0.46,1.657-0.619,2.479c-0.159,0.822-0.305,1.633-0.395,2.438
		c-0.204,1.605-0.296,3.17-0.352,4.671c-0.011,0.747-0.022,1.482-0.033,2.201c0.007,0.714,0.014,1.413,0.021,2.093
		c0.029,1.354,0.075,2.626,0.112,3.795c0.042,1.169,0.075,2.234,0.08,3.178c0.011,0.943-0.012,1.764-0.062,2.438
		c-0.051,0.676-0.123,1.211-0.205,1.573c-0.079,0.362-0.137,0.56-0.137,0.56s0.035-0.037,0.103-0.108
		c0.07-0.07,0.169-0.179,0.287-0.331c0.234-0.305,0.568-0.774,0.891-1.425c0.332-0.646,0.66-1.464,0.971-2.413
		c0.308-0.95,0.592-2.033,0.851-3.214c0.256-1.181,0.487-2.458,0.706-3.8c0.103-0.668,0.208-1.355,0.315-2.058
		c0.101-0.695,0.203-1.405,0.308-2.128c0.198-1.438,0.415-2.906,0.663-4.363c0.246-1.457,0.554-2.9,0.934-4.26
		c0.195-0.676,0.426-1.327,0.672-1.937c0.123-0.307,0.262-0.595,0.404-0.876c0.14-0.264,0.32-0.563,0.433-0.753
		c0.02-0.041,0.098-0.143,0.147-0.215l0.084-0.118l0.021-0.029c0.031-0.041-0.032,0.038-0.021,0.025l0.01-0.014l0.041-0.052
		l0.325-0.418c0.21-0.282,0.445-0.543,0.667-0.813c0.446-0.537,0.914-1.048,1.393-1.535c0.955-0.979,1.959-1.858,2.958-2.655
		c1.001-0.795,2.009-1.484,2.967-2.1c0.962-0.607,1.878-1.133,2.711-1.573c0.834-0.438,1.581-0.8,2.206-1.088
		c0.678-0.312,1.205-0.532,1.552-0.672C136.244,123.799,137.02,123.972,137.02,123.972z"/>
	<path d="M174.999,98.463c-4.189,0,0,22.122,0,22.122S179.19,98.463,174.999,98.463z"/>
	<path d="M188.254,133.39c7.451-6.068,3.07-10.609,1.049-13.272c-2.023-2.663,0-4.423,0-4.423s-3.087,0.872-2.445,2.91
		c6.141,11.641-0.932,11.467-1.979,16.182c-0.525,2.62,0.931,4.774,0.931,4.774S185.169,136.184,188.254,133.39z"/>
	<path d="M163.142,118.604c0.642-2.038-2.444-2.91-2.444-2.91s2.023,1.76,0,4.423s-6.403,7.204,1.048,13.272
		c3.086,2.794,2.444,6.171,2.444,6.171s1.457-2.154,0.933-4.774C164.075,130.071,157,130.245,163.142,118.604z"/>
	<path d="M216.59,129.246c0,0,3.321,4.249,5.475,7.741c2.153,3.493,4.073,11.526,4.073,11.526s0.291-8.966-1.338-12.923
		C223.17,131.633,216.59,129.246,216.59,129.246z"/>
	<path d="M125.201,135.591c-1.63,3.957-1.338,12.923-1.338,12.923s1.921-8.033,4.075-11.526c2.153-3.492,5.471-7.741,5.471-7.741
		S126.831,131.633,125.201,135.591z"/>
	<path d="M235.357,233.958c-0.162,0.902-0.324,1.778-0.438,2.638c-0.117,0.858-0.248,1.68-0.315,2.485
		c-0.18,1.596-0.243,3.079-0.278,4.385c0.012,0.66,0.016,1.273,0.036,1.84c0.002,0.563,0.083,1.091,0.123,1.558
		c0.065,0.936,0.251,1.664,0.35,2.152c0.108,0.486,0.167,0.746,0.167,0.746s0.034-0.265,0.1-0.761
		c0.028-0.245,0.064-0.547,0.106-0.901c0.032-0.351,0.139-0.757,0.212-1.205c0.098-0.449,0.146-0.943,0.29-1.479
		c0.124-0.533,0.258-1.109,0.4-1.725c0.329-1.226,0.682-2.599,1.14-4.087c0.208-0.745,0.457-1.519,0.711-2.316
		c0.244-0.8,0.508-1.625,0.794-2.471c0.137-0.423,0.275-0.853,0.416-1.287c0.147-0.434,0.296-0.872,0.447-1.316
		c0.152-0.442,0.302-0.891,0.448-1.346c0.156-0.452,0.313-0.908,0.473-1.369c1.273-3.691,2.632-7.63,3.99-11.567
		c0.661-1.981,1.346-3.96,1.979-5.925c0.16-0.491,0.32-0.98,0.479-1.467c0.152-0.497,0.313-0.947,0.449-1.509
		c0.14-0.537,0.277-1.069,0.415-1.6c0.16-0.522,0.188-1.071,0.276-1.6c0.364-2.12,0.268-4.201,0.099-6.118
		c-0.274-1.913-0.648-3.687-1.218-5.242c-0.248-0.788-0.57-1.511-0.857-2.199c-0.307-0.681-0.624-1.313-0.931-1.897
		c-0.645-1.157-1.253-2.127-1.814-2.885c-0.54-0.77-1.036-1.322-1.36-1.701c-0.334-0.377-0.528-0.559-0.528-0.559
		s0.112,0.245,0.304,0.7c0.194,0.456,0.46,1.132,0.763,1.994c0.313,0.857,0.64,1.915,0.978,3.118
		c0.308,1.215,0.64,2.577,0.842,4.074c0.053,0.372,0.106,0.752,0.162,1.139c0.03,0.388,0.062,0.783,0.094,1.185
		c0.018,0.199,0.034,0.4,0.052,0.603c0.003,0.203,0.007,0.408,0.01,0.614c0.007,0.41,0.014,0.827,0.021,1.249
		c-0.082,1.679-0.198,3.435-0.659,5.171c-0.166,0.882-0.494,1.733-0.773,2.604c-0.123,0.418-0.336,0.918-0.514,1.39
		c-0.18,0.479-0.36,0.962-0.542,1.445c-0.731,1.935-1.434,3.919-2.126,5.91c-0.669,2-1.34,4.002-1.926,6.002
		c-0.149,0.499-0.299,0.995-0.447,1.49c-0.137,0.498-0.273,0.994-0.409,1.487c-0.273,0.984-0.539,1.96-0.766,2.931
		c-0.238,0.966-0.477,1.916-0.667,2.858C235.71,232.134,235.512,233.053,235.357,233.958z"/>
	<path d="M254.92,155.347c-0.225-0.639-0.461-1.424-0.696-2.338c-0.241-0.911-0.488-1.948-0.753-3.089
		c-0.269-1.137-0.557-2.376-0.883-3.692c-0.171-0.657-0.347-1.333-0.526-2.024c-0.199-0.691-0.401-1.397-0.607-2.116
		c-0.445-1.434-0.943-2.92-1.56-4.417c-0.297-0.754-0.65-1.498-1.018-2.25c-0.368-0.753-0.777-1.499-1.245-2.231
		c-0.468-0.731-0.966-1.464-1.566-2.148c-0.293-0.345-0.614-0.68-0.945-1.007c-0.351-0.329-0.665-0.62-1.112-0.948
		c-0.118-0.092-0.176-0.124-0.262-0.185l-0.119-0.082l-0.104-0.071l-0.066-0.042l-0.528-0.335c-0.348-0.228-0.712-0.426-1.065-0.634
		c-0.72-0.395-1.449-0.747-2.175-1.068c-1.461-0.624-2.918-1.093-4.319-1.411c-0.698-0.164-1.386-0.286-2.05-0.38
		c-0.198-0.027-0.39-0.049-0.584-0.072c-0.031-0.029-0.062-0.061-0.094-0.086c-0.912-0.747-1.825-1.494-1.825-1.494
		s5.476-5.475,6.472-9.706c0.995-4.231,2.322-12.526-7.882-15.182c-10.204-2.654-22.896,4.065-25.137,3.733
		s-2.903-0.912-4.313-1.493s-3.152-1.41-3.152-1.41s1.825-1.328,5.061-1.742c3.235-0.415,9.954,0.332,9.954,0.332
		s-4.147-4.314-12.526-4.397s-14.187,3.706-14.187,3.706s7.522,1.88,10.841,4.093c3.318,2.212,8.406,7.189,8.406,7.189
		s14.933-7.189,21.349-6.305c6.415,0.885,10.729,4.313,9.291,9.844c-1.438,5.531-4.867,10.066-4.867,10.066l-1.3-0.388
		c0,0,3.899-5.144,4.231-9.374s-2.737-7.55-5.891-7.633c-3.152-0.082-7.134,0.83-10.701,2.24s-9.209,4.313-9.209,4.313
		s3.236,2.074,4.563,3.236c1.328,1.161,2.406,1.742,2.323,2.405c-0.083,0.664-2.488-0.414-2.903,0.166
		c-0.415,0.581,1.161,2.655,1.328,4.148c0.165,1.493,0.414,2.903,0.414,2.903s6.305-1.41,10.121-0.913
		c1.404,0.184,3.303,0.851,5.141,1.619c-0.067,0.005-0.141,0.007-0.207,0.013c-0.993,0.069-1.85,0.198-2.547,0.332
		c-0.698,0.133-1.235,0.288-1.599,0.39c-0.363,0.108-0.552,0.184-0.552,0.184s0.807,0.066,2.164,0.296
		c0.68,0.113,1.495,0.27,2.414,0.474c0.92,0.208,1.94,0.475,3.028,0.811c1.085,0.344,2.238,0.746,3.412,1.251
		c1.172,0.509,2.371,1.097,3.549,1.792c0.59,0.345,1.175,0.716,1.746,1.118c0.284,0.201,0.579,0.392,0.856,0.609l0.423,0.318
		l0.052,0.039l0.014,0.011c0.014,0.009-0.068-0.05-0.026-0.02l0.027,0.023l0.111,0.092c0.067,0.058,0.169,0.135,0.198,0.17
		c0.159,0.153,0.411,0.396,0.615,0.613c0.21,0.234,0.419,0.476,0.618,0.74c0.397,0.523,0.79,1.092,1.155,1.694
		c0.722,1.212,1.396,2.524,2.014,3.867c0.62,1.342,1.213,2.703,1.779,4.039c0.29,0.67,0.574,1.329,0.853,1.974
		c0.287,0.649,0.568,1.285,0.842,1.903c0.562,1.238,1.118,2.411,1.674,3.484c0.559,1.071,1.116,2.043,1.661,2.88
		c0.548,0.835,1.078,1.538,1.567,2.076c0.48,0.543,0.926,0.91,1.231,1.142c0.154,0.116,0.278,0.195,0.364,0.245
		c0.084,0.052,0.127,0.078,0.127,0.078s-0.107-0.175-0.278-0.505C255.355,156.484,255.146,155.985,254.92,155.347z"/>
	<g>
		<path fill="none" d="M158.916,217.813c-3.922,1.023-7.368,2.656-9.871,4.06c0.346,0.24,0.704,0.467,1.078,0.675
			c3.261,1.812,14.493,7.435,25.559,7.396c10.611-0.036,21.069-5.659,24.197-7.396c0.374-0.208,0.731-0.435,1.077-0.675
			c-2.503-1.403-5.949-3.036-9.871-4.06c-6.712-1.751-13.714-1.53-16.083-1.53C172.63,216.283,165.628,216.063,158.916,217.813z"/>
		<path fill="none" d="M257.709,137.146l-5.273-7.688l7.821,5.073c0.177,0.114,2.692,1.762,5.806,4.542
			c-0.57-1.52-1.133-3.037-1.657-4.544c-0.172-0.487-0.344-0.973-0.514-1.455c-0.166-0.477-0.325-0.996-0.498-1.396
			c-0.345-0.848-0.642-1.711-1.08-2.493c-0.762-1.627-1.8-3.048-2.815-4.388c-0.276-0.318-0.549-0.633-0.817-0.943
			c-0.136-0.155-0.27-0.311-0.402-0.464c-0.144-0.145-0.285-0.288-0.427-0.43c-0.282-0.288-0.56-0.57-0.833-0.848
			c-0.29-0.262-0.575-0.518-0.854-0.769c-1.116-1.018-2.245-1.85-3.262-2.583c-1.032-0.706-1.961-1.307-2.751-1.763
			c-0.787-0.467-1.424-0.814-1.865-1.039c-0.44-0.226-0.683-0.342-0.683-0.342s0.266,0.015,0.763,0.089
			c0.492,0.083,1.228,0.188,2.136,0.431c0.917,0.221,2.006,0.573,3.243,1.047c0.61,0.252,1.26,0.532,1.933,0.856
			c0.661,0.344,1.373,0.691,2.069,1.136c1.436,0.826,2.86,1.946,4.299,3.236c1.361,1.361,2.771,2.895,3.854,4.753
			c0.271,0.462,0.603,0.9,0.815,1.404c0.234,0.494,0.471,0.992,0.709,1.493c0.256,0.519,0.421,0.966,0.624,1.444
			c0.19,0.475,0.383,0.952,0.575,1.432c0.776,1.913,1.522,3.869,2.287,5.813c1.375,3.597,2.746,7.185,4.047,10.589
			c0.115,0.164,0.234,0.331,0.347,0.493c-3.723-12.481-10.01-31.087-16.229-38.197c-4.279-4.892-9.911-9.424-13.916-12.386
			c-0.443-0.049-0.942-0.081-1.46-0.186c-0.558-0.095-1.159-0.217-1.808-0.338c-1.271-0.3-2.712-0.663-4.237-1.163
			c-0.774-0.23-1.553-0.525-2.369-0.814c-0.818-0.285-1.645-0.621-2.494-0.964c-0.855-0.335-1.715-0.716-2.592-1.104
			c-0.885-0.377-1.768-0.803-2.665-1.232c-0.904-0.42-1.805-0.878-2.714-1.346c-0.455-0.233-0.913-0.467-1.373-0.703
			c-0.454-0.245-0.91-0.492-1.368-0.74c-1.839-0.979-3.663-2.042-5.485-3.104c-1.81-1.083-3.61-2.173-5.355-3.282
			c-0.437-0.276-0.872-0.551-1.305-0.824c-0.426-0.271-0.873-0.579-1.257-0.785c-0.796-0.45-1.563-0.944-2.394-1.286
			c-1.606-0.804-3.302-1.274-4.93-1.695c-0.415-0.079-0.824-0.156-1.227-0.232c-0.203-0.039-0.403-0.077-0.604-0.115
			c-0.202-0.024-0.402-0.048-0.601-0.072c-0.4-0.05-0.793-0.1-1.179-0.148c-0.391-0.024-0.773-0.049-1.147-0.072
			c-1.508-0.105-2.908-0.058-4.16-0.003c-1.248,0.086-2.35,0.19-3.253,0.323c-0.906,0.122-1.621,0.245-2.106,0.342
			c-0.485,0.096-0.748,0.155-0.748,0.155s0.218-0.153,0.654-0.403c0.438-0.24,1.079-0.614,1.942-0.987
			c0.855-0.396,1.929-0.794,3.192-1.19c0.636-0.181,1.318-0.364,2.048-0.525c0.732-0.142,1.505-0.311,2.327-0.394
			c1.639-0.242,3.451-0.247,5.38-0.128c1.912,0.224,3.969,0.552,5.971,1.339c0.5,0.194,1.031,0.333,1.511,0.596
			c0.49,0.242,0.984,0.485,1.481,0.731c0.522,0.247,0.93,0.496,1.386,0.745c0.444,0.255,0.891,0.511,1.339,0.768
			c1.796,1.019,3.595,2.09,5.4,3.141c3.579,2.129,7.16,4.259,10.516,6.256c0.419,0.249,0.834,0.496,1.245,0.74
			c0.415,0.236,0.825,0.473,1.227,0.712c0.404,0.238,0.804,0.474,1.198,0.706c0.396,0.226,0.789,0.448,1.176,0.669
			c0.77,0.451,1.524,0.878,2.258,1.278c0.729,0.411,1.438,0.812,2.124,1.167c0.754,0.415,1.477,0.788,2.166,1.138
			c-0.438-0.294-0.695-0.46-0.712-0.471l-13.759-8.835l15.393,5.517c0.604,0.217,14.863,5.358,20.797,10.233
			c1.953,1.604,3.973,3.327,5.789,4.904c-3.308-6.176-9.468-14.897-19.936-21.024c-13.222-7.738-39.272-13.702-39.534-13.762
			l-7.676-1.74c-0.383,0.117-0.771,0.231-1.164,0.346c-0.671,0.207-1.364,0.378-2.066,0.557c-0.703,0.189-1.422,0.349-2.148,0.508
			c-0.363,0.08-0.729,0.161-1.097,0.242c-0.369,0.07-0.739,0.142-1.111,0.213c-1.486,0.299-3.005,0.53-4.519,0.765
			c-1.519,0.208-3.032,0.41-4.525,0.564c-0.372,0.04-0.744,0.08-1.113,0.12c-0.361,0.035-0.765,0.061-1.057,0.112
			c-0.63,0.095-1.265,0.151-1.869,0.315c-1.232,0.241-2.378,0.701-3.475,1.158c-0.525,0.276-1.071,0.498-1.554,0.801
			c-0.25,0.142-0.495,0.281-0.736,0.418c-0.233,0.152-0.462,0.302-0.688,0.449c-0.91,0.582-1.7,1.208-2.407,1.774
			c-0.69,0.582-1.293,1.113-1.771,1.574c-0.968,0.916-1.49,1.507-1.49,1.507s0.04-0.191,0.154-0.544
			c0.12-0.346,0.284-0.869,0.575-1.496c0.275-0.637,0.672-1.379,1.18-2.213c0.527-0.817,1.167-1.728,1.996-2.627
			c0.804-0.925,1.825-1.8,2.98-2.656c1.195-0.79,2.533-1.587,4.061-2.089c0.747-0.311,1.551-0.472,2.362-0.66
			c0.426-0.105,0.76-0.153,1.132-0.226c0.366-0.061,0.734-0.122,1.104-0.185c1.476-0.256,2.977-0.472,4.471-0.702
			c1.495-0.207,2.99-0.413,4.461-0.616c1.469-0.191,2.913-0.38,4.311-0.562c0.698-0.09,1.384-0.178,2.056-0.265
			c0.674-0.076,1.329-0.171,1.966-0.257c0.641-0.076,1.262-0.163,1.858-0.251c0.601-0.08,1.185-0.157,1.735-0.248
			c1.116-0.156,2.124-0.341,3.032-0.493c0.891-0.184,1.688-0.327,2.325-0.499c0.654-0.143,1.154-0.296,1.5-0.406
			c0.354-0.102,0.544-0.156,0.544-0.156s-0.137,0.139-0.407,0.387c-0.273,0.243-0.668,0.637-1.238,1.022
			c-0.555,0.428-1.271,0.854-2.11,1.343c-0.806,0.43-1.732,0.896-2.757,1.331l3.433-0.286c0.175-0.015,4.341-0.357,9.386-0.357
			c4.881,0,8.838,0.32,11.76,0.952c2.407,0.521,5.094,1.028,7.632,1.477c-4.579-2.351-10.324-4.875-15.651-5.997
			c-3.021-0.636-6.899-0.958-11.526-0.958c-9.497,0-18.953,1.376-19.048,1.39l-11.768,1.731l10.676-5.244
			c0.493-0.242,12.213-5.938,23.591-6.148c3.358-0.062,6.635,0.042,9.574,0.217c-5.791-1.975-13.283-3.759-20.978-3.48
			c-16.419,0.594-29.724,7.826-29.857,7.898l-0.888,0.49l-0.894-0.481c-0.164-0.089-16.564-8.838-30.542-8.838
			c-2.401,0-4.612,0.262-6.571,0.777c-1.313,0.346-2.636,0.779-3.956,1.271c0.662,0.113,1.368,0.233,2.128,0.339
			c0.551,0.092,1.134,0.169,1.735,0.249c0.597,0.088,1.218,0.175,1.858,0.251c0.637,0.085,1.292,0.18,1.966,0.257
			c0.671,0.086,1.357,0.175,2.055,0.265c1.398,0.182,2.843,0.37,4.311,0.561c1.472,0.203,2.966,0.41,4.461,0.616
			c1.494,0.231,2.996,0.446,4.471,0.703c0.37,0.062,0.738,0.123,1.104,0.185c0.373,0.072,0.706,0.12,1.132,0.226
			c0.811,0.188,1.615,0.349,2.361,0.659c1.53,0.503,2.867,1.3,4.062,2.09c1.156,0.855,2.177,1.731,2.98,2.656
			c0.828,0.899,1.469,1.81,1.996,2.627c0.508,0.833,0.905,1.576,1.18,2.213c0.291,0.626,0.455,1.15,0.575,1.496
			c0.114,0.353,0.154,0.544,0.154,0.544s-0.522-0.592-1.49-1.507c-0.478-0.462-1.08-0.993-1.771-1.575
			c-0.707-0.565-1.497-1.191-2.407-1.774c-0.225-0.146-0.454-0.296-0.688-0.448c-0.241-0.137-0.486-0.276-0.735-0.418
			c-0.484-0.303-1.029-0.525-1.555-0.801c-1.097-0.457-2.243-0.917-3.476-1.158c-0.604-0.164-1.239-0.221-1.869-0.315
			c-0.292-0.052-0.694-0.077-1.056-0.113c-0.37-0.04-0.741-0.079-1.113-0.12c-1.494-0.153-3.007-0.355-4.525-0.563
			c-1.515-0.234-3.032-0.466-4.519-0.765c-0.372-0.071-0.743-0.143-1.111-0.213c-0.368-0.082-0.734-0.163-1.097-0.243
			c-0.727-0.158-1.446-0.317-2.148-0.507c-0.703-0.18-1.396-0.35-2.067-0.557c-0.672-0.195-1.331-0.385-1.966-0.604
			c-1.273-0.412-2.465-0.861-3.549-1.321c-1.085-0.453-2.059-0.945-2.905-1.396c-0.333-0.193-0.639-0.376-0.931-0.554
			c-5.767,2.484-11.347,6.01-15.761,9.16c4.97-1.511,10.91-2.85,16.341-2.85c0.475,0,0.946,0.011,1.4,0.031
			c12.287,0.557,20.148,3.725,20.477,3.859l9.816,4.021l-10.599-0.439c-0.021,0-0.403-0.015-1.096-0.015
			c-5.554,0-25.174,0.845-44.449,11.721c-9.796,5.527-16.764,11.977-21.111,16.754c4.239-2.114,10.022-4.759,17.061-7.397
			c17.299-6.487,29.608-9.201,29.73-9.229l15.906-3.467l-14.713,6.968c-0.242,0.115-15.968,7.647-29.556,18.795
			c0.162-0.054,0.336-0.111,0.534-0.178c0.337-0.104,0.713-0.29,1.137-0.453c0.42-0.188,0.893-0.334,1.388-0.584
			c0.497-0.229,1.034-0.478,1.607-0.741c1.133-0.572,2.406-1.195,3.771-1.946c0.688-0.355,1.394-0.756,2.124-1.167
			c0.733-0.4,1.488-0.827,2.258-1.278c0.387-0.22,0.779-0.443,1.176-0.669c0.395-0.232,0.794-0.468,1.198-0.705
			c0.403-0.24,0.812-0.478,1.227-0.713c0.411-0.244,0.827-0.491,1.245-0.74c3.356-1.997,6.937-4.126,10.517-6.257
			c1.805-1.05,3.604-2.121,5.399-3.14c0.448-0.257,0.895-0.513,1.339-0.768c0.457-0.249,0.864-0.497,1.386-0.745
			c0.497-0.245,0.991-0.489,1.481-0.731c0.479-0.264,1.011-0.402,1.511-0.596c2.002-0.787,4.059-1.115,5.971-1.339
			c1.928-0.12,3.741-0.114,5.379,0.128c0.822,0.083,1.595,0.252,2.327,0.394c0.729,0.162,1.412,0.345,2.047,0.525
			c1.264,0.396,2.337,0.795,3.194,1.191c0.862,0.372,1.504,0.746,1.942,0.986c0.436,0.25,0.653,0.403,0.653,0.403
			s-0.262-0.06-0.747-0.154c-0.486-0.098-1.201-0.221-2.107-0.343c-0.903-0.132-2.004-0.237-3.252-0.323
			c-1.252-0.055-2.653-0.103-4.16,0.003c-0.375,0.023-0.758,0.048-1.147,0.073c-0.386,0.048-0.779,0.098-1.179,0.147
			c-0.199,0.023-0.399,0.048-0.601,0.072c-0.2,0.038-0.401,0.076-0.604,0.115c-0.403,0.076-0.812,0.154-1.227,0.232
			c-1.627,0.421-3.323,0.892-4.93,1.696c-0.829,0.341-1.597,0.834-2.393,1.285c-0.384,0.205-0.831,0.516-1.256,0.786
			c-0.433,0.272-0.868,0.547-1.305,0.822c-1.746,1.11-3.545,2.199-5.355,3.283c-1.823,1.061-3.647,2.124-5.486,3.104
			c-0.458,0.248-0.914,0.495-1.368,0.741c-0.46,0.234-0.918,0.47-1.373,0.702c-0.909,0.468-1.81,0.926-2.714,1.346
			c-0.897,0.429-1.779,0.855-2.665,1.232c-0.877,0.39-1.736,0.77-2.592,1.104c-0.85,0.343-1.675,0.679-2.494,0.964
			c-0.816,0.289-1.594,0.584-2.369,0.814c-1.526,0.5-2.966,0.863-4.238,1.162c-0.648,0.123-1.25,0.243-1.808,0.339
			c-0.552,0.112-1.085,0.141-1.55,0.195c-0.929,0.126-1.68,0.093-2.179,0.096c-0.061-0.001-0.108-0.002-0.163-0.003
			c-7.083,5.875-13.528,12.727-16.81,20.015c-3.763,8.359-5.674,14.713-6.644,18.991c2.666-3.275,5.938-7.194,7.902-9.193
			c3.675-3.738,7.065-5.988,9.805-7.344c0.865-1.16,1.829-2.188,2.772-3.132c1.438-1.29,2.863-2.41,4.299-3.236
			c0.696-0.444,1.408-0.792,2.07-1.136c0.672-0.324,1.321-0.604,1.931-0.856c1.238-0.474,2.327-0.826,3.244-1.047
			c0.908-0.243,1.643-0.348,2.135-0.431c0.497-0.074,0.763-0.089,0.763-0.089s-0.243,0.116-0.682,0.342
			c-0.441,0.225-1.079,0.572-1.865,1.039c-0.791,0.456-1.72,1.057-2.752,1.763c-1.016,0.733-2.145,1.565-3.261,2.583
			c-0.279,0.251-0.564,0.507-0.855,0.769c-0.272,0.277-0.55,0.56-0.833,0.848c-0.141,0.142-0.283,0.285-0.427,0.43
			c-0.034,0.038-0.067,0.078-0.101,0.117c0.171-0.016,0.265-0.017,0.265-0.017s-0.606,0.588-1.649,1.663
			c-0.928,1.236-1.854,2.546-2.55,4.031c-0.438,0.782-0.735,1.646-1.08,2.493c-0.174,0.399-0.332,0.919-0.498,1.396
			c-0.17,0.482-0.341,0.968-0.513,1.455c-0.681,1.953-1.417,3.925-2.165,5.896c-0.771,1.963-1.543,3.929-2.378,5.838
			c-0.205,0.479-0.41,0.954-0.613,1.429c-0.215,0.47-0.429,0.938-0.642,1.403c-0.422,0.93-0.845,1.849-1.294,2.738
			c-0.438,0.894-0.865,1.774-1.326,2.619c-0.447,0.85-0.885,1.682-1.348,2.475c-0.454,0.796-0.893,1.571-1.358,2.303
			c-0.461,0.733-0.889,1.447-1.353,2.108c-0.887,1.339-1.791,2.517-2.603,3.54c-0.433,0.498-0.83,0.966-1.208,1.387
			c-0.364,0.431-0.765,0.783-1.095,1.115c-0.651,0.675-1.261,1.114-1.65,1.427c-0.396,0.303-0.607,0.464-0.607,0.464
			s0.144-0.226,0.413-0.647c0.135-0.206,0.301-0.46,0.497-0.759c0.201-0.29,0.379-0.67,0.611-1.061
			c0.213-0.407,0.493-0.816,0.727-1.319c0.248-0.488,0.515-1.016,0.801-1.579c0.535-1.151,1.146-2.43,1.75-3.865
			c0.319-0.704,0.625-1.457,0.943-2.232c0.327-0.77,0.654-1.571,0.978-2.403c0.167-0.413,0.336-0.831,0.507-1.254
			c0.166-0.427,0.333-0.859,0.502-1.296c0.167-0.438,0.341-0.878,0.521-1.319c0.171-0.447,0.343-0.898,0.517-1.354
			c1.395-3.648,2.882-7.539,4.37-11.431c0.217-0.553,0.432-1.106,0.648-1.66c-8.047,10.038-17.567,24.244-20.073,37.759
			c-3.112,16.779,0.128,31.596,2.522,39.364c1.096-4.51,2.647-10.612,4.054-15.114c3.904-12.492,8.235-19.525,8.417-19.818
			l7.249-11.65l-3.883,13.161c-0.116,0.394-11.499,39.524-2.326,56.31c5.939,10.868,13.958,17.437,18.946,20.75
			c-1.939-4.742-4.664-11.799-5.949-16.94c-2.082-8.328-2.307-19.86-2.315-20.347l-0.202-11.485l3.819,10.833
			c0.104,0.298,10.535,29.797,16.655,39.26c4.692,7.256,10.921,12.556,14.771,15.415c-0.691-4.498-1.634-12.191-1.904-21.983
			c-0.195-5.86,2.255-18.778,2.359-19.325l2.648-13.881l1.037,14.093c0.017,0.229,1.752,22.929,8.215,33.091
			c3.691,5.804,7.73,11.645,10.459,15.51c0.078-3.223,0.182-7.157,0.287-9.857c0.193-5.031-1.375-11.763-1.391-11.829l-1.614-6.858
			l4.791,5.166c0.447,0.482,10.963,11.947,11.18,23.008c0.13,6.658-0.304,11.979-0.655,15.068c4.609-1.546,14.1-5.265,20.513-11.442
			c5.688-5.478,7.865-16.765,7.886-16.878l1.327-7.052l2.269,6.808c0.097,0.29,2.365,7.163,2.147,12.174
			c-0.068,1.586-0.09,3.349-0.089,4.98c3.659-5.579,9.238-15.059,10.402-22.563c1.763-11.355-0.797-21.159-0.822-21.257
			l-2.499-9.373c-1.928,1.725-4.361,3.232-6.929,5.977c-5.146,5.5-3.55,16.856-3.55,16.856s-3.371-6.565-3.726-10.114
			c-0.355-3.548,2.839-8.695,2.839-8.695s-1.951,3.018-4.613,5.324c-2.662,2.306-6.388,20.938-6.388,20.938v-14.971
			c-1.415,7.829-3.101,15.711-4.605,18.857c-3.412,7.136-7.134,14.582-7.134,14.582s3.102-11.015-0.776-20.632
			c-2.51-6.225-5.993-11.406-8.139-14.29v16.453c0,0-3.726-18.633-6.388-20.938c-2.662-2.307-4.614-5.324-4.614-5.324
			s3.194,5.147,2.839,8.695c-0.355,3.549-3.726,10.114-3.726,10.114s1.597-11.356-3.549-16.856
			c-5.146-5.501-9.759-6.033-10.824-13.309c-1.064-7.275-2.129-12.6-2.129-12.6s-1.952,1.598-2.662,4.082
			c-0.71,2.484-0.533,8.34-0.533,8.34s-5.146-12.066-4.258-18.81c0.887-6.742-0.71-12.065-3.727-15.26
			c-3.017-3.193-5.501-13.309-5.501-13.309s-2.307,3.194-1.064,9.583c1.242,6.388,3.372,17.389,3.372,17.389
			s-5.72-6.05-7.435-13.283c-0.265,1.069-0.53,2.238-0.702,3.51c-0.053,0.372-0.107,0.752-0.162,1.139
			c-0.031,0.388-0.062,0.782-0.094,1.184c-0.018,0.2-0.034,0.401-0.051,0.604c-0.003,0.203-0.007,0.408-0.01,0.614
			c-0.007,0.41-0.014,0.826-0.021,1.248c0.083,1.679,0.198,3.436,0.66,5.172c0.167,0.882,0.494,1.733,0.773,2.604
			c0.123,0.418,0.336,0.918,0.514,1.39c0.179,0.479,0.36,0.962,0.541,1.445c0.732,1.935,1.434,3.919,2.126,5.91
			c0.669,2,1.339,4.002,1.925,6.002c0.15,0.499,0.299,0.995,0.448,1.489c0.137,0.499,0.273,0.995,0.409,1.487
			c0.273,0.985,0.54,1.961,0.767,2.932c0.238,0.966,0.477,1.916,0.666,2.858c0.203,0.938,0.401,1.857,0.555,2.763
			c0.163,0.902,0.324,1.778,0.438,2.638c0.117,0.857,0.248,1.68,0.315,2.485c0.18,1.596,0.243,3.079,0.278,4.385
			c-0.012,0.66-0.016,1.273-0.036,1.84c-0.002,0.563-0.083,1.091-0.124,1.558c-0.065,0.936-0.25,1.663-0.349,2.152
			c-0.109,0.486-0.167,0.746-0.167,0.746s-0.035-0.265-0.1-0.762c-0.028-0.244-0.064-0.546-0.106-0.9
			c-0.032-0.352-0.139-0.757-0.212-1.206c-0.098-0.448-0.146-0.942-0.29-1.478c-0.124-0.533-0.257-1.109-0.4-1.725
			c-0.33-1.226-0.682-2.599-1.14-4.087c-0.208-0.745-0.458-1.519-0.711-2.316c-0.243-0.8-0.508-1.626-0.793-2.471
			c-0.137-0.424-0.275-0.853-0.416-1.287c-0.147-0.434-0.296-0.873-0.447-1.316c-0.153-0.442-0.302-0.891-0.448-1.346
			c-0.156-0.452-0.313-0.909-0.472-1.369c-1.274-3.692-2.632-7.63-3.991-11.567c-0.662-1.981-1.346-3.96-1.978-5.925
			c-0.161-0.491-0.321-0.98-0.479-1.467c-0.151-0.498-0.312-0.947-0.449-1.509c-0.139-0.537-0.278-1.07-0.415-1.6
			c-0.16-0.522-0.188-1.071-0.276-1.6c-0.364-2.12-0.268-4.201-0.099-6.119c0.274-1.912,0.648-3.687,1.218-5.241
			c0.248-0.788,0.57-1.511,0.857-2.199c0.307-0.681,0.625-1.313,0.931-1.897c0.35-0.628,0.688-1.194,1.014-1.708
			c-0.909-7.391,0.229-16.676,3.149-21.218c0.844-1.313,2.023-3.166,3.301-5.181c-0.138,0.051-0.271,0.101-0.418,0.154
			c-0.994,0.367-2.175,0.879-3.506,1.483c-1.329,0.612-2.795,1.356-4.341,2.24c-1.541,0.893-3.167,1.913-4.788,3.111
			c-1.62,1.199-3.25,2.548-4.807,4.063c-0.39,0.379-0.771,0.771-1.157,1.164c-0.369,0.409-0.756,0.805-1.116,1.229
			c-0.362,0.423-0.742,0.833-1.086,1.278l-0.529,0.657l-0.066,0.083l-0.008,0.009c0.012-0.015,0.027-0.033,0.006-0.006l-0.033,0.045
			l-0.132,0.181c-0.082,0.114-0.194,0.257-0.243,0.342c-0.24,0.36-0.532,0.841-0.778,1.289c-0.245,0.468-0.482,0.945-0.692,1.448
			c-0.423,1.001-0.797,2.059-1.117,3.147c-0.625,2.184-1.096,4.475-1.467,6.77c-0.372,2.296-0.673,4.594-0.941,6.835
			c-0.276,2.257-0.543,4.438-0.796,6.506c-0.27,2.08-0.552,4.055-0.868,5.879c-0.318,1.823-0.672,3.494-1.062,4.962
			c-0.389,1.469-0.826,2.731-1.259,3.74c-0.417,1.015-0.865,1.76-1.186,2.246c-0.162,0.243-0.296,0.42-0.393,0.536
			c-0.093,0.116-0.141,0.177-0.141,0.177s0.026-0.072,0.076-0.213c0.054-0.138,0.119-0.35,0.205-0.62
			c0.17-0.544,0.349-1.355,0.51-2.392c0.157-1.037,0.264-2.308,0.339-3.769c0.078-1.46,0.113-3.114,0.131-4.926
			c0.015-1.819,0.033-3.79,0.05-5.874c0.02-1.049,0.04-2.126,0.061-3.227c0.041-1.107,0.083-2.237,0.126-3.387
			c0.125-2.305,0.302-4.699,0.629-7.144c0.152-1.225,0.372-2.456,0.617-3.698c0.247-1.241,0.547-2.488,0.931-3.729
			c0.385-1.24,0.816-2.485,1.395-3.693c0.28-0.606,0.601-1.203,0.938-1.791c0.359-0.594,0.699-1.139,1.171-1.743
			c0.119-0.163,0.2-0.25,0.3-0.373l0.143-0.173l0.105-0.126l0.079-0.088l0.627-0.702c0.41-0.473,0.855-0.908,1.281-1.355
			c0.433-0.441,0.893-0.85,1.333-1.27c0.456-0.403,0.909-0.804,1.367-1.188c1.85-1.521,3.76-2.823,5.65-3.897
			c0.471-0.271,0.944-0.523,1.409-0.772c0.474-0.231,0.933-0.471,1.396-0.683c0.921-0.434,1.822-0.824,2.704-1.154
			c1.753-0.681,3.4-1.176,4.874-1.533c1.471-0.37,2.777-0.575,3.847-0.732c0.42-0.061,0.796-0.101,1.146-0.133
			c3.445-5.438,7.362-11.661,7.362-11.661s-4.259,7.541-4.259,13.93c0,6.388-1.064,10.646,1.597,15.438
			c1.695,3.053,5.262,6.176,7.95,8.913c0.192-1.118,0.426-2.095,0.67-2.855c1.422-4.446,3.379-6.491,3.379-6.491
			s0.355-7.469,1.6-11.292c1.245-3.824,6.846-8.624,6.846-8.624s-2.845,5.778-4.624,9.157c-1.778,3.378-1.156,9.158-1.156,9.158
			s1.333-0.711,2.579-0.979c1.245-0.267,3.112-0.178,3.112-0.178s-10.779,1.802-8.603,17.36
			c2.177,15.559,11.448,18.915,11.448,18.915s-3.729,0.681-9.355-3.86c1.72,2.904,3.315,7.038,5.859,10.43
			c2.428-1.113,6.5-2.723,11.598-3.756c9.191-1.861,13.612,0.582,15.357-2.094c1.352-2.073,1.307-12.243,1.219-16.722
			c-0.05-0.001-0.088-0.002-0.097-0.003c-0.801-0.088-3.735-2.311-3.824-3.111c-0.089-0.8,1.333-0.89,1.066-1.777
			c-0.266-0.89-7.379-3.646-10.669-5.247c-3.29-1.6-5.067-5.067-4.267-5.512c0.8-0.444,1.988,1.53,2.578,1.334
			c1.066-0.356,1.867-1.957,4.801-2.224c2.934-0.267,3.823,0.356,6.49,1.334c2.576,0.944,5.227,1.391,5.406,1.419
			c0.18-0.028,2.832-0.475,5.407-1.419c2.667-0.978,3.556-1.601,6.49-1.334s3.734,1.867,4.801,2.224
			c0.591,0.196,1.778-1.778,2.578-1.334c0.801,0.444-0.978,3.912-4.267,5.512c-3.29,1.601-10.403,4.357-10.669,5.247
			c-0.268,0.888,1.155,0.978,1.066,1.777c-0.089,0.801-3.023,3.023-3.823,3.111c-0.01,0.001-0.048,0.002-0.097,0.003
			c-0.089,4.479-0.134,14.648,1.219,16.722c1.745,2.676,6.166,0.232,15.356,2.094c5.099,1.033,9.171,2.643,11.599,3.756
			c2.544-3.392,4.139-7.525,5.858-10.43c-5.626,4.541-9.354,3.86-9.354,3.86s10.832-4.923,11.447-18.915s-8.603-17.36-8.603-17.36
			s1.866-0.089,3.112,0.178c1.244,0.268,2.578,0.979,2.578,0.979s0.623-5.78-1.155-9.158c-1.779-3.379-4.624-9.157-4.624-9.157
			s5.602,4.8,6.847,8.624c1.244,3.823,1.6,11.292,1.6,11.292s1.957,2.045,3.379,6.491c0.244,0.761,0.479,1.737,0.67,2.855
			c2.688-2.737,6.254-5.86,7.949-8.913c2.662-4.791,1.598-9.05,1.598-15.438c0-6.389-4.259-13.93-4.259-13.93
			s7.985,12.688,11.179,17.655c3.194,4.969,4.259,15.616,2.84,23.246c-1.42,7.631-7.631,14.195-7.631,14.195
			s2.129-11.001,3.372-17.389c1.242-6.389-1.064-9.583-1.064-9.583s-2.485,10.115-5.502,13.309
			c-3.017,3.194-4.613,8.518-3.726,15.26c0.887,6.743-4.259,18.81-4.259,18.81s0.178-5.855-0.532-8.34s-2.662-4.082-2.662-4.082
			s-1.064,5.324-2.129,12.6c-0.463,3.164-1.598,5.052-3.155,6.629l5.156,8.642c0.25,0.42,6.119,10.399,4.841,20.519
			c-0.265,3.947-1.636,9.45-2.711,13.288c4.804-2.924,12.841-8.403,17.575-14.849c7.145-9.725,14.662-31.537,14.737-31.757
			l4.418-12.893l-0.799,13.605c-0.022,0.394-0.591,9.725-2.887,17.444c-1.336,4.496-3.22,11.458-4.52,16.333
			c4.269-3.962,10.682-11.074,14.499-20.801c6.141-15.652,3.471-54.642,3.443-55.033l-0.773-10.953
			c-0.042-0.057-0.087-0.116-0.125-0.17l-0.133-0.181l-0.033-0.045c-0.022-0.029-0.003-0.005,0.009,0.01l-0.01-0.013l-0.066-0.082
			l-0.53-0.658c-0.344-0.445-0.725-0.855-1.086-1.278c-0.36-0.424-0.747-0.82-1.116-1.229c-0.386-0.393-0.767-0.784-1.156-1.163
			c-1.558-1.516-3.188-2.865-4.808-4.064c-1.621-1.197-3.247-2.219-4.788-3.111c-1.545-0.884-3.012-1.628-4.341-2.239
			c-1.33-0.604-2.511-1.116-3.506-1.483c-0.992-0.37-1.783-0.655-2.33-0.823c-0.545-0.176-0.842-0.259-0.842-0.259
			s0.309-0.011,0.886,0.015c0.575,0.034,1.427,0.078,2.498,0.231c1.069,0.157,2.375,0.363,3.847,0.732
			c1.474,0.357,3.12,0.854,4.874,1.534c0.881,0.329,1.781,0.721,2.703,1.153c0.463,0.213,0.922,0.452,1.396,0.684
			c0.464,0.249,0.938,0.5,1.408,0.771c1.891,1.075,3.801,2.377,5.65,3.897c0.458,0.385,0.91,0.785,1.367,1.188
			c0.44,0.421,0.9,0.829,1.333,1.27c0.427,0.447,0.872,0.883,1.281,1.356l0.628,0.701l0.078,0.088l0.105,0.127l0.143,0.173
			c0.1,0.123,0.181,0.21,0.3,0.372c0.473,0.604,0.813,1.149,1.172,1.743c0.337,0.589,0.657,1.185,0.938,1.791
			c0.578,1.208,1.01,2.453,1.395,3.693s0.685,2.487,0.931,3.729c0.246,1.241,0.465,2.474,0.617,3.697
			c0.327,2.444,0.505,4.839,0.629,7.144c0.043,1.149,0.086,2.28,0.127,3.387c0.021,1.101,0.041,2.178,0.061,3.227
			c0.018,2.085,0.035,4.055,0.051,5.874c0.002,0.197,0.005,0.386,0.007,0.58c0.58,3.411,1.104,8.36,1.495,12.668
			c3.341-10.604,8.108-28.88,5.699-40.659C274.589,161.897,257.877,137.392,257.709,137.146z"/>
		<path d="M267.524,145.772c0.849,0.944,1.683,1.954,2.466,3.021c0.066,0.091,0.132,0.18,0.197,0.27
			c0.006,0.012,0.011,0.022,0.016,0.034c0.423,0.93,0.845,1.849,1.294,2.738c0.438,0.894,0.865,1.774,1.325,2.619
			c0.447,0.85,0.885,1.682,1.349,2.475c0.454,0.796,0.893,1.571,1.358,2.303c0.461,0.733,0.889,1.447,1.354,2.108
			c0.887,1.339,1.79,2.517,2.602,3.54c0.434,0.498,0.83,0.966,1.209,1.387c0.279,0.33,0.579,0.614,0.853,0.878l4.092,7.227
			l-3.345-13.328c-0.41-1.633-10.155-40.126-20.415-51.856c-2.239-2.56-4.793-5-7.303-7.183c2.208,1.154,4.227,2.366,5.65,3.536
			c5.648,4.64,11.88,10.302,11.942,10.358l4.847,4.409l-1.805-6.299c-0.228-0.791-5.768-19.487-24.888-30.679
			c-7.573-4.433-18.827-8.219-27.572-10.761c2.706,0.127,4.975,0.387,6.774,0.775c7.576,1.638,17.842,3.146,17.944,3.161
			l8.253,1.208l-6.956-4.603c-0.558-0.368-13.787-9.059-25.708-11.568c-3.273-0.689-7.408-1.038-12.293-1.038
			c-1.338,0-2.669,0.025-3.971,0.069c2.436-0.502,4.986-0.85,7.491-0.896c10.794-0.206,20.942,1.399,21.038,1.415l10.081,1.61
			l-8.863-5.065c-0.622-0.354-15.416-8.698-32.113-8.698c-0.585,0-1.174,0.011-1.749,0.031c-15,0.543-27.259,6.193-30.623,7.891
			c-3.724-1.895-18.254-8.823-31.424-8.823c-2.721,0-5.251,0.303-7.519,0.899c-15.872,4.177-32.2,18.879-32.888,19.502l-8.971,8.143
			l11.002-5.074c0.15-0.068,15.683-7.181,27.213-6.655c2.824,0.128,5.41,0.404,7.706,0.75c-9.216,1.184-22.292,4.144-35.217,11.437
			c-18.925,10.679-27.607,24.413-27.967,24.992l-4.213,6.776l6.777-4.212c0.093-0.058,9.457-5.835,24.491-11.473
			c5.174-1.94,9.89-3.537,13.953-4.82c-12.02,7.381-28.3,19.385-34.547,33.26c-7.928,17.609-7.974,26.693-7.971,27.071l0.027,5.327
			l3.296-4.185c0.079-0.1,7.453-9.451,11.266-13.555c-9.028,10.502-18.845,24.507-21.338,37.95
			c-4.777,25.757,4.466,46.468,4.862,47.338l2.288,5.024l1.221-5.385c0.03-0.131,3-13.195,5.419-20.938
			c0.117-0.375,0.235-0.746,0.353-1.11c-2.138,13.072-3.226,29.705,2.284,39.786c9.846,18.015,24.699,24.773,25.326,25.053
			l4.395,1.953l-1.935-4.403c-0.059-0.134-5.919-13.513-7.911-21.48c-0.487-1.95-0.869-4.117-1.166-6.276
			c3.637,9.461,8.673,21.724,12.383,27.461c7.755,11.991,19.069,18.742,19.547,19.023l3.642,2.145l-0.876-4.135
			c-0.021-0.103-2.175-10.42-2.598-25.736c-0.048-1.459,0.091-3.452,0.322-5.592c1.306,7.325,3.506,16.069,7.074,21.68
			c6.368,10.014,13.76,20.133,13.833,20.234l3.251,4.443l0.112-5.505c0.002-0.101,0.208-10.111,0.411-15.375
			c0.066-1.739-0.049-3.626-0.241-5.401c2.703,4.021,5.662,9.592,5.765,14.817c0.199,10.154-0.99,17.248-1.001,17.319l-0.486,2.848
			l2.793-0.733c0.626-0.165,15.443-4.132,24.856-13.198c3.355-3.232,5.604-7.988,7.009-11.918c0.229,1.414,0.373,2.86,0.318,4.127
			c-0.207,4.742-0.01,10.777-0.001,11.031l0.176,5.28l3.173-4.224c0.421-0.56,8.694-11.649,12.604-22.394
			c-1.015,3.976-2.079,7.29-2.099,7.35l-1.384,4.286l4.006-2.059c0.62-0.318,15.27-7.92,22.838-18.223
			c3.033-4.128,6.064-10.144,8.617-15.899c-2.263,7.741-5.719,20.969-5.754,21.107l-1.263,4.835l4.118-2.831
			c0.556-0.382,13.693-9.554,20.195-26.124c3.62-9.225,4.376-25.43,4.322-38.161c0.162,0.753,0.329,1.534,0.501,2.345
			c1.297,6.11,2.435,22.534,2.446,22.699l0.574,8.365l3.02-7.822c0.513-1.328,12.51-32.737,8.746-51.141
			C279.595,167.791,272.802,154.753,267.524,145.772z M272.472,220.065c-0.392-4.308-0.915-9.257-1.495-12.668
			c-0.002-0.194-0.005-0.383-0.007-0.58c-0.016-1.819-0.033-3.789-0.051-5.874c-0.02-1.049-0.04-2.126-0.061-3.227
			c-0.041-1.106-0.084-2.237-0.127-3.387c-0.124-2.305-0.302-4.699-0.629-7.144c-0.152-1.224-0.371-2.456-0.617-3.697
			c-0.246-1.242-0.546-2.489-0.931-3.729s-0.816-2.485-1.395-3.693c-0.28-0.606-0.601-1.202-0.938-1.791
			c-0.359-0.594-0.699-1.139-1.172-1.743c-0.119-0.162-0.2-0.249-0.3-0.372l-0.143-0.173l-0.105-0.127l-0.078-0.088l-0.628-0.701
			c-0.409-0.474-0.854-0.909-1.281-1.356c-0.433-0.44-0.893-0.849-1.333-1.27c-0.457-0.402-0.909-0.803-1.367-1.188
			c-1.85-1.521-3.76-2.822-5.65-3.897c-0.471-0.271-0.944-0.522-1.408-0.771c-0.475-0.231-0.934-0.471-1.396-0.684
			c-0.922-0.433-1.822-0.824-2.703-1.153c-1.754-0.681-3.4-1.177-4.874-1.534c-1.472-0.369-2.777-0.575-3.847-0.732
			c-1.071-0.153-1.923-0.197-2.498-0.231c-0.577-0.025-0.886-0.015-0.886-0.015s0.297,0.083,0.842,0.259
			c0.547,0.168,1.338,0.453,2.33,0.823c0.995,0.367,2.176,0.879,3.506,1.483c1.329,0.611,2.796,1.355,4.341,2.239
			c1.541,0.893,3.167,1.914,4.788,3.111c1.62,1.199,3.25,2.549,4.808,4.064c0.39,0.379,0.771,0.771,1.156,1.163
			c0.369,0.409,0.756,0.806,1.116,1.229c0.361,0.423,0.742,0.833,1.086,1.278l0.53,0.658l0.066,0.082l0.01,0.013
			c-0.012-0.015-0.031-0.039-0.009-0.01l0.033,0.045l0.133,0.181c0.038,0.054,0.083,0.113,0.125,0.17l0.773,10.953
			c0.027,0.392,2.697,39.381-3.443,55.033c-3.817,9.727-10.23,16.839-14.499,20.801c1.3-4.875,3.184-11.837,4.52-16.333
			c2.296-7.72,2.864-17.051,2.887-17.444l0.799-13.605l-4.418,12.893c-0.075,0.22-7.593,22.032-14.737,31.757
			c-4.734,6.445-12.771,11.925-17.575,14.849c1.075-3.838,2.446-9.341,2.711-13.288c1.278-10.119-4.591-20.099-4.841-20.519
			l-5.156-8.642c1.558-1.577,2.692-3.465,3.155-6.629c1.064-7.275,2.129-12.6,2.129-12.6s1.952,1.598,2.662,4.082
			s0.532,8.34,0.532,8.34s5.146-12.066,4.259-18.81c-0.888-6.742,0.709-12.065,3.726-15.26c3.017-3.193,5.502-13.309,5.502-13.309
			s2.307,3.194,1.064,9.583c-1.243,6.388-3.372,17.389-3.372,17.389s6.211-6.564,7.631-14.195c1.419-7.63,0.354-18.277-2.84-23.246
			c-3.193-4.968-11.179-17.655-11.179-17.655s4.259,7.541,4.259,13.93c0,6.388,1.064,10.646-1.598,15.438
			c-1.695,3.053-5.262,6.176-7.949,8.913c-0.191-1.118-0.426-2.095-0.67-2.855c-1.422-4.446-3.379-6.491-3.379-6.491
			s-0.355-7.469-1.6-11.292c-1.245-3.824-6.847-8.624-6.847-8.624s2.845,5.778,4.624,9.157c1.778,3.378,1.155,9.158,1.155,9.158
			s-1.334-0.711-2.578-0.979c-1.246-0.267-3.112-0.178-3.112-0.178s9.218,3.368,8.603,17.36s-11.447,18.915-11.447,18.915
			s3.729,0.681,9.354-3.86c-1.72,2.904-3.314,7.038-5.858,10.43c-2.428-1.113-6.5-2.723-11.599-3.756
			c-9.19-1.861-13.611,0.582-15.356-2.094c-1.353-2.073-1.308-12.243-1.219-16.722c0.049-0.001,0.087-0.002,0.097-0.003
			c0.8-0.088,3.734-2.311,3.823-3.111c0.089-0.8-1.334-0.89-1.066-1.777c0.266-0.89,7.379-3.646,10.669-5.247
			c3.289-1.6,5.067-5.067,4.267-5.512c-0.8-0.444-1.987,1.53-2.578,1.334c-1.066-0.356-1.866-1.957-4.801-2.224
			s-3.823,0.356-6.49,1.334c-2.575,0.944-5.227,1.391-5.407,1.419c-0.179-0.028-2.83-0.475-5.406-1.419
			c-2.667-0.978-3.556-1.601-6.49-1.334c-2.935,0.267-3.735,1.867-4.801,2.224c-0.59,0.196-1.778-1.778-2.578-1.334
			c-0.8,0.444,0.978,3.912,4.267,5.512c3.29,1.601,10.403,4.357,10.669,5.247c0.267,0.888-1.156,0.978-1.066,1.777
			c0.089,0.801,3.023,3.023,3.824,3.111c0.009,0.001,0.047,0.002,0.097,0.003c0.088,4.479,0.133,14.648-1.219,16.722
			c-1.745,2.676-6.167,0.232-15.357,2.094c-5.099,1.033-9.17,2.643-11.598,3.756c-2.544-3.392-4.14-7.525-5.859-10.43
			c5.626,4.541,9.355,3.86,9.355,3.86s-9.271-3.356-11.448-18.915c-2.177-15.559,8.603-17.36,8.603-17.36s-1.867-0.089-3.112,0.178
			c-1.245,0.268-2.579,0.979-2.579,0.979s-0.623-5.78,1.156-9.158c1.778-3.379,4.624-9.157,4.624-9.157s-5.602,4.8-6.846,8.624
			c-1.245,3.823-1.6,11.292-1.6,11.292s-1.957,2.045-3.379,6.491c-0.244,0.761-0.478,1.737-0.67,2.855
			c-2.688-2.737-6.254-5.86-7.95-8.913c-2.662-4.791-1.597-9.05-1.597-15.438c0-6.389,4.259-13.93,4.259-13.93
			s-3.917,6.224-7.362,11.661c-0.35,0.032-0.725,0.072-1.146,0.133c-1.069,0.157-2.375,0.362-3.847,0.732
			c-1.474,0.357-3.121,0.853-4.874,1.533c-0.882,0.33-1.783,0.721-2.704,1.154c-0.463,0.212-0.922,0.451-1.396,0.683
			c-0.464,0.249-0.938,0.501-1.409,0.772c-1.89,1.074-3.8,2.376-5.65,3.897c-0.458,0.384-0.911,0.784-1.367,1.188
			c-0.44,0.42-0.9,0.828-1.333,1.27c-0.426,0.447-0.872,0.883-1.281,1.355l-0.627,0.702l-0.079,0.088l-0.105,0.126l-0.143,0.173
			c-0.1,0.123-0.181,0.21-0.3,0.373c-0.472,0.604-0.812,1.149-1.171,1.743c-0.337,0.588-0.658,1.185-0.938,1.791
			c-0.579,1.208-1.01,2.453-1.395,3.693c-0.384,1.24-0.685,2.487-0.931,3.729c-0.245,1.242-0.465,2.474-0.617,3.698
			c-0.327,2.444-0.504,4.839-0.629,7.144c-0.043,1.149-0.085,2.279-0.126,3.387c-0.021,1.101-0.041,2.178-0.061,3.227
			c-0.018,2.084-0.035,4.055-0.05,5.874c-0.018,1.812-0.053,3.466-0.131,4.926c-0.075,1.461-0.182,2.731-0.339,3.769
			c-0.162,1.036-0.34,1.848-0.51,2.392c-0.086,0.271-0.151,0.482-0.205,0.62c-0.05,0.141-0.076,0.213-0.076,0.213
			s0.048-0.061,0.141-0.177c0.097-0.116,0.231-0.293,0.393-0.536c0.32-0.486,0.769-1.231,1.186-2.246
			c0.433-1.009,0.87-2.271,1.259-3.74c0.39-1.468,0.744-3.139,1.062-4.962c0.316-1.824,0.598-3.799,0.868-5.879
			c0.253-2.067,0.52-4.249,0.796-6.506c0.268-2.241,0.569-4.539,0.941-6.835c0.371-2.295,0.842-4.586,1.467-6.77
			c0.32-1.089,0.693-2.146,1.117-3.147c0.21-0.503,0.447-0.98,0.692-1.448c0.247-0.448,0.539-0.929,0.778-1.289
			c0.049-0.085,0.161-0.228,0.243-0.342l0.132-0.181l0.033-0.045c0.021-0.027,0.006-0.009-0.006,0.006l0.008-0.009l0.066-0.083
			l0.529-0.657c0.344-0.445,0.724-0.855,1.086-1.278c0.36-0.425,0.748-0.82,1.116-1.229c0.385-0.393,0.767-0.785,1.157-1.164
			c1.558-1.516,3.188-2.864,4.807-4.063c1.622-1.198,3.248-2.219,4.788-3.111c1.545-0.884,3.012-1.628,4.341-2.24
			c1.331-0.604,2.512-1.116,3.506-1.483c0.147-0.054,0.28-0.104,0.418-0.154c-1.277,2.015-2.457,3.868-3.301,5.181
			c-2.92,4.542-4.059,13.827-3.149,21.218c-0.326,0.514-0.664,1.08-1.014,1.708c-0.306,0.585-0.624,1.217-0.931,1.897
			c-0.287,0.688-0.609,1.411-0.857,2.199c-0.57,1.555-0.943,3.329-1.218,5.241c-0.169,1.918-0.266,3.999,0.099,6.119
			c0.088,0.528,0.116,1.077,0.276,1.6c0.137,0.529,0.276,1.063,0.415,1.6c0.137,0.562,0.297,1.011,0.449,1.509
			c0.159,0.486,0.319,0.976,0.479,1.467c0.632,1.965,1.316,3.943,1.978,5.925c1.358,3.938,2.717,7.875,3.991,11.567
			c0.159,0.46,0.316,0.917,0.472,1.369c0.146,0.455,0.295,0.903,0.448,1.346c0.151,0.443,0.3,0.883,0.447,1.316
			c0.141,0.435,0.279,0.863,0.416,1.287c0.286,0.845,0.55,1.671,0.793,2.471c0.254,0.798,0.503,1.571,0.711,2.316
			c0.458,1.488,0.81,2.861,1.14,4.087c0.143,0.615,0.276,1.191,0.4,1.725c0.144,0.535,0.192,1.029,0.29,1.478
			c0.074,0.449,0.18,0.854,0.212,1.206c0.042,0.354,0.078,0.656,0.106,0.9c0.065,0.497,0.1,0.762,0.1,0.762s0.058-0.26,0.167-0.746
			c0.099-0.489,0.283-1.217,0.349-2.152c0.041-0.467,0.122-0.994,0.124-1.558c0.02-0.566,0.023-1.18,0.036-1.84
			c-0.035-1.306-0.098-2.789-0.278-4.385c-0.068-0.806-0.198-1.628-0.315-2.485c-0.114-0.859-0.275-1.735-0.438-2.638
			c-0.154-0.905-0.352-1.824-0.555-2.763c-0.189-0.942-0.428-1.893-0.666-2.858c-0.227-0.971-0.493-1.946-0.767-2.932
			c-0.136-0.492-0.272-0.988-0.409-1.487c-0.149-0.494-0.298-0.99-0.448-1.489c-0.586-2-1.256-4.002-1.925-6.002
			c-0.693-1.991-1.394-3.976-2.126-5.91c-0.181-0.483-0.362-0.966-0.541-1.445c-0.178-0.472-0.391-0.972-0.514-1.39
			c-0.279-0.871-0.606-1.723-0.773-2.604c-0.461-1.736-0.577-3.493-0.66-5.172c0.007-0.422,0.015-0.838,0.021-1.248
			c0.003-0.206,0.007-0.411,0.01-0.614c0.017-0.202,0.034-0.403,0.051-0.604c0.032-0.401,0.063-0.796,0.094-1.184
			c0.055-0.387,0.109-0.767,0.162-1.139c0.172-1.271,0.437-2.44,0.702-3.51c1.714,7.233,7.435,13.283,7.435,13.283
			s-2.129-11.001-3.372-17.389c-1.243-6.389,1.064-9.583,1.064-9.583s2.485,10.115,5.501,13.309
			c3.017,3.194,4.613,8.518,3.727,15.26c-0.887,6.743,4.258,18.81,4.258,18.81s-0.178-5.855,0.533-8.34
			c0.709-2.484,2.662-4.082,2.662-4.082s1.064,5.324,2.129,12.6c1.065,7.275,5.678,7.808,10.824,13.309
			c5.146,5.5,3.549,16.856,3.549,16.856s3.371-6.565,3.726-10.114c0.355-3.548-2.839-8.695-2.839-8.695s1.952,3.018,4.614,5.324
			c2.662,2.306,6.388,20.938,6.388,20.938V246.02c2.146,2.884,5.629,8.065,8.139,14.29c3.878,9.617,0.776,20.632,0.776,20.632
			s3.722-7.446,7.134-14.582c1.505-3.146,3.19-11.028,4.605-18.857v14.971c0,0,3.726-18.633,6.388-20.938
			c2.662-2.307,4.613-5.324,4.613-5.324s-3.194,5.147-2.839,8.695c0.354,3.549,3.726,10.114,3.726,10.114s-1.597-11.356,3.55-16.856
			c2.567-2.744,5.001-4.252,6.929-5.977l2.499,9.373c0.025,0.098,2.585,9.901,0.822,21.257c-1.164,7.505-6.743,16.984-10.402,22.563
			c-0.001-1.632,0.021-3.395,0.089-4.98c0.218-5.011-2.051-11.884-2.147-12.174l-2.269-6.808l-1.327,7.052
			c-0.021,0.113-2.198,11.4-7.886,16.878c-6.413,6.178-15.904,9.896-20.513,11.442c0.351-3.09,0.786-8.41,0.655-15.068
			c-0.217-11.061-10.732-22.525-11.18-23.008l-4.791-5.166l1.614,6.858c0.016,0.066,1.583,6.798,1.391,11.829
			c-0.104,2.7-0.209,6.635-0.287,9.857c-2.729-3.865-6.768-9.706-10.459-15.51c-6.463-10.162-8.198-32.862-8.215-33.091
			l-1.037-14.093l-2.648,13.881c-0.104,0.547-2.554,13.465-2.359,19.325c0.27,9.792,1.212,17.485,1.904,21.983
			c-3.85-2.859-10.079-8.159-14.771-15.415c-6.12-9.463-16.55-38.962-16.655-39.26l-3.819-10.833l0.202,11.485
			c0.008,0.486,0.233,12.019,2.315,20.347c1.285,5.142,4.01,12.198,5.949,16.94c-4.987-3.313-13.006-9.882-18.946-20.75
			c-9.173-16.785,2.21-55.916,2.326-56.31l3.883-13.161l-7.249,11.65c-0.182,0.293-4.514,7.326-8.417,19.818
			c-1.407,4.502-2.958,10.604-4.054,15.114c-2.394-7.769-5.634-22.585-2.522-39.364c2.506-13.515,12.026-27.721,20.073-37.759
			c-0.216,0.554-0.431,1.107-0.648,1.66c-1.488,3.892-2.975,7.782-4.37,11.431c-0.174,0.455-0.346,0.906-0.517,1.354
			c-0.179,0.441-0.354,0.882-0.521,1.319c-0.169,0.437-0.336,0.869-0.502,1.296c-0.171,0.423-0.34,0.841-0.507,1.254
			c-0.324,0.832-0.651,1.634-0.978,2.403c-0.318,0.775-0.624,1.528-0.943,2.232c-0.604,1.436-1.216,2.714-1.75,3.865
			c-0.286,0.563-0.553,1.091-0.801,1.579c-0.233,0.503-0.513,0.912-0.727,1.319c-0.232,0.391-0.411,0.771-0.611,1.061
			c-0.195,0.299-0.362,0.553-0.497,0.759c-0.269,0.422-0.413,0.647-0.413,0.647s0.211-0.161,0.607-0.464
			c0.39-0.313,0.999-0.752,1.65-1.427c0.33-0.332,0.731-0.685,1.095-1.115c0.379-0.421,0.775-0.889,1.208-1.387
			c0.812-1.023,1.716-2.201,2.603-3.54c0.464-0.661,0.892-1.375,1.353-2.108c0.465-0.731,0.904-1.507,1.358-2.303
			c0.463-0.793,0.901-1.625,1.348-2.475c0.46-0.845,0.888-1.726,1.326-2.619c0.449-0.89,0.872-1.809,1.294-2.738
			c0.212-0.465,0.427-0.934,0.642-1.403c0.204-0.475,0.408-0.95,0.613-1.429c0.835-1.909,1.607-3.875,2.378-5.838
			c0.748-1.972,1.484-3.943,2.165-5.896c0.172-0.487,0.343-0.973,0.513-1.455c0.166-0.477,0.324-0.996,0.498-1.396
			c0.345-0.848,0.641-1.711,1.08-2.493c0.695-1.485,1.622-2.795,2.55-4.031c1.042-1.075,1.649-1.663,1.649-1.663
			s-0.094,0.001-0.265,0.017c0.034-0.039,0.067-0.079,0.101-0.117c0.144-0.145,0.286-0.288,0.427-0.43
			c0.282-0.288,0.56-0.57,0.833-0.848c0.291-0.262,0.576-0.518,0.855-0.769c1.116-1.018,2.246-1.85,3.261-2.583
			c1.032-0.706,1.961-1.307,2.752-1.763c0.786-0.467,1.423-0.814,1.865-1.039c0.439-0.226,0.682-0.342,0.682-0.342
			s-0.266,0.015-0.763,0.089c-0.492,0.083-1.228,0.188-2.135,0.431c-0.917,0.221-2.006,0.573-3.244,1.047
			c-0.61,0.252-1.259,0.532-1.931,0.856c-0.662,0.344-1.374,0.691-2.07,1.136c-1.436,0.826-2.861,1.946-4.299,3.236
			c-0.944,0.943-1.908,1.972-2.772,3.132c-2.74,1.355-6.13,3.605-9.805,7.344c-1.964,1.999-5.236,5.918-7.902,9.193
			c0.97-4.278,2.881-10.632,6.644-18.991c3.282-7.288,9.727-14.14,16.81-20.015c0.055,0.001,0.102,0.002,0.163,0.003
			c0.499-0.003,1.25,0.03,2.179-0.096c0.465-0.055,0.998-0.083,1.55-0.195c0.559-0.096,1.16-0.216,1.808-0.339
			c1.272-0.299,2.711-0.662,4.238-1.162c0.774-0.23,1.553-0.525,2.369-0.814c0.819-0.285,1.644-0.621,2.494-0.964
			c0.855-0.335,1.715-0.715,2.592-1.104c0.885-0.377,1.768-0.804,2.665-1.232c0.904-0.42,1.806-0.878,2.714-1.346
			c0.455-0.232,0.913-0.468,1.373-0.702c0.454-0.246,0.91-0.493,1.368-0.741c1.838-0.979,3.663-2.043,5.486-3.104
			c1.81-1.084,3.609-2.173,5.355-3.283c0.437-0.275,0.872-0.55,1.305-0.822c0.426-0.271,0.873-0.581,1.256-0.786
			c0.796-0.451,1.564-0.944,2.393-1.285c1.607-0.805,3.303-1.275,4.93-1.696c0.415-0.078,0.824-0.156,1.227-0.232
			c0.203-0.039,0.404-0.077,0.604-0.115c0.202-0.024,0.402-0.049,0.601-0.072c0.399-0.05,0.792-0.1,1.179-0.147
			c0.39-0.025,0.773-0.05,1.147-0.073c1.507-0.105,2.908-0.058,4.16-0.003c1.248,0.086,2.349,0.191,3.252,0.323
			c0.906,0.122,1.622,0.245,2.107,0.343c0.485,0.095,0.747,0.154,0.747,0.154s-0.217-0.153-0.653-0.403
			c-0.438-0.24-1.08-0.614-1.942-0.986c-0.856-0.396-1.93-0.795-3.194-1.191c-0.635-0.181-1.318-0.363-2.047-0.525
			c-0.732-0.142-1.505-0.311-2.327-0.394c-1.638-0.242-3.451-0.248-5.379-0.128c-1.913,0.224-3.969,0.552-5.971,1.339
			c-0.5,0.193-1.031,0.332-1.511,0.596c-0.49,0.242-0.984,0.486-1.481,0.731c-0.522,0.248-0.93,0.496-1.386,0.745
			c-0.444,0.255-0.891,0.511-1.339,0.768c-1.796,1.019-3.594,2.09-5.399,3.14c-3.58,2.131-7.16,4.26-10.517,6.257
			c-0.418,0.249-0.834,0.496-1.245,0.74c-0.415,0.235-0.824,0.473-1.227,0.713c-0.404,0.237-0.803,0.473-1.198,0.705
			c-0.396,0.226-0.789,0.449-1.176,0.669c-0.77,0.451-1.524,0.878-2.258,1.278c-0.73,0.411-1.437,0.812-2.124,1.167
			c-1.364,0.751-2.637,1.374-3.771,1.946c-0.573,0.264-1.11,0.513-1.607,0.741c-0.495,0.25-0.968,0.396-1.388,0.584
			c-0.424,0.163-0.8,0.35-1.137,0.453c-0.197,0.066-0.372,0.124-0.534,0.178c13.588-11.147,29.314-18.68,29.556-18.795l14.713-6.968
			l-15.906,3.467c-0.123,0.027-12.431,2.741-29.73,9.229c-7.039,2.639-12.822,5.283-17.061,7.397
			c4.347-4.777,11.315-11.227,21.111-16.754c19.274-10.876,38.895-11.721,44.449-11.721c0.693,0,1.075,0.015,1.096,0.015
			l10.599,0.439l-9.816-4.021c-0.329-0.135-8.19-3.303-20.477-3.859c-0.455-0.021-0.926-0.031-1.4-0.031
			c-5.432,0-11.372,1.339-16.341,2.85c4.414-3.15,9.994-6.676,15.761-9.16c0.292,0.178,0.598,0.36,0.931,0.554
			c0.846,0.45,1.819,0.942,2.905,1.396c1.084,0.46,2.276,0.909,3.549,1.321c0.635,0.219,1.294,0.408,1.966,0.604
			c0.671,0.207,1.365,0.377,2.067,0.557c0.702,0.189,1.421,0.349,2.148,0.507c0.363,0.08,0.729,0.161,1.097,0.243
			c0.368,0.07,0.739,0.142,1.111,0.213c1.487,0.299,3.004,0.53,4.519,0.765c1.518,0.208,3.032,0.41,4.525,0.563
			c0.373,0.041,0.744,0.08,1.113,0.12c0.362,0.036,0.765,0.062,1.056,0.113c0.63,0.095,1.265,0.151,1.869,0.315
			c1.232,0.241,2.378,0.701,3.476,1.158c0.525,0.275,1.07,0.498,1.555,0.801c0.25,0.142,0.495,0.281,0.735,0.418
			c0.234,0.152,0.463,0.302,0.688,0.448c0.91,0.583,1.701,1.209,2.407,1.774c0.69,0.582,1.293,1.113,1.771,1.575
			c0.968,0.915,1.49,1.507,1.49,1.507s-0.04-0.191-0.154-0.544c-0.12-0.346-0.284-0.87-0.575-1.496
			c-0.275-0.637-0.672-1.38-1.18-2.213c-0.527-0.817-1.167-1.728-1.996-2.627c-0.804-0.925-1.824-1.801-2.98-2.656
			c-1.195-0.79-2.532-1.587-4.062-2.09c-0.746-0.311-1.55-0.471-2.361-0.659c-0.426-0.105-0.76-0.153-1.132-0.226
			c-0.366-0.062-0.734-0.123-1.104-0.185c-1.475-0.257-2.977-0.472-4.471-0.703c-1.495-0.206-2.99-0.413-4.461-0.616
			c-1.468-0.19-2.913-0.379-4.311-0.561c-0.698-0.09-1.384-0.179-2.055-0.265c-0.674-0.077-1.329-0.172-1.966-0.257
			c-0.641-0.076-1.261-0.163-1.858-0.251c-0.601-0.08-1.184-0.157-1.735-0.249c-0.76-0.105-1.466-0.226-2.128-0.339
			c1.32-0.491,2.642-0.925,3.956-1.271c1.959-0.516,4.17-0.777,6.571-0.777c13.978,0,30.377,8.749,30.542,8.838l0.894,0.481
			l0.888-0.49c0.133-0.072,13.438-7.305,29.857-7.898c7.694-0.278,15.187,1.506,20.978,3.48c-2.939-0.175-6.216-0.278-9.574-0.217
			c-11.378,0.211-23.098,5.906-23.591,6.148l-10.676,5.244l11.768-1.731c0.095-0.014,9.551-1.39,19.048-1.39
			c4.627,0,8.505,0.322,11.526,0.958c5.327,1.122,11.072,3.646,15.651,5.997c-2.538-0.448-5.225-0.956-7.632-1.477
			c-2.922-0.632-6.879-0.952-11.76-0.952c-5.045,0-9.211,0.343-9.386,0.357l-3.433,0.286c1.024-0.435,1.951-0.901,2.757-1.331
			c0.839-0.488,1.556-0.915,2.11-1.343c0.57-0.386,0.965-0.779,1.238-1.022c0.271-0.248,0.407-0.387,0.407-0.387
			s-0.189,0.055-0.544,0.156c-0.346,0.11-0.846,0.264-1.5,0.406c-0.638,0.172-1.435,0.315-2.325,0.499
			c-0.908,0.152-1.916,0.337-3.032,0.493c-0.551,0.091-1.135,0.168-1.735,0.248c-0.597,0.088-1.218,0.175-1.858,0.251
			c-0.637,0.086-1.292,0.181-1.966,0.257c-0.672,0.087-1.357,0.175-2.056,0.265c-1.397,0.182-2.842,0.37-4.311,0.562
			c-1.471,0.203-2.966,0.409-4.461,0.616c-1.494,0.23-2.995,0.446-4.471,0.702c-0.37,0.063-0.738,0.124-1.104,0.185
			c-0.372,0.072-0.706,0.12-1.132,0.226c-0.812,0.188-1.615,0.35-2.362,0.66c-1.528,0.502-2.866,1.299-4.061,2.089
			c-1.155,0.856-2.176,1.731-2.98,2.656c-0.828,0.899-1.469,1.81-1.996,2.627c-0.508,0.834-0.905,1.576-1.18,2.213
			c-0.291,0.627-0.455,1.15-0.575,1.496c-0.114,0.353-0.154,0.544-0.154,0.544s0.522-0.591,1.49-1.507
			c0.478-0.461,1.081-0.992,1.771-1.574c0.707-0.566,1.497-1.192,2.407-1.774c0.226-0.147,0.454-0.297,0.688-0.449
			c0.241-0.137,0.486-0.276,0.736-0.418c0.483-0.303,1.029-0.524,1.554-0.801c1.097-0.457,2.242-0.917,3.475-1.158
			c0.604-0.164,1.239-0.221,1.869-0.315c0.292-0.052,0.695-0.077,1.057-0.112c0.369-0.04,0.741-0.08,1.113-0.12
			c1.493-0.154,3.007-0.356,4.525-0.564c1.514-0.234,3.032-0.466,4.519-0.765c0.372-0.071,0.742-0.143,1.111-0.213
			c0.367-0.081,0.733-0.162,1.097-0.242c0.727-0.159,1.445-0.318,2.148-0.508c0.702-0.179,1.396-0.35,2.066-0.557
			c0.394-0.114,0.781-0.229,1.164-0.346l7.676,1.74c0.262,0.06,26.313,6.023,39.534,13.762
			c10.468,6.127,16.628,14.849,19.936,21.024c-1.816-1.577-3.836-3.3-5.789-4.904c-5.934-4.875-20.192-10.017-20.797-10.233
			l-15.393-5.517l13.759,8.835c0.017,0.011,0.273,0.177,0.712,0.471c-0.689-0.35-1.412-0.723-2.166-1.138
			c-0.687-0.355-1.395-0.756-2.124-1.167c-0.733-0.4-1.488-0.827-2.258-1.278c-0.387-0.221-0.779-0.443-1.176-0.669
			c-0.395-0.232-0.794-0.468-1.198-0.706c-0.401-0.239-0.812-0.476-1.227-0.712c-0.411-0.244-0.826-0.491-1.245-0.74
			c-3.355-1.997-6.937-4.127-10.516-6.256c-1.806-1.051-3.604-2.122-5.4-3.141c-0.448-0.257-0.895-0.513-1.339-0.768
			c-0.456-0.249-0.863-0.498-1.386-0.745c-0.497-0.246-0.991-0.489-1.481-0.731c-0.479-0.263-1.011-0.401-1.511-0.596
			c-2.002-0.787-4.059-1.115-5.971-1.339c-1.929-0.119-3.741-0.114-5.38,0.128c-0.822,0.083-1.595,0.252-2.327,0.394
			c-0.729,0.161-1.412,0.345-2.048,0.525c-1.264,0.396-2.337,0.795-3.192,1.19c-0.863,0.373-1.505,0.747-1.942,0.987
			c-0.437,0.25-0.654,0.403-0.654,0.403s0.263-0.06,0.748-0.155c0.485-0.097,1.2-0.22,2.106-0.342
			c0.903-0.133,2.005-0.237,3.253-0.323c1.252-0.055,2.652-0.103,4.16,0.003c0.374,0.023,0.757,0.048,1.147,0.072
			c0.386,0.049,0.778,0.099,1.179,0.148c0.198,0.024,0.398,0.048,0.601,0.072c0.2,0.038,0.4,0.076,0.604,0.115
			c0.402,0.076,0.812,0.153,1.227,0.232c1.628,0.421,3.323,0.892,4.93,1.695c0.83,0.342,1.598,0.836,2.394,1.286
			c0.384,0.206,0.831,0.515,1.257,0.785c0.433,0.273,0.868,0.548,1.305,0.824c1.745,1.109,3.546,2.199,5.355,3.282
			c1.822,1.062,3.646,2.124,5.485,3.104c0.458,0.248,0.914,0.495,1.368,0.74c0.46,0.236,0.918,0.47,1.373,0.703
			c0.909,0.468,1.81,0.926,2.714,1.346c0.897,0.43,1.78,0.855,2.665,1.232c0.877,0.389,1.736,0.77,2.592,1.104
			c0.85,0.343,1.676,0.679,2.494,0.964c0.816,0.289,1.595,0.584,2.369,0.814c1.525,0.5,2.966,0.863,4.237,1.163
			c0.648,0.121,1.25,0.243,1.808,0.338c0.518,0.104,1.017,0.137,1.46,0.186c4.005,2.962,9.637,7.494,13.916,12.386
			c6.219,7.11,12.506,25.716,16.229,38.197c-0.112-0.162-0.231-0.329-0.347-0.493c-1.301-3.404-2.672-6.992-4.047-10.589
			c-0.765-1.943-1.511-3.899-2.287-5.813c-0.192-0.479-0.385-0.957-0.575-1.432c-0.203-0.479-0.368-0.926-0.624-1.444
			c-0.238-0.501-0.475-0.999-0.709-1.493c-0.213-0.504-0.544-0.942-0.815-1.404c-1.082-1.858-2.492-3.392-3.854-4.753
			c-1.438-1.29-2.863-2.41-4.299-3.236c-0.696-0.444-1.408-0.792-2.069-1.136c-0.673-0.324-1.322-0.604-1.933-0.856
			c-1.237-0.474-2.326-0.826-3.243-1.047c-0.908-0.243-1.644-0.348-2.136-0.431c-0.497-0.074-0.763-0.089-0.763-0.089
			s0.242,0.116,0.683,0.342c0.441,0.225,1.078,0.572,1.865,1.039c0.79,0.456,1.719,1.057,2.751,1.763
			c1.017,0.733,2.146,1.565,3.262,2.583c0.279,0.251,0.564,0.507,0.854,0.769c0.273,0.277,0.551,0.56,0.833,0.848
			c0.142,0.142,0.283,0.285,0.427,0.43c0.133,0.153,0.267,0.309,0.402,0.464c0.269,0.311,0.541,0.625,0.817,0.943
			c1.016,1.34,2.054,2.761,2.815,4.388c0.438,0.782,0.735,1.646,1.08,2.493c0.173,0.399,0.332,0.919,0.498,1.396
			c0.17,0.482,0.342,0.968,0.514,1.455c0.524,1.507,1.087,3.024,1.657,4.544c-3.113-2.78-5.629-4.428-5.806-4.542l-7.821-5.073
			l5.273,7.688c0.168,0.245,16.88,24.751,20.462,42.26C280.58,191.186,275.813,209.462,272.472,220.065z M191.084,217.813
			c3.922,1.023,7.368,2.656,9.871,4.06c-0.346,0.24-0.703,0.467-1.077,0.675c-3.128,1.737-13.586,7.36-24.197,7.396
			c-11.065,0.038-22.298-5.585-25.559-7.396c-0.374-0.208-0.732-0.435-1.078-0.675c2.503-1.403,5.949-3.036,9.871-4.06
			c6.712-1.751,13.714-1.53,16.084-1.53C177.37,216.283,184.372,216.063,191.084,217.813z"/>
	</g>
</g>
</svg>
