<?xml version="1.0" encoding="utf-8"?>
<!-- Generator: Adobe Illustrator 16.0.0, SVG Export Plug-In . SVG Version: 6.00 Build 0)  -->
<!DOCTYPE svg PUBLIC "-//W3C//DTD SVG 1.1//EN" "http://www.w3.org/Graphics/SVG/1.1/DTD/svg11.dtd">
<svg version="1.1" id="Layer_1" xmlns="http://www.w3.org/2000/svg" xmlns:xlink="http://www.w3.org/1999/xlink" x="0px" y="0px"
	 width="350px" height="350px" viewBox="0 0 350 350" enable-background="new 0 0 350 350" xml:space="preserve">
<g>
	<path fill="none" d="M176.252,206.688c0,0-2.504-2.958-4.324-4.779c-0.35-0.349-0.69-0.706-1.014-1.056
		c-4.78-1.329-12.11-3.432-14.966-4.606c-4.392-1.81-7.75-3.747-11.625-2.972c-3.875,0.775-10.462,7.621-13.303,9.946
		c-1.017,0.831-2.381,1.911-3.714,2.956c-0.268,2.084-0.094,5.174,2.065,8.476c3.869,5.918,7.737,5.235,8.647,11.379
		s0.455,10.014,0.455,10.014s5.007-3.87,6.145-8.876c1.138-5.007,2.731-9.103,2.731-9.103s2.958,0.227,4.779,4.778
		s5.007,8.647,8.192,9.33s7.965-0.455,7.965-0.455s-7.965-4.778-9.33-8.419c-1.365-3.642,0.683-9.331,0.683-9.331
		s1.593,4.779,5.462,6.601c3.868,1.82,10.468,1.82,10.468,1.82s-6.6-3.868-7.737-6.827S176.252,206.688,176.252,206.688z"/>
	<path fill="none" d="M210.672,169.083c0,0-0.172-12.63-3.244-20.311c-3.07-7.68-7.68-14.849-7.68-14.849l2.049-1.024l-1.707-4.096
		c0,0,2.047,0.171,3.412,0.854c1.367,0.683,4.779,2.219,4.779,2.219s-1.365-2.56-2.559-3.243c-1.195-0.683-4.439-2.902-4.439-2.902
		s2.391-0.284,4.324,0.398s3.643,0.91,3.643,0.91s-1.936-2.958-3.643-3.982s-3.754-2.617-3.754-2.617s1.594-0.683,2.73-0.569
		c1.139,0.114,3.299,0,3.299,0s-4.096-5.689-6.029-7.396c-1.936-1.707-3.982-2.39-4.666-3.528
		c-0.682-1.138-7.055-16.043-9.215-18.547c-2.162-2.503-4.324,0.569-4.324,0.569l0.227-4.438c0,0-0.227-1.251-1.934-2.048
		c-1.707-0.797-5.234,4.551-5.234,4.551s-1.251-2.389-0.796-3.641c0.455-1.251,0.796-2.275,0.796-2.275s-2.048-0.569-8.193,1.365
		s-12.402,2.845-14.905,7.737c-2.504,4.893-8.079,22.643-8.079,22.643s-3.983,1.365-5.689-2.276
		c-1.707-3.641-3.072-18.774-5.803-19.457c-2.73-0.683-9.558,2.048-11.265,4.096c-1.707,2.048-3.755,10.924-6.485,13.995
		c-2.731,3.072-7.51,10.924-7.51,12.29c0,1.365,1.707,10.922,0.683,14.678c-1.024,3.755-2.731,15.02-2.731,16.726
		s2.731,2.731,2.731,5.12c0,2.39,0.341,8.534,1.707,11.265c1.366,2.731,8.192,7.509,9.558,12.288
		c1.366,4.779,3.414,15.702,5.803,16.044c0.759,0.108,1.184,0.539,1.412,1.075c1.794-1.021,3.719-2.309,5.277-3.818
		c4.133-4.003,7.62-6.975,8.008-8.524c0.387-1.55,0-8.136-2.067-11.106c-2.066-2.972-4.521-3.488-5.037-4.65
		c-0.517-1.163,0.646-3.359-0.775-4.134s-4.262,1.68-6.07,0.905c-1.808-0.775-5.554-3.488-5.812-5.942
		c-0.259-2.454,2.066-1.291,2.066-1.291s-1.421-4.779,2.325-5.038c3.746-0.258,7.362,1.808,9.17,1.163
		c1.809-0.646,4.392-4.134,8.138-3.358c3.745,0.775,7.75,5.295,9.557,4.779c1.809-0.517,6.329-6.329,8.138-4.908
		c1.809,1.42,2.454,5.424-1.421,8.395s-13.175,3.746-14.466,6.587c-1.292,2.842-3.746,5.683-2.841,10.591
		c0.904,4.908,1.034,6.586,8.524,9.557c5.204,2.064,15.892,5.063,21.934,6.701c1.757-0.844,3.751-2.131,5.257-4.039
		c3.414-4.323,5.463-15.474,9.33-15.019c3.869,0.454,5.008,10.922,5.008,10.922s3.414-3.867,6.6-6.599
		c3.186-2.73,2.957-6.144,2.047-7.964s-1.592-3.812-1.592-3.812l3.584,3.413l1.537,2.902c0,0,2.559-3.243,2.9-4.096
		c0.342-0.854-0.342-2.219-1.535-4.267c-1.195-2.048-3.414-4.097-3.414-4.097s3.584,0.854,4.779,2.219
		C208.281,167.546,210.672,169.083,210.672,169.083z M117.072,159.822c0,0,0.258-6.586,2.066-10.461s4.327-6.587,6.329-11.754
		c2.002-5.166,1.679-12.787,1.679-12.787s-1.938,0.258-4.262-0.517s-2.971-2.842-4.262-2.971c-1.292-0.129-4.65,1.292-4.65,1.292
		s3.617-5.425,8.396-6.07s6.199-0.129,6.587,4.649c0.388,4.779,0.453,10.269-1.808,15.887c-2.261,5.619-6.135,9.493-7.75,13.562
		C117.782,154.721,117.072,159.822,117.072,159.822z M125.208,148.973c-2.195,4.004-3.875,9.171-5.424,8.654
		c-1.55-0.516,1.938-6.2,5.166-11.237c3.229-5.037,9.17-10.72,9.17-10.72S127.404,144.969,125.208,148.973z M156.594,145.098
		c-1.162,0.388-1.291-3.229-2.195-5.683s-2.454-4.004-2.454-4.004s3.1,1.55,4.004,3.487
		C156.853,140.836,157.756,144.711,156.594,145.098z M183.848,117.071c-5.684,1.937-5.813,2.066-7.492,2.325
		c-1.678,0.258-8.783,8.912-9.557,8.137c-0.414-0.414,1.277-1.92,2.454-4.392c1.025-2.154,1.474-5.213,2.196-6.716
		c1.549-3.229,3.745-6.458,8.135-6.974c4.393-0.517,11.883,3.616,11.883,3.616S189.529,115.133,183.848,117.071z"/>
	<path fill="#3C3C3B" d="M265.799,139.897c-5.803-6.827-9.215-11.605-9.215-11.605s1.023-1.707,3.754-0.683
		c2.73,1.024,6.486-0.341,6.486-0.341s-6.486-6.145-10.924-8.875c-4.438-2.731-10.582-6.145-10.582-6.145s1.707-12.971,0.342-18.888
		c-1.365-5.917-5.689-16.84-5.689-16.84s-4.551,0.91-6.373,1.82c-1.818,0.91-4.096,2.958-4.096,2.958s-2.047-2.048-4.322-3.186
		c-2.277-1.138-4.779-2.275-4.779-2.275s2.502-2.276,3.869-2.731c1.365-0.456,5.006-2.048,5.006-2.048s-7.281-3.186-13.199-5.006
		c-5.918-1.821-9.33-4.552-9.104-5.917c0.229-1.365,2.73-8.192,2.73-8.192s-4.777-2.503-13.426-0.683
		c-8.646,1.82-19.57,5.689-19.57,5.689s0.229-5.006,1.594-7.055c1.365-2.048,6.371-7.51,6.371-7.51s-12.744,3.414-16.157,5.689
		c-3.414,2.275-7.056,6.372-7.056,6.372s-2.958-2.731-7.054-5.007c-4.097-2.275-13.427-7.282-13.427-7.282s3.414,6.372,4.096,8.875
		c0.683,2.503-0.455,8.648-0.455,8.648s-11.606-10.924-30.039-7.168c-18.434,3.755-31.746,27.308-31.746,27.308
		s5.803-4.779,8.875-6.827c3.072-2.048,10.24-5.803,10.24-5.803S91.71,78.795,89.662,83.233c-2.048,4.437-3.755,16.385-3.755,16.385
		s5.803-8.534,9.558-10.924c3.754-2.389,6.827-6.826,6.827-6.826s-3.072,11.947-7.51,16.384s-12.63,13.996-13.996,17.409
		s-2.048,9.558-2.048,9.558s2.731-4.438,7.169-6.486c4.438-2.048,8.534-3.072,8.534-3.072s-11.947,10.923-15.703,22.529
		c-3.755,11.606-6.144,27.649-6.144,27.649s2.389-4.779,5.802-6.827c3.414-2.048,8.534-4.096,8.534-4.096s-5.803,7.51-9.558,14.678
		c-3.754,7.169-9.899,30.722-9.899,30.722s3.072-4.438,5.803-6.145c2.73-1.707,8.534-4.778,8.534-4.778s-9.216,21.505-6.486,36.524
		c2.731,15.019,11.948,39.597,11.948,39.597s-2.048-11.265-0.683-17.067s4.779-15.361,4.779-15.361s3.755,19.116,8.875,26.625
		c5.121,7.51,18.774,21.505,18.774,21.505s-3.413-11.264-3.413-17.066c0-5.804,2.389-11.947,2.389-11.947
		s6.485,17.067,17.068,24.918c10.582,7.852,15.702,16.044,16.727,19.799c1.023,3.755,2.389,10.924,2.389,10.924
		s4.097-13.313,2.048-19.8c-2.048-6.485-4.437-21.163-4.437-21.163s1.364,4.438,15.36,9.217c13.996,4.778,30.039,5.461,30.039,5.461
		s-17.75-8.875-20.139-12.971c-2.39-4.097-6.145-9.559-6.145-9.559s17.069-4.096,24.237,0c7.168,4.097,15.018,16.386,15.018,16.386
		s-0.682-17.068-2.389-19.799s-3.412-7.51-3.412-7.51s13.313,2.731,18.773,10.582s10.924,17.751,10.924,17.751
		s2.73-16.728,1.023-27.991c-1.707-11.265-2.73-18.093-2.73-18.093s13.652,1.366,19.457,6.828
		c5.803,5.462,11.264,11.265,11.264,11.265s-2.73-19.116-6.145-24.577c-3.414-5.462-5.803-18.774-5.803-18.774
		s8.193,2.73,10.582,4.778c2.391,2.048,6.145,7.852,6.145,7.852s5.121-10.924,2.047-33.111c-3.07-22.188-5.119-27.65-5.119-27.65
		s7.51,3.755,10.924,7.51c3.412,3.755,6.826,7.851,6.826,7.851S271.602,146.724,265.799,139.897z M167.832,215.563
		c1.138,2.959,7.737,6.827,7.737,6.827s-6.6,0-10.468-1.82c-3.869-1.821-5.462-6.601-5.462-6.601s-2.048,5.689-0.683,9.331
		c1.365,3.641,9.33,8.419,9.33,8.419s-4.779,1.138-7.965,0.455s-6.372-4.778-8.192-9.33s-4.779-4.778-4.779-4.778
		s-1.593,4.096-2.731,9.103c-1.138,5.006-6.145,8.876-6.145,8.876s0.455-3.87-0.455-10.014s-4.779-5.461-8.647-11.379
		c-2.159-3.302-2.333-6.392-2.065-8.476c1.333-1.045,2.697-2.125,3.714-2.956c2.841-2.325,9.429-9.171,13.303-9.946
		c3.875-0.775,7.233,1.162,11.625,2.972c2.855,1.175,10.186,3.277,14.966,4.606c0.323,0.35,0.664,0.707,1.014,1.056
		c1.819,1.821,4.324,4.779,4.324,4.779S166.694,212.604,167.832,215.563z M205.723,168.059c1.193,2.048,1.877,3.413,1.535,4.267
		c-0.342,0.853-2.9,4.096-2.9,4.096l-1.537-2.902l-3.584-3.413c0,0,0.682,1.991,1.592,3.812s1.139,5.234-2.047,7.964
		c-3.186,2.731-6.6,6.599-6.6,6.599s-1.139-10.468-5.008-10.922c-3.867-0.455-5.916,10.695-9.33,15.019
		c-1.506,1.908-3.5,3.195-5.257,4.039c-6.042-1.639-16.729-4.637-21.934-6.701c-7.491-2.971-7.62-4.648-8.524-9.557
		c-0.904-4.909,1.55-7.75,2.841-10.591c1.292-2.841,10.591-3.617,14.466-6.587s3.229-6.975,1.421-8.395
		c-1.809-1.421-6.329,4.391-8.138,4.908c-1.808,0.517-5.812-4.004-9.557-4.779c-3.746-0.775-6.329,2.712-8.138,3.358
		c-1.808,0.646-5.424-1.421-9.17-1.163c-3.746,0.258-2.325,5.038-2.325,5.038s-2.325-1.163-2.066,1.291
		c0.258,2.454,4.004,5.167,5.812,5.942c1.808,0.775,4.649-1.68,6.07-0.905s0.258,2.971,0.775,4.134
		c0.517,1.162,2.971,1.678,5.037,4.65c2.066,2.971,2.454,9.557,2.067,11.106c-0.388,1.55-3.875,4.521-8.008,8.524
		c-1.558,1.51-3.483,2.798-5.277,3.818c-0.228-0.536-0.652-0.967-1.412-1.075c-2.39-0.342-4.438-11.265-5.803-16.044
		c-1.365-4.779-8.192-9.557-9.558-12.288c-1.365-2.731-1.707-8.875-1.707-11.265c0-2.389-2.731-3.414-2.731-5.12
		s1.707-12.971,2.731-16.726c1.024-3.755-0.683-13.313-0.683-14.678c0-1.366,4.779-9.217,7.51-12.29
		c2.73-3.071,4.778-11.947,6.485-13.995c1.707-2.048,8.534-4.779,11.265-4.096c2.731,0.683,4.096,15.816,5.803,19.457
		c1.707,3.641,5.689,2.276,5.689,2.276s5.575-17.75,8.079-22.643c2.503-4.893,8.761-5.803,14.905-7.737s8.193-1.365,8.193-1.365
		s-0.342,1.024-0.796,2.275c-0.455,1.252,0.796,3.641,0.796,3.641s3.527-5.348,5.234-4.551c1.707,0.796,1.934,2.048,1.934,2.048
		l-0.227,4.438c0,0,2.162-3.072,4.324-0.569c2.16,2.503,8.533,17.409,9.215,18.547c0.684,1.138,2.73,1.821,4.666,3.528
		c1.934,1.707,6.029,7.396,6.029,7.396s-2.16,0.114-3.299,0c-1.137-0.114-2.73,0.569-2.73,0.569s2.047,1.593,3.754,2.617
		s3.643,3.982,3.643,3.982s-1.709-0.228-3.643-0.91s-4.324-0.398-4.324-0.398s3.244,2.219,4.439,2.902
		c1.193,0.683,2.559,3.243,2.559,3.243s-3.412-1.536-4.779-2.219c-1.365-0.683-3.412-0.854-3.412-0.854l1.707,4.096l-2.049,1.024
		c0,0,4.609,7.169,7.68,14.849c3.072,7.68,3.244,20.311,3.244,20.311s-2.391-1.537-3.584-2.902
		c-1.195-1.365-4.779-2.219-4.779-2.219S204.527,166.011,205.723,168.059z"/>
	<path fill="#3C3C3B" d="M128.954,121.204c-0.388-4.779-1.808-5.295-6.587-4.649s-8.396,6.07-8.396,6.07s3.358-1.421,4.65-1.292
		c1.292,0.129,1.938,2.196,4.262,2.971s4.262,0.517,4.262,0.517s0.323,7.621-1.679,12.787c-2.002,5.167-4.521,7.879-6.329,11.754
		s-2.066,10.461-2.066,10.461s0.71-5.102,2.325-9.17c1.614-4.069,5.489-7.943,7.75-13.562
		C129.407,131.472,129.342,125.983,128.954,121.204z"/>
	<path fill="#3C3C3B" d="M179.584,109.451c-4.39,0.516-6.586,3.746-8.135,6.974c-0.723,1.503-1.171,4.563-2.196,6.716
		c-1.177,2.472-2.868,3.978-2.454,4.392c0.774,0.775,7.879-7.878,9.557-8.137c1.68-0.259,1.809-0.388,7.492-2.325
		c5.682-1.938,7.619-4.004,7.619-4.004S183.977,108.934,179.584,109.451z"/>
	<path fill="#3C3C3B" d="M124.95,146.39c-3.229,5.037-6.716,10.721-5.166,11.237c1.549,0.517,3.229-4.649,5.424-8.654
		c2.195-4.004,8.912-13.303,8.912-13.303S128.18,141.353,124.95,146.39z"/>
	<path fill="#3C3C3B" d="M151.945,135.411c0,0,1.55,1.55,2.454,4.004s1.033,6.07,2.195,5.683c1.162-0.387,0.259-4.262-0.646-6.2
		C155.044,136.961,151.945,135.411,151.945,135.411z"/>
</g>
</svg>
