<?xml version="1.0" encoding="utf-8"?>
<!-- Generator: Adobe Illustrator 16.0.0, SVG Export Plug-In . SVG Version: 6.00 Build 0)  -->
<!DOCTYPE svg PUBLIC "-//W3C//DTD SVG 1.1//EN" "http://www.w3.org/Graphics/SVG/1.1/DTD/svg11.dtd">
<svg version="1.1" id="Layer_1" xmlns="http://www.w3.org/2000/svg" xmlns:xlink="http://www.w3.org/1999/xlink" x="0px" y="0px"
	 width="350px" height="350px" viewBox="0 0 350 350" enable-background="new 0 0 350 350" xml:space="preserve">
<g>
	<path d="M149.435,149.937c-11.31,7.023-34.247,17.157-39.803,5.811c-7.04-14.35,10.104-25.797,20.992-35.811
		c10.891-9.999,14.666-17.334,16.678-26.272c2.007-8.93-3.728-14.762-6.876-19.18c-3.145-4.425-8.873-3.437-10.875,0
		c-2.002,3.437-3.723,8.877,0,10.297c3.729,1.435,4.296,8.018,2.088,11.794c-2.192,3.781-11.823,15.12-23.706,24.269
		c-11.882,9.14-20.18,32.366-8.854,44.83c10.211,11.217,28.615,13.943,47.861,5.141c0.32-2.075,0.734-4.161,1.156-6.211
		c0.724-3.517,1.414-6.846,1.497-9.931C149.628,153.306,149.539,151.655,149.435,149.937z"/>
	<path d="M257.506,170.12c-0.011-7.911-5.543-21.198-11.511-32.997c-0.177,0.446-0.294,0.92-0.522,1.353
		c-1.769,3.465-4.677,5.677-6.923,6.969c4.007,4.303,11.775,13.687,12.132,22.083c0.279,6.38-4.101,10.645-8.344,14.763
		c-3.5,3.411-6.806,6.637-7.265,10.784c-0.716,6.576-7.972,11.643-14.993,16.527c-5.4,3.749-10.977,7.634-12.659,11.604
		l-2.129,5.049l-2.099-5.057c-1.602-3.89-6.522-7.123-11.731-10.544c-7.105-4.671-14.452-9.503-15.885-17.41
		c-1.005-5.553-4.541-8.896-7.954-12.124c-3.765-3.552-7.657-7.232-7.675-13.457c-0.031-8.559,7.834-17.849,11.997-22.178
		c-2.168-1.191-4.884-3.206-6.621-6.427c-2.06-3.79-2.291-8.262-0.695-13.33c0.302-0.973,1.419-3.261,5.048-3.261
		c4.767,0,12.406,4.107,15.444,5.867c1.63-0.846,4.634-1.997,9.031-1.997c3.521,0,7.267,0.738,11.17,2.207
		c3.649-1.353,7.253-2.037,10.752-2.037c4.546,0,7.821,1.178,9.472,1.929c2.489-1.164,8.501-3.83,13.112-4.852
		c-3.099-5.337-5.643-9.275-6.642-10.413c-3.494-3.998-7.101-9.464-8.277-16.434c-1.185-6.975-18.019-9.059-25.887-9.059
		s-11.308-2.016-14.741,2.572c-3.437,4.58-14.598,10.304-25.064,24.376c-10.456,14.053-5.874,30.647-6.145,40.14
		c-0.279,9.486-5.772,20.718-1.721,30.357c4.054,9.644,22.331,25.082,22.331,25.082l-0.222,7.024c0,0-7.678-1.057-11.515-0.437
		c-3.838,0.63-9.443,10.313-2.078,12.304c7.373,1.994,26.126,0.945,26.126,0.945l1.617,10.922c0,0-7.418-1.695-12.495-1.268
		c-5.08,0.427-10.953,8.193-5.73,11.442c5.223,3.268,12.312,10.323,12.312,10.323s-4.304,5.704-2.872,9.175
		c1.442,3.471,5.449,9.984,17.605,9.606c12.158-0.388,21.852-1.419,24.708-1.611c2.855-0.188,5.17-12.541,2.559-14.03
		c-2.611-1.481-6.784,1.148-8.227-2.569c-1.442-3.724,27.936-37.95,32.138-43.642c4.179-5.683,2.664-22.474,2.664-22.474
		S257.534,185.848,257.506,170.12z"/>
	<g>
		<path d="M205.352,181.635c4.02-0.102,9.5-2.843,10.563-0.575c1.055,2.273-8.984,4.054-10.597,8.99
			c-1.608-4.937-10.898-6.678-10.604-8.99C195.021,178.761,201.332,181.729,205.352,181.635z"/>
		<path d="M178.382,154.755c0,0,4.954,0,11.057,0c6.098,0,8.396,1.907,8.396,4.274c0,2.362-1.258,4.263-5.304,4.263
			C186.429,163.306,178.382,154.755,178.382,154.755z"/>
		<path d="M222.436,195.335c-2.004,1.307-4.66,0.864-8.675,0.398c-2.314-0.278-4.751,2.646-8.104,2.666
			c-2.731,0.013-5.293-2.924-7.191-2.604c-4.473,0.742-7.097,1.697-10.06-0.266c-4.226-2.778-4.59-5.027-1.37-11.469
			c-0.812,4.926-0.763,8.717,2.802,9.758c3.572,1.047,10.677-0.635,15.397-0.596c4.238,0.028,11.164,1.471,14.879,0.305
			c4.583-1.427,5.358-5.812,3.325-9.467C227.481,191.729,225.594,193.283,222.436,195.335z"/>
		<path d="M218.099,163.306c-4.049,0-5.301-1.908-5.301-4.277c0-2.353,2.296-4.269,8.391-4.269c6.101,0,11.053,0,11.053,0
			S224.19,163.306,218.099,163.306z"/>
	</g>
</g>
</svg>
