<?xml version="1.0" encoding="utf-8"?>
<!-- Generator: Adobe Illustrator 16.0.0, SVG Export Plug-In . SVG Version: 6.00 Build 0)  -->
<!DOCTYPE svg PUBLIC "-//W3C//DTD SVG 1.1//EN" "http://www.w3.org/Graphics/SVG/1.1/DTD/svg11.dtd">
<svg version="1.1" id="Layer_1" xmlns="http://www.w3.org/2000/svg" xmlns:xlink="http://www.w3.org/1999/xlink" x="0px" y="0px"
	 width="350px" height="350px" viewBox="0 0 350 350" enable-background="new 0 0 350 350" xml:space="preserve">
<g>
	<rect x="134.194" y="115.958" fill-rule="evenodd" clip-rule="evenodd" fill="#C5D0D9" width="164.105" height="108.694"/>
	<rect x="139.475" y="120.531" fill-rule="evenodd" clip-rule="evenodd" fill="#FFFFFF" width="153.545" height="99.55"/>
	<rect x="168.293" y="242.713" fill-rule="evenodd" clip-rule="evenodd" fill="#C5D0D9" width="95.908" height="9.06"/>
	<g>
		<path fill-rule="evenodd" clip-rule="evenodd" fill="#4C6173" d="M258.35,171.49c5.158-1.231,12.346-4.152,13.285,0.021
			c1.113,4.96,2.488,16.724,3.93,28.15c0.313,2.463-2.844,3.74-3.631,3.977c-3.516,1.063-6.533,1.395-10.422,1.919l-3.174-34.045
			C258.336,171.502,258.344,171.491,258.35,171.49z"/>
		<path fill-rule="evenodd" clip-rule="evenodd" fill="#4C6173" d="M242.682,171.49c-6.516-1.555-11.693-5.18-12.832-0.063
			c-1.189,5.357-2.494,17.096-3.871,28.057c-0.352,2.811,2.572,4.018,3.52,4.262c3.375,0.875,6.281,1.308,10.023,1.811l3.174-34.045
			C242.697,171.502,242.688,171.49,242.682,171.49z"/>
		<path fill-rule="evenodd" clip-rule="evenodd" fill="#27557D" d="M237.604,204.891l-0.17,0.399
			c8.027,1.017,17.902,1.035,25.953,0.055c-0.074-0.163-0.146-0.313-0.217-0.454H237.604z"/>
		<path fill-rule="evenodd" clip-rule="evenodd" fill="#688096" d="M234.379,204.809c1.781-5.134-2.283-29.168-4.529-33.589
			c1.275-4.538,13.164-5.541,16.33-8.12c1.5,1.321,2.568,1.621,4.271,1.621c1.701,0,2.828-0.344,4.326-1.665
			c2.344,1.908,14.613,3.396,16.711,7.935c-2.387,5.063-6.77,29.176-4.873,33.796C258.623,206.358,242.602,206.47,234.379,204.809z"
			/>
		<polygon fill-rule="evenodd" clip-rule="evenodd" fill="#FFFFFF" points="242.434,165.279 242.055,175.383 250.512,196.851 
			258.848,175.383 258.33,165.002 254.779,163.055 246.18,163.1 		"/>
		<rect x="246.18" y="159.57" fill-rule="evenodd" clip-rule="evenodd" fill="#D1A886" width="8.447" height="8.749"/>
		<path fill-rule="evenodd" clip-rule="evenodd" fill="#FCB024" d="M251.854,173.729l0.588-1.245l-1.99-4.821l-1.957,4.745
			l0.625,1.321C250.029,173.729,250.941,173.729,251.854,173.729z"/>
		<polygon fill-rule="evenodd" clip-rule="evenodd" fill="#CCCCCC" points="246.178,163.1 250.451,167.663 247.41,175.798 
			243.652,164.776 		"/>
		<polygon fill-rule="evenodd" clip-rule="evenodd" fill="#CCCCCC" points="254.779,163.056 250.451,167.663 253.492,175.798 
			257.305,164.733 		"/>
		<polygon fill-rule="evenodd" clip-rule="evenodd" fill="#FCB024" points="249.119,176.755 251.854,176.755 253.273,190.453 
			250.451,196.965 247.736,190.453 		"/>
		<polygon fill-rule="evenodd" clip-rule="evenodd" fill="#FFFFFF" points="246.18,163.1 250.451,167.663 247.344,173.786 
			243.652,164.775 		"/>
		<polygon fill-rule="evenodd" clip-rule="evenodd" fill="#3F73A1" points="243.678,164.556 250.451,196.965 240.385,177.766 
			242.055,175.383 238.836,172.877 241.902,165.532 		"/>
		<polygon fill-rule="evenodd" clip-rule="evenodd" fill="#27557D" points="257.389,164.487 250.451,196.965 261.602,179.185 
			260.135,176.081 263.32,173.544 259.904,165.649 		"/>
		<polygon fill-rule="evenodd" clip-rule="evenodd" fill="#3F73A1" points="257.389,164.487 250.451,196.965 260.52,177.766 
			258.848,175.383 262.066,172.877 259.904,165.649 		"/>
		<polygon fill-rule="evenodd" clip-rule="evenodd" fill="#FFFFFF" points="254.779,163.055 250.451,167.663 253.559,173.786 
			257.305,164.73 		"/>
		<path fill-rule="evenodd" clip-rule="evenodd" fill="#FCB024" d="M249.119,173.504h2.734c0.609,1.265,0.563,2.373,0,3.454h-2.734
			C248.557,175.876,248.508,174.769,249.119,173.504z"/>
		<path fill-rule="evenodd" clip-rule="evenodd" fill="#27557D" d="M250.066,206.064c0.072-2.378,0.252-5.207,0.541-9.447
			c0.291,4.243,0.484,7.069,0.572,9.447C250.809,206.067,250.438,206.067,250.066,206.064z"/>
		<polygon fill-rule="evenodd" clip-rule="evenodd" fill="#FFFFFF" points="241.154,165.54 242.205,175.224 250.617,196.582 
			258.912,175.224 259.961,165.54 255.949,162.958 245.17,162.958 		"/>
		<rect x="245.17" y="159.491" fill-rule="evenodd" clip-rule="evenodd" fill="#D1A886" width="10.686" height="8.706"/>
		<path fill-rule="evenodd" clip-rule="evenodd" fill="#F2CAA9" d="M250.559,164.616c4.213,0,8.111-4.815,10.166-10.714
			c0.121,0.124,0.256,0.203,0.406,0.226c0.836,0.14,1.797-1.434,2.145-3.514c0.344-2.082-0.053-3.882-0.893-4.02
			c-0.059-0.011-0.119-0.012-0.18-0.005c0.412-7.31-2.619-14.063-11.645-14.063c-9.033,0-12.061,6.764-11.643,14.081
			c-0.094-0.023-0.184-0.027-0.275-0.013c-0.836,0.138-1.238,1.938-0.891,4.02c0.344,2.081,1.305,3.654,2.143,3.514
			c0.18-0.03,0.338-0.134,0.473-0.3C242.414,159.76,246.328,164.616,250.559,164.616z"/>
		<path fill-rule="evenodd" clip-rule="evenodd" fill="#6E4D28" d="M262.205,146.588c0.41-7.31-2.621-14.063-11.646-14.063
			c-9.033,0-12.063,6.764-11.646,14.081c0.732,0.182,1.492,1.519,1.83,3.26c0.588,0.397,1.016,0.166,1.016-1.309
			c0-4.352,0.535-8.206,3.395-9.125c2.719-0.875,3.314,1.045,5.391,1.045c2.074,0,2.729-1.809,5.393-1.045
			c2.762,0.794,3.395,4.774,3.395,9.125c0,1.415,0.393,1.685,0.943,1.355C260.617,148.073,261.439,146.674,262.205,146.588z"/>
		<path fill-rule="evenodd" clip-rule="evenodd" fill="#93B9DB" d="M251.953,173.58l0.584-1.238l-1.979-4.798l-1.947,4.721
			l0.623,1.315C250.139,173.58,251.047,173.58,251.953,173.58z"/>
		<polygon fill-rule="evenodd" clip-rule="evenodd" fill="#CCCCCC" points="245.17,162.958 250.559,167.543 247.533,175.636 
			242.656,164.627 		"/>
		<polygon fill-rule="evenodd" clip-rule="evenodd" fill="#4C6173" points="242.656,164.627 250.559,196.696 239.465,179.005 
			240.922,175.92 237.756,173.395 241.154,165.54 		"/>
		<polygon fill-rule="evenodd" clip-rule="evenodd" fill="#CCCCCC" points="255.949,162.958 250.559,167.543 253.584,175.636 
			258.463,164.627 		"/>
		<polygon fill-rule="evenodd" clip-rule="evenodd" fill="#93B9DB" points="249.234,176.589 251.953,176.589 253.365,190.217 
			250.559,196.696 247.857,190.217 		"/>
		<path fill-rule="evenodd" clip-rule="evenodd" fill="#6E4D28" d="M258.684,137.283c-1.166,2.329-12.904,9.006-16.791,9.312
			C238.004,146.9,241.686,131.247,258.684,137.283z"/>
		<path fill-rule="evenodd" clip-rule="evenodd" fill="#6E4D28" d="M253.096,137.283c0.504,2.329,5.563,9.006,7.238,9.312
			S260.422,131.247,253.096,137.283z"/>
		<polygon fill-rule="evenodd" clip-rule="evenodd" fill="#FFFFFF" points="245.17,162.958 250.559,167.543 247.467,173.637 
			242.656,164.627 		"/>
		<polygon fill-rule="evenodd" clip-rule="evenodd" fill="#688096" points="242.656,164.627 250.559,196.696 240.543,177.597 
			242.205,175.224 239,172.732 241.154,165.54 		"/>
		<polygon fill-rule="evenodd" clip-rule="evenodd" fill="#4C6173" points="258.463,164.627 250.559,196.696 261.652,179.005 
			260.195,175.92 263.361,173.395 259.961,165.54 		"/>
		<polygon fill-rule="evenodd" clip-rule="evenodd" fill="#688096" points="258.463,164.627 250.559,196.696 260.574,177.597 
			258.912,175.224 262.115,172.732 259.961,165.54 		"/>
		<polygon fill-rule="evenodd" clip-rule="evenodd" fill="#FFFFFF" points="255.949,162.958 250.559,167.543 253.65,173.637 
			258.463,164.627 		"/>
		<path fill-rule="evenodd" clip-rule="evenodd" fill="#93B9DB" d="M249.234,173.354h2.719c0.607,1.26,0.561,2.361,0,3.436h-2.719
			C248.674,175.715,248.625,174.614,249.234,173.354z"/>
		<path fill-rule="evenodd" clip-rule="evenodd" fill="#4C6173" d="M249.875,206.064c0.447,0.003,0.893,0.003,1.338,0
			c0.162-2.299-0.33-8.431-0.668-9.444C250.205,197.433,249.713,203.643,249.875,206.064z"/>
	</g>
	<rect x="186.574" y="221.313" fill-rule="evenodd" clip-rule="evenodd" fill="#C5D0D9" width="59.346" height="21.513"/>
	<path fill-rule="evenodd" clip-rule="evenodd" fill="#27557D" d="M200.615,224.606c11.594-2.764,27.746-9.331,29.852,0.049
		c2.506,11.151,5.596,37.589,8.838,63.269c0.699,5.537-6.398,8.406-8.164,8.941c-7.898,2.389-14.682,3.135-23.426,4.314
		l-7.133-76.524C200.58,224.634,200.602,224.612,200.615,224.606z"/>
	<path fill-rule="evenodd" clip-rule="evenodd" fill="#27557D" d="M165.397,224.606c-14.647-3.492-26.287-11.641-28.843-0.142
		c-2.674,12.043-5.606,38.428-8.699,63.068c-0.793,6.311,5.78,9.023,7.909,9.578c7.582,1.967,14.118,2.932,22.53,4.068l7.132-76.524
		C165.431,224.634,165.406,224.609,165.397,224.606z"/>
	<path fill-rule="evenodd" clip-rule="evenodd" fill="#27557D" d="M153.983,299.684l-0.38,0.898
		c18.042,2.283,40.233,2.322,58.331,0.119c-0.168-0.365-0.33-0.705-0.488-1.018H153.983z"/>
	<rect x="173.26" y="197.815" fill-rule="evenodd" clip-rule="evenodd" fill="#D1A886" width="18.986" height="19.667"/>
	<path fill-rule="evenodd" clip-rule="evenodd" fill="#3F73A1" d="M146.733,299.5c4.002-11.541-5.13-65.565-10.179-75.502
		c2.87-10.198,29.01-9.165,36.121-14.96c1.536,1.351,17.768,1.274,19.327-0.098c5.264,4.286,33.424,4.343,38.141,14.544
		c-5.369,11.382-15.217,65.58-10.955,75.963C201.225,302.979,165.217,303.229,146.733,299.5z"/>
	<path fill-rule="evenodd" clip-rule="evenodd" fill="#D1A886" d="M170.986,197.639h24.018v12.367
		c-7.902,3.509-20.157,2.106-24.018,0.177V197.639z"/>
	<g>
		<path fill-rule="evenodd" clip-rule="evenodd" fill="#93B9DB" d="M205.668,155.505c4.672,0,8.854,2.104,11.65,5.416v19.669
			c-2.797,3.311-6.979,5.414-11.65,5.414c-8.424,0-15.25-6.828-15.25-15.25S197.244,155.505,205.668,155.505z"/>
		<path fill-rule="evenodd" clip-rule="evenodd" fill="#93B9DB" d="M160.442,155.505c8.422,0,15.249,6.828,15.249,15.249
			s-6.827,15.25-15.249,15.25c-4.673,0-8.855-2.104-11.651-5.414v-19.669C151.587,157.609,155.769,155.505,160.442,155.505z"/>
	</g>
	<path fill="#93B9DB" d="M155.515,161.729c0,1.273-1.032,2.305-2.305,2.305c-1.273,0-2.306-1.032-2.306-2.305
		c0-8.783,3.592-16.766,9.377-22.552c5.785-5.784,13.769-9.375,22.55-9.375c8.785,0,16.766,3.592,22.551,9.375
		c5.787,5.786,9.377,13.77,9.377,22.552c0,1.273-1.031,2.305-2.305,2.305s-2.305-1.032-2.305-2.305
		c0-7.509-3.074-14.338-8.027-19.292c-4.951-4.951-11.781-8.025-19.291-8.025c-7.508,0-14.337,3.074-19.288,8.025
		C158.59,147.391,155.515,154.22,155.515,161.729z"/>
	<path fill-rule="evenodd" clip-rule="evenodd" fill="#57291E" d="M183.1,209.157c23.189,0,36.852-42.214,20.801-62.129
		c-7.752-9.617-26.934-11.778-33.074-4.627C143.41,151.165,156.788,209.157,183.1,209.157z"/>
	<path fill-rule="evenodd" clip-rule="evenodd" fill="#27557D" d="M197.555,208.943c2.318,1.552,5.539,3.658,5.539,3.658
		c-9.523,9.868-33.468,6.784-40.423,0.467l5.682-4.283C174.023,212.359,186.438,216.603,197.555,208.943z"/>
	<path fill-rule="evenodd" clip-rule="evenodd" fill="#FFFFFF" d="M170.771,206.962c3.756,4.484,21.525,4.454,24.52,0.421
		c0.234,0.19,1.143,0.81,2.264,1.561c-11.117,7.659-23.531,3.416-29.202-0.158L170.771,206.962z"/>
	<g>
		<path fill-rule="evenodd" clip-rule="evenodd" fill="#E6EAED" d="M207.285,59.163c25.557,0,46.273,15.396,46.273,34.387
			c0,14.712-12.436,27.264-29.918,32.173l5.295,19.194l-15.553-17.279c-1.996,0.196-4.031,0.297-6.098,0.297
			c-25.557,0-46.275-15.394-46.275-34.386S181.729,59.163,207.285,59.163z"/>
		<g>
			<path fill="#2C3945" d="M182.035,80.581c-0.875,0-1.582-0.708-1.582-1.582c0-0.873,0.707-1.581,1.582-1.581h49.756
				c0.873,0,1.582,0.708,1.582,1.581c0,0.874-0.709,1.582-1.582,1.582H182.035z"/>
			<path fill="#2C3945" d="M182.035,90.012c-0.875,0-1.582-0.707-1.582-1.581s0.707-1.582,1.582-1.582h49.756
				c0.873,0,1.582,0.708,1.582,1.582s-0.709,1.581-1.582,1.581H182.035z"/>
			<path fill="#2C3945" d="M182.035,99.444c-0.875,0-1.582-0.708-1.582-1.581c0-0.874,0.707-1.582,1.582-1.582h49.756
				c0.873,0,1.582,0.708,1.582,1.582c0,0.873-0.709,1.581-1.582,1.581H182.035z"/>
			<path fill="#2C3945" d="M182.035,108.877c-0.875,0-1.582-0.708-1.582-1.582c0-0.873,0.707-1.581,1.582-1.581h49.756
				c0.873,0,1.582,0.708,1.582,1.581c0,0.874-0.709,1.582-1.582,1.582H182.035z"/>
		</g>
		<path fill="#C5D0D9" d="M207.285,57.581c13.119,0,25.023,3.97,33.658,10.387c8.77,6.518,14.195,15.56,14.195,25.583
			c0,7.666-3.178,14.763-8.602,20.597c-5.197,5.588-12.465,10.013-20.965,12.652l4.883,17.699c0.23,0.84-0.262,1.708-1.1,1.939
			c-0.596,0.165-1.205-0.035-1.592-0.464l-0.002,0.001l-15.023-16.693c-0.775,0.066-1.549,0.12-2.326,0.156
			c-1.096,0.054-2.139,0.082-3.127,0.082l0,0v-3.162l0,0c1.063,0,2.055-0.023,2.979-0.069c0.975-0.046,1.934-0.116,2.873-0.207
			c0.51-0.081,1.049,0.091,1.42,0.502l11.082,12.313l-3.498-12.682l-0.021-0.063c-0.234-0.838,0.256-1.711,1.096-1.946
			c8.586-2.412,15.9-6.71,21.012-12.208c4.887-5.256,7.75-11.614,7.75-18.447c0-8.971-4.934-17.122-12.912-23.049
			c-8.111-6.028-19.346-9.757-31.779-9.757l0,0V57.581L207.285,57.581z M207.285,129.518c-13.123,0-25.025-3.97-33.661-10.387
			c-8.771-6.519-14.196-15.56-14.196-25.581c0-10.022,5.425-19.065,14.196-25.583c8.636-6.417,20.538-10.387,33.661-10.387v3.163
			c-12.438,0-23.672,3.729-31.783,9.757c-7.978,5.928-12.912,14.079-12.912,23.049c0,8.969,4.934,17.12,12.912,23.048
			c8.111,6.028,19.345,9.757,31.783,9.757V129.518z"/>
	</g>
	<g>
		<path fill-rule="evenodd" clip-rule="evenodd" fill="#E6EAED" d="M114.542,49.752c33.56,0,60.767,20.216,60.767,45.155
			c0,19.319-16.33,35.802-39.288,42.25l6.953,25.203l-20.421-22.689c-2.62,0.255-5.294,0.391-8.01,0.391
			c-33.56,0-60.765-20.217-60.765-45.156C53.777,69.968,80.982,49.752,114.542,49.752z"/>
		<g>
			<path fill="#2C3945" d="M81.384,77.877c-1.147,0-2.077-0.93-2.077-2.077s0.93-2.078,2.077-2.078h65.339
				c1.147,0,2.077,0.931,2.077,2.078s-0.93,2.077-2.077,2.077H81.384z"/>
			<path fill="#2C3945" d="M81.384,90.263c-1.147,0-2.077-0.931-2.077-2.078c0-1.146,0.93-2.075,2.077-2.075h65.339
				c1.147,0,2.077,0.93,2.077,2.075c0,1.147-0.93,2.078-2.077,2.078H81.384z"/>
			<path fill="#2C3945" d="M81.384,102.648c-1.147,0-2.077-0.931-2.077-2.076c0-1.147,0.93-2.077,2.077-2.077h65.339
				c1.147,0,2.077,0.93,2.077,2.077c0,1.146-0.93,2.076-2.077,2.076H81.384z"/>
			<path fill="#2C3945" d="M81.384,115.034c-1.147,0-2.077-0.93-2.077-2.077s0.93-2.076,2.077-2.076h65.339
				c1.147,0,2.077,0.929,2.077,2.076s-0.93,2.077-2.077,2.077H81.384z"/>
		</g>
		<path fill="#C5D0D9" d="M114.542,47.676c17.23,0,32.86,5.211,44.201,13.639c11.517,8.559,18.643,20.432,18.643,33.593
			c0,10.067-4.175,19.386-11.297,27.046c-6.825,7.338-16.369,13.149-27.53,16.613l6.411,23.244c0.306,1.102-0.341,2.242-1.443,2.545
			c-0.781,0.217-1.582-0.046-2.09-0.61l-0.002,0.002l-19.729-21.921c-1.017,0.087-2.035,0.156-3.051,0.205
			c-1.439,0.071-2.811,0.106-4.11,0.106v-4.153c1.397,0,2.701-0.03,3.914-0.088c1.279-0.063,2.537-0.155,3.772-0.273
			c0.67-0.106,1.378,0.119,1.864,0.66l14.551,16.167L134.05,137.8l-0.026-0.082c-0.307-1.103,0.335-2.247,1.437-2.557
			c11.275-3.166,20.882-8.812,27.592-16.03c6.418-6.902,10.179-15.25,10.179-24.224c0-11.779-6.479-22.484-16.956-30.267
			c-10.651-7.916-25.404-12.813-41.734-12.813V47.676z M114.542,47.676L114.542,47.676v4.153l0,0
			c-16.329,0-31.082,4.896-41.733,12.813c-10.475,7.783-16.955,18.487-16.955,30.267c0,11.778,6.479,22.481,16.955,30.267
			c10.651,7.915,25.404,12.811,41.733,12.811l0,0v4.153l0,0c-17.23,0-32.859-5.213-44.2-13.639
			c-11.517-8.559-18.641-20.433-18.641-33.592c0-13.161,7.124-25.035,18.641-33.593C81.682,52.887,97.312,47.676,114.542,47.676z"/>
	</g>
</g>
</svg>
