<?xml version="1.0" encoding="utf-8"?>
<!-- Generator: Adobe Illustrator 16.0.0, SVG Export Plug-In . SVG Version: 6.00 Build 0)  -->
<!DOCTYPE svg PUBLIC "-//W3C//DTD SVG 1.1//EN" "http://www.w3.org/Graphics/SVG/1.1/DTD/svg11.dtd">
<svg version="1.1" id="Layer_1" xmlns="http://www.w3.org/2000/svg" xmlns:xlink="http://www.w3.org/1999/xlink" x="0px" y="0px"
	 width="350px" height="350px" viewBox="0 0 350 350" enable-background="new 0 0 350 350" xml:space="preserve">
<g>
	<ellipse fill="#C9CCCC" cx="175" cy="320.004" rx="74.122" ry="3.308"/>
	<g>
		<g>
			<path fill="#181818" d="M210.946,229.429c-9.918,6.247-22.012,9.932-35.075,9.932c-0.048,0-0.096-0.002-0.144-0.002
				c-0.177,0-0.353-0.008-0.529-0.01c-12.812-0.124-24.666-3.783-34.417-9.93c-0.034-0.208-0.057-0.422-0.089-0.628
				c-0.296,1.408-0.454,2.852-0.454,4.325c0,2.328,0.383,4.581,1.102,6.735c1.978,10.951,5.278,25.526,6.913,32.342
				c2.002,8.355,6.343,27.849,6.343,27.849h15.86l-1.102-49.891c2.078,0.288,4.216,0.447,6.404,0.447
				c2.188,0,4.327-0.159,6.404-0.447l-1.104,49.891h15.862c0,0,4.341-19.493,6.345-27.849c1.635-6.816,4.936-21.394,6.913-32.346
				c0.717-2.152,1.1-4.403,1.101-6.726c0-0.002,0.001-0.002,0.001-0.006h-0.001C211.281,231.863,211.161,230.635,210.946,229.429z"
				/>
			<rect x="152.915" y="300.042" fill="#0B0B0B" width="18.785" height="4.675"/>
			<rect x="179.549" y="300.042" fill="#0B0B0B" width="18.784" height="4.675"/>
			<g>
				<g>
					<path fill="#091211" d="M159.718,317.421v2.69h9.532v-3.756c-0.871,0.364-7.497,0.853-8.814,0.938
						C160.26,317.304,160.015,317.351,159.718,317.421z"/>
					<path fill="#091211" d="M152.25,312.822c0.171-0.179,0.171-0.47,0-0.651l-1.061-1.105c-0.24,0.188-0.479,0.374-0.713,0.556
						l1.15,1.201C151.797,313.002,152.077,313.002,152.25,312.822z"/>
					<path fill="#091211" d="M153.549,311.468c0.171-0.181,0.171-0.471,0-0.651l-0.89-0.929c-0.233,0.189-0.466,0.378-0.703,0.566
						l0.968,1.012C153.097,311.645,153.376,311.645,153.549,311.468z"/>
					<path fill="#091211" d="M154.848,310.112c0.171-0.179,0.171-0.472,0-0.651l-0.74-0.771c-0.223,0.187-0.454,0.382-0.695,0.579
						l0.81,0.844C154.395,310.292,154.675,310.292,154.848,310.112z"/>
					<path fill="#383537" d="M168.761,306.436v-1.719h-12.21v1.902c0,0-1.036,0.898-2.443,2.07l0.74,0.771
						c0.171,0.18,0.171,0.473,0,0.651c-0.173,0.18-0.453,0.18-0.625,0l-0.81-0.844c-0.246,0.203-0.498,0.41-0.755,0.619l0.89,0.929
						c0.171,0.181,0.171,0.471,0,0.651c-0.173,0.177-0.452,0.177-0.625-0.002l-0.968-1.012c-0.256,0.206-0.513,0.408-0.768,0.611
						l1.061,1.105c0.171,0.182,0.171,0.473,0,0.651c-0.173,0.18-0.452,0.18-0.624,0l-1.15-1.201
						c-0.594,0.46-1.169,0.888-1.691,1.256c-3.002,2.117-11.738,1.012-15.446,2.484c-3.707,1.473-3.089,5.887-1.765,5.98
						c1.324,0.092,18.625,0,20.035-0.829c1.238-0.727,6.001-2.581,8.11-3.092c0.297-0.07,0.542-0.117,0.717-0.127
						c1.318-0.086,7.943-0.574,8.814-0.938c0.062-0.026,0.101-0.05,0.101-0.074C169.35,310.657,169.099,309.784,168.761,306.436z"/>
				</g>
				<g>
					<path fill="#091211" d="M191.267,317.421v2.69h-9.532v-3.756c0.872,0.364,7.497,0.853,8.816,0.938
						C190.724,317.304,190.969,317.351,191.267,317.421z"/>
					<path fill="#091211" d="M198.734,312.822c-0.171-0.179-0.171-0.47,0-0.651l1.062-1.105c0.239,0.188,0.479,0.374,0.713,0.556
						l-1.149,1.201C199.187,313.002,198.907,313.002,198.734,312.822z"/>
					<path fill="#091211" d="M197.436,311.468c-0.171-0.181-0.171-0.471,0-0.651l0.892-0.929c0.232,0.189,0.466,0.378,0.703,0.566
						l-0.97,1.012C197.887,311.645,197.609,311.645,197.436,311.468z"/>
					<path fill="#091211" d="M196.136,310.112c-0.171-0.179-0.171-0.472,0-0.651l0.74-0.771c0.223,0.187,0.455,0.382,0.694,0.579
						l-0.809,0.844C196.59,310.292,196.309,310.292,196.136,310.112z"/>
					<path fill="#383537" d="M182.225,306.436v-1.719h12.208v1.902c0,0,1.037,0.898,2.443,2.07l-0.74,0.771
						c-0.171,0.18-0.171,0.473,0,0.651c0.173,0.18,0.454,0.18,0.626,0l0.809-0.844c0.247,0.203,0.498,0.41,0.757,0.619l-0.892,0.929
						c-0.171,0.181-0.171,0.471,0,0.651c0.174,0.177,0.451,0.177,0.625-0.002l0.97-1.012c0.254,0.206,0.51,0.408,0.766,0.611
						l-1.062,1.105c-0.171,0.182-0.171,0.473,0,0.651c0.173,0.18,0.452,0.18,0.625,0l1.149-1.201
						c0.595,0.46,1.171,0.888,1.691,1.256c3.002,2.117,11.739,1.012,15.447,2.484c3.705,1.473,3.09,5.887,1.764,5.98
						c-1.322,0.092-18.623,0-20.035-0.829c-1.236-0.727-6-2.581-8.109-3.092c-0.298-0.07-0.543-0.117-0.716-0.127
						c-1.319-0.086-7.944-0.574-8.816-0.938c-0.062-0.026-0.099-0.05-0.099-0.074C181.636,310.657,181.887,309.784,182.225,306.436z
						"/>
				</g>
			</g>
			<path fill="#383537" d="M205.083,256.256c-6.004,0-10.889-5.092-10.889-11.353c0-0.224,0.176-0.408,0.393-0.408
				c0.218,0,0.393,0.185,0.393,0.408c0,5.808,4.532,10.533,10.104,10.533c0.217,0,0.394,0.183,0.394,0.407
				C205.477,256.073,205.3,256.256,205.083,256.256z"/>
			<path fill="#383537" d="M147.063,256.256c-0.217,0-0.392-0.183-0.392-0.412c0-0.225,0.174-0.407,0.392-0.407
				c5.569,0,10.103-4.726,10.103-10.533c0-0.224,0.176-0.408,0.392-0.408c0.218,0,0.393,0.185,0.393,0.408
				C157.95,251.164,153.066,256.256,147.063,256.256z"/>
			<path fill="#0B0B0B" d="M211.018,229.951c-0.028-0.174-0.041-0.352-0.071-0.522c-9.918,6.247-22.012,9.932-35.075,9.932
				c-0.048,0-0.096-0.002-0.144-0.002c-0.177,0-0.353-0.008-0.529-0.01c-12.812-0.124-24.666-3.783-34.417-9.93
				c-0.034-0.208-0.057-0.422-0.089-0.628c-0.106,0.504-0.187,1.015-0.257,1.526c5.562,7.69,19.201,13.128,35.159,13.128
				C191.806,243.445,205.63,237.833,211.018,229.951z"/>
		</g>
		<polygon fill="#0B0B0B" points="210.771,169.894 210.769,169.886 210.769,169.889 		"/>
		<g>
			<polygon fill="#0B0B0B" points="210.771,169.871 210.769,169.886 210.776,169.884 			"/>
		</g>
		<path fill="none" d="M147.239,150.912c0.001,0.036,0.002,0.077,0.002,0.124C147.241,151.003,147.241,150.959,147.239,150.912z"/>
		<path fill="#0B0B0B" d="M147.237,150.865c0,0.022,0,0.028,0.002,0.047C147.237,150.887,147.237,150.865,147.237,150.865z"/>
		<path fill="#AEACAA" d="M175.198,239.36h0.529v-0.002c-0.177,0-0.353-0.008-0.529-0.01V239.36z"/>
		<polygon fill="#0B0B0B" points="147.004,161.33 146.105,162.373 151.336,168.371 151.706,167.86 		"/>
		<g>
			<radialGradient id="SVGID_1_" cx="171.4858" cy="198.5547" r="31.9222" gradientUnits="userSpaceOnUse">
				<stop  offset="0" style="stop-color:#FFFFFF"/>
				<stop  offset="0.7343" style="stop-color:#DDDDDD"/>
				<stop  offset="1" style="stop-color:#CFCFCF"/>
			</radialGradient>
			<path fill="url(#SVGID_1_)" d="M174.852,205.352l0.345-34.305l0.001-3.187c-0.651-0.175-3.541-0.947-4.166-1.126
				c-7.043-2.026-12.533-4.574-16.819-7.952c-0.92-0.724-1.786-1.489-2.6-2.294l-2.242,7.202l1.005,0.908
				c-6.808,11.839-11.042,28.368-11.042,46.67c0,6.302,0.512,12.387,1.447,18.151c9.751,6.146,21.605,9.806,34.417,9.93
				L174.852,205.352z"/>
			<path fill="#DBDBDB" d="M163.869,164.265c-3.756-1.547-6.948-3.35-9.656-5.483c-0.92-0.724-1.786-1.489-2.6-2.294l-2.242,7.202
				l1.005,0.908c-6.808,11.839-11.042,28.368-11.042,46.67c0,5.883,0.461,11.567,1.281,16.989
				c6.249-8.04,12.884-20.921,17.012-34.295C159.182,188.821,163.392,171.643,163.869,164.265z"/>
			<path fill="#DBDBDB" d="M174.852,205.352l0.275-27.316l-3.552-0.002c-0.007,11.392,1.536,19.077-5.109,22.403
				c-7.614,3.81-11.489,1.489-26.453-1.638c-0.439,4.037-0.678,8.201-0.678,12.469c0,0.162,0.009,0.32,0.011,0.482
				c7.675,0.921,26.991,2.832,33.874-4.061c0.609-0.611,1.149-1.214,1.638-1.818L174.852,205.352z"/>
			<radialGradient id="SVGID_2_" cx="179.4258" cy="202.0762" r="31.318" gradientUnits="userSpaceOnUse">
				<stop  offset="0" style="stop-color:#FFFFFF"/>
				<stop  offset="0.7343" style="stop-color:#DDDDDD"/>
				<stop  offset="1" style="stop-color:#CFCFCF"/>
			</radialGradient>
			<path fill="url(#SVGID_2_)" d="M177.55,168.4c-0.51-0.112-0.995-0.23-1.491-0.346c-0.043-0.003-0.071-0.007-0.071-0.007
				l0.145,37.44l-0.404,33.872c0.048,0,0.096,0.002,0.144,0.002c13.07,0,25.167-3.687,35.088-9.941
				c0.937-5.765,1.447-11.85,1.447-18.151c0-18.523-4.339-35.229-11.294-47.096l0.71-0.642l-1.182-4.023
				C194,165.843,185.65,170.181,177.55,168.4z"/>
			<path fill="#DBDBDB" d="M212.407,211.268c0-5.128-0.344-10.109-0.972-14.895c-0.418-2.956-0.418-4.575-1.828-10.101
				c-1.96-8.395-4.866-15.911-8.494-22.101l0.71-0.642l-1.182-4.023c-2.645,2.522-5.562,4.718-8.623,6.348
				c-1.511,8.338-3.404,21.272-3.581,24.62c-1.221,20.671,10.062,30.438,23.124,34.704
				C212.111,220.695,212.407,216.044,212.407,211.268z"/>
			<path fill="#0B0B0B" d="M289.26,129.938c0-0.001,0-0.001,0-0.001c0.202-0.904,0.372-1.695,0.509-2.359
				c0.002-0.005,0.004-0.009,0.004-0.012c0.101-0.487,0.185-0.905,0.251-1.245c0.003-0.018,0.007-0.035,0.01-0.052
				c0.019-0.093,0.036-0.179,0.05-0.26c0.004-0.015,0.007-0.03,0.01-0.045c0.015-0.079,0.028-0.15,0.041-0.215
				c0.002-0.014,0.005-0.027,0.009-0.041c0.012-0.075,0.024-0.139,0.035-0.194c0.002-0.006,0.002-0.011,0.004-0.018
				c0.01-0.054,0.018-0.098,0.023-0.134c0.001-0.002,0.001-0.003,0.001-0.005c0.006-0.03,0.01-0.055,0.013-0.072
				c0.005-0.028,0.009-0.046,0.009-0.046h-33.139c0.061,3.071,0.239,4.149,0.013,16.261c-0.019,0.996-0.047,1.962-0.081,2.914
				c-0.01,0.301-0.024,0.592-0.037,0.89c-0.026,0.653-0.057,1.297-0.092,1.929c-0.018,0.318-0.036,0.633-0.055,0.946
				c-0.038,0.619-0.079,1.227-0.126,1.825c-0.02,0.271-0.039,0.548-0.062,0.816c-0.063,0.764-0.131,1.514-0.205,2.244
				c-0.009,0.079-0.015,0.161-0.023,0.24c-0.085,0.82-0.18,1.616-0.279,2.395c-0.023,0.177-0.05,0.35-0.073,0.527
				c-0.08,0.589-0.163,1.17-0.251,1.735c-0.033,0.212-0.067,0.422-0.102,0.63c-0.09,0.541-0.183,1.067-0.279,1.584
				c-0.032,0.176-0.064,0.354-0.1,0.528c-0.122,0.63-0.252,1.246-0.386,1.84c-0.007,0.039-0.017,0.079-0.025,0.118
				c-0.152,0.67-0.314,1.318-0.482,1.944c-0.01,0.034-0.02,0.065-0.028,0.099c-0.153,0.566-0.313,1.114-0.479,1.643
				c-0.032,0.105-0.065,0.208-0.099,0.312c-0.15,0.471-0.307,0.926-0.466,1.369c-0.032,0.09-0.065,0.181-0.097,0.27
				c-0.188,0.507-0.382,0.999-0.581,1.468c-0.002,0.002-0.003,0.005-0.004,0.007c-0.425,0.997-0.877,1.906-1.356,2.736
				c-0.02,0.036-0.04,0.068-0.061,0.104c-0.217,0.371-0.438,0.728-0.664,1.065c-0.028,0.04-0.055,0.082-0.081,0.122
				c-0.246,0.358-0.494,0.702-0.75,1.025l0,0c-9.608,12.127-27.225-1.242-44.29-20.832c-2.628,3.331-5.745,6.456-9.149,8.957
				c-1.556,8.008-3.825,23.286-4.021,26.97c-2.75,46.614,58.067,37.803,59.539,35.41c1.697-2.76,2.759-4.031,0-14.433
				c-2.76-10.398,8.064-18.251-7.853-11.247c-13.812,6.076-28.49,1.78-31.895-9.73c-0.517-1.745-0.779-3.653-0.733-5.722
				c-0.002-0.012-0.004-0.023-0.004-0.033c22.042,16.75,38.484,13.489,50.485,2.57l0,0c0.002,0,0.002,0,0.002,0
				C278.564,171.537,286.661,141.508,289.26,129.938z"/>
			<path fill="#DBDBDB" d="M177.214,169.812l4.271,10.083l20.273-10.164l-1.536-9.064
				C193.629,167.034,185.309,171.436,177.214,169.812z"/>
			<path fill="#DBDBDB" d="M151.199,158.095l-1.972,11.631l17.815,9.77l6.476-10.538
				C163.487,166.438,156.329,163.065,151.199,158.095z"/>
			<path fill="#AEACAA" d="M175.987,168.046l-0.789-0.187l-0.346,37.492l0.346,33.997c0.177,0.002,0.352,0.01,0.529,0.01
				l0.404-33.872L175.987,168.046z"/>
			<g>
				<path fill="#FFDDAD" d="M289.542,92.089c0.015-0.013,0.025-0.026,0.037-0.038c0.183,0.202,1.105-0.538,2.9-2.673
					c0.749-0.891,1.385-1.792,1.947-2.708c2.048-3.323,2.922-6.84,2.919-11.017c1.017,0.201,2.503,0.697,3.901,1.961
					c2.431,2.199,2.787,7.445,1.8,11.71c-0.742,3.202-4.006,6.354-5.584,7.724c-2.384,0.645-6.307,1.837-8.582,0.531
					c-1.36-0.782-2.195-1.623-3.012-2.112c-0.097-0.053-0.193-0.103-0.289-0.148C286.458,94.676,287.718,93.677,289.542,92.089z"/>
				<path fill="#FFDDAD" d="M275.465,92.996c0.114-0.047,0.226-0.103,0.332-0.158c0.396-0.214,0.746-0.473,1.027-0.782
					c0.697-0.768,1.541-1.534,2.387-2.509c0.483-0.271,1.345-1.229,2.054-3.05c0.232-0.604,0.453-1.295,0.632-2.104
					c0.579-2.572,0.924-6.583,1.125-10.004c0.104-1.794,0.171-3.434,0.21-4.606c0.314-0.177,0.69-0.384,1.147-0.611
					c2.821-1.395,6.828-0.48,8.956,1.838c1.631,1.778,2.492,3.82,2.704,4.373c0.091,1.756-0.099,6.138-2.198,9.943
					c-0.387,0.7-0.83,1.38-1.356,2.023c-2.084,2.535-3.143,4.438-2.905,4.703c-0.012,0.012-0.022,0.025-0.037,0.038
					c-1.824,1.588-3.084,2.586-3.962,3.23c-0.087,0.064-0.174,0.127-0.252,0.185c-4.59,0.235-9.908-0.927-10.217-1.434
					C274.977,93.852,275.142,93.466,275.465,92.996z"/>
				<path fill="#FFDDAD" d="M256.71,90.185c-2.421-0.276-4.496,0.279-6.221,1.265c0.07-0.085,0.134-0.152,0.193-0.223
					c1.198-0.734,2.813-1.359,4.644-1.127c2.284,0.294-0.784-10.813,0.036-14.954c0.824-4.144-1.461,0.079-2.915-3.669
					c-0.077-0.189-0.167-0.367-0.265-0.531c0.713-1.547,3.396-5.923,8.245-5.777c5.487,0.164,7.128,2.301,7.128,2.301
					c0.911,1.589,2.076,5.495,1.48,11.834c-0.38,4.045-0.571,5.701-0.691,6.534c-0.519,1.618-1.234,3.168-2.271,4.301
					C263.795,90.344,260.725,90.645,256.71,90.185z"/>
				<path fill="#FFDDAD" d="M268.345,85.836c-0.071,0.472-0.118,0.68-0.166,0.904c-0.464,2.189,0.411,1.4,1.751-4.936
					c1.122-5.309,0.578-11.635-0.373-15.561c1.48-0.702,3.695-1.354,6.356-0.884c4.337,0.757,5.704,4.288,5.969,5.133
					c0.009,0.072,0.013,0.163,0.021,0.256c0.003,0.004,0.001,0.005,0.001,0.005c0.001,0.004,0.001,0.01,0.001,0.012
					c0.103,1.736-0.127,6.986-0.48,10.152c-0.374,3.352-1.234,6.521-2.335,8.042c-0.422,0.583-0.278,0.809,0.122,0.586
					c-0.846,0.975-1.516,1.739-2.211,2.509c-0.597,0.662-1.488,0.87-1.535,0.94c-0.722,0.325-1.579,0.514-2.484,0.591
					c-0.464,0.043-0.941,0.053-1.418,0.039c-0.147-3.909-1.763-3.828-5.489-3.488C267.11,89.004,267.826,87.454,268.345,85.836z"/>
				<path fill="#F2D0AF" d="M278.61,108.935c-4.077,6.415-5.752,3.705-4.525-0.437c0.71-2.384,0.757-3.801,0.89-8.024
					c0.133-4.229-4.062,3.215-7.73,3.229c-11.382,0.056-11.785-1.375-2.195-0.864c6.261,0.334,8.434-6.553,8.069-8.221
					c-0.561-2.594,0.705-1.301,1.45-1.734c1.06-0.625,2.415,0.661,3.469,1.318c1.056,0.653,4.349,1.248,6.053,0.913
					c1.708-0.343,2.52,1.159,4.791,2.465c2.275,1.306,6.198,0.114,8.582-0.531c-0.522,0.454-0.858,0.714-0.858,0.714
					s0.143-0.042,0.193,0.762c-2.197,1.501-5.846,3.497-6.545,3.447C289.031,101.89,281.585,104.262,278.61,108.935z"/>
				<path fill="#F9D7AF" d="M262.137,114.708c-2.56,0.116-7.598-0.792-10.926-3.414c-1.901-2.124-3.27-6.901-3.529-11.665
					c2.777-1.66,3.827,0.323,10.573,2.105c8.073,2.132,13.338-0.396,13.32-7.528c0-0.203-0.006-0.398-0.013-0.581
					c0.477,0.014,0.954,0.004,1.418-0.039c0,0.247,0.038,0.577,0.138,1.031c0.364,1.667-1.809,8.555-8.069,8.221
					c-9.59-0.511-9.187,0.92,2.195,0.864c3.669-0.013,7.863-7.458,7.73-3.229c-0.133,4.224-0.18,5.64-0.89,8.024
					c-1.227,4.142,0.448,6.852,4.525,0.437c2.975-4.673,10.421-7.045,11.643-6.964c0.699,0.05,4.348-1.946,6.545-3.447
					c0.044,0.681,0.024,1.973-0.205,4.44c-0.438,4.676-4.019,8.662-6.176,10.68c-4.264,2.584-7.923,3.552-10.36,3.181
					c-2.439-0.374-2.803-0.25-4.51-0.866c-1.706-0.613-2.933,2.543,9.992,2.031c1.129-0.045,2.085-0.115,2.914-0.208
					c0.078,0.762,0.24,1.563,0.293,2.393c0.131,2.153-0.237,4.836-0.237,4.836l-28.799,0.226c0,0-0.623-1.664-0.955-4.096
					c2.5-2.43,6.433-3.933,9.112-6.413C271.411,111.457,264.696,114.594,262.137,114.708z"/>
				<path fill="#F2D0AF" d="M292.479,89.378c-4.158,4.947-3.665,2.429,0.005-2.03c3.391-4.123,3.661-9.886,3.555-11.966
					c0.038,0.09,0.056,0.146,0.056,0.146s0.498-0.02,1.251,0.124C297.353,80.977,295.954,85.242,292.479,89.378z"/>
				<path fill="#F2D0AF" d="M251.1,90.781c0,0-0.268-15.364,0.9-19.382c0.026-0.09,0.089-0.253,0.183-0.454
					c0.098,0.165,0.188,0.342,0.265,0.531c1.454,3.749,3.739-0.474,2.915,3.669c-0.82,4.142,2.248,15.248-0.036,14.954
					c-1.831-0.232-3.445,0.394-4.644,1.127C250.934,90.941,251.1,90.781,251.1,90.781z"/>
				<path fill="#F2D0AF" d="M262.137,114.708c2.56-0.114,9.274-3.251,5.73,0.021c-2.68,2.48-6.612,3.983-9.112,6.413
					c-0.066-0.485-0.127-0.996-0.166-1.565c-0.235-3.416-4.05-5.661-4.05-5.661s-0.894-0.327-3.006-2.283
					c-0.106-0.101-0.217-0.22-0.322-0.339l0,0C254.539,113.916,259.577,114.824,262.137,114.708z"/>
				<path fill="#F2D0AF" d="M275.547,115.959c1.707,0.616,2.07,0.492,4.51,0.866c2.438,0.371,6.097-0.596,10.36-3.181
					c-0.315,0.298-0.604,0.553-0.846,0.764c-1.161,1.004-1.251,2.138-1.118,3.375c-0.829,0.092-1.785,0.163-2.914,0.208
					C272.614,118.502,273.841,115.346,275.547,115.959z"/>
				<path fill="#F2D0AF" d="M279.089,88.96c1.101-1.521,1.961-4.69,2.335-8.042c0.374-3.35,0.609-9.043,0.458-10.426
					c0.038,0.116,0.055,0.185,0.055,0.185s0.328-0.331,1.295-0.895c-0.112,3.405-0.452,10.682-1.335,14.611
					C280.725,89.638,277.985,90.479,279.089,88.96z"/>
				<path fill="#F2D0AF" d="M269.93,81.805c-1.34,6.335-2.215,7.125-1.751,4.936c0.13-0.615,0.266-1.112,0.857-7.438
					c0.596-6.339-0.569-10.245-1.48-11.834c0,0,0.733-0.627,2.001-1.224C270.508,70.17,271.052,76.496,269.93,81.805z"/>
				<path fill="#181818" d="M281.903,70.754c0,0,0.002-0.001-0.001-0.005c0,0.007,0.002,0.01,0.002,0.017
					C281.904,70.764,281.904,70.759,281.903,70.754z"/>
				<path opacity="0.4" fill="#181818" d="M281.903,70.754c0,0,0.002-0.001-0.001-0.005c0,0.007,0.002,0.01,0.002,0.017
					C281.904,70.764,281.904,70.759,281.903,70.754z"/>
				<path fill="#FFE0BB" d="M301.358,92.082c1.254-4.263,0.8-9.506-2.307-11.71c-0.649-0.464-1.315-0.819-1.963-1.101
					c0.168-1.153,0.26-2.354,0.257-3.617c1.017,0.201,2.503,0.697,3.901,1.961c2.431,2.199,2.787,7.445,1.8,11.71
					c-0.4,1.725-1.532,3.433-2.738,4.861C300.775,93.501,301.147,92.792,301.358,92.082z"/>
				<path fill="#FFE0BB" d="M292.675,74.36c-2.266-1.995-6.241-2.939-9.534-2.284c0.04-0.868,0.071-1.652,0.091-2.293
					c0.314-0.177,0.69-0.384,1.147-0.611c2.821-1.395,6.828-0.48,8.956,1.838c1.631,1.778,2.492,3.82,2.704,4.373
					c0.037,0.691,0.025,1.802-0.128,3.12C295.521,77.747,294.483,75.953,292.675,74.36z"/>
				<path fill="#FFE0BB" d="M281.892,73.341c0.001,0-0.001-0.001-0.001-0.008c0,0-0.001-0.003-0.002-0.007
					c-0.007-0.093-0.013-0.184-0.024-0.256c-0.327-0.849-1.999-4.376-7.305-5.137c-1.719-0.25-3.281-0.179-4.646,0.037
					c-0.106-0.611-0.231-1.198-0.357-1.727c1.48-0.702,3.695-1.354,6.356-0.884c4.337,0.757,5.704,4.288,5.969,5.133
					c0.009,0.072,0.013,0.163,0.021,0.256c0.003,0.004,0.001,0.005,0.001,0.005c0.001,0.004,0.001,0.01,0.001,0.012
					c0.033,0.587,0.031,1.581-0.004,2.763C281.899,73.466,281.895,73.396,281.892,73.341z"/>
				<g>
					<g>
						<path fill="#FFE0BB" d="M259.138,67.249c-2.012-0.049-3.731,0.367-5.18,1c1.392-1.598,3.533-3.17,6.47-3.081
							c5.487,0.164,7.128,2.301,7.128,2.301c0.273,0.482,0.571,1.175,0.837,2.075C268.256,69.414,266.038,67.411,259.138,67.249z"/>
					</g>
				</g>
				<path fill="#FFE0BB" d="M250.489,91.45c1.808-1.911,3.8-1.541,6.221-1.265c10.89,1.248,14.849-3.111,14.865,4.021
					c0.018,7.133-5.247,9.66-13.32,7.528c-6.746-1.782-7.796-3.765-10.573-2.105c-0.007-0.096-0.016-0.188-0.019-0.28
					C247.491,95.553,249.46,92.682,250.489,91.45z"/>
				<g>
					<path fill="#F2D0AF" d="M259.312,101.432c8.303,0.879,13.121-2.422,12.021-9.466c-0.017-0.092-0.032-0.176-0.048-0.262
						c0.191,0.608,0.287,1.424,0.29,2.502c0.018,7.133-5.247,9.66-13.32,7.528c-1.22-0.325-2.245-0.652-3.134-0.965
						C256.248,101.005,257.608,101.25,259.312,101.432z"/>
				</g>
			</g>
			<g>
				<path fill="#FFDDAD" d="M60.457,90.179c-0.014-0.011-0.024-0.026-0.036-0.039c-0.182,0.205-1.105-0.536-2.9-2.67
					c-0.75-0.893-1.385-1.794-1.949-2.71c-2.048-3.321-2.922-6.84-2.918-11.016c-1.017,0.199-2.503,0.697-3.901,1.96
					c-2.432,2.199-2.787,7.444-1.8,11.71c0.741,3.204,4.006,6.356,5.583,7.725c2.384,0.644,6.308,1.836,8.582,0.532
					c1.361-0.783,2.196-1.625,3.013-2.114c0.095-0.054,0.192-0.101,0.287-0.148C63.542,92.766,62.282,91.769,60.457,90.179z"/>
				<path fill="#FFDDAD" d="M74.535,91.085c-0.115-0.047-0.227-0.101-0.332-0.158c-0.397-0.214-0.747-0.474-1.029-0.78
					c-0.696-0.771-1.541-1.536-2.386-2.509c-0.484-0.273-1.345-1.231-2.053-3.05c-0.234-0.607-0.455-1.298-0.633-2.104
					c-0.579-2.575-0.924-6.584-1.124-10.006c-0.104-1.793-0.171-3.433-0.21-4.607c-0.314-0.178-0.69-0.384-1.148-0.61
					c-2.821-1.395-6.827-0.482-8.956,1.835c-1.631,1.779-2.492,3.82-2.704,4.373c-0.09,1.756,0.1,6.139,2.199,9.943
					c0.386,0.701,0.83,1.38,1.356,2.025c2.083,2.532,3.142,4.437,2.905,4.701c0.011,0.013,0.021,0.028,0.036,0.039
					c1.826,1.59,3.085,2.587,3.962,3.23c0.087,0.065,0.176,0.127,0.253,0.185c4.589,0.236,9.908-0.927,10.217-1.432
					C75.023,91.94,74.857,91.556,74.535,91.085z"/>
				<path fill="#FFDDAD" d="M93.291,88.274c2.42-0.275,4.496,0.278,6.22,1.265c-0.069-0.083-0.133-0.153-0.193-0.223
					c-1.199-0.732-2.813-1.36-4.645-1.125c-2.282,0.291,0.786-10.814-0.035-14.955c-0.824-4.143,1.46,0.079,2.915-3.67
					c0.077-0.19,0.167-0.367,0.265-0.532c-0.713-1.546-3.398-5.924-8.246-5.778c-5.487,0.165-7.127,2.303-7.127,2.303
					c-0.913,1.589-2.077,5.495-1.481,11.834c0.379,4.044,0.571,5.701,0.692,6.533c0.519,1.618,1.234,3.169,2.271,4.299
					C86.205,88.434,89.275,88.734,93.291,88.274z"/>
				<path fill="#FFDDAD" d="M81.656,83.926c0.07,0.473,0.117,0.68,0.166,0.905c0.463,2.188-0.412,1.4-1.751-4.938
					c-1.121-5.308-0.578-11.635,0.374-15.561c-1.481-0.702-3.696-1.351-6.358-0.884c-4.337,0.758-5.702,4.289-5.968,5.135
					c-0.009,0.072-0.013,0.162-0.021,0.256c-0.002,0.002-0.001,0.002-0.001,0.002c-0.001,0.007-0.001,0.013-0.001,0.013
					c-0.101,1.738,0.128,6.987,0.481,10.154c0.374,3.35,1.234,6.52,2.334,8.041c0.422,0.583,0.279,0.811-0.122,0.588
					c0.845,0.973,1.516,1.736,2.211,2.509c0.595,0.659,1.487,0.868,1.535,0.938c0.722,0.327,1.578,0.514,2.483,0.593
					c0.464,0.042,0.942,0.05,1.418,0.036c0.147-3.907,1.762-3.827,5.49-3.488C82.89,87.095,82.174,85.544,81.656,83.926z"/>
				<path fill="#F2D0AF" d="M71.39,107.023c4.078,6.415,5.752,3.705,4.525-0.437c-0.71-2.383-0.756-3.798-0.889-8.023
					c-0.133-4.227,4.063,3.215,7.73,3.23c11.381,0.053,11.786-1.377,2.196-0.866c-6.261,0.335-8.434-6.551-8.07-8.221
					c0.562-2.593-0.705-1.3-1.45-1.734c-1.06-0.623-2.416,0.663-3.469,1.32c-1.056,0.653-4.349,1.248-6.052,0.911
					c-1.708-0.341-2.519,1.161-4.792,2.468c-2.274,1.304-6.198,0.112-8.582-0.532c0.522,0.452,0.858,0.712,0.858,0.712
					s-0.142-0.042-0.192,0.762c2.197,1.5,5.846,3.499,6.544,3.448C60.968,99.979,68.415,102.353,71.39,107.023z"/>
				<path fill="#F9D7AF" d="M87.862,112.798c2.561,0.114,7.599-0.792,10.927-3.413c1.901-2.124,3.27-6.903,3.528-11.665
					c-2.776-1.66-3.827,0.321-10.572,2.104c-8.074,2.132-13.338-0.395-13.321-7.528c-0.001-0.202,0.006-0.397,0.012-0.582
					c-0.477,0.014-0.954,0.005-1.418-0.036c0,0.245-0.037,0.576-0.137,1.029c-0.364,1.669,1.809,8.556,8.07,8.221
					c9.59-0.511,9.186,0.919-2.196,0.866c-3.667-0.015-7.863-7.458-7.73-3.23c0.133,4.225,0.179,5.64,0.889,8.023
					c1.228,4.142-0.447,6.852-4.525,0.437c-2.975-4.67-10.422-7.044-11.643-6.962c-0.699,0.051-4.347-1.948-6.544-3.448
					c-0.044,0.68-0.024,1.973,0.206,4.441c0.438,4.675,4.018,8.661,6.175,10.68c4.264,2.584,7.923,3.551,10.361,3.181
					c2.439-0.373,2.802-0.25,4.51-0.866c1.706-0.614,2.932,2.544-9.993,2.032c-1.127-0.045-2.083-0.116-2.914-0.209
					c-0.079,0.762-0.241,1.563-0.293,2.395c-0.131,2.15,0.237,4.833,0.237,4.833l28.799,0.226c0,0,0.623-1.663,0.955-4.095
					c-2.5-2.429-6.433-3.933-9.112-6.413C78.588,109.548,85.304,112.684,87.862,112.798z"/>
				<path fill="#F2D0AF" d="M57.521,87.469c4.158,4.947,3.665,2.427-0.005-2.03c-3.391-4.125-3.661-9.886-3.556-11.968
					c-0.038,0.092-0.056,0.147-0.056,0.147s-0.497-0.021-1.25,0.125C52.647,79.068,54.046,83.33,57.521,87.469z"/>
				<path fill="#F2D0AF" d="M98.901,88.873c0,0,0.266-15.366-0.901-19.384c-0.026-0.091-0.089-0.251-0.182-0.454
					c-0.098,0.166-0.188,0.342-0.265,0.532c-1.455,3.749-3.739-0.473-2.915,3.67c0.821,4.14-2.247,15.246,0.035,14.955
					c1.832-0.235,3.446,0.393,4.645,1.125C99.066,89.032,98.901,88.873,98.901,88.873z"/>
				<path fill="#F2D0AF" d="M87.862,112.798c-2.559-0.115-9.274-3.25-5.73,0.021c2.68,2.48,6.612,3.984,9.112,6.413
					c0.066-0.486,0.127-0.997,0.166-1.566c0.235-3.415,4.05-5.659,4.05-5.659s0.895-0.327,3.005-2.283
					c0.107-0.101,0.218-0.219,0.323-0.338l0,0C95.461,112.006,90.423,112.912,87.862,112.798z"/>
				<path fill="#F2D0AF" d="M74.454,114.049c-1.708,0.617-2.071,0.493-4.51,0.866c-2.438,0.37-6.097-0.597-10.361-3.181
					c0.317,0.298,0.604,0.553,0.846,0.764c1.16,1.005,1.25,2.137,1.118,3.373c0.83,0.093,1.787,0.164,2.914,0.209
					C77.385,116.594,76.159,113.436,74.454,114.049z"/>
				<path fill="#F2D0AF" d="M70.911,87.05c-1.1-1.521-1.96-4.69-2.334-8.041c-0.375-3.351-0.61-9.044-0.458-10.425
					c-0.039,0.114-0.054,0.184-0.054,0.184s-0.329-0.332-1.295-0.896c0.113,3.405,0.453,10.684,1.334,14.613
					C69.275,87.726,72.015,88.571,70.911,87.05z"/>
				<path fill="#F2D0AF" d="M80.07,79.894c1.34,6.337,2.214,7.125,1.751,4.938c-0.129-0.617-0.266-1.114-0.857-7.438
					c-0.596-6.339,0.568-10.245,1.481-11.834c0,0-0.734-0.628-2.001-1.226C79.492,68.259,78.949,74.586,80.07,79.894z"/>
				<path fill="#181818" d="M68.096,68.843c0,0-0.001,0,0.001-0.002c0,0.004-0.002,0.01-0.002,0.015
					C68.095,68.855,68.095,68.85,68.096,68.843z"/>
				<path opacity="0.4" fill="#181818" d="M68.096,68.843c0,0-0.001,0,0.001-0.002c0,0.004-0.002,0.01-0.002,0.015
					C68.095,68.855,68.095,68.85,68.096,68.843z"/>
				<path fill="#FFE0BB" d="M48.64,90.172c-1.252-4.264-0.798-9.508,2.307-11.71c0.65-0.464,1.316-0.821,1.963-1.1
					c-0.167-1.154-0.259-2.355-0.256-3.618c-1.017,0.199-2.503,0.697-3.901,1.96c-2.432,2.199-2.787,7.444-1.8,11.71
					c0.4,1.726,1.532,3.434,2.738,4.861C49.225,91.592,48.852,90.884,48.64,90.172z"/>
				<path fill="#FFE0BB" d="M57.325,72.451c2.266-1.996,6.241-2.939,9.534-2.286c-0.04-0.866-0.071-1.649-0.09-2.292
					c-0.314-0.178-0.69-0.384-1.148-0.61c-2.821-1.395-6.827-0.482-8.956,1.835c-1.631,1.779-2.492,3.82-2.704,4.373
					c-0.037,0.692-0.025,1.804,0.129,3.12C54.479,75.836,55.516,74.042,57.325,72.451z"/>
				<path fill="#FFE0BB" d="M68.108,71.433c-0.001,0,0-0.002,0.001-0.01c0,0,0-0.002,0.001-0.005
					c0.006-0.093,0.014-0.184,0.025-0.258c0.328-0.848,1.999-4.374,7.305-5.135c1.719-0.249,3.28-0.179,4.645,0.037
					c0.108-0.612,0.231-1.197,0.359-1.728c-1.481-0.702-3.696-1.351-6.358-0.884c-4.337,0.758-5.702,4.289-5.968,5.135
					c-0.009,0.072-0.013,0.162-0.021,0.256c-0.002,0.002-0.001,0.002-0.001,0.002c-0.001,0.007-0.001,0.013-0.001,0.013
					c-0.034,0.589-0.03,1.582,0.004,2.763C68.101,71.556,68.105,71.486,68.108,71.433z"/>
				<g>
					<g>
						<path fill="#FFE0BB" d="M90.863,65.337c2.011-0.048,3.729,0.37,5.178,1.002c-1.392-1.597-3.532-3.172-6.469-3.083
							c-5.487,0.165-7.127,2.303-7.127,2.303c-0.275,0.482-0.572,1.176-0.838,2.074C81.744,67.505,83.962,65.5,90.863,65.337z"/>
					</g>
				</g>
				<path fill="#FFE0BB" d="M99.51,89.539c-1.808-1.912-3.799-1.54-6.22-1.265c-10.891,1.248-14.849-3.112-14.866,4.021
					c-0.018,7.133,5.247,9.661,13.321,7.528c6.745-1.782,7.796-3.763,10.572-2.104c0.007-0.095,0.016-0.188,0.019-0.281
					C102.508,93.643,100.54,90.771,99.51,89.539z"/>
				<g>
					<path fill="#F2D0AF" d="M90.688,99.521c-8.304,0.881-13.121-2.421-12.021-9.466c0.017-0.09,0.032-0.173,0.049-0.259
						c-0.193,0.608-0.289,1.423-0.291,2.5c-0.018,7.133,5.247,9.661,13.321,7.528c1.219-0.325,2.245-0.649,3.134-0.964
						C93.751,99.093,92.391,99.34,90.688,99.521z"/>
					<path fill="#F2D0AF" d="M99.51,89.539c-1.808-1.912-3.799-1.54-6.22-1.265c-0.07,0.01-0.138,0.019-0.207,0.021
						c0.29,0.022,0.586,0.037,0.891,0.049c2.434,0.095,4.46,0.032,5.955,2.192c0.725,1.205,1.968,3.754,1.769,6.866
						c0.2,0.086,0.404,0.187,0.62,0.318c0.007-0.095,0.016-0.188,0.019-0.281C102.508,93.643,100.54,90.771,99.51,89.539z"/>
				</g>
			</g>
			<polygon fill="#181818" points="210.769,197.217 210.768,197.216 210.767,197.213 			"/>
			<path fill="#0B0B0B" d="M192.329,195.37"/>
			<path fill="#0B0B0B" d="M193.521,180.58c-0.008,0.077-0.019,0.157-0.025,0.233C193.503,180.733,193.513,180.659,193.521,180.58
				L193.521,180.58z"/>
			<path fill="#0B0B0B" d="M211.377,184.167c0.048-2.045-0.225-3.608-0.724-4.798c0.248,1.545,0.489,3.153,0.724,4.828
				C211.377,184.188,211.377,184.176,211.377,184.167z"/>
			<path fill="#00B0D8" d="M169.46,166.295l2.491,7.454l6.952,0.009l1.619-4.985c-0.992-0.043-1.983-0.157-2.972-0.374
				C174.636,167.761,171.947,167.063,169.46,166.295z"/>
			<path fill="#F3F3F3" d="M177.854,168.451l4.27,10.083l20.272-10.165l-1.535-9.065
				C194.268,165.672,185.948,170.077,177.854,168.451z"/>
			<path fill="#F3F3F3" d="M151.838,156.734l-1.972,11.633l17.815,9.768l6.476-10.539
				C164.125,165.076,156.969,161.703,151.838,156.734z"/>
			<path fill="#0B0B0B" d="M147.237,150.865c0,0,0,0.022,0.002,0.047c0.002,0.047,0.001,0.036,0,0
				C147.237,150.893,147.237,150.887,147.237,150.865c-25.059,29.233-53.272,45.818-54.339-11.276
				c-0.226-12.11-0.047-13.188,0.014-16.262h-33.14c0,0,16.736,108.072,79.725,55.343c-6.534,10.993-17.063,20.878-31.106,27.561
				c-7.669,3.649,12.733,4.244,12.521,15.28c-0.613,31.897,23.286,2.941,33.078-28.782c1.595-5.277,5.991-23.244,6.272-30.266
				C154.52,159.529,150.318,155.796,147.237,150.865z"/>
			<path fill="#2C2C2C" d="M151.381,156.274l-4.709,4.592l5.034,6.993l-10.486,14.515l11.568,14.023
				c0.419-1.218,0.823-2.442,1.202-3.671c1.582-5.237,5.921-22.965,6.263-30.099C156.756,160.838,153.828,158.752,151.381,156.274z"
				/>
			<path fill="#0B0B0B" d="M109.09,179.369c4.73,0,9.169-2.065,13.02-5.671c-15.798,9.232-28.502,3.84-29.211-34.109
				c-0.226-12.11-0.047-13.188,0.014-16.262h-9.548c-0.596,3.695-0.919,7.575-0.919,11.583
				C82.445,159.461,94.375,179.369,109.09,179.369z"/>
			<path fill="#0B0B0B" d="M241.228,181.784c8.983-1.821,12.506-10.943,13.925-20.173c-6.586,31.337-28.546,16.623-49.664-7.619
				c-1.314,1.667-2.751,3.281-4.286,4.791C212.762,170.346,227.976,184.471,241.228,181.784z"/>
			<path fill="#2C2C2C" d="M199.964,170.923l5.513-7.518l-2.668-6.102c-1.993,2.154-4.185,4.138-6.507,5.84
				c-1.555,8.058-3.791,23.123-3.983,26.776c-0.222,3.758-0.025,7.149,0.514,10.22l12.645-14.42L199.964,170.923z"/>
			<polygon fill="#0B0B0B" points="142.37,183.769 141.22,184.989 152.497,197.239 152.788,196.398 			"/>
			<polygon fill="#0B0B0B" points="204.957,164.111 206.074,165.83 200.514,172.393 199.964,170.923 			"/>
			<polygon fill="#0B0B0B" points="204.818,186.467 205.477,188.326 192.959,200.844 192.832,200.139 			"/>
			<path fill="none" d="M211.377,184.197c-0.007,0.292,0.007,0.571,0.012,0.858c0.086-0.227,0.181-0.451,0.28-0.672
				c-0.1-0.074-0.198-0.146-0.296-0.22C211.373,184.174,211.375,184.186,211.377,184.197z"/>
			<path fill="#0B0B0B" d="M244.005,199.649c-13.812,6.076-28.49,1.78-31.895-9.73c-0.443-1.5-0.687-3.127-0.722-4.863
				c-0.477,1.264-0.735,2.584-0.735,3.943c0,9.173,11.517,16.607,25.725,16.607c5.896,0,11.327-1.282,15.666-3.437
				C253.273,197.015,254.876,194.866,244.005,199.649z"/>
			<path fill="#0B0B0B" d="M139.497,178.669c-6.534,10.993-17.063,20.878-31.106,27.561c-4.774,2.271,1.33,3.361,6.567,6.522
				C130.407,197.544,144.182,172.828,139.497,178.669z"/>
			<g>
				<path fill="#0098B0" d="M185.791,225.711c-11.579-7.843-17.902-15.649-19.78-24.332c-1.758-8.131,0.472-16.644,6.819-26.027
					l4.936,3.34c-5.387,7.962-7.327,14.971-5.93,21.43c1.729,8,4.478,12.801,17.317,20.67l0.636,3.904L185.791,225.711z"/>
				<path fill="#0098B0" d="M171.836,200.122c-0.031-0.148-0.053-0.297-0.081-0.442c-2.027,0.764-3.865,1.058-5.87,1.016
					c0.043,0.229,0.077,0.456,0.126,0.684c0.672,3.108,1.925,6.104,3.775,9.029c1.968-0.294,3.839-0.719,5.527-1.307
					C173.501,206.365,172.574,203.534,171.836,200.122z"/>
			</g>
			<path fill="#0B0B0B" d="M138.48,197.15l-11.11,5.539l10.537,7.692c0.721,0.034,4.128,0.556,8.651,0.931
				c1.768-3.572,3.436-7.381,4.926-11.307C148.12,199.235,143.968,198.218,138.48,197.15z"/>
			<path fill="#00B0D8" d="M136.649,207.106l-10.538-7.693l11.109-5.537c17.63,3.427,21.497,6.345,29.622,2.277
				c6.645-3.325,5.101-11.01,5.108-22.404l6.952,0.009c-0.008,14.991,2.438,21.893-5.307,29.649
				C165.284,211.73,138.82,207.213,136.649,207.106z"/>
		</g>
		<g>
			<path fill="#F2D1AA" d="M149.37,122.354c-0.085,5.041-3.405,9.073-7.418,9.003c-4.01-0.069-7.192-4.21-7.107-9.252
				c0.085-5.038,3.409-9.07,7.417-9.001C146.273,113.172,149.455,117.312,149.37,122.354z"/>
			
				<ellipse transform="matrix(0.9772 0.2123 -0.2123 0.9772 31.0192 -42.2772)" fill="#F2D1AA" cx="212.408" cy="123.327" rx="9.439" ry="9.127"/>
			<path fill="#FFDDAD" d="M143.462,99.771c1.743-24.509,0.374-29.599,13.24-20.324c9.026,6.51,32.195,3.969,42.505,3.969
				c17.458,0,14.381,16.616,14.575,23.96c0.091,3.466,0,23.817,0,28.352c0,11.769-18.706,36.521-36.233,32.672
				c-15.499-3.405-24.729-8.42-30.313-17.355c-1.792-2.869-4.226-3.188-5.969-22.156
				C140.853,124.372,143.215,103.242,143.462,99.771z"/>
			<g>
				<path fill="#DBB694" d="M202.825,111.066c-0.559-2.653-3.769-3.86-7.467-3.53c-5.777,0.513-8.71,4.723-10.245,8.148
					c-1.209,2.693,5.8-9.332,15.542-2.09C203.099,115.413,203.385,113.723,202.825,111.066z"/>
			</g>
			<g>
				<path fill="#3F2C38" d="M147.237,113.008c0,3.422,2.776,4.383,6.198,4.383c3.425,0,6.199-0.96,6.199-4.383
					c0-3.422-2.774-6.2-6.199-6.2C150.013,106.808,147.237,109.586,147.237,113.008z"/>
				
					<ellipse transform="matrix(-0.7066 -0.7076 0.7076 -0.7066 180.186 295.6807)" fill="#DEDEE6" cx="151.387" cy="110.488" rx="1.845" ry="3.185"/>
			</g>
			<polygon fill="#6E4F39" points="184.905,102.013 199.964,92.604 199.443,91.641 183.86,100.084 			"/>
			<polygon fill="#6E4F39" points="148.608,92.093 165.768,96.784 165.086,99.268 148.188,93.634 			"/>
			<path opacity="0.5" fill="#EAC69F" d="M144.368,86.057c0.944-12.383,2.372-13.823,12.334-6.642
				c9.026,6.509,32.195,3.97,42.505,3.97c17.458,0,14.381,16.615,14.575,23.958c0.005,0.135,0.005,0.3,0.008,0.48
				c-0.486-8.063-0.314-23.285-17.318-21.761c-1.706,0.152-20.952,2.317-28.057,2.773C160.157,89.285,148.236,88.293,144.368,86.057
				z"/>
			<path fill="#642D13" d="M141.017,73.339c0.003,0.001,1.883,2.162,4.524,4.55c0.004,0.003,0.004,0.006,0.006,0.008
				c-0.576,1.8-0.901,4.499-1.179,8.16c-0.001,0-0.005,0.005-0.005,0.005c-1.587-0.915-2.307-0.749-4.66-3.175
				c0.096-2.271,0.223-4.519,0.389-6.728C140.298,75.363,140.708,74.106,141.017,73.339z"/>
			<path fill="#C83C2A" d="M190.556,140.705c-0.005-0.011-0.404,0.422-0.407,0.411c-3.34,2.806-7.147,6.511-21.636,9.008
				c-2.492,0.428-3.633-0.191-3.48,0.75c0.138,0.857,3.049,0.766,4.594,0.638c13.402-1.099,24.11-7.584,26.154-9.84
				c0.359-0.397-2.416-0.434-2.552-2.313C193.114,137.767,191.811,139.336,190.556,140.705z"/>
			<path fill="#EAC69F" d="M168.274,123.092c0.27-0.248,0.685-0.229,0.933,0.039c0.245,0.27,0.225,0.685-0.042,0.933
				c-2.496,2.282-2.271,4.549-1.229,5.916c1.336,1.75,4.385,2.577,7.407,0.669c0.308-0.196,0.713-0.102,0.908,0.205
				c0.196,0.31,0.104,0.712-0.206,0.91c-3.681,2.326-7.465,1.227-9.156-0.985C165.558,129.034,165.122,125.975,168.274,123.092z"/>
			<g>
				<path fill="#7B3C16" d="M213.783,107.376c-0.194-7.345,2.883-23.96-14.575-23.96c-10.311,0-33.479,2.541-42.505-3.969
					c-12.867-9.275-11.498-4.185-13.24,20.324c-0.219,3.073-0.819,8.396-1.666,15.183c-2.086-10.743-2.282-10.272-2.282-23.226
					c0-2.909,0.064-5.781,0.18-8.61c0.098-2.353,0.229-4.677,0.402-6.963c3.141-12.166,16.72-23.228,35.656-23.228
					c0.999,0,1.983,0.036,2.962,0.085c0.979-0.05,1.963-0.085,2.96-0.085c18.937,0,34.656,9.253,37.799,21.419
					c0.171,2.286,0.303,4.609,0.4,6.962c0.115,2.83,0.18,5.701,0.18,8.614c0,18.424-6.271,38.988-6.271,38.018
					C213.783,123.403,213.874,110.842,213.783,107.376z"/>
				<path fill="#914C1A" d="M217.96,58.865c-11.643-10.913-20.521-13.045-34.334-12.061c-5.419-3.927-8.844-9-8.137-16.693
					c0.831-9.074-12.385,1.416-19.79,13.693c-1.954,4.544-1.954,15.789-0.816,19.487c1.093,3.559-6.844-11.035-6.215-28.984
					c-4.718-6.825-14.287,20.754-9.8,34.784c0.89,2.788,3.257,6.093,4.826,7.451c0.554,0.482,1.184,0.926,1.858,1.35
					c1.364-4.274,4.148-3.492,11.15,1.554c4.157,2.999,11.315,4.073,18.834,4.366c6.474,0.182,11.628-0.044,12.959-0.067
					c1.843-0.063,3.607-0.135,5.245-0.194c2.053-0.078,3.907-0.136,5.467-0.136c17.458,0,14.381,16.616,14.575,23.96
					c0.091,3.466,0,16.027,0,20.563c0,0.97,6.74-14.512,9.271-32.763C224.291,86.241,226.813,67.961,217.96,58.865z"/>
				<path fill="#7B3C16" d="M154.884,63.292c-1.138-3.698-1.138-14.943,0.816-19.487c-2.677-1.791-4.848-4.398-6.327-8.16
					c-0.216-0.554-0.455-0.981-0.704-1.337C148.04,52.256,155.977,66.851,154.884,63.292z"/>
			</g>
			<path fill="#DBB694" d="M200.646,105.743c0.266-0.425,0.519-0.843,0.741-1.253c-1.17-0.418-2.448-0.663-3.795-0.665
				c-7.041-0.015-10.598,6.346-12.454,11.638c-0.245,0.7-0.202,0.752,0.084,0.435c1.945-5.063,5.483-10.66,12.089-10.647
				C198.479,105.257,199.603,105.424,200.646,105.743z"/>
			<path fill="#EAC69F" d="M194.114,140.845c-0.356-0.282-0.682-0.609-0.97-0.976c-0.938-1.199-1.354-2.693-1.169-4.208
				c0.023-0.191,0.196-0.328,0.387-0.303c0.19,0.024,0.326,0.197,0.303,0.387c-0.162,1.33,0.202,2.643,1.027,3.697
				c0.825,1.054,2.012,1.725,3.342,1.887c0.19,0.025,0.326,0.198,0.303,0.386c-0.022,0.191-0.195,0.327-0.387,0.304
				C195.898,141.89,194.926,141.483,194.114,140.845z"/>
		</g>
	</g>
</g>
</svg>
