<?xml version="1.0" encoding="utf-8"?>
<!-- Generator: Adobe Illustrator 16.0.0, SVG Export Plug-In . SVG Version: 6.00 Build 0)  -->
<!DOCTYPE svg PUBLIC "-//W3C//DTD SVG 1.1//EN" "http://www.w3.org/Graphics/SVG/1.1/DTD/svg11.dtd">
<svg version="1.1" id="Layer_1" xmlns="http://www.w3.org/2000/svg" xmlns:xlink="http://www.w3.org/1999/xlink" x="0px" y="0px"
	 width="350px" height="350px" viewBox="0 0 350 350" enable-background="new 0 0 350 350" xml:space="preserve">
<g>
	<path opacity="0.1" fill-rule="evenodd" clip-rule="evenodd" d="M230.916,314.221c-1.79-0.366-10.538-1.588-11.646-2.416
		c-0.881-0.657-2.706-2.336-3.601-3.541c2.353-0.143,1.939-0.973,1.308-2.878c-1.011-3.049,0.335-18.206,0.121-23.123
		c-0.214-4.916-1.924-5.808-6.565-10.207c-3.091-2.93-4.479-5.794-6.992-8.89c1.086-1.288,2.42-2.206,1.868-2.874
		c-0.563-0.681-2.201-3.261-1.74-4.442c0.059-0.151-0.023-0.281-0.214-0.39c0.146,0.018,0.291,0.035,0.436,0.056
		c1.514,0.212,1.051,0.256-0.215-1.742c-1.268-1.997-1.96-3.74-2.258-5.165c-0.297-1.425-2.735-4.228-3.127-6.845
		c-0.394-2.615-5.362-4.743-6.048-6.412c-0.688-1.668-5.617-7.944-8.586-12.778c-2.648-4.313-4.41-4.858-7.782-4.988
		c-0.382-0.092-0.82-0.169-1.331-0.268c-2.337-0.449-7.759-0.895-12.92-1.509l-6.284-1.733l-0.241-0.308l-2.537-1.377
		c0,0,0.111,0.25,0.124,0.626c-1.269-1.247-2.356-2.543-3.109-3.683c1.02-1.031,3.216-1.404,2.813-2.617
		c-0.333-1.008-1.578-1.864-2.843-2.089c-1.036-1.709-3.104-3.591-5.35-5.022c-3.819-2.438-9.329-2.59-13.085-2.565
		c-3.757,0.025-5.934,0.841-9.454,2.715c-2.878,1.532-1.575,3.533,0.482,5.283c0.676,0.675,1.573,1.353,2.65,1.984
		c2.264,1.953,5.589,3.9,7.128,4.949c0.943,0.644,2.355,1.436,3.95,2.059l0.076,0.155c-0.044-0.019-0.089-0.037-0.132-0.056
		l-1.252,1.477l0.14,0.09c-0.052,0.083-0.097,0.17-0.144,0.256c-1.077,0.282-12.514,3.279-14.635,3.862
		c-0.31,0.085-0.566,0.18-0.761,0.296c-3.112,0.117-4.378,0.725-3.723,4.924c0.753,4.823,0.653,11.075,1.253,12.744
		s-2.745,3.756-1.118,6.378s1.344,5.412,2.146,6.84c0.801,1.427,1.453,3.17,1.724,5.162c0.271,1.993-0.226,1.944,1.129,1.747
		c0.129-0.02,0.26-0.036,0.395-0.052c-0.107,0.106-0.091,0.236,0.086,0.389c1.376,1.19,1.723,3.765,1.684,4.442
		c-0.039,0.679,2.101,1.64,4.231,2.988c2.131,1.349,3.432,1.228,5.604,1.568c2.173,0.342,4.855,0.484,4.845,0.001
		c-0.01-0.481-4.527-0.943-5.404-1.211c-0.876-0.268-2.216-0.938-2.897-1.524c-0.681-0.586-1.281-2.123-1.188-2.456
		s0.945,0.032,2.03,1.604c1.085,1.571,2.173,1.945,3.526,1.899c1.353-0.045,0.754-0.577,0.212-1.362
		c-0.542-0.786-1.762-2.353-1.709-2.877s-1.043-1.844-1.673-2.354c-0.375-0.27-0.896-0.501-1.502-0.695
		c0.67,0.127,1.236,0.274,1.64,0.441c0.97,0.4,1.652,0.076,0.502-1.744c-1.151-1.821-1.555-3.409-0.435-4.334
		c1.12-0.924,1.307-2.429,0.595-3.847c-0.712-1.417-0.717-1.172,0.416-3.551c1.131-2.379-1.514-3.914-0.447-7.535
		c0.281-0.954,0.247-2.642-0.101-4.606c3.112,3.308,5.178,6.248,6.056,8.62c1.368,3.696,3.269,12.094,3.583,14.74
		c0.313,2.646-1.131,3.973,3.038,4.417c0.325,0.034,0.666,0.077,1.016,0.124c2.227,4.165,5.614,8.141,8.464,11.861
		c4.364,5.697,5.414,12.07,9.067,17.758s4.241,9.598,7.335,12.53c3.094,2.934,8.236,7.774,10.368,7.803
		c0.066,0.002,0.137,0.002,0.212,0.002c-0.07,0.562-0.229,1.427-0.261,1.953c-0.041,0.688-1.232,2.377-0.62,3.211
		c0.613,0.834,5.39,1.835,10.225,1.791c4.834-0.042,7.889-0.578,7.026-1.553c-0.861-0.976-2.294-2.453-3.05-3.922
		c-0.323-0.627-0.604-1.239-0.839-1.792c2.126-0.312,0.599-2.279,0.03-3.994c-0.625-1.888-6.881-6.888-7.439-9.642
		s-6.44-8.761-6.24-11.359s-6.128-17.428-6.206-18.729s2.562-4.012,3.61-2.985c1.047,1.026,7.032,4.145,12.836,8.849
		c5.805,4.705,9.494,8.369,8.728,11.394c-0.766,3.024,0.61,8.246,0.824,13.163c0.215,4.917-0.63,6.641-2.943,8.198
		c-0.794,0.535-0.861,0.875-0.179,1.126c-0.712,0.873-1.326,2.476-1.476,2.95c-0.176,0.556,1.068,0.688,3.813,1.225
		s4.491,0.771,4.491,0.771l0.928-0.879c0,0,3.371,1.068,5.263,1.935c1.892,0.865,5.191,2.301,9.602,2.44
		c4.411,0.14,11.696,0.24,12.978,0.231C232.499,315.317,232.706,314.586,230.916,314.221z"/>
	<g>
		<g>
			<path fill-rule="evenodd" clip-rule="evenodd" fill="#F6C5AE" d="M224.602,172.287c-0.388,1.254-0.858,4.479-0.558,5.749
				s-0.178,5.092-0.348,7.01c-0.171,1.917-0.518,3.221,0.856,3.297s2.285-0.854,2.626-4.689c0.342-3.835,1.021-4.741,1.271-3.937
				c0.25,0.805,0.378,4.544-0.027,5.979c-0.403,1.437-1.426,3.095-2.176,3.764c-0.75,0.67-5.047,1.897-4.828,3.067
				c0.218,1.17,2.831,0.759,4.843-0.121c2.011-0.879,3.368-0.62,4.859-3.938c1.493-3.318,3.178-5.699,2.817-7.342
				s-1.23-7.887-0.418-10.805S226.172,168.101,224.602,172.287z"/>
			<path fill-rule="evenodd" clip-rule="evenodd" fill="#FFFFFF" d="M234.602,169.036l0.278,2.556c0,0-3.13-0.51-5.068-0.452
				c-1.938,0.058-5.66,2.073-5.66,2.073l-0.12-4.336C224.031,168.876,231.986,166.364,234.602,169.036z"/>
			<path fill-rule="evenodd" clip-rule="evenodd" fill="#2E3954" d="M215.854,77.852c4.222,0.009,6.044,0.171,7.572,11.876
				c1.528,11.704,4.586,26.85,4.775,30.906c0.189,4.056,4.521,9.033,4.135,15.426c-0.387,6.392,1.216,13.146,1.09,16.623
				c-0.126,3.478,0.046,7.717,0.718,12.551s1.146,4.706-0.303,4.257c-1.448-0.447-3.05-0.378-5,0.034
				c-1.95,0.411-3.719,1.157-4.498,2.151c-0.779,0.994-1.615,0.229-1.325-4.211c0.288-4.44-0.059-8.298-1.616-10.511
				c-1.558-2.212-2.455-5.854-2.414-9.305c0.042-3.451,0.162-2.857-2.094-8.594c-2.257-5.736-0.339-9.52-3.118-18.268
				C210.998,112.038,207.744,77.547,215.854,77.852z"/>
			<path fill-rule="evenodd" clip-rule="evenodd" fill="#141A29" d="M227.319,169.928c-1.365-2.236-8.371-18.946-8.331-22.28
				c0.041-3.333,0.142-2.911-2.094-8.594c-2.236-5.684-2.377-10.083,0.475-18.701c0.022-0.057,1.436-1.434,1.458-1.491
				c3.099,6.071,2.703,11.397,5.243,11.623c2.541,0.226,3.53,3.773-0.626,3.538c-4.157-0.236-2.656,1.808-0.384,2.011
				c2.273,0.203,2.764,2.367,0.419,2.967c-2.344,0.599-2.771,5.144,1.367,8.612c4.14,3.469,6.199,8.967,2.247,7.941
				C224.237,154.811,227.393,167.441,227.319,169.928z"/>
		</g>
		<path fill-rule="evenodd" clip-rule="evenodd" fill="#141A29" d="M182.968,304.144c-0.169,1.005-0.946,4.076-1.272,5.749
			c-0.326,1.672-2.216,5.783-1.947,7.813c0.268,2.029,4.63,4.466,9.481,4.361c4.853-0.105,8.129-1.409,7.671-3.781
			c-0.458-2.373-1.279-5.97-1.429-9.543c-0.148-3.574-0.102-6.94-0.04-8.757C195.493,298.17,184.193,299.74,182.968,304.144z"/>
		<path fill-rule="evenodd" clip-rule="evenodd" fill="#141A29" d="M200.568,293.781c-1.134,1.615-2.818,6.739-3.224,8.092
			s0.784,1.676,3.308,2.98c2.522,1.306,4.172,1.874,4.172,1.874l1.292-2.138c0,0,2.929,2.602,4.462,4.707s4.24,5.599,8.593,5.938
			c4.354,0.34,11.598,0.585,12.882,0.564s1.793-1.802,0.154-2.691s-9.882-3.864-10.647-5.879c-0.767-2.016-2.361-7.975-2.273-10.604
			C219.375,293.998,206.673,290.039,200.568,293.781z"/>
		<path fill-rule="evenodd" clip-rule="evenodd" fill="#F6C5AE" d="M194.062,55.301c0.205,5.089,1.649,12.479,3.728,17.821
			c2.079,5.341-19.34,9.7-19.34,9.7s0.563-11.088-0.136-18.265C177.614,57.38,190.45,45.201,194.062,55.301z"/>
		<path fill-rule="evenodd" clip-rule="evenodd" fill="#D59F86" d="M169.327,46.396c0.166,6.226,5.973,15.575,7.545,19.274
			c1.571,3.697,4.394,8.349,8.419,6.401s10.021-6.559,9.207-11.872c-0.814-5.313,0.254-4.539,0.381-8.294
			c0.127-3.755,1.231-5.883-0.725-3.776c-1.957,2.108,0.935,11.367-2.502,1.501c-3.437-9.867-8.695-10.462-11.942-9.208
			s-5.367,2.597-7.993,2.205C169.091,42.237,167.893,44.215,169.327,46.396z"/>
		<path fill-rule="evenodd" clip-rule="evenodd" fill="#2E3954" d="M182.233,147.862c4.453,0.523,20.269,1.057,25.95-1.73
			c5.684-2.789,10.368,18.419,14.791,30.862c4.422,12.444,3.466,22.794,6.288,33.501c2.822,10.708,4.163,12.876,2.344,24.842
			s-9.435,48.852-9.685,56.271c-0.25,7.421,0.078,8.14-10.108,6.026c-10.188-2.113-14.086-1.891-11.128-5.683
			c2.958-3.791,4.515-7.983,6.334-19.949s2.604-24.674,4.621-32.034c2.017-7.361-0.157-16.278-4.016-27.729
			s-8.554-19.037-9.177-21.534c-0.623-2.498-4.383,4.097-4.845,7.265c-0.46,3.168-0.266,39.256-1.54,45.581
			c-1.275,6.324,2.122,20.942,1.541,27.644c-0.579,6.702,3.607,18.871,3.452,23.465s0.726,9.93-2.455,9.821
			c-3.18-0.107-9.929,0.726-12.049,0.654s-5.26-11.852-7.141-18.99s-0.852-16.654-2.153-30.495
			c-1.301-13.84,0.285-29.351-1.723-43.215c-2.007-13.863-5.028-29.177-3.065-45.382
			C170.435,150.847,169.931,144.816,182.233,147.862z"/>
		<path fill-rule="evenodd" clip-rule="evenodd" fill="#FFFFFF" d="M176.959,72.832l10.287,3.589l5.805-0.145l4.844-7.002
			l11.313,8.572l6.13,71.012l-35.332,5.459C180.005,154.317,168.128,91.812,176.959,72.832z"/>
		<path fill-rule="evenodd" clip-rule="evenodd" fill="#CBCBCB" d="M178.5,69.525l-1.862,3.593l4.745,11.973l8.252-10.14
			C189.635,74.951,181.837,73.817,178.5,69.525z"/>
		<path fill-rule="evenodd" clip-rule="evenodd" fill="#CBCBCB" d="M190.105,74.621l11.423,10.174l-3.591-16.152l-1.968-3.35
			C195.97,65.294,196.059,72.233,190.105,74.621z"/>
		<path fill-rule="evenodd" clip-rule="evenodd" fill="#141A29" d="M182.474,147.142c4.452,0.523,22.004,0.809,25.71-1.01
			c3.707-1.819,3.716,1.142,5.282,3.818c-11.657,4.753-36.365,3.54-44.588,0.76C170.565,147.823,176.531,145.67,182.474,147.142z"/>
		<path fill-rule="evenodd" clip-rule="evenodd" fill="#AA7A5E" d="M169.576,50.144c-1.91-4.771-3.58-11.04,0.716-15.601
			c4.295-4.561,6.811-6.547,10.577-6.607c3.767-0.061,9.214,0.311,12.024,6.242c2.812,5.931,4.575,15.026,2.342,19.845
			C193.001,58.842,176.43,59.035,169.576,50.144z"/>
		<path fill-rule="evenodd" clip-rule="evenodd" fill="#F6C5AE" d="M169.327,46.37c0.166,6.218,4.601,14.274,6.172,17.904
			c1.572,3.63,5.335,9.216,9.361,7.093c4.024-2.122,7.555-6.333,8.466-11.008c0.911-4.675,4.69-5.113,4.818-8.873
			c0.128-3.761-2.034-6.658-3.99-4.465c-1.957,2.193,0.935,11.327-2.502,1.61s-8.695-10.083-11.942-8.687
			c-3.247,1.396-5.367,2.831-7.993,2.553C169.091,42.221,167.893,44.25,169.327,46.37z"/>
		<path fill-rule="evenodd" clip-rule="evenodd" fill="#47474F" d="M186.801,77.276l2.093,1.188
			c-0.614,0.784-0.592,2.752-0.19,3.227c0,0-1.466,15.708,0.137,31.4c1.603,15.692,0.376,33.93,2.279,34.705
			c1.903,0.775,6.085,3.252,6.085,3.252l4.973-5.924c0,0-2.311-24.755-3.176-32.197c-0.866-7.442-4.808-29.895-6.879-31.69
			c0.578-1.598,0.048-2.516-0.543-2.884c1.16-1.281,1.625-1.97,1.625-1.97l-3.144-1.746l-0.524,0.138
			C189.536,74.775,186.101,76.299,186.801,77.276z"/>
		<path fill-rule="evenodd" clip-rule="evenodd" fill="#FFFFFF" d="M178.5,69.525l-1.862,3.593l4.546,9.73l8.451-7.898
			C189.635,74.951,181.837,73.817,178.5,69.525z"/>
		<path fill-rule="evenodd" clip-rule="evenodd" fill="#FFFFFF" d="M190.105,74.621l9.912,7.687l-2.08-13.664l-1.968-3.35
			C195.97,65.294,196.059,72.233,190.105,74.621z"/>
		<path fill-rule="evenodd" clip-rule="evenodd" fill="#141A29" d="M175.594,286.833l-0.182-0.688
			c-1.881-7.139-0.852-16.654-2.153-30.495c-1.301-13.84,0.285-29.351-1.723-43.215c-1.399-9.658-3.288-20.019-3.642-30.895
			c4.194-3.358,7.604-3.366,8.059-0.441c0.707,4.546,3.675,5.938,6.569,9.48c2.895,3.543,6.154,9.035,4.084,6.598
			c-2.071-2.438-5.575-7.078-5.527-2.125c0.048,4.954,0.137,15.076,0.622,19.829s-1.242,4.911,2.906,9.572s-1.571,1.885-5.111-1.68
			c-3.54-3.565-4.206-2.941-2.839,1.195c1.367,4.138,5.589,6.648,5.909,9.89c0.321,3.239-0.596,17.634,0.079,29.499
			c0.676,11.865-0.586,10.961-3.257,7.211c-2.673-3.751-5.406,0.678-4.254,4.808c1.151,4.13,10.076,7.661,13.645,10.365
			c3.568,2.705,4.484,7.472,1.546,5.22c-2.938-2.252-9.97-4.428-5.829,0.449C187.772,295.27,181.473,291.392,175.594,286.833z"/>
		<path fill-rule="evenodd" clip-rule="evenodd" fill="#141A29" d="M167.978,183.569c2.646,2.278,7.538,4.106,10.515,2.732
			c2.978-1.373,13.191-15.971,12.485-38.022C189.85,112.96,169.102,179.014,167.978,183.569z"/>
		<path fill-rule="evenodd" clip-rule="evenodd" fill="#2E3954" d="M176.581,73.909c0,0-13.844,7.962-16.324,9.451
			c-2.479,1.488-2.428,4.205,1.819,18.066c4.247,13.861,6.401,26.223,6.24,35.219s-1.733,29.433-2.514,35.873
			s-2.774,9.669,1.211,10.749c3.985,1.08,9.786,5.153,12.794,1.095C201.749,154.766,186.54,104.047,176.581,73.909z"/>
		<path fill-rule="evenodd" clip-rule="evenodd" fill="#141A29" d="M208.472,150.807c-0.066,5.717,3.15,32.1,8.758,32.559
			c5.607,0.46,8.093-5.297,6.413-7.856S215.116,146.305,208.472,150.807z"/>
		<path fill-rule="evenodd" clip-rule="evenodd" fill="#2E3954" d="M199.69,72.266c5.699,2.241,13.477,3.622,16.223,5.019
			c2.747,1.397,3.318,1.043,2.052,16.461c-1.267,15.418-1.804,36.822-0.92,43.744c0.884,6.922,5.386,33.526,7.127,37.124
			c1.741,3.599-1.708,6.462-3.985,7.688c-2.276,1.228-5.049,0.575-7.326-9.188c-2.277-9.763-5.894-24.042-6.217-47.524
			C206.319,102.107,207.658,90.044,199.69,72.266z"/>
		<path fill-rule="evenodd" clip-rule="evenodd" fill="#141A29" d="M176.977,72.321l-5.884,9.751l3.228,1.475l-5.621,0.385
			l22.043,51.7C191.436,137.354,184.047,88.655,176.977,72.321z"/>
		<path fill-rule="evenodd" clip-rule="evenodd" fill="#141A29" d="M198.394,69.632l11.392,9.507l-2.637,2.299l5.242,0.494
			l-5.533,50.259C206.857,132.192,205.557,84.888,198.394,69.632z"/>
		<path fill-rule="evenodd" clip-rule="evenodd" fill="#141A29" d="M209.264,254.191c0.674-5.565,1.372-10.558,2.377-14.223
			c2.017-7.361-0.157-16.278-4.016-27.729s-8.554-19.037-9.177-21.534c-0.116-0.467-0.342-0.615-0.636-0.53
			c0.348-1.76,0.72-3.152,0.724-5.543c0.006-4.118-2.131-31.29-0.268-30.308c-0.233,2.517,1.382,16.235,1.4,20.097
			c0.017,3.862,4.234,6.529,9.069,8.475c4.835,1.946,1.547,2.577-2.849,0.795s-7.091-1.131-4.679,2.218
			c2.411,3.35,14.64,15.05,20.056,21.767c5.416,6.719,7.609,12.139,3.602,7.696c-4.009-4.442-18.783-15.485-13.781-9.673
			c5.001,5.813,13.437,15.453,14.993,17.734c1.558,2.28-3.336-2.341-8.086-6.809s-11.187-7.358-6.462-2.148
			c4.725,5.208,18.753,16.375,14.092,13.693c-4.662-2.683-14.603-11.78-11.52-6.33c3.084,5.451,7.738,12.737,4.877,9.521
			c-2.862-3.215-6.245,0.234-4.25,2.678c1.998,2.443-0.904,5.177-1.768,7.141s1.8,1.787,4.968-1.56s10.956-9.726,7.486-5.326
			s-12.389,8.88-14.019,13.873C210.918,249.643,210.135,251.792,209.264,254.191z"/>
		<path fill-rule="evenodd" clip-rule="evenodd" fill="#090B12" d="M198.078,299.623c-0.337,0.98-0.603,1.813-0.733,2.25
			c-0.405,1.353,0.784,1.676,3.308,2.98c2.522,1.306,4.172,1.874,4.172,1.874l1.247-2.063
			C204.806,303.098,201.145,300.99,198.078,299.623z"/>
		<path fill-rule="evenodd" clip-rule="evenodd" fill="#2E3954" d="M199.624,297.654c-0.828,1.016,0.204,1.439,2.525,2.614
			c2.32,1.175,5.338,4.228,7.035,6.393s5.008,6.493,3.682,3.329c-1.327-3.165-3.217-7.106-6.104-8.976
			C203.873,299.146,200.482,296.601,199.624,297.654z"/>
		<path fill-rule="evenodd" clip-rule="evenodd" fill="#2E3954" d="M213.348,300.731c1.8,0.724,2.485,3.794,3.663,6.363
			s2.424,3.117,5.933,4.079s2.768,0.431,0.295-1.255c-2.472-1.686-5.309-5.069-5.324-7.094s-0.83-2.895-3.083-3.562
			C212.576,298.598,210.48,299.578,213.348,300.731z"/>
		<path fill-rule="evenodd" clip-rule="evenodd" fill="#2E3954" d="M183.057,306.369c-0.428,2.683-2.361,7.507-2.422,9.276
			c-0.06,1.769,0.957,1.634,3.405,1.548s5.132,0.343,2.508-1.854c-2.624-2.196-2.933-3.05-1.438-4.854
			C186.604,308.681,184.408,303.801,183.057,306.369z"/>
		<path fill-rule="evenodd" clip-rule="evenodd" fill="#2E3954" d="M176.977,72.321l-4.254,9.751l4.033,1.842l-6.67,0.457
			l20.656,51.26C191.436,137.354,184.047,88.655,176.977,72.321z"/>
		<path fill-rule="evenodd" clip-rule="evenodd" fill="#2E3954" d="M198.394,69.632l9.897,10.059l-2.638,2.299l4.591,0.497
			l-3.387,49.705C206.857,132.192,205.557,84.888,198.394,69.632z"/>
		<g>
			<path fill-rule="evenodd" clip-rule="evenodd" fill="#47474F" d="M144.625,193.358h-6.498c-1.408,0-2.56,1.151-2.56,2.56v32.873
				c0,1.407,1.152,2.56,2.56,2.56h6.498c1.408,0,2.56-1.152,2.56-2.56v-32.873C147.185,194.51,146.033,193.358,144.625,193.358z"/>
			<path fill-rule="evenodd" clip-rule="evenodd" fill="#47474F" d="M173.414,205.895l-28.388-12.505l-7.972,8.865l-0.629,28.443
				l28.034,13.543C164.458,244.241,170.616,226.735,173.414,205.895z"/>
			<path fill-rule="evenodd" clip-rule="evenodd" fill="#47474F" d="M172.063,205.507h-6.498c-1.408,0-2.56,1.151-2.56,2.559v33.869
				c0,1.408,1.152,2.56,2.56,2.56h6.498c1.408,0,2.56-1.151,2.56-2.56v-33.869C174.623,206.658,173.471,205.507,172.063,205.507z"/>
			<path fill-rule="evenodd" clip-rule="evenodd" fill="#2E2E33" d="M171.901,206.961h-6.176c-0.679,0-1.234,0.555-1.234,1.234
				v33.609c0,0.68,0.556,1.234,1.234,1.234h6.176c0.679,0,1.235-0.555,1.235-1.234v-33.609
				C173.136,207.516,172.58,206.961,171.901,206.961z"/>
			<path fill="#2E2E33" d="M145.751,195.373c0,0.829,0.673,1.502,1.503,1.502c0.83,0,1.502-0.673,1.502-1.502v-1.655l6.24,2.932
				c0.749,0.35,1.639,0.027,1.989-0.722s0.027-1.64-0.722-1.99l-6.434-3.021c-0.024-0.014-0.05-0.026-0.075-0.038l-0.132-0.063
				c-0.557-0.264-1.104-0.522-1.745-0.522c-1.269,0-2.128,0.628-2.128,2.627V195.373z"/>
			<path fill="#2E2E33" d="M158.127,201.234c0,0.83,0.673,1.502,1.503,1.502c0.829,0,1.502-0.672,1.502-1.502v-2.453
				c0-2.58-1.327-3.2-2.699-3.838l0.001-0.002l-0.033-0.016c-0.026-0.012-0.052-0.023-0.079-0.033l-4.118-1.916
				c-0.752-0.347-1.643-0.018-1.99,0.734c-0.347,0.752-0.019,1.643,0.733,1.988l4.108,1.912c0.025,0.013,0.051,0.025,0.076,0.038
				l0.034,0.015l0.001-0.001l0.005,0.001c0.484,0.226,0.954,0.444,0.954,1.117V201.234z"/>
			<path fill-rule="evenodd" clip-rule="evenodd" fill="#2E2E33" d="M161.412,207.627l-22.766-10.821
				c-1.693-0.806-3.079,0.234-3.079,2.312v19.681c0,2.077,1.386,4.434,3.079,5.238l22.766,10.822
				c1.694,0.805,3.079-0.235,3.079-2.312v-19.682C164.491,210.789,163.106,208.432,161.412,207.627z"/>
			<path fill-rule="evenodd" clip-rule="evenodd" fill="#47474F" d="M161.412,207.627l-22.766-10.821
				c-1.693-0.806-2.915,0.241-3.079,2.312l-1.348,16.985c-0.164,2.069,1.385,4.433,3.079,5.238l22.767,10.821
				c1.693,0.805,2.915-0.241,3.079-2.312l1.348-16.985C164.655,210.796,163.106,208.432,161.412,207.627z"/>
			<path fill-rule="evenodd" clip-rule="evenodd" fill="#64646E" d="M148.512,223.753l-1.659-0.833
				c-0.373-0.188-0.677,0.04-0.677,0.508v5.257c0,0.467,0.305,1.002,0.677,1.189l1.659,0.833c0.373,0.188,0.678-0.041,0.678-0.508
				v-5.257C149.19,224.476,148.885,223.94,148.512,223.753z"/>
		</g>
		<g>
			<path fill-rule="evenodd" clip-rule="evenodd" fill="#F6C5AE" d="M154.458,178.627c0.418,1.243,0.968,4.456,0.698,5.732
				s0.302,5.086,0.52,6.999c0.217,1.913,0.596,3.207-0.776,3.317c-1.372,0.109-2.305-0.798-2.74-4.624
				c-0.436-3.825-1.136-4.715-1.367-3.904s-0.267,4.552,0.173,5.978c0.439,1.426,1.501,3.059,2.267,3.709
				c0.766,0.651,5.092,1.773,4.902,2.948c-0.189,1.176-2.813,0.827-4.844-0.002c-2.032-0.83-3.382-0.538-4.955-3.818
				c-1.573-3.281-3.315-5.62-2.996-7.271c0.32-1.65,1.037-7.914,0.153-10.812C144.611,173.98,152.787,174.48,154.458,178.627z"/>
			<path fill-rule="evenodd" clip-rule="evenodd" fill="#FFFFFF" d="M144.383,175.621l-0.216,2.562c0,0,3.117-0.585,5.055-0.575
				s5.709,1.935,5.709,1.935l0.014-4.339C154.945,175.203,146.932,172.886,144.383,175.621z"/>
			<path fill-rule="evenodd" clip-rule="evenodd" fill="#2E3954" d="M160.895,84.006c-4.221,0.112-6.038,0.318-7.279,12.057
				c-1.242,11.738-3.928,26.954-4.019,31.014c-0.09,4.06-4.299,9.141-3.756,15.521c0.542,6.382-0.895,13.172-0.683,16.646
				s0.142,7.715-0.411,12.564c-0.553,4.849-1.03,4.733,0.407,4.25s3.04-0.452,5-0.09c1.96,0.363,3.746,1.066,4.549,2.041
				c0.804,0.975,1.62,0.188,1.223-4.242c-0.398-4.432-0.145-8.298,1.358-10.547c1.503-2.25,2.312-5.912,2.186-9.362
				s-0.232-2.853,1.884-8.643c2.116-5.791,0.105-9.524,2.67-18.338S168.996,83.504,160.895,84.006z"/>
			<path fill-rule="evenodd" clip-rule="evenodd" fill="#141A29" d="M157.581,162.738c1.31-2.269,2.004-5.667,1.887-8.88
				c-0.126-3.45-0.232-2.853,1.884-8.643c2.077-5.683,0.179-9.386,2.532-17.853c-0.023-0.057-0.045-0.114-0.069-0.171
				c-2.949,6.146-7.314,9.345-9.848,9.633s-0.585,3.174,3.565,2.836c4.15-0.337,4.188,2.361,1.919,2.619
				c-2.268,0.258-4.041,2.486-1.682,3.028c2.359,0.542,2.938,6.827-1.114,10.396c-4.052,3.569-9.023,7.377-5.098,6.255
				C154.396,161.147,156.454,161.555,157.581,162.738z"/>
		</g>
		<path fill-rule="evenodd" clip-rule="evenodd" fill="#141A29" d="M168.051,127.409c-1.212-6.788-5.333-23.998-7.515-30.059
			c-2.182-6.061,0.485-7.272,2.181,1.212C164.415,107.046,168.293,113.592,168.051,127.409z"/>
		<path fill-rule="evenodd" clip-rule="evenodd" fill="#141A29" d="M216.824,122.806c-0.043-5.998,0.744-21.374,1.646-26.904
			s-1.571-6.143-1.673,1.384C216.695,104.812,214.419,111.026,216.824,122.806z"/>
		<path fill-rule="evenodd" clip-rule="evenodd" fill="#AA7A5E" d="M183.676,39.416c-9.416,1.124-13.577,6.197-13.52,12.793
			C163.458,44.563,167.534,25.194,183.676,39.416z"/>
		<g>
			<path fill="#2E2E33" d="M156.686,196.355c0.121-0.121,0.224-0.265,0.3-0.428c0.35-0.749,0.027-1.64-0.722-1.99l-3.747-1.76v1.721
				L156.686,196.355z"/>
			<path fill="#2E2E33" d="M157.616,194.563l-3.411-1.586c-0.586-0.271-1.257-0.13-1.688,0.301v0.621l5.099,3.005V194.563z"/>
		</g>
	</g>
</g>
</svg>
