<?xml version="1.0" encoding="utf-8"?>
<!-- Generator: Adobe Illustrator 16.0.0, SVG Export Plug-In . SVG Version: 6.00 Build 0)  -->
<!DOCTYPE svg PUBLIC "-//W3C//DTD SVG 1.1//EN" "http://www.w3.org/Graphics/SVG/1.1/DTD/svg11.dtd">
<svg version="1.1" id="Layer_1" xmlns="http://www.w3.org/2000/svg" xmlns:xlink="http://www.w3.org/1999/xlink" x="0px" y="0px"
	 width="350px" height="350px" viewBox="0 0 350 350" enable-background="new 0 0 350 350" xml:space="preserve">
<g>
	<path opacity="0.1" fill-rule="evenodd" clip-rule="evenodd" d="M226.475,295.608c0.316-0.001,0.49,0,0.49,0
		s-2.803-2.142-6.235-4.407c-3.433-2.265-8.858-6.689-13.475-11.131c-4.615-4.442-23.024-15.539-28.106-20.442
		c-0.708-0.685-1.163-1.47-1.422-2.323v-0.003l-0.01-0.03c-0.02-0.066-0.038-0.133-0.055-0.199l-0.017-0.066l-0.003-0.016
		c-0.013-0.052-0.025-0.105-0.036-0.159l-0.026-0.125l-0.003-0.017l-0.003-0.016l-0.003-0.016l-0.003-0.017l-0.003-0.016
		l-0.003-0.017l-0.003-0.016c-0.018-0.102-0.033-0.204-0.046-0.307v0.005c-0.582-4.539,3.278-10.488,4.395-13.62l5.296-0.022v-0.002
		h-0.001l-0.001-0.004H187.2l-0.004-0.006l-0.001-0.002l-0.004-0.008l-0.003-0.004l-0.006-0.008l-0.003-0.005l-0.006-0.01
		l-0.005-0.008l-0.006-0.01l-0.007-0.009l-0.006-0.01l-0.009-0.013l-0.006-0.01l-0.012-0.017l-0.005-0.008l-0.013-0.021
		l-0.005-0.006l-0.016-0.025l-0.004-0.004l-0.02-0.029l-0.001-0.003l-0.022-0.034l-0.024-0.036l-0.001-0.003l-0.024-0.036
		l-0.004-0.006l-0.023-0.035l-0.007-0.01l-0.021-0.033l-0.01-0.015l-0.021-0.032l-0.012-0.018l-0.02-0.03l-0.015-0.022l-0.019-0.028
		l-0.019-0.027l-0.017-0.025l-0.022-0.033l-0.015-0.021l-0.037-0.058l-0.029-0.045l-0.011-0.014l-0.033-0.052l-0.007-0.01
		l-0.04-0.059l-0.002-0.005l-0.089-0.134l-0.004-0.004l-0.043-0.064l-0.008-0.012l-0.04-0.061l-0.012-0.018l-0.038-0.057
		l-0.016-0.022l-0.035-0.054l-0.021-0.029l-0.031-0.048l-0.024-0.036l-0.029-0.043l-0.029-0.044l-0.026-0.038l-0.034-0.052
		l-0.021-0.032l-0.039-0.059l-0.019-0.026l-0.045-0.066l-0.015-0.021l-0.05-0.075l-0.01-0.015l-0.057-0.083l-0.005-0.008
		l-0.063-0.092v-0.001l-0.064-0.094l-0.006-0.008l-0.061-0.088l-0.01-0.017l-0.056-0.082l-0.017-0.023l-0.052-0.076l-0.022-0.031
		l-0.047-0.07l-0.027-0.04l-0.043-0.063l-0.033-0.049l-0.039-0.057l-0.038-0.058l-0.034-0.049l-0.046-0.066l-0.028-0.042
		l-0.052-0.075l-0.023-0.034l-0.059-0.085l-0.018-0.026l-0.065-0.096l-0.012-0.017l-0.073-0.105l-0.007-0.009l-0.079-0.116l0,0
		l-0.081-0.116l-0.007-0.011l-0.075-0.108l-0.001-0.002l0.452-0.321c0.65,0.283,1.275,0.559,1.873,0.82c0,0,2.648-3.65,6.425-8.966
		c3.775-5.314,3.112-6.216,0.6-9.508c-1.83-2.398-11.306-9.957-17.365-15.276c-2.257-1.979-4.041-3.65-4.778-4.627
		c-0.367-0.142-0.676-0.174-0.935-0.114c-4.453-1.797-18.03-3.409-26.001-5.908l-0.533-0.395l-1.757-1.301
		c-0.235-0.705-0.438-1.379-0.592-1.955c0.206-0.485,0.337-0.938,0.438-1.291c0.284-1.008,0.236-2.586,0.021-4.069
		c0.109-0.278,0.181-0.569,0.21-0.875c-0.356-2.922,0.341-5.293-4.058-6.575s-9.587-2.546-13.828-2.568h-0.267
		c-0.788,0.002-1.64,0.027-2.5,0.08c-0.324,0.019-0.648,0.042-0.972,0.07c-0.584,0.049-1.162,0.111-1.716,0.185
		c-2.705,0.363-4.845,1.032-4.362,2.063c0.618,1.32,0.281,4.172,3.094,7.111c0.079,0.256,0.277,0.55,0.598,0.854
		c0.198,0.188,0.426,0.362,0.67,0.518c0.313,0.201,0.653,0.373,0.992,0.502c0.23,0.154,0.472,0.309,0.725,0.461
		c0.131,0.079,0.264,0.157,0.401,0.235c0.181,0.104,0.367,0.203,0.56,0.299l0.011,0.012l0.137,0.147
		c-0.016,0.136,0.023,0.284,0.123,0.443c0.714,1.134,1.48,2.24,2.24,3.386c0.48,0.725,0.957,1.465,1.417,2.238l-1.417,1.037
		l-0.437,0.319c-0.689,0.098-1.378,0.199-2.063,0.304c-0.325,0.05-0.649,0.1-0.972,0.151c-0.58,0.092-1.152,0.187-1.716,0.284
		c-5.16,0.889-9.521,1.98-10.307,3.213c-0.064-0.015-0.128-0.029-0.191-0.038c0.058,2.65,3.482,14.003,3.556,17.582
		c0.073,3.578,0.07,10.972,0.132,12.683c0.062,1.711,0.839,4.028,0.839,4.028s0.199-0.111,0.57-0.24l0.189,1.228
		c0,0,0.24-0.023,0.668-0.035c0.784,3.958-0.578,5.883,1.631,8.009c0.089,0.086,0.177,0.168,0.262,0.248
		c-0.783,0.312-1.263,0.758-0.594,1.757l0.588,0.879l-10.137,2.897c-0.222,0.04-0.418,0.097-0.585,0.167l-0.001,0.001
		c-0.586,0.25-0.805,0.676-0.49,1.146l11.688,17.462c0.337,0.505,1.203,0.933,2.184,1.137c0.43,0.089,0.883,0.135,1.324,0.125
		l0.392-0.008l0.972-0.021l2.5-0.056l2.798-0.061c0.41-0.01,0.767-0.066,1.057-0.159l15.979-5.056l6.983-2.209
		c0.468-0.054,0.842-0.176,1.094-0.346h0c0.376-0.255,0.481-0.614,0.221-1.003l-4.423-6.608c1.089,0.938,2.076,1.75,2.874,2.395
		c0.92,0.759,1.628,1.327,2.013,1.661c0.224,0.396,1.659,1.206,2.832,5.361l0.001,0.004l0.001,0.004l0.001,0.004l0.001,0.004
		l0.002,0.008l0.001,0.005l0.001,0.004l0.001,0.004l0.024,0.085l0.001,0.004l0.001,0.004l0.001,0.004l0.001,0.004l0.001,0.004
		l0.001,0.005l0.001,0.004l0.001,0.004l0.001,0.004l0.001,0.004l0.001,0.004l0.001,0.004l0.001,0.005l0.001,0.004l0.001,0.004
		l0.002,0.004l0.015,0.054l0.002,0.004l0.001,0.005l0.001,0.004l0.001,0.004l0.001,0.004c1.295,4.324,5.546,12.663,8.135,17.734
		c2.642,5.174,1.396,7.404,0.063,9.911c-1.333,2.508-3.289,6.131-3.289,6.131s1.901,0.273,5.974,1.049
		c-5.696,3.224-18.543,0.533-18.511,2.833c0.02,1.316,8.306,2.917,13.284,3.935c4.979,1.019,8.66,0.656,8.66,0.656
		s3.2,1.151,4.797,1.304c0.55,0.053,1.034,0.007,1.464-0.131c0.819-0.263,1.444-0.855,1.961-1.729
		c0.711-1.199,0.427-2.528-0.14-4.552c2.115,0.427,2.957,0.592,2.957,0.592s1.074-0.85,0.691-4.282
		c-0.369-3.316-1.327-20.097-1.393-21.247v-0.013l-0.003-0.039v-0.013l0.007,0.005l0.023,0.015l0.038,0.023l0.053,0.032l0.067,0.04
		l0.08,0.05l0.095,0.059l0.108,0.066l0.12,0.074l0.134,0.083l0.146,0.09l0.159,0.098l0.169,0.104l0.182,0.112l0.192,0.12
		l0.204,0.126l0.213,0.132l0.224,0.139l0.233,0.146l0.244,0.151l0.252,0.157l0.261,0.163l0.27,0.168l0.278,0.174l0.285,0.18
		l0.293,0.184l0.301,0.189l0.308,0.192l0.313,0.199l0.32,0.201l0.326,0.206l0.331,0.211l0.338,0.214l0.342,0.218l0.347,0.221
		l0.351,0.224l0.355,0.228l0.359,0.229l0.362,0.232l0.364,0.234l0.368,0.237l0.369,0.239l0.373,0.241l0.374,0.243l0.376,0.243
		l0.376,0.246l0.377,0.247l0.378,0.248l0.378,0.248l0.378,0.249l0.377,0.25l0,0l0.377,0.25l0.375,0.25l0.374,0.249v0.001
		l0.372,0.249l0.369,0.25l0.367,0.248l0.365,0.247l0.361,0.247l0.358,0.246l0.354,0.243v0.001l0.351,0.242l0.347,0.24l0.34,0.239
		c0.113,0.079,0.225,0.158,0.334,0.236l0,0c0.109,0.079,0.218,0.157,0.324,0.235l0,0c0.105,0.078,0.21,0.155,0.313,0.233
		c0.104,0.077,0.204,0.154,0.304,0.231c0.099,0.076,0.197,0.153,0.294,0.229c0.096,0.076,0.19,0.151,0.283,0.227v0.001
		c0.094,0.074,0.185,0.149,0.274,0.225s0.178,0.148,0.265,0.223c0.088,0.074,0.173,0.147,0.257,0.221v0.001
		c0.083,0.073,0.166,0.146,0.247,0.219s0.16,0.146,0.238,0.216c0.077,0.072,0.154,0.144,0.229,0.215
		c0.074,0.071,0.148,0.142,0.221,0.212s0.143,0.141,0.213,0.21c0.069,0.069,0.138,0.139,0.204,0.207
		c0.067,0.068,0.132,0.137,0.196,0.205l0,0c0.064,0.067,0.127,0.135,0.188,0.202c0.062,0.066,0.121,0.133,0.181,0.199
		s0.116,0.132,0.173,0.197c0.057,0.064,0.112,0.13,0.166,0.194c0.055,0.064,0.107,0.128,0.158,0.192
		c0.052,0.063,0.103,0.126,0.151,0.188c0.05,0.063,0.098,0.125,0.145,0.187c0.048,0.062,0.094,0.122,0.138,0.184
		c0.045,0.061,0.089,0.121,0.132,0.181c0.042,0.06,0.084,0.119,0.123,0.178c0.042,0.059,0.081,0.117,0.119,0.175
		c0.039,0.058,0.076,0.115,0.112,0.172s0.071,0.112,0.105,0.168c0.035,0.057,0.068,0.112,0.101,0.166
		c0.032,0.056,0.064,0.109,0.096,0.163c0.03,0.054,0.06,0.106,0.089,0.159c0.028,0.053,0.057,0.105,0.083,0.157
		c0.027,0.051,0.054,0.103,0.078,0.152c0.025,0.05,0.05,0.1,0.074,0.149c0.023,0.05,0.047,0.098,0.068,0.146
		c0.022,0.049,0.044,0.096,0.063,0.144c0.021,0.047,0.041,0.093,0.06,0.139c0.02,0.046,0.038,0.092,0.055,0.137
		c0.019,0.044,0.034,0.089,0.051,0.132l0,0c0.017,0.044,0.032,0.087,0.047,0.129l0.043,0.125c0.014,0.042,0.026,0.082,0.039,0.122
		l0,0c0.012,0.04,0.023,0.079,0.035,0.118l0.031,0.114c0.01,0.037,0.02,0.074,0.029,0.11l0.024,0.106l0.022,0.104l0.02,0.098
		l0.017,0.096l0.015,0.09l0.013,0.087l0.009,0.084l0.008,0.077l0.007,0.075l0.004,0.07l0.003,0.065l0.001,0.063v0.057l-0.001,0.053
		l-0.002,0.048l-0.003,0.044l-0.003,0.039l-0.004,0.034c-0.002,0.011-0.002,0.021-0.002,0.03l0.002,0.003
		c0,0.009,0.002,0.019,0.006,0.027v0.001c0.004,0.009,0.008,0.017,0.013,0.024l0.002,0.002c0.005,0.008,0.012,0.015,0.019,0.022
		l0.003,0.003c0.008,0.007,0.016,0.013,0.024,0.02l0.003,0.002c0.009,0.006,0.02,0.012,0.029,0.018l0.006,0.003
		c0.011,0.006,0.024,0.011,0.037,0.016l0.005,0.002c0.012,0.005,0.025,0.01,0.04,0.014l0.007,0.002
		c0.014,0.004,0.03,0.009,0.046,0.013l0.011,0.002c0.016,0.004,0.03,0.007,0.048,0.01l0.014,0.002
		c0.016,0.004,0.033,0.006,0.051,0.008l0.015,0.002c0.02,0.004,0.039,0.006,0.06,0.007l0.017,0.002
		c0.019,0.002,0.038,0.004,0.057,0.006l0.018,0.001l0.065,0.004l0.025,0.001l0.061,0.002l0.036,0.002h0.06l0.033,0.001h0.039h0.039
		h0.04h0.001l0.04-0.001h0.004h0.038l0.043-0.001l0.044-0.001l0.044-0.002l0.045-0.001h0.003l0.09-0.004l0.048-0.002
		c0.158-0.008,0.331-0.018,0.515-0.031c-0.152,0.633-0.791,1.222-2.422,1.81c-3.612,1.301-10.135,1.087-8.334,3.866
		c0.667,1.031,7.063,0.783,12.095,0.485c5.032-0.299,7.543-1.293,9.375-2.743c1.832-1.449,2.64,0.036,5.218-0.021
		c2.577-0.057,5.277-0.21,5.518-0.967C229.311,298.386,227.92,296.822,226.475,295.608z M119.345,245.161l-0.034,0.01l-0.095-0.142
		l0.129,0.049l0.129,0.046L119.345,245.161z M120.023,242.251l-0.388,0.117c-0.006-0.034-0.008-0.067-0.006-0.102
		c0.023-0.442,0.613-0.824,1.433-0.912c0.274-0.029,0.574-0.025,0.887,0.02h0l0.084,0.014c0.151,0.024,0.306,0.06,0.461,0.104
		l-0.461,0.143l-0.972,0.298L120.023,242.251z M124.534,243.679l-0.59,0.168c-0.714-0.024-1.457,0.001-1.91,0.035
		c-0.109,0.007-0.202,0.017-0.273,0.024c-0.064-0.024-0.126-0.049-0.188-0.074l0.461-0.14l1.392-0.423
		c0.053-0.015,0.101-0.033,0.145-0.052l0.963-0.295l0.541-0.166l0.004,0.001l0.045,0.013h0.003l0.025,0.007l0.029,0.006l0.031,0.008
		l0.033,0.007l0.026,0.005l0.028,0.006l0.024,0.004l0.008,0.001l0.034,0.005l0.004,0.001l0.022,0.002l0.002,0.001l0.026,0.003
		l0.025,0.002l0.031,0.002h0.001l0.021,0.002h0.031h0.016c0.01,0,0.021,0,0.03,0h0.002l0.019-0.001h0.001l0.031-0.003h0.009
		c0.011-0.002,0.021-0.003,0.031-0.005l0.017-0.003l0.027-0.005l0.013-0.002l0.023-0.007l0.015-0.005h0.001l0.025-0.01h0.002
		l0.014-0.006l0.012-0.006l0.013-0.007h0.001l0.021-0.013l0.002-0.001l0.011-0.008l0.017-0.013l0.008-0.006l0.014-0.014l0.001-0.002
		l0.009-0.009l0.013-0.016l0.006-0.008l0.011-0.017l0.001-0.001l0.007-0.011l0-0.002l0.005-0.01l0.005-0.013l0.01-0.024l0.003-0.014
		l0.006-0.022l0-0.005l0.002-0.014l0.002-0.013v-0.003l0.001-0.015l0.001-0.027v-0.004l0-0.016l1.05-0.322l0.454,0.679
		L124.534,243.679z M131.152,241.875c-0.14,0.003-0.273,0.012-0.4,0.025l0,0h0c-0.249,0.026-0.471,0.073-0.664,0.136l-0.242-0.362
		c-0.69-1.03-1.788-1.335-3.088-1.307c-0.657,0.015-1.129,0.16-1.608,0.31l-0.114,0.035c-0.022,0.007-0.043,0.014-0.064,0.021
		l-0.218,0.067c-0.035-0.036-0.068-0.073-0.101-0.109l-0.009-0.009l-0.008-0.01l-0.001-0.001l-0.007-0.008l-0.007-0.01l-0.009-0.009
		l-0.016-0.019l-0.008-0.01l-0.009-0.01l-0.001-0.001l-0.007-0.008l-0.008-0.009l-0.008-0.01l-0.008-0.009l-0.008-0.009
		l-0.005-0.006l-0.003-0.004l-0.008-0.01l0-0.001l-0.007-0.008l-0.008-0.01l-0.008-0.01l-0.008-0.009l-0.008-0.01l-0.007-0.009
		l-0.016-0.019c-1.063-1.276-1.387-2.615-1.217-3.913c0.38,0.147,0.574,0.242,0.574,0.242l0.362-1.139l0.013,0.006l0.013,0.006
		l0.025,0.011l0.002,0.001l0.011,0.004l0.012,0.006l0.012,0.005l0.012,0.005l0.005,0.003l0.007,0.003l0.012,0.005l0.011,0.005
		l0.012,0.005l0.007,0.003l0.003,0.001l0.011,0.005l0.021,0.01l0.01,0.004l0.02,0.01l0.009,0.004l0.01,0.004l0.001,0.001
		l0.008,0.003l0.009,0.004l0.009,0.004l0.008,0.004l0.005,0.002l0.004,0.002l0.008,0.003l0.008,0.004l0.008,0.004l0.006,0.002
		l0.001,0.001l0.007,0.003l0.007,0.004l0.007,0.003l0.006,0.003h0l0.012,0.006h0l0.006,0.003l0.006,0.002l0.002,0.002l0.004,0.001
		l0.005,0.003l0.006,0.002l0.005,0.002l0.003,0.002h0.002l0.004,0.003l0.004,0.002l0.004,0.001l0.004,0.002l0,0l0.004,0.002
		l0.003,0.002l0.003,0.001l0.003,0.002l0,0l0.003,0.001l0.002,0.001l0.002,0.001l0.002,0.001l0.001,0.001l0.001,0.001h0.001
		l0.002,0.001l0.001,0.001h0.001h0h0h0l0,0.001l0.001-0.005h0l0.004-0.013l0,0l0.008-0.021l0-0.002l0.011-0.028l0-0.002l0.013-0.036
		l0.001-0.004l0.015-0.041l0.002-0.006l0.017-0.048l0.002-0.007l0.02-0.055l0.003-0.009l0.021-0.06l0.003-0.011l0.022-0.064
		l0.005-0.014l0.024-0.068l0.006-0.017l0.024-0.072l0.007-0.02l0.026-0.076l0.008-0.022l0.027-0.079l0.009-0.026l0.027-0.082
		l0.01-0.029l0.028-0.084l0.011-0.033l0.028-0.086l0.013-0.037l0.029-0.088l0.013-0.041l0.029-0.09l0.015-0.045l0.029-0.091
		l0.016-0.048l0.03-0.092l0.017-0.054l0.029-0.092l0.018-0.058l0.029-0.092l0.047-0.153l0.021-0.066l0.028-0.092l0.022-0.071
		l0.028-0.091l0.022-0.075l0.027-0.091l0.024-0.08l0.026-0.088l0.025-0.086l0.026-0.087l0.026-0.09l0.025-0.086l0.027-0.095
		l0.024-0.084l0.028-0.099l0.023-0.083l0.029-0.104l0.004-0.013l0.045-0.161l0.003-0.015l0.022-0.077l0.031-0.113l0.02-0.075
		l0.032-0.118l0.019-0.072l0.032-0.122l0.018-0.069l0.033-0.127l0.006-0.023l0.036-0.142l0.008-0.032l0.016-0.064l0.033-0.135
		l0.015-0.061l0.034-0.141l0.002-0.01l0.032-0.134l0.013-0.057l0.013-0.054l0.011-0.051l0.033-0.141l0.001-0.008l0.034-0.15
		c0.027-0.122,0.054-0.246,0.079-0.368l0.011-0.049l0.029-0.142l0.01-0.048l0.007-0.037l0.033-0.165l0.006-0.032l0.032-0.169
		l0.025-0.142l0.01-0.058l0.005-0.026l0.03-0.173l0.003-0.022l0.029-0.175l0.002-0.02l0.028-0.178l0.002-0.015l0.025-0.18
		l0.021-0.159l0.005-0.033l0.001-0.009c0.008-0.062,0.015-0.122,0.022-0.183v-0.005l0.02-0.183v-0.002l0.017-0.183l0-0.001
		l0.015-0.179l0-0.005l0.011-0.173l0-0.008l0.009-0.166v-0.011c0.002-0.054,0.004-0.107,0.006-0.16v-0.014l0.002-0.154v-0.146
		v-0.018c3.65,6.71,5.786,14.713,5.786,14.713l3.381,0.721L131.152,241.875z M144.562,196.463l-0.195,0.024l-0.487,0.059
		l-0.046-0.104l0.533-0.751l0.533-0.753C144.9,194.94,144.764,195.506,144.562,196.463z M177.429,229.031l-0.02-0.024l-0.024-0.032
		l-0.007-0.008l-0.031-0.039l-0.007-0.01l-0.023-0.03l-0.021-0.025l-0.043-0.055l-0.002-0.002l-0.029-0.037l-0.059-0.076
		l-0.003-0.003l-0.032-0.039l-0.011-0.014l-0.021-0.026l-0.022-0.03l-0.008-0.01l-0.032-0.04l-0.006-0.007l-0.119-0.151
		l-0.015-0.018l-0.017-0.022l-0.027-0.034l-0.004-0.005l-0.032-0.04l-0.009-0.012l-0.055-0.067l-0.031-0.04l-0.004-0.005
		l-0.027-0.035l-0.017-0.021l-0.015-0.018l-0.031-0.039h-0.001l-0.011-0.015l-0.021-0.025l-0.013-0.017l-0.02-0.023l-0.025-0.032
		l-0.006-0.007l-0.063-0.079l-0.021-0.027l-0.011-0.013l-0.032-0.04l-0.003-0.004l-0.028-0.035l-0.017-0.021l-0.016-0.02
		l-0.029-0.037l-0.003-0.002l-0.03-0.04l-0.012-0.015l-0.021-0.025l-0.025-0.03l-0.007-0.009l-0.032-0.04l-0.006-0.008l-0.025-0.031
		l-0.02-0.025l-0.012-0.015l-0.032-0.039l-0.002-0.002l-0.03-0.038l-0.016-0.019l-0.017-0.021l-0.029-0.035l-0.004-0.005
		l-0.032-0.04l-0.01-0.012l-0.021-0.026l-0.023-0.03l-0.008-0.01l-0.033-0.039l-0.005-0.007l-0.027-0.033l-0.018-0.022l-0.014-0.018
		l-0.033-0.039c-6.15-7.569-1.284-10.011-1.592-10.472l-0.005-0.01l-0.001-0.001v-0.001l-0.005-0.011l-0.001-0.003l-0.001-0.004
		l-0.003-0.008l-0.002-0.007l0-0.002l-0.002-0.009l0-0.002l-0.004-0.019v-0.001l-0.002-0.011l-0.001-0.004l-0.001-0.008
		l-0.002-0.013l-0.001-0.007l-0.001-0.006l-0.002-0.014l-0.002-0.013v-0.002l-0.002-0.015l-0.002-0.016v-0.001l-0.002-0.016
		l-0.002-0.017l0-0.006l-0.001-0.012l-0.002-0.018l-0.001-0.012l0-0.007l-0.002-0.02l-0.003-0.04l-0.001-0.021v-0.002l-0.001-0.02
		l-0.002-0.022l0-0.009l-0.001-0.014l-0.001-0.023l-0.001-0.015v-0.009l-0.001-0.023l-0.004-0.077v-0.005l-0.004-0.104l-0.001-0.021
		v-0.008l-0.001-0.03l-0.001-0.028v-0.001l-0.004-0.124v-0.016l0-0.017l-0.003-0.099l0-0.034l0-0.002v-0.033l-0.001-0.035
		l-0.001-0.036l0-0.036l-0.003-0.148l-0.001-0.038v-0.003l-0.001-0.036l0-0.039v-0.014l0-0.026l0.016,0.023l0.016,0.021l0.013,0.021
		l0.03,0.042l0.02,0.028l0.01,0.014l0.021,0.03l0.008,0.012l0.024,0.033l0.006,0.009c0.525,0.739,1.083,1.401,1.662,1.951
		l0.012,0.011l0.023,0.023l0.013,0.011l0.012,0.011l0.004,0.005l0.008,0.006l0.012,0.012l0.012,0.011l0.012,0.012l0.013,0.01
		l0.011,0.011l0.003,0.004l0.009,0.008l0.012,0.011l0.013,0.01l0.002,0.003l0.01,0.009l0.012,0.01l0.012,0.011l0.002,0.002
		l0.011,0.01l0.012,0.01l0.012,0.011l0.001,0.001l0.011,0.01l0.012,0.011l0.012,0.011h0.001l0.012,0.01l0.012,0.011l0.012,0.01
		c0.138,0.12,0.271,0.237,0.401,0.353c4.751,4.198,4.526,5.552,3.015,9.145c-0.071,0.172-0.154,0.342-0.247,0.51l-0.006,0.011
		c-0.062,0.11-0.127,0.222-0.196,0.332l-0.002,0.003c-0.033,0.053-0.067,0.105-0.104,0.158l-0.005,0.008l-0.006,0.009
		c-0.035,0.052-0.07,0.103-0.106,0.154l-0.002,0.004l-0.003,0.003c-0.037,0.051-0.074,0.102-0.111,0.152l-0.006,0.008l-0.001,0.001
		l-0.007,0.009c-0.037,0.05-0.075,0.099-0.114,0.148l-0.005,0.007l-0.003,0.003c-0.039,0.05-0.078,0.099-0.119,0.147l-0.009,0.011
		l-0.009,0.012c-0.04,0.049-0.08,0.096-0.121,0.144l-0.006,0.006l-0.02,0.023c-0.037,0.041-0.073,0.084-0.11,0.126l-0.022,0.023
		c-0.037,0.042-0.076,0.084-0.115,0.127l-0.04,0.044l-0.11,0.115l-0.026,0.027l-0.125,0.127l-0.03,0.03l-0.062,0.061l-0.031-0.039
		l-0.013-0.018l-0.018-0.021l-0.026-0.034l-0.005-0.006l-0.031-0.039l-0.008-0.012l-0.022-0.028l-0.021-0.027l-0.009-0.013
		l-0.032-0.04l-0.003-0.004l-0.028-0.035l-0.016-0.021l-0.015-0.018l-0.031-0.04l-0.031-0.04L177.429,229.031z"/>
	<g>
		<path fill-rule="evenodd" clip-rule="evenodd" fill="#F6C5AE" d="M209.855,73.091c-0.732,4.144-1.726,12.755-1.478,15.828
			c0.249,3.074-17.532,6.592-16.938-0.744c0.593-7.337,0.012-12.795-0.129-18.614C191.171,63.741,208.625,65.834,209.855,73.091z"/>
		<path fill-rule="evenodd" clip-rule="evenodd" fill="#F6C5AE" d="M165.948,162.301c-1.994,3.957-3.148,8.338-2.247,12.324
			c0.9,3.986-0.794,4.593-1.907,2.021c-1.113-2.573-3.634-1.314-4.177,0.411c-0.543,1.727,1.095,3.821,3.46,4.801
			c2.364,0.979,2.272,3.736-1.341,2.502c-3.613-1.235-4.616-0.693-5.766-5.751c-1.149-5.056,2.523-9.55,3.729-20.9
			C158.906,146.36,166.827,157.62,165.948,162.301z"/>
		<g>
			<path fill-rule="evenodd" clip-rule="evenodd" fill="#1A1A1A" d="M169.368,176.268l6.748-0.294
				c1.462-0.063,2.71,1.08,2.773,2.542l1.492,34.133c0.064,1.461-1.08,2.71-2.541,2.773l-6.748,0.295
				c-1.462,0.064-2.71-1.079-2.774-2.541l-1.493-34.133C166.763,177.58,167.906,176.332,169.368,176.268z"/>
			<path fill-rule="evenodd" clip-rule="evenodd" fill="#1A1A1A" d="M140.045,190.592l28.909-14.273l8.68,8.844l1.945,29.505
				l-28.495,15.334C151.084,230.001,143.896,212.104,140.045,190.592z"/>
			<path fill-rule="evenodd" clip-rule="evenodd" fill="#1A1A1A" d="M141.43,190.127l6.748-0.295c1.461-0.064,2.71,1.08,2.774,2.542
				l1.537,35.166c0.064,1.462-1.08,2.71-2.541,2.773l-6.748,0.296c-1.462,0.063-2.71-1.08-2.774-2.542l-1.538-35.166
				C138.825,191.439,139.968,190.19,141.43,190.127z"/>
			<path fill-rule="evenodd" clip-rule="evenodd" d="M141.664,191.63l6.412-0.28c0.706-0.031,1.308,0.521,1.338,1.226l1.526,34.897
				c0.03,0.706-0.521,1.308-1.226,1.339l-6.413,0.28c-0.705,0.031-1.308-0.521-1.338-1.227l-1.526-34.897
				C140.407,192.263,140.959,191.66,141.664,191.63z"/>
			<path fill="#1A1A1A" d="M165.17,178.547c0.037,0.861,0.767,1.53,1.628,1.492c0.861-0.038,1.53-0.768,1.492-1.629l-0.111-2.546
				c-0.09-2.075-1.011-2.689-2.329-2.632c-0.665,0.029-1.222,0.324-1.788,0.624l-0.134,0.07c-0.026,0.014-0.051,0.028-0.076,0.043
				l-6.543,3.429c-0.762,0.397-1.057,1.337-0.659,2.1c0.397,0.761,1.337,1.056,2.099,0.659l6.347-3.327L165.17,178.547z"/>
			<path fill="#1A1A1A" d="M152.584,185.195c0.038,0.86,0.767,1.529,1.628,1.491c0.862-0.037,1.53-0.767,1.492-1.628l-0.111-2.547
				c-0.031-0.699,0.447-0.947,0.939-1.203l0.005-0.002l0.001,0.002l0.034-0.018c0.027-0.014,0.053-0.028,0.078-0.043l4.179-2.17
				c0.765-0.395,1.065-1.335,0.671-2.1c-0.395-0.766-1.334-1.065-2.1-0.672l-4.189,2.176c-0.026,0.013-0.053,0.024-0.079,0.038
				l-0.035,0.019l0.001,0.002c-1.396,0.725-2.745,1.428-2.628,4.106L152.584,185.195z"/>
		</g>
		<path fill-rule="evenodd" clip-rule="evenodd" fill="#141A29" d="M182.986,292.211c-0.721,4.889-1.149,7.897-2.714,10.581
			c-1.564,2.685-2.999,4.056-4.508,3.747c-1.508-0.308-4.038-2.626-4.038-2.626s-3.892,0.73-8.279-1.319
			c-4.387-2.051-11.743-5.274-10.996-7.928c1.448-5.141,15.205,2.112,22.514-8.322C182.274,275.909,184.452,282.992,182.986,292.211
			z"/>
		<path fill-rule="evenodd" clip-rule="evenodd" fill="#141A29" d="M232.832,282.744c1.038,2.384,1.987,7.014,1.307,8.538
			s-3.47,1.833-6.081,1.946c-2.61,0.115-2.554-2.877-5.229,0.043c-2.676,2.919-5.764,4.922-10.969,5.524
			c-5.206,0.601-11.745,1.099-11.814-0.979c-0.185-5.596,6.214-5.166,10.583-7.786c4.369-2.619,3.871-5.258,4.275-8.825
			S230.065,279.315,232.832,282.744z"/>
		<path fill-rule="evenodd" clip-rule="evenodd" fill="#FFFFFF" d="M211.742,84.209l1.057,75.8c0,0-38.541,5.312-38.292,4.602
			c0.248-0.708,1.977-63.266-1.948-73.275c5.05-2.466,12.337-2.977,16.567-7.736C196.422,88.098,204.202,85.978,211.742,84.209z"/>
		<path fill-rule="evenodd" clip-rule="evenodd" fill="#2E2E33" d="M178.581,159.31l28.777-3.711c0,0,15.308,13.555,13.294,19.856
			c-2.014,6.3-15.838,26.689-13.607,36.565s14.189,32.225,16.224,41.171c2.033,8.945,4.888,17.855,7.003,22.417
			c2.117,4.562,3.674,8.875,3.674,8.875s-5.75-0.022-11.204,0.489c-5.453,0.513-10.846,2.392-10.36,1.001
			c0.487-1.391,2.612-9.149-1.668-19.366c-4.278-10.217-11.149-23.332-11.149-23.332s-9.378,36.002-10.991,42.917
			c-1.615,6.916-3.184,8.628-3.184,8.628s-2.233-0.998-8.662-4.003c-6.428-3.004-9.482-3.966-9.482-3.966s4.062-7.296,6.853-12.346
			c2.791-5.05,5.333-9.542,5.698-19.962c0.366-10.421,0.98-27.695,2.249-36.238c1.27-8.543,0.237-10.064,0.286-10.846
			C182.38,206.679,170.607,177.484,178.581,159.31z"/>
		<path fill-rule="evenodd" clip-rule="evenodd" fill="#101012" d="M178.581,159.31l19.293-2.488
			c-5.624,1.492-11.823,2.35-13.752,5.758c-1.928,3.408-3.883,9.079-4.609,13.766c-0.726,4.688-0.21,10.054,0.474,15.028
			c0.393,2.865,3.302,11.438,3.951,5.623c0.824-7.384,1.471-11.712,3.404-18.488c1.935-6.775,4.472-11.099,3.832-8.717
			c-0.639,2.383,6.791-0.545,3.061,1.973c-3.731,2.517-3.517,1.067-5.999,10.175c-2.481,9.108-4.996,20.686-5.771,26.146
			C182.268,206.151,171.31,179.254,178.581,159.31L178.581,159.31z M181.969,218.828c0.024-0.178,0.051-0.354,0.075-0.523
			c0.132-0.885,0.251-1.713,0.359-2.486C182.306,216.952,182.169,217.995,181.969,218.828z"/>
		<path fill-rule="evenodd" clip-rule="evenodd" fill="#4B2A17" d="M213.934,61.832c1.342-5.884,3.417-10.659-0.236-13.241
			c-3.654-2.582-8.106-5.129-12.335-5.172s-10.163,1.206-11.212,4.831s-2.425,12.889,1.899,20.353S210.193,72.962,213.934,61.832z"
			/>
		<path fill-rule="evenodd" clip-rule="evenodd" fill="#D59F86" d="M209.616,73.76c-0.871,3.444-3.27,9.34-8.974,8.227
			c-5.703-1.113-8.505-5.964-9.021-13.094C191.106,61.762,209.266,64.169,209.616,73.76z"/>
		<path fill-rule="evenodd" clip-rule="evenodd" fill="#F6C5AE" d="M214.042,59.085c-0.525,3.679-1.866,9.563-3.214,12.707
			c-1.349,3.143-4.465,10.247-9.536,9.212c-5.071-1.034-8.854-6.581-9.772-11.91c-0.919-5.329-1.813-10.087-0.205-7.301
			c1.606,2.785,3.044,4.321,3.177-0.482c0.133-4.804-0.102-10.162,2.992-9.955c3.093,0.207,5.027,2.636,8.219,2.497
			c3.193-0.14,3.729-0.963,6.256-0.617C214.486,53.583,214.964,56.646,214.042,59.085z"/>
		
			<ellipse transform="matrix(-0.2302 -0.9732 0.9732 -0.2302 172.7206 264.396)" fill-rule="evenodd" clip-rule="evenodd" fill="#F6C5AE" cx="190.939" cy="63.88" rx="3.063" ry="1.774"/>
		<path fill-rule="evenodd" clip-rule="evenodd" fill="#2E3954" d="M201.265,88.466l-3.957,3.493l-0.93,2.143
			c0,0-1.119,24.22-2.14,34.32c-1.021,10.099-2.661,22.785-2.661,22.785l-6.114,6.483c0,0-4.705-3.084-4.776-4.727
			c-0.072-1.642,1.837-12.329,3.477-25.014c1.639-12.686,8.782-33.29,8.782-33.29l0.294-3.424l-1.979-3.408l5.923-2.342
			C197.183,85.483,199.393,86.083,201.265,88.466z"/>
		<polygon fill-rule="evenodd" clip-rule="evenodd" fill="#E5E5E5" points="209.033,78.168 210.401,81.742 203.94,91.826 
			197.183,85.483 189.975,90.54 188.89,83.791 191.763,80.82 197.183,85.483 		"/>
		<path fill-rule="evenodd" clip-rule="evenodd" fill="#101012" d="M204.434,156.313c-0.272,1.892,3.584,13.775,12.405,17.836
			S222.158,155.025,204.434,156.313z"/>
		<path fill-rule="evenodd" clip-rule="evenodd" fill="#2E2E33" d="M210.401,81.742c0,0-13.559,33.246-14.12,45.187
			c-0.561,11.94,4.23,25.969,8.906,30.252c4.675,4.283,10.965,20.722,10.965,20.722l8.818-0.077c0,0-0.562-16.378-2.312-31.623
			c-1.75-15.245,4.535-20.162,4.495-21.089c-0.041-0.927,7.985-26.193,6.567-30.31C232.304,90.688,217.607,87.308,210.401,81.742z"
			/>
		<path fill-rule="evenodd" clip-rule="evenodd" fill="#101012" d="M210.946,166.085c2.878,5.732,5.206,11.818,5.206,11.818
			l8.818-0.077c0,0-0.146-4.262-0.521-10.462c-6.7-1.684-13.845-2.73-13.845-2.73L210.946,166.085z"/>
		<path fill-rule="evenodd" clip-rule="evenodd" fill="#101012" d="M223.402,153.456c-0.219-2.4-0.467-4.84-0.743-7.252
			c-1.75-15.245,4.535-20.162,4.495-21.089c-0.019-0.411,1.556-5.626,3.186-11.656c-0.613,0.688-1.21,1.463-1.692,2.259
			c-2.326,3.842,0.573-4.7,1.229-11.119c0.654-6.419,3.114-10.734,0.925-7.366c-2.191,3.369-2.751,8.38-3.264,14.481
			c-0.513,6.101-0.845,5.647-2.414,1.82s-3.063,1.225-2.406,5.56c0.657,4.335,0.543,8.86-1.106,13.919
			c-1.648,5.06-1.796,12.391-1.625,16.281c0.17,3.889-3.59,7.015-6.241,10.559c4.269,1.372,9.823,7.208,7.976,4.171
			c-1.847-3.036-2.578-5.499,0.086-8.732C222.354,154.628,222.883,154.011,223.402,153.456z"/>
		<path fill-rule="evenodd" clip-rule="evenodd" fill="#2E2E33" d="M189.125,83.601c0,0-4.291,29.281-4.349,42.129
			c-0.057,12.848-3.201,32.949-4.893,40.296c-1.689,7.347-3.381,11.135-3.381,11.135l-5.22-2.557c0,0,3.869-24.775,2.489-38.644
			c-1.38-13.867-1.514-38.158-2.468-42.295C170.349,89.528,179.946,86.014,189.125,83.601z"/>
		<path fill-rule="evenodd" clip-rule="evenodd" fill="#101012" d="M183.317,141.888c2.521-16.669-3.986-41.609-3.986-41.609
			l4.33-7.154l-2.189-4.083l0.907-2.771l-2.731,3.333l1.854,3.775l-4.298,7.875C177.204,101.255,185.838,125.218,183.317,141.888z"
			/>
		<path fill-rule="evenodd" clip-rule="evenodd" fill="#F6C5AE" d="M226.345,166.779c-4.177,3.588-9.77,10.177-12.663,11.232
			c-2.895,1.055-2.312,0.255-2.312,0.255s0.135-4.029-2.244-8.877s-4.152-6.473-7.853-6.156c-3.7,0.316-5.332-1.625-1.962-2.39
			c3.372-0.767,9.773,0.52,16.287,0.853C222.113,162.031,228.64,162.656,226.345,166.779z"/>
		<path fill-rule="evenodd" clip-rule="evenodd" fill="#FFFFFF" d="M227.78,166.987c-0.423,0.37-4.125,4.136-4.125,4.136
			l-9.69-10.563l4.062-1.584C218.026,158.976,227.486,162.254,227.78,166.987z"/>
		<path fill-rule="evenodd" clip-rule="evenodd" fill="#2E2E33" d="M233.835,93.872c0.626,7.246,9.975,33.456,10.574,40.084
			s0.738,8.444-6.127,19.147c-6.866,10.705-11.637,18.057-11.637,18.057c-2.969-3.521-6.759-8.169-12.209-11.288
			c0,0,8.393-6.248,12.091-13.683c3.699-7.435,4.665-10.107,2.104-19.126C226.071,118.043,230.436,90.461,233.835,93.872z"/>
		<path fill-rule="evenodd" clip-rule="evenodd" fill="#FFFFFF" d="M166.906,161.739l-1.921,4.302c0,0-1.122-1.533-3.723-2.738
			c-2.602-1.204-4.955-0.75-4.955-0.75l1.093-5.146C157.4,157.408,166.386,157.894,166.906,161.739z"/>
		<path fill-rule="evenodd" clip-rule="evenodd" fill="#2E2E33" d="M171.53,91.5c-1.482,5.339-4.659,28.203-6.665,35.409
			c-2.007,7.207-6.308,22.097-7.241,25.542c-0.933,3.445-1.502,8.112-1.502,8.112s2.685-2.283,5.386-0.699
			c2.7,1.584,4.83,4.277,4.83,4.277s5.947-12.641,7.812-19.532C176.016,137.719,176.709,93.131,171.53,91.5z"/>
		<path fill-rule="evenodd" clip-rule="evenodd" fill="#101012" d="M229.857,137.657c0.274-1.59,0.281-3.224,0-5.181v-4.352
			c1.671,2.05,4.221,3.926,6.856,4.541c3.937,0.919,8.583,3.833,2.496,3.632s-10.07,1.375-6.715,3.254
			c3.354,1.88,4.715,4.47,0.961,4.166c-1.763-0.143-2.977,0.481-3.599,1.37V137.657L229.857,137.657z M229.857,148.114
			c0.066,0.093,0.138,0.184,0.218,0.271c1.538,1.689,1.96,3.015-0.218,2.494V148.114L229.857,148.114z M229.857,117.065v-3.042
			c2.444-2.984,5.596-4.818,2.719-1.126C231.516,114.258,230.595,115.674,229.857,117.065L229.857,117.065z M229.857,104.771v-3.56
			c0.367-1.661,0.768-3.144,1.187-4.349c1.749-2.643-0.54,1.579-1.168,7.737L229.857,104.771z M221.051,164.951
			c-2.04-2.103-6.614-5.08-6.614-5.08s8.393-6.248,12.091-13.683c1.75-3.518,2.888-5.969,3.33-8.531v7.43
			c-0.638,0.912-0.653,2.102,0,3.027v2.765c-0.142-0.034-0.294-0.076-0.457-0.126c-2.686-0.817-4.932,1.307-7.595,4.54
			C219.142,158.526,220.047,163.301,221.051,164.951L221.051,164.951z M229.857,132.477c-0.224-1.553-0.629-3.311-1.226-5.415
			c-0.127-0.445-0.236-0.937-0.329-1.467c0.334,0.823,0.871,1.691,1.555,2.53V132.477L229.857,132.477z M229.857,101.211v3.56
			c-0.368,3.434-1.354,7.431-1.832,9.81C228.322,109.966,228.999,105.098,229.857,101.211L229.857,101.211z M229.857,114.023
			c-0.439,0.536-0.855,1.11-1.21,1.695c-0.358,0.592-0.592,0.89-0.73,0.946c-0.082,2.106-0.074,4.115,0.041,5.902
			c0.192-1.646,0.866-3.55,1.899-5.501V114.023z"/>
		<path fill-rule="evenodd" clip-rule="evenodd" fill="#101012" d="M160.49,159.437c0.336,0.089,0.677,0.227,1.018,0.428
			c2.7,1.584,4.83,4.277,4.83,4.277s5.947-12.641,7.812-19.532c1.584-5.852,1.495-39.75-1.739-50.84
			c-0.019-0.019-0.036-0.041-0.055-0.06c0.313,7.156,2.116,23.441,1.915,29.528c-0.201,6.088-0.483,17.477-1.694,14.725
			c-1.211-2.752-5.683-5.206-3.253,0.454c2.429,5.66,2.404,12.208,0.287,10.118c-2.118-2.089-1.732-0.392-1.684,4.283
			c0.049,4.673-0.106,8.264-3.427,7.163C162.267,159.241,160.533,158.619,160.49,159.437z"/>
		<path fill-rule="evenodd" clip-rule="evenodd" fill="#2E3954" d="M217.883,291.245c-3.235,2.944-6.843,5.904-11.301,6.473
			c-4.46,0.569-5.619-0.314-1.177-1.256c4.443-0.941,7.361-2.563,8.935-5.062C215.912,288.902,219.82,288.545,217.883,291.245z"/>
		<path fill-rule="evenodd" clip-rule="evenodd" fill="#101012" d="M207.352,205.292c-0.157,0.699-0.286,1.383-0.377,2.044
			c-1.557,7.338-3.235,19.092-3.825,25.329c-0.688,7.278,0.763,12.853,3.087,10.736c2.323-2.114,5.696-3.269,2.753,3.102
			s2.089,6.352,2.284,15.403c0.194,9.051,4.748,16.503,9.37,16.301c4.621-0.202-3.992,0.778-2.839,4.15
			c1.138,3.324,8.239-0.066,10.861,2.235c-1.805,0.071-3.886,0.188-5.925,0.379c-5.453,0.513-10.846,2.392-10.36,1.001
			c0.487-1.391,2.612-9.149-1.668-19.366c-4.278-10.217-11.149-23.332-11.149-23.332l-0.033,0.129
			c0.012-0.167,0.024-0.337,0.039-0.516C200.209,234.982,201.649,223.38,207.352,205.292z"/>
		<path fill-rule="evenodd" clip-rule="evenodd" fill="#2E3954" d="M180.189,296.631c-0.25,2.813-6.209,7.557-12.25,6.14
			c-6.04-1.417-5.481-1.441,0.13-1.313c5.61,0.129,8.245-3.724,9.663-5.467C179.151,294.247,181.39,294.148,180.189,296.631z"/>
		<path fill-rule="evenodd" clip-rule="evenodd" fill="#101012" d="M198.981,144.809c-4.726-14.523,6.021-33.644,14.738-44.743
			l-0.358-6.781l5.169-3.977c0,0-2.784-3.667-5.596-5.721c1.444,1.175,3.66,5.312,3.66,5.312l-4.835,2.688l0.774,7.085
			C202.477,108.154,194.256,130.286,198.981,144.809z"/>
		<path fill-rule="evenodd" clip-rule="evenodd" fill="#101012" d="M204.936,159.067c0,0-24.36,3.648-24.22,2.923
			c0.141-0.725,0.548-3.027,0.548-3.027l22.84-2.945L204.936,159.067z"/>
		<path fill-rule="evenodd" clip-rule="evenodd" fill="#F6C5AE" d="M163.494,173.434c0.05,0.401,0.119,0.798,0.208,1.191
			c0.9,3.986-0.794,4.593-1.907,2.021c-0.387-0.894-0.943-1.325-1.529-1.435L163.494,173.434L163.494,173.434z M158.795,180.359
			c1.017-0.231,5.903-0.492,2.978,2.03c-0.892,0.769-3.516,1.006-5.973,0.423l1.668-1.24L158.795,180.359z"/>
		<polygon fill-rule="evenodd" clip-rule="evenodd" fill="#FFFFFF" points="209.033,78.168 210.401,81.742 203.65,90.352 
			197.183,85.483 190.348,88.766 189.126,83.601 191.763,80.82 197.183,85.483 		"/>
	</g>
</g>
</svg>
