<?xml version="1.0" encoding="utf-8"?>
<!-- Generator: Adobe Illustrator 16.0.0, SVG Export Plug-In . SVG Version: 6.00 Build 0)  -->
<!DOCTYPE svg PUBLIC "-//W3C//DTD SVG 1.1//EN" "http://www.w3.org/Graphics/SVG/1.1/DTD/svg11.dtd">
<svg version="1.1" id="Layer_1" xmlns="http://www.w3.org/2000/svg" xmlns:xlink="http://www.w3.org/1999/xlink" x="0px" y="0px"
	 width="350px" height="350px" viewBox="0 0 350 350" enable-background="new 0 0 350 350" xml:space="preserve">
<g>
	<g>
		<polygon fill="#BF8858" points="189.452,96.394 186.979,95.253 186.979,87.389 171.103,87.389 171.103,95.253 168.618,96.325 
			169.28,118.626 171.103,118.626 171.103,122.046 186.979,122.046 186.979,118.626 188.791,118.626 		"/>
		<polygon fill="#E3B9A5" points="186.975,88.188 186.975,94.585 171.098,91.251 171.098,88.188 		"/>
	</g>
	<g>
		<polygon fill="#32303A" points="182.007,175.66 176.065,175.66 154.503,175.66 156.183,308.643 173.599,308.643 176.774,194.743 
			181.288,194.743 187.776,308.643 205.192,308.643 203.564,175.66 		"/>
		<path fill="#221F1F" d="M174.433,311.746c0,5.199-20.507,5.199-20.507,0s3.859-7.423,10.253-7.423
			C170.573,304.323,174.433,306.547,174.433,311.746z"/>
		<path fill="#221F1F" d="M207.449,311.746c0,5.199-20.508,5.199-20.508,0s3.861-7.423,10.254-7.423
			C203.589,304.323,207.449,306.547,207.449,311.746z"/>
		<g>
			<polygon fill="#221F1F" points="203.534,180.818 154.506,180.818 154.506,175.667 203.562,175.667 			"/>
			<path fill="#43414D" d="M181.158,182.181h-4.249c-1.599,0-2.9-1.301-2.9-2.901v-2.074c0-1.599,1.301-2.9,2.9-2.9h4.249
				c1.599,0,2.9,1.301,2.9,2.9v2.074C184.059,180.88,182.757,182.181,181.158,182.181z M176.909,175.733
				c-0.812,0-1.473,0.66-1.473,1.472v2.074c0,0.813,0.661,1.473,1.473,1.473h4.249c0.812,0,1.473-0.659,1.473-1.473v-2.074
				c0-0.813-0.661-1.472-1.473-1.472H176.909z"/>
		</g>
	</g>
	<g>
		<path fill="#E6E7E8" d="M145.225,108.321c2.911-6.344,11.081-7.912,22.79-11.94c0.416-0.146,0.839-0.291,1.263-0.443
			c0.006,0.02,0.006,0.046,0.013,0.066c0.771,4.36,2.959,10.004,9.745,10.666c6.786-0.662,8.975-6.306,9.746-10.666
			c0.006-0.02,0.006-0.046,0.013-0.066c0.424,0.152,0.848,0.297,1.264,0.443c11.71,4.029,19.879,5.597,22.79,11.94
			c3.646,8.083-6.827,16.485-6.827,16.485s-0.945,50.791-2.527,50.791h-24.459h-24.456c-1.582,0-2.527-50.791-2.527-50.791
			S141.579,116.404,145.225,108.321z"/>
		<g>
			<polygon fill="#F15D44" points="175.217,105.275 176.741,108.194 181.378,108.194 182.859,105.275 179.038,102.152 			"/>
			<path fill="#FFFFFF" d="M179.038,102.152l4.883,5.141l9.496-9.755c-0.014-0.007-6.357-2.8-6.357-2.8l-1.96,1.814L179.038,102.152
				z"/>
			<path fill="#FFFFFF" d="M179.038,102.152l-4.883,5.141l-9.496-9.755c0.014-0.007,6.357-2.8,6.357-2.8l1.96,1.814L179.038,102.152
				z"/>
			<polygon fill="#F15D44" points="176.741,108.892 174.853,169.671 179.038,174.297 183.224,169.671 181.378,108.892 			"/>
		</g>
	</g>
	<g>
		<g>
			<g>
				<path fill="#4F4C4D" d="M205.424,91.267l5.063-19.627c0.609-2.358-0.81-4.764-3.168-5.372l-1.067-0.275
					c-2.358-0.609-4.764,0.81-5.373,3.168l-5.063,19.627c-0.608,2.359,0.811,4.764,3.169,5.373l1.067,0.275
					C202.41,95.044,204.815,93.625,205.424,91.267z"/>
				<path fill="#C8C8C8" d="M196.202,90.518l5.614-21.763c0.457-1.769,2.26-2.833,4.029-2.376l3.203,0.826
					c0.42,0.108,0.797,0.298,1.128,0.541c-0.435-0.569-1.044-1.01-1.79-1.202l-3.202-0.826c-1.77-0.457-3.573,0.607-4.029,2.376
					l-5.614,21.763c-0.349,1.348,0.19,2.712,1.248,3.489C196.193,92.566,195.938,91.54,196.202,90.518z"/>
				<path fill="#383643" d="M206.505,70.394l0.265-1.024c0.109-0.423-0.147-0.858-0.57-0.967c-0.422-0.109-0.858,0.147-0.967,0.57
					l-0.265,1.025c-0.109,0.423,0.147,0.858,0.57,0.967C205.961,71.074,206.396,70.817,206.505,70.394z"/>
			</g>
			<path fill="#BF8858" d="M196.622,82.892l6.079,8.282l9.291-3.481l-2.771-10.928c-0.809-2.16-4.868-3.131-7.435-2.17
				C199.221,75.556,195.812,80.731,196.622,82.892z"/>
		</g>
		<path fill="#E6E7E8" d="M222.028,134.57c1.355,0,2.702-0.461,3.797-1.367c1.956-1.618,2.671-4.299,1.779-6.677l-15.949-42.562
			l-11.149,4.179l9.9,26.424l-3.193-1.946l-6.194,12.154l17.914,8.926C219.889,134.284,220.961,134.57,222.028,134.57z"/>
	</g>
	<g>
		<g>
			<g>
				<path fill="#BF8858" d="M156.786,161.422l-10.356-7.895l-6.016,7.891l10.355,7.896c2.046,1.561,3.068,1.059,4.729-1.12
					C157.16,166.014,158.833,162.983,156.786,161.422z"/>
				<path fill="#BF8858" d="M156.547,157.636c-3.613-2.754-7.959-2.301-8.177-2.236c-0.855,0.257-1.384,1.16-1.183,2.015
					c0.201,0.854,1.055,1.338,1.91,1.084c0.018-0.005,0.218-0.01,0.545,0.013c0.328,0.023,0.784,0.075,1.311,0.184
					c1.055,0.218,2.399,0.665,3.587,1.57c0.682,0.521,1.684,0.353,2.238-0.374C157.333,159.167,157.229,158.156,156.547,157.636z"/>
			</g>
		</g>
		<path fill="#E6E7E8" d="M145.3,166.823l6.77-11.379l-14.969-16.952l15.8-14.047l-6.252-18.398l-23.366,29.088
			c-1.8,2.298-1.668,5.562,0.309,7.707L145.3,166.823z"/>
	</g>
	<g>
		<g>
			<path fill="#BF8858" d="M197.375,65.606l0.78-6.963c0.319-9.13-8.148-16.833-17.272-17.151
				c-9.13-0.318-18.108,6.774-18.427,15.904l0.293,6.995c-0.515,0.105-0.984,0.323-1.381,0.639
				c-0.735,0.583-1.216,1.467-1.251,2.479l-0.12,3.438c-0.064,1.817,1.348,3.343,3.169,3.418
				c-0.301,8.622,9.773,17.156,15.962,17.373c6.188,0.216,16.833-7.594,17.135-16.216c1.814,0.051,3.334-1.371,3.396-3.188
				l0.121-3.438C199.835,67.342,198.806,66.012,197.375,65.606z"/>
			<path opacity="0.8" fill="#F6CCB8" d="M197.375,65.606l0.78-6.963c0.319-9.13-8.148-16.833-17.272-17.151
				c-0.002,0-0.822,23.47-0.822,23.47c-2.59,5.044-4.405,12.422-4.405,12.422l3.967,0.139l-0.496,14.214
				c6.194,0.214,16.836-7.595,17.138-16.216c1.814,0.051,3.334-1.371,3.396-3.188l0.121-3.438
				C199.835,67.342,198.806,66.012,197.375,65.606z"/>
			<g>
				<g>
					<circle fill="#E3B9A5" cx="172.385" cy="66.701" r="2.613"/>
					<circle fill="#3C2417" cx="172.408" cy="66.04" r="2.612"/>
					<circle fill="#FFFFFF" cx="173.323" cy="65.256" r="0.653"/>
				</g>
				<g>
					<circle fill="#E3B9A5" cx="187.59" cy="67.232" r="2.613"/>
					<circle fill="#3C2417" cx="187.614" cy="66.571" r="2.613"/>
					<circle fill="#FFFFFF" cx="188.528" cy="65.787" r="0.653"/>
				</g>
			</g>
		</g>
		<g>
			<path fill="#F05D44" d="M185.349,81.292c-0.102,2.921-2.848,5.195-6.135,5.081c-3.286-0.115-5.867-2.576-5.765-5.497
				L185.349,81.292z"/>
			<path fill="#FFFFFF" d="M183.341,83.208l-8.153-0.285c-0.486-0.017-0.868-0.426-0.851-0.912l0.039-1.102l9.917,0.346
				l-0.038,1.102C184.236,82.844,183.828,83.224,183.341,83.208z"/>
		</g>
		<path fill="#3C2417" d="M200.835,48.361c0.065-1.862-1.266-3.446-3.053-3.755c-0.168-1.217-0.88-2.266-1.893-2.884
			c0.017-0.132,0.029-0.265,0.034-0.401c0.085-2.418-1.808-4.447-4.226-4.532c-0.417-0.015-0.82,0.033-1.206,0.129
			c-0.803-1.221-2.162-2.048-3.732-2.104c-0.852-0.03-1.656,0.175-2.356,0.55c-0.724-0.597-1.639-0.973-2.647-1.008
			c-1.081-0.038-2.084,0.319-2.873,0.938c-0.633-0.448-1.397-0.725-2.231-0.754c-1.539-0.053-2.895,0.752-3.645,1.978
			c-0.448-0.253-0.953-0.418-1.503-0.438c-1.717-0.06-3.157,1.205-3.377,2.873c-0.055,0.071-0.114,0.139-0.165,0.214
			c-1.624,0.207-2.959,1.371-3.4,2.928c-0.097-0.011-0.195-0.022-0.295-0.025c-2.025-0.071-3.724,1.513-3.794,3.538
			c-0.033,0.951,0.302,1.827,0.873,2.5c-0.98,5.185-0.759,14.413,0.055,18.601c0.147,0.759,1.251,0.686,1.309-0.084
			c0.36-4.95,1.842-14.377,6.805-13.478c4.738,0.859,8.26,1.218,10.916,1.291c2.654,0.113,6.193,0,10.979-0.526
			c5.014-0.551,5.834,8.957,5.849,13.919c0.002,0.773,1.1,0.923,1.299,0.176c1.031-3.848,1.853-12.111,1.455-17.456
			C200.499,49.95,200.806,49.194,200.835,48.361z"/>
	</g>
</g>
</svg>
