<?xml version="1.0" encoding="utf-8"?>
<!-- Generator: Adobe Illustrator 16.0.0, SVG Export Plug-In . SVG Version: 6.00 Build 0)  -->
<!DOCTYPE svg PUBLIC "-//W3C//DTD SVG 1.1//EN" "http://www.w3.org/Graphics/SVG/1.1/DTD/svg11.dtd">
<svg version="1.1" id="Layer_1" xmlns="http://www.w3.org/2000/svg" xmlns:xlink="http://www.w3.org/1999/xlink" x="0px" y="0px"
	 width="350px" height="350px" viewBox="0 0 350 350" enable-background="new 0 0 350 350" xml:space="preserve">
<path fill="#FF5050" d="M157.091,148.136l68.967-99.139c1.674-2.407,4.419-3.841,7.35-3.841h26.856c1.808,0,2.87,2.033,1.838,3.518
	l-69.191,99.463H157.091z"/>
<polygon fill="#C84146" points="157.091,148.136 192.91,148.136 198.364,140.295 180.455,114.55 "/>
<polygon fill="#FFC850" points="180.458,148.136 252.094,45.155 241.18,45.155 169.545,148.136 "/>
<g>
	<polygon fill="#E1A546" points="186.682,123.501 169.545,148.136 180.458,148.136 192.138,131.345 	"/>
	<path fill="#E1A546" d="M197.387,166.045h-44.773c-7.407,0-13.433-6.026-13.433-13.432c0-7.407,6.026-13.433,13.433-13.433h44.773
		c7.406,0,13.432,6.026,13.432,13.433C210.818,160.02,204.795,166.045,197.387,166.045z M152.613,148.136
		c-2.47,0-4.478,2.006-4.478,4.478c0,2.47,2.007,4.478,4.478,4.478h44.774c2.471,0,4.478-2.007,4.478-4.478
		c0-2.471-2.007-4.478-4.478-4.478H152.613z"/>
</g>
<circle fill="#FFC850" cx="175" cy="233.207" r="71.638"/>
<circle fill="#FFDC64" cx="175" cy="233.207" r="62.684"/>
<path fill="#FF5050" d="M192.91,148.136l-68.967-99.139c-1.674-2.407-4.42-3.841-7.351-3.841H89.737
	c-1.808,0-2.871,2.033-1.838,3.518l69.192,99.463H192.91z"/>
<path fill="#E1A546" d="M173.032,281.374c-3.917,0-7.83-0.551-11.648-1.68c-23.542-6.938-36.532-33.457-28.968-59.111
	c3.643-12.348,11.46-22.684,22.02-29.103c10.686-6.497,22.894-8.221,34.386-4.831c17.546,5.177,30.781,23.453,30.781,42.518
	c0,12.946-4.849,22.872-13.301,27.219c-6.157,3.17-13.428,2.859-18.526-0.786c-1.811-1.29-3.209-2.896-4.154-4.719
	c-1.574,1.378-3.305,2.602-5.164,3.621c-5.575,3.051-11.421,3.725-16.064,1.823c-4.534-1.858-8.071-5.702-9.698-10.538
	c-2.125-6.314-0.975-13.738,3.249-20.908c7.206-12.234,18.041-17.758,31.289-16.079c2.476,0.323,4.665,1.613,6.17,3.629
	c1.495,2.007,2.125,4.565,1.727,7.027l-3.935,24.595c-0.259,1.775,0.337,3.231,1.784,4.264c1.968,1.402,5.584,1.989,9.226,0.108
	c5.365-2.759,8.443-9.781,8.443-19.256c0-13.147-9.111-29.432-24.363-33.931c-9.016-2.649-18.679-1.277-27.201,3.896
	c-8.649,5.259-15.068,13.777-18.081,23.986c-6.169,20.914,4.111,42.443,22.912,47.988c9.9,2.912,20.73,0.896,29.689-5.545
	c2.007-1.438,4.811-0.988,6.249,1.019c1.443,2.007,0.988,4.806-1.02,6.249C191.021,278.452,182.022,281.374,173.032,281.374z
	 M181.926,217.666c-7.791,0-13.624,3.879-18.268,11.757c-2.881,4.894-3.76,9.69-2.474,13.508c0.808,2.405,2.449,4.225,4.613,5.111
	c2.09,0.856,5.212,0.332,8.355-1.395c4.923-2.698,8.667-7.573,9.549-12.422l2.589-16.191
	C184.769,217.789,183.316,217.666,181.926,217.666z"/>
<polygon fill="#FFC850" points="97.905,45.155 169.543,148.136 180.458,148.136 108.819,45.155 "/>
</svg>
