<?xml version="1.0" encoding="utf-8"?>
<!-- Generator: Adobe Illustrator 16.0.0, SVG Export Plug-In . SVG Version: 6.00 Build 0)  -->
<!DOCTYPE svg PUBLIC "-//W3C//DTD SVG 1.1//EN" "http://www.w3.org/Graphics/SVG/1.1/DTD/svg11.dtd">
<svg version="1.1" id="Layer_1" xmlns="http://www.w3.org/2000/svg" xmlns:xlink="http://www.w3.org/1999/xlink" x="0px" y="0px"
	 width="350px" height="350px" viewBox="0 0 350 350" enable-background="new 0 0 350 350" xml:space="preserve">
<g>
	<g>
		<path fill="#FF4F19" d="M183.82,143.558L232.638,42.02c0.706-1.466,2.186-2.398,3.813-2.398h68.197
			c1.454,0,2.806,0.748,3.582,1.979c0.772,1.231,0.859,2.774,0.231,4.084L243.739,180.31c-0.525,1.088-1.488,1.902-2.648,2.234
			c-0.381,0.109-0.773,0.163-1.165,0.163c-0.793,0-1.578-0.223-2.265-0.654l-52.291-33.086
			C183.557,147.817,182.892,145.491,183.82,143.558z"/>
	</g>
	<g>
		<path fill="#E3001E" d="M273.352,39.622h31.297c1.454,0,2.806,0.748,3.582,1.979c0.772,1.231,0.859,2.774,0.231,4.084
			L243.739,180.31c-0.525,1.088-1.488,1.902-2.648,2.234c-0.381,0.109-0.773,0.163-1.165,0.163c-0.793,0-1.578-0.223-2.265-0.654
			l-25.139-15.906L273.352,39.622z"/>
	</g>
	<g>
		<path fill="#FF4F19" d="M166.179,143.558L117.362,42.02c-0.707-1.466-2.186-2.398-3.813-2.398H45.352
			c-1.454,0-2.805,0.748-3.582,1.979c-0.773,1.231-0.859,2.774-0.231,4.084l64.723,134.625c0.524,1.088,1.487,1.902,2.648,2.234
			c0.38,0.109,0.772,0.163,1.165,0.163c0.793,0,1.578-0.223,2.264-0.654l52.292-33.086
			C166.443,147.817,167.108,145.491,166.179,143.558z"/>
	</g>
	<g>
		<path fill="#E3001E" d="M76.649,39.622H45.352c-1.454,0-2.805,0.748-3.582,1.979c-0.773,1.231-0.859,2.774-0.231,4.084
			l64.723,134.625c0.524,1.088,1.487,1.902,2.648,2.234c0.38,0.109,0.772,0.163,1.165,0.163c0.793,0,1.578-0.223,2.264-0.654
			l25.139-15.906L76.649,39.622z"/>
	</g>
	<g>
		<circle fill="#FFCD00" cx="175.058" cy="225.767" r="84.611"/>
	</g>
	<g>
		<path fill="#FF9100" d="M175.058,310.378c23.364,0,44.518-9.47,59.829-24.782L115.229,165.938
			c-15.312,15.312-24.782,36.465-24.782,59.829C90.446,272.496,128.328,310.378,175.058,310.378z"/>
	</g>
	<g>
		<g>
			<path fill="#FFFFFF" d="M197.181,267.653c-1.388,0-2.785-0.335-4.074-1.013l-18.049-9.487l-18.05,9.487
				c-2.966,1.556-6.499,1.298-9.2-0.667c-2.714-1.971-4.044-5.247-3.479-8.55l3.445-20.096l-14.604-14.23
				c-2.4-2.343-3.247-5.775-2.21-8.963c1.038-3.188,3.739-5.47,7.057-5.953l20.177-2.932l9.027-18.283
				c1.479-3.004,4.483-4.871,7.833-4.873h0.004c3.355,0,6.358,1.867,7.841,4.873l9.023,18.283l20.174,2.932
				c3.321,0.483,6.022,2.766,7.061,5.953c1.037,3.188,0.189,6.621-2.21,8.961l-14.604,14.232l3.449,20.096
				c0.565,3.303-0.765,6.579-3.479,8.55C200.779,267.087,198.985,267.653,197.181,267.653z M139.077,217.037l16.195,15.784
				c0.996,0.973,1.45,2.374,1.214,3.745l-3.821,22.287l2.375,4.043l-1.966-3.745l20.017-10.522c1.231-0.648,2.702-0.648,3.933,0
				l20.017,10.522l4.582-1.013l-4.168,0.716l-3.826-22.288c-0.235-1.371,0.22-2.772,1.215-3.745l16.195-15.784l0.45-4.668
				l-0.607,4.188l-22.376-3.252c-1.38-0.2-2.569-1.065-3.186-2.315l-10.006-20.277c0,0.005-0.252,0.002-0.405,0
				c-0.062,0-0.103,0-0.103,0l-10.011,20.279c-0.616,1.248-1.806,2.113-3.185,2.313l-22.375,3.252l-3.111,3.512L139.077,217.037z"/>
		</g>
	</g>
	<g>
		<g>
			<path fill="#FFFFFF" d="M242.759,229.997c-1.104,0-2.201-0.467-3.008-1.227c-0.802-0.804-1.223-1.905-1.223-3.004
				c0-1.102,0.421-2.199,1.223-3.004c1.566-1.564,4.399-1.564,5.966,0c0.806,0.805,1.272,1.902,1.272,3.004
				c0,1.099-0.467,2.2-1.272,3.004C244.957,229.53,243.857,229.997,242.759,229.997z"/>
		</g>
	</g>
	<g>
		<g>
			<path fill="#FFFFFF" d="M175.07,162.308c-1.145,0-2.202-0.467-3.007-1.227c-0.802-0.804-1.223-1.905-1.223-3.004
				c0-1.101,0.421-2.2,1.223-3.003c1.565-1.566,4.4-1.566,5.966,0c0.805,0.804,1.271,1.902,1.271,3.003
				c0,1.099-0.467,2.2-1.271,3.004C177.268,161.841,176.169,162.308,175.07,162.308z"/>
		</g>
	</g>
	<g>
		<g>
			<path fill="#FFFFFF" d="M127.178,182.149c-1.099,0-2.202-0.468-2.962-1.271c-0.805-0.76-1.268-1.861-1.268-2.96
				c0-1.143,0.463-2.243,1.268-3.004c1.524-1.566,4.4-1.566,5.965,0c0.802,0.804,1.227,1.861,1.227,3.004
				c0,1.099-0.426,2.2-1.227,2.96C129.376,181.683,128.319,182.149,127.178,182.149z"/>
		</g>
	</g>
	<g>
		<g>
			<path fill="#FFFFFF" d="M222.916,277.845c-1.1,0-2.202-0.423-3.004-1.227c-0.761-0.762-1.227-1.863-1.227-3.004
				c0-1.102,0.467-2.199,1.227-2.963c1.606-1.605,4.399-1.605,6.007,0c0.761,0.764,1.227,1.861,1.227,2.963
				c0,1.141-0.467,2.198-1.227,3.004C225.114,277.422,224.015,277.845,222.916,277.845z"/>
		</g>
	</g>
	<g>
		<g>
			<path fill="#FFFFFF" d="M222.916,182.149c-1.1,0-2.202-0.468-3.004-1.227c-0.761-0.804-1.227-1.905-1.227-3.004
				c0-1.143,0.467-2.243,1.227-3.004c1.565-1.566,4.399-1.566,6.007,0c0.761,0.761,1.227,1.861,1.227,3.004
				c0,1.099-0.467,2.2-1.227,3.004C225.114,181.683,224.015,182.149,222.916,182.149z"/>
		</g>
	</g>
	<g>
		<g>
			<path fill="#FFFFFF" d="M237.595,204.106c-1.099,0-2.198-0.466-3.004-1.271c-0.761-0.761-1.228-1.861-1.228-2.96
				c0-1.143,0.467-2.244,1.228-3.004c1.607-1.566,4.399-1.566,6.007,0c0.764,0.76,1.228,1.861,1.228,3.004
				c0,1.099-0.464,2.199-1.228,2.96C239.797,203.641,238.693,204.106,237.595,204.106z"/>
		</g>
	</g>
	<g>
		<g>
			<path fill="#FFFFFF" d="M149.133,167.468c-1.099,0-2.198-0.464-2.958-1.268c-0.805-0.762-1.272-1.861-1.272-2.962
				c0-1.099,0.467-2.2,1.272-3.003c1.562-1.566,4.4-1.566,5.962,0c0.805,0.804,1.227,1.861,1.227,3.003
				c0,1.101-0.421,2.2-1.227,3.004C151.335,167.004,150.277,167.468,149.133,167.468z"/>
		</g>
	</g>
	<g>
		<g>
			<path fill="#FFFFFF" d="M237.595,255.887c-1.099,0-2.198-0.421-3.004-1.227c-0.761-0.804-1.228-1.861-1.228-3.004
				c0-1.099,0.467-2.2,1.228-2.96c1.565-1.607,4.441-1.607,6.007,0c0.764,0.76,1.228,1.861,1.228,2.96
				c0,1.143-0.464,2.2-1.228,3.004C239.797,255.466,238.693,255.887,237.595,255.887z"/>
		</g>
	</g>
	<g>
		<g>
			<path fill="#FFFFFF" d="M200.958,167.468c-1.1,0-2.199-0.464-3.004-1.227c-0.761-0.804-1.228-1.903-1.228-3.004
				c0-1.142,0.467-2.241,1.228-3.003c1.565-1.566,4.399-1.566,6.007,0c0.764,0.804,1.227,1.861,1.227,3.003
				c0,1.101-0.463,2.2-1.227,3.004C203.159,167.004,202.061,167.468,200.958,167.468z"/>
		</g>
	</g>
	<g>
		<g>
			<path fill="#FFFFFF" d="M241.403,216.502c-1.144,0-2.243-0.467-3.004-1.227c-0.805-0.806-1.227-1.905-1.227-3.004
				c0-1.102,0.422-2.2,1.227-3.006c1.566-1.563,4.4-1.563,5.966,0c0.802,0.806,1.269,1.904,1.269,3.006
				c0,1.099-0.467,2.197-1.269,3.004C243.602,216.035,242.503,216.502,241.403,216.502z"/>
		</g>
	</g>
	<g>
		<g>
			<path fill="#FFFFFF" d="M161.572,163.662c-1.145,0-2.202-0.465-3.004-1.227c-0.805-0.804-1.227-1.862-1.227-3.004
				c0-1.099,0.422-2.2,1.227-3.004c1.566-1.566,4.4-1.566,6.007,0c0.761,0.804,1.227,1.905,1.227,3.004
				c0,1.099-0.467,2.2-1.227,3.004C163.771,163.197,162.672,163.662,161.572,163.662z"/>
		</g>
	</g>
	<g>
		<g>
			<path fill="#FFFFFF" d="M231.505,267.352c-1.103,0-2.202-0.465-3.003-1.226c-0.765-0.805-1.228-1.862-1.228-3.005
				c0-1.099,0.463-2.198,1.228-3.004c1.564-1.563,4.44-1.563,6.006,0c0.761,0.806,1.228,1.905,1.228,3.004
				c0,1.143-0.467,2.2-1.228,3.005C233.703,266.887,232.604,267.352,231.505,267.352z"/>
		</g>
	</g>
	<g>
		<g>
			<path fill="#FFFFFF" d="M212.423,173.56c-1.1,0-2.199-0.465-3.004-1.227c-0.761-0.804-1.228-1.902-1.228-3.003
				c0-1.142,0.467-2.2,1.228-3.004c1.565-1.566,4.445-1.566,5.965,0c0.806,0.762,1.269,1.862,1.269,3.004
				c0,1.101-0.463,2.2-1.269,3.003C214.624,173.095,213.525,173.56,212.423,173.56z"/>
		</g>
	</g>
	<g>
		<g>
			<path fill="#FFFFFF" d="M231.166,192.132c-1.1,0-2.202-0.423-3.004-1.227c-0.764-0.762-1.227-1.861-1.227-3.004
				c0-1.098,0.463-2.199,1.227-3.003c1.607-1.565,4.4-1.565,6.007,0c0.803,0.804,1.227,1.905,1.227,3.003
				c0,1.143-0.425,2.242-1.227,3.004C233.363,191.709,232.306,192.132,231.166,192.132z"/>
		</g>
	</g>
	<g>
		<g>
			<path fill="#FFFFFF" d="M137.205,173.858c-1.145,0-2.202-0.424-3.003-1.227c-0.764-0.762-1.227-1.861-1.227-2.962
				c0-1.143,0.463-2.241,1.227-3.004c1.565-1.565,4.441-1.565,6.007,0c0.76,0.762,1.227,1.861,1.227,3.004
				c0,1.101-0.467,2.2-1.227,2.962C139.403,173.434,138.304,173.858,137.205,173.858z"/>
		</g>
	</g>
	<g>
		<g>
			<path fill="#FFFFFF" d="M241.486,242.899c-1.099,0-2.197-0.424-3.004-1.228c-0.76-0.804-1.227-1.861-1.227-3.003
				c0-1.099,0.467-2.2,1.227-3.004c1.607-1.565,4.4-1.565,6.008,0c0.805,0.804,1.227,1.905,1.227,3.004
				c0,1.142-0.422,2.199-1.227,3.003C243.688,242.476,242.631,242.899,241.486,242.899z"/>
		</g>
	</g>
	<g>
		<g>
			<path fill="#FFFFFF" d="M187.972,163.535c-1.145,0-2.202-0.423-3.003-1.227c-0.765-0.804-1.228-1.861-1.228-3.003
				c0-1.101,0.463-2.2,1.228-2.962c1.565-1.607,4.399-1.607,6.006,0c0.761,0.762,1.228,1.861,1.228,2.962
				c0,1.142-0.467,2.241-1.228,3.003C190.17,163.112,189.071,163.535,187.972,163.535z"/>
		</g>
	</g>
	<g>
		<path fill="#FFCD00" d="M197.181,267.653c1.805,0,3.599-0.566,5.132-1.68c2.714-1.971,4.044-5.247,3.479-8.55l-0.192-1.115
			l-10.36-10.36l2.216,12.904l4.168-0.714l-4.582,1.012l-20.017-10.522c-1.231-0.649-2.702-0.649-3.933,0l-20.017,10.522
			l1.966,3.745l-2.375-4.043l3.821-22.287c0.235-1.372-0.219-2.772-1.214-3.746l-16.195-15.783l-2.954,3.03l3.111-3.512
			l22.375-3.251c0.27-0.04,0.522-0.124,0.774-0.212l-7.379-7.38l-16.989,2.468c-3.317,0.483-6.02,2.766-7.057,5.954
			c-1.037,3.187-0.19,6.62,2.211,8.963l14.604,14.23l-3.446,20.095c-0.566,3.303,0.764,6.579,3.479,8.551
			c2.702,1.964,6.234,2.223,9.201,0.667l18.05-9.488l18.05,9.488C194.397,267.318,195.793,267.653,197.181,267.653z"/>
	</g>
	<g>
		<g>
			<path fill="#FFCD00" d="M107.381,229.997c-1.104,0-2.202-0.467-3.008-1.227c-0.761-0.804-1.223-1.905-1.223-3.004
				c0-1.102,0.462-2.199,1.223-3.004c1.565-1.564,4.4-1.564,5.965,0c0.805,0.805,1.272,1.902,1.272,3.004
				c0,1.099-0.467,2.2-1.272,3.004C109.579,229.53,108.479,229.997,107.381,229.997z"/>
		</g>
	</g>
	<g>
		<g>
			<path fill="#FFCD00" d="M175.07,297.687c-1.104,0-2.202-0.467-3.007-1.227c-0.802-0.804-1.223-1.905-1.223-3.004
				c0-1.102,0.421-2.2,1.223-3.004c1.611-1.565,4.4-1.565,5.966,0c0.805,0.804,1.271,1.902,1.271,3.004
				c0,1.099-0.467,2.2-1.271,3.004C177.268,297.22,176.169,297.687,175.07,297.687z"/>
		</g>
	</g>
	<g>
		<g>
			<path fill="#FFCD00" d="M127.178,277.845c-1.099,0-2.202-0.423-2.962-1.227c-0.805-0.806-1.268-1.905-1.268-3.004
				c0-1.102,0.463-2.199,1.268-2.963c1.565-1.565,4.4-1.605,5.965,0c0.802,0.764,1.227,1.861,1.227,2.963
				c0,1.099-0.426,2.198-1.227,3.004C129.422,277.422,128.319,277.845,127.178,277.845z"/>
		</g>
	</g>
	<g>
		<g>
			<path fill="#FFCD00" d="M112.541,255.887c-1.145,0-2.244-0.421-3.004-1.227c-0.805-0.804-1.227-1.902-1.227-3.004
				c0-1.099,0.421-2.2,1.227-2.96c1.566-1.607,4.4-1.607,5.966,0c0.802,0.76,1.268,1.861,1.268,2.96c0,1.102-0.467,2.2-1.268,3.004
				C114.739,255.466,113.64,255.887,112.541,255.887z"/>
		</g>
	</g>
	<g>
		<g>
			<path fill="#FFCD00" d="M200.958,292.523c-1.1,0-2.199-0.423-3.004-1.227c-0.761-0.76-1.228-1.861-1.228-3.004
				c0-1.099,0.467-2.2,1.228-3.004c1.606-1.565,4.399-1.565,6.007,0c0.764,0.804,1.227,1.905,1.227,3.004
				c0,1.102-0.463,2.2-1.227,3.004C203.159,292.101,202.061,292.523,200.958,292.523z"/>
		</g>
	</g>
	<g>
		<g>
			<path fill="#FFCD00" d="M112.541,204.106c-1.145,0-2.244-0.466-3.004-1.271c-0.805-0.761-1.227-1.861-1.227-2.96
				c0-1.143,0.421-2.244,1.227-3.004c1.566-1.566,4.4-1.566,5.966,0c0.802,0.804,1.268,1.861,1.268,3.004
				c0,1.099-0.467,2.199-1.268,2.96C114.739,203.641,113.64,204.106,112.541,204.106z"/>
		</g>
	</g>
	<g>
		<g>
			<path fill="#FFCD00" d="M149.133,292.523c-1.099,0-2.198-0.423-2.958-1.227c-0.805-0.804-1.272-1.861-1.272-3.004
				c0-1.099,0.467-2.2,1.272-2.962c1.562-1.607,4.4-1.607,5.962,0c0.805,0.762,1.227,1.863,1.227,2.962
				c0,1.143-0.421,2.2-1.227,3.004C151.376,292.101,150.277,292.523,149.133,292.523z"/>
		</g>
	</g>
	<g>
		<g>
			<path fill="#FFCD00" d="M108.732,243.493c-1.099,0-2.198-0.468-3.004-1.228c-0.76-0.804-1.227-1.905-1.227-3.003
				c0-1.102,0.467-2.2,1.227-3.004c1.607-1.567,4.4-1.567,6.007,0c0.764,0.804,1.227,1.902,1.227,3.004
				c0,1.098-0.463,2.199-1.227,3.003C110.934,243.026,109.831,243.493,108.732,243.493z"/>
		</g>
	</g>
	<g>
		<g>
			<path fill="#FFCD00" d="M188.563,296.331c-1.14,0-2.243-0.465-3.004-1.227c-0.805-0.804-1.227-1.902-1.227-3.004
				c0-1.099,0.422-2.2,1.227-3.004c1.566-1.565,4.4-1.565,5.966,0c0.802,0.804,1.269,1.905,1.269,3.004
				c0,1.102-0.468,2.2-1.269,3.004C190.765,295.866,189.662,296.331,188.563,296.331z"/>
		</g>
	</g>
	<g>
		<g>
			<path fill="#FFCD00" d="M118.63,192.642c-1.14,0-2.239-0.466-3.004-1.227c-0.801-0.805-1.227-1.905-1.227-3.004
				c0-1.143,0.425-2.2,1.227-3.004c1.566-1.566,4.4-1.566,5.966,0c0.806,0.804,1.268,1.902,1.268,3.004
				c0,1.099-0.462,2.199-1.268,3.004C120.833,192.176,119.733,192.642,118.63,192.642z"/>
		</g>
	</g>
	<g>
		<g>
			<path fill="#FFCD00" d="M137.713,286.434c-1.145,0-2.243-0.466-3.004-1.228c-0.805-0.804-1.227-1.861-1.227-3.004
				c0-1.101,0.422-2.199,1.227-2.963c1.562-1.607,4.4-1.607,5.962,0c0.805,0.762,1.272,1.862,1.272,2.963
				c0,1.143-0.467,2.2-1.272,3.004C139.912,285.968,138.813,286.434,137.713,286.434z"/>
		</g>
	</g>
	<g>
		<g>
			<path fill="#FFCD00" d="M118.928,267.859c-1.099,0-2.197-0.464-3.003-1.268c-0.76-0.762-1.227-1.861-1.227-2.963
				c0-1.143,0.467-2.2,1.227-3.004c1.607-1.565,4.441-1.565,6.007,0c0.806,0.804,1.227,1.861,1.227,3.004
				c0,1.102-0.421,2.2-1.227,2.963C121.13,267.396,120.072,267.859,118.928,267.859z"/>
		</g>
	</g>
	<g>
		<g>
			<path fill="#FFCD00" d="M212.93,286.093c-1.14,0-2.239-0.423-3.003-1.227c-0.802-0.76-1.228-1.861-1.228-3.004
				c0-1.098,0.427-2.199,1.228-2.96c1.524-1.564,4.399-1.608,5.966,0c0.805,0.761,1.268,1.862,1.268,2.96
				c0,1.143-0.463,2.244-1.268,3.004C215.132,285.67,214.033,286.093,212.93,286.093z"/>
		</g>
	</g>
	<g>
		<g>
			<path fill="#FFCD00" d="M108.604,217.093c-1.099,0-2.198-0.464-3.004-1.268c-0.761-0.762-1.227-1.861-1.227-2.963
				c0-1.143,0.467-2.2,1.227-3.004c1.566-1.565,4.445-1.565,6.011,0c0.802,0.804,1.224,1.861,1.224,3.004
				c0,1.102-0.421,2.199-1.224,2.963C110.805,216.629,109.707,217.093,108.604,217.093z"/>
		</g>
	</g>
	<g>
		<g>
			<path fill="#FFCD00" d="M162.122,296.46c-1.099,0-2.198-0.467-2.962-1.271c-0.802-0.76-1.227-1.861-1.227-2.959
				c0-1.143,0.426-2.244,1.227-3.004c1.566-1.565,4.4-1.565,5.966,0c0.805,0.76,1.227,1.861,1.227,3.004
				c0,1.098-0.421,2.199-1.227,2.959C164.365,295.993,163.267,296.46,162.122,296.46z"/>
		</g>
	</g>
	<g>
		<path fill="#FFCD00" d="M124.212,174.921c-0.802,0.761-1.264,1.858-1.264,2.998c0,1.099,0.463,2.2,1.268,2.96
			c0.76,0.804,1.863,1.271,2.962,1.271c1.137,0,2.191-0.465,2.996-1.266L124.212,174.921z"/>
	</g>
	<g>
		<path fill="#FFCD00" d="M222.916,277.845c1.095,0,2.191-0.423,2.996-1.223l-5.981-5.982c-0.005,0.006-0.013,0.008-0.019,0.012
			c-0.761,0.764-1.227,1.861-1.227,2.963c0,1.141,0.467,2.241,1.227,3.004C220.714,277.422,221.816,277.845,222.916,277.845z"/>
	</g>
</g>
</svg>
