<?xml version="1.0" encoding="utf-8"?>
<!-- Generator: Adobe Illustrator 16.0.0, SVG Export Plug-In . SVG Version: 6.00 Build 0)  -->
<!DOCTYPE svg PUBLIC "-//W3C//DTD SVG 1.1//EN" "http://www.w3.org/Graphics/SVG/1.1/DTD/svg11.dtd">
<svg version="1.1" id="Layer_1" xmlns="http://www.w3.org/2000/svg" xmlns:xlink="http://www.w3.org/1999/xlink" x="0px" y="0px"
	 width="350px" height="350px" viewBox="0 0 350 350" enable-background="new 0 0 350 350" xml:space="preserve">
<g id="Alien">
	<rect id="Background_5_" x="55" y="55" fill="#273554" width="240" height="240"/>
	<polygon id="Shadow_4_" opacity="0.1" points="295,182.263 232.82,119.599 210.912,148.578 198.047,155.609 166.467,154.169 
		132.559,120.261 125.997,124.286 154.663,191.564 192.093,295 295,295 	"/>
	<g id="Alien_2_">
		<g id="Alien_1_">
			
				<rect x="134.39" y="118.25" transform="matrix(0.8524 -0.5229 0.5229 0.8524 -54.9046 93.457)" fill="#61C9D6" width="7.366" height="51.444"/>
			<circle fill="#90ECFF" cx="125.997" cy="124.286" r="7.698"/>
			
				<rect x="210.953" y="118.25" transform="matrix(-0.8524 -0.5229 0.5229 -0.8524 322.308 378.9275)" fill="#61C9D6" width="7.367" height="51.444"/>
			<circle fill="#90ECFF" cx="226.713" cy="124.286" r="7.699"/>
			<circle fill="#90ECFF" cx="175.828" cy="196.453" r="57.24"/>
			<rect x="118.588" y="196.453" fill="#90ECFF" width="114.48" height="98.547"/>
			<circle fill="#76D8E5" cx="175.486" cy="185.236" r="28.439"/>
			<circle fill="#FFFFFF" cx="175.486" cy="185.236" r="24.364"/>
			<circle fill="#002C40" cx="175.486" cy="185.236" r="16.303"/>
			<circle fill="#76D8E5" cx="175.486" cy="237.347" r="19.382"/>
			<circle fill="#FFFFFF" cx="175.486" cy="237.347" r="16.604"/>
			<circle fill="#002C40" cx="175.486" cy="237.347" r="11.111"/>
			<g>
				<path fill="#231F20" d="M175.486,282.979c7.069,0,12.801-5.731,12.801-12.801h-25.602
					C162.686,277.248,168.417,282.979,175.486,282.979z"/>
			</g>
			<path fill="#FF4F54" d="M167.73,280.346c2.154,1.645,4.836,2.634,7.756,2.634s5.602-0.989,7.756-2.634
				c-1.098-3.233-4.152-5.563-7.756-5.563C171.882,274.783,168.828,277.112,167.73,280.346z"/>
			<circle fill="#76D8E5" cx="133.697" cy="193.289" r="1.232"/>
			<circle fill="#76D8E5" cx="143.188" cy="264.148" r="1.232"/>
			<circle fill="#76D8E5" cx="125.437" cy="257.961" r="1.232"/>
			<circle fill="#76D8E5" cx="127.369" cy="210.512" r="5.519"/>
			<circle fill="#76D8E5" cx="207.487" cy="261.496" r="5.519"/>
			<circle fill="#76D8E5" cx="143.883" cy="219.909" r="3.164"/>
			<circle fill="#76D8E5" cx="213.005" cy="207.348" r="3.164"/>
			<circle fill="#76D8E5" cx="216.169" cy="191.564" r="1.765"/>
			<circle fill="#76D8E5" cx="222.557" cy="223.072" r="1.533"/>
			<circle fill="#76D8E5" cx="206.678" cy="219.909" r="3.164"/>
			<circle fill="#76D8E5" cx="127.369" cy="235.279" r="3.164"/>
			<circle fill="#76D8E5" cx="147.047" cy="278.881" r="3.164"/>
			<circle fill="#76D8E5" cx="214.637" cy="283.953" r="3.164"/>
			<circle fill="#76D8E5" cx="209.842" cy="235.279" r="3.164"/>
			<circle fill="#76D8E5" cx="222.557" cy="247.225" r="3.164"/>
			<circle fill="#76D8E5" cx="140.024" cy="248.458" r="3.164"/>
			<circle fill="#76D8E5" cx="131.477" cy="270.179" r="3.164"/>
			<circle fill="#76D8E5" cx="151.123" cy="154.787" r="3.164"/>
			<circle fill="#76D8E5" cx="190.153" cy="154.787" r="3.164"/>
			<circle fill="#76D8E5" cx="209.842" cy="170.002" r="3.164"/>
			<circle fill="#76D8E5" cx="138.073" cy="175.316" r="3.164"/>
			<circle fill="#FFFFFF" cx="170.239" cy="182.365" r="5.864"/>
			<circle fill="#FFFFFF" cx="172.146" cy="235.279" r="3.885"/>
		</g>
		<g>
			<path fill="#FFFFFF" d="M109.937,130.363c-6.3,0-11.406-5.107-11.406-11.406c0,6.299-5.107,11.406-11.406,11.406
				c6.299,0,11.406,5.106,11.406,11.406C98.531,135.47,103.637,130.363,109.937,130.363z"/>
			<path fill="#FFFFFF" d="M272.225,201.539c-3.699,0-6.697-2.998-6.697-6.697c0,3.699-2.999,6.697-6.697,6.697
				c3.698,0,6.697,2.998,6.697,6.697C265.527,204.537,268.525,201.539,272.225,201.539z"/>
			<path fill="#FFFFFF" d="M202.789,85.301c-3.158,0-5.72-2.561-5.72-5.72c0,3.159-2.561,5.72-5.72,5.72
				c3.159,0,5.72,2.561,5.72,5.72C197.069,87.862,199.631,85.301,202.789,85.301z"/>
			<path fill="#FFFFFF" d="M116.634,200.904c-3.699,0-6.697-2.998-6.697-6.697c0,3.699-2.999,6.697-6.697,6.697
				c3.699,0,6.697,3,6.697,6.698C109.937,203.904,112.936,200.904,116.634,200.904z"/>
		</g>
	</g>
</g>
</svg>
