<?xml version="1.0" encoding="utf-8"?>
<!-- Generator: Adobe Illustrator 16.0.0, SVG Export Plug-In . SVG Version: 6.00 Build 0)  -->
<!DOCTYPE svg PUBLIC "-//W3C//DTD SVG 1.1//EN" "http://www.w3.org/Graphics/SVG/1.1/DTD/svg11.dtd">
<svg version="1.1" id="Layer_1" xmlns="http://www.w3.org/2000/svg" xmlns:xlink="http://www.w3.org/1999/xlink" x="0px" y="0px"
	 width="350px" height="350px" viewBox="0 0 350 350" enable-background="new 0 0 350 350" xml:space="preserve">
<g>
	<path fill="#1D1D1B" d="M106.646,102.788c-27.208,5.271-42.886,31.338-49.694,56.151c-7.415,27.025-9.196,58.173,5.737,83.003
		c12.692,21.104,35.189,35.171,58.646,41.333c30.145,7.918,62.216,3.293,91.819-4.693c25.271-6.816,51.722-17.258,68.025-38.809
		c15.629-20.66,19.3-47.953,14.422-72.929c-2.533-12.97-7.525-26.052-15.479-36.678c-8.589-11.474-20.833-17.724-34.186-22.104
		c-14.905-4.89-30.384-8.683-45.778-11.655c-15.431-2.979-31.166-4.717-46.894-4.178c-25.404,0.87-51.171,8.574-71.916,23.483
		c-1.027,0.738-0.043,2.458,1.001,1.712c11.834-8.449,25.045-13.875,39.167-17.108c14.26-3.265,29.035-4.033,43.613-3.409
		c16.176,0.692,32.157,3.534,47.872,7.329c7.829,1.891,15.575,4.092,23.288,6.408c6.86,2.06,13.746,4.159,20.242,7.209
		c25.222,11.84,35.289,42.031,35.824,68.203c0.263,12.798-2.099,25.753-7.431,37.422c-5.486,12.007-14.289,21.967-25.008,29.581
		c-10.994,7.811-23.589,13.092-36.346,17.264c-14.388,4.705-29.251,8.264-44.23,10.447c-28.555,4.166-58.463,1.701-83.816-12.947
		c-10.75-6.211-20.354-14.596-27.547-24.743c-8.218-11.592-12.357-25.24-13.449-39.322c-1.168-15.075,0.896-30.529,4.58-45.141
		c3.574-14.179,9.666-27.768,19.762-38.508c7.534-8.016,17.213-14.117,27.907-16.844
		C107.09,103.186,106.956,102.728,106.646,102.788L106.646,102.788z"/>
	<path fill="#1D1D1B" d="M207.99,177.021c6.488,8.945,14.677,16.496,22.805,23.983c6.018,5.541,12.972,11.444,21.143,11.069
		c5.713-0.261,10.921-3.714,14.494-8.18c3.572-4.467,5.73-9.882,7.601-15.287c1.604-4.634,3.044-9.376,3.394-14.267
		c2.106-29.476-28.873-48.665-54.698-51.683C190.259,118.862,193.805,157.466,207.99,177.021z"/>
	<path fill="#1D1D1B" d="M136.919,170.434c-6.489,8.945-14.677,16.497-22.805,23.983c-6.017,5.541-12.971,11.444-21.143,11.07
		c-5.714-0.262-10.921-3.714-14.494-8.181c-3.572-4.467-5.73-9.882-7.601-15.287c-1.603-4.633-3.043-9.376-3.393-14.267
		c-2.106-29.476,28.873-48.665,54.698-51.683C154.649,112.274,151.105,150.879,136.919,170.434z"/>
	<path fill="#1D1D1B" d="M227.652,144.349c-3.443,2.062-3.298,7.378-1.423,10.406c0.56,0.904,1.744,1.032,2.516,0.324
		c3.485-3.195,4.367-8.436,3.041-12.83c-0.342-1.134-1.883-2.017-2.963-1.206c-2.68,2.011-4.194,5.314-3.188,8.653
		c0.838,2.775,4.65,1.567,4.234-1.167c-0.263-1.729,0.144-3.077,1.398-4.317c-1.124-0.297-2.248-0.594-3.372-0.891
		c1.397,3.584,0.513,6.794-1.666,9.816c0.839-0.108,1.678-0.216,2.516-0.324c-2.232-2.353-1.406-4.968-0.156-7.527
		C228.876,144.695,228.276,143.976,227.652,144.349L227.652,144.349z"/>
	<path fill="#FFFFFF" d="M230.173,140.933c-3.006,3.448-3.323,8.318-1.757,12.495c0.293,0.784,1.145,1.507,2.047,1.162
		c5.052-1.924,6.902-8.447,4.059-12.936c-0.657-1.038-2.36-1.486-3.245-0.418c-2.459,2.969-3.663,6.755-2.913,10.587
		c0.455,2.328,4.267,1.797,4.126-0.559c-0.174-2.896,0.294-5.149,2.032-7.525c-1.19,0-2.38,0-3.568,0
		c1.953,2.708,0.976,6.101-1.772,7.809c0.76,0.199,1.519,0.397,2.277,0.597c-2.017-3.285-1.728-6.972-0.247-10.412
		C231.482,141.101,230.709,140.317,230.173,140.933L230.173,140.933z"/>
	<path fill="#FFFFFF" d="M111.941,137.835c-3.504,2.772-6.396,10.366-2.459,13.869c3.892,3.462,9.088-0.507,10.518-4.355
		c1.293-3.481,3.259-11.581-2.7-11.985c-6.479-0.44-7.343,6.98-5.752,11.606c0.768,2.235,3.785,1.296,3.459-0.954
		c-0.301-2.083-1.535-6.568,1.754-6.933c2.176-0.242,0.037,6.533-0.368,7.479c-0.79,1.849-4.383,4.661-5.481,1.453
		c-1.015-2.969,1.062-6.689,2.197-9.28C113.455,137.946,112.617,137.3,111.941,137.835L111.941,137.835z"/>
	<path fill="#1D1D1B" d="M172.765,160.124c-2.557-4.123-7.989-2.867-10.758,0.281c-3.558,4.044-2.644,10.354,1.457,13.583
		c4.611,3.632,10.594,2.329,14.375-1.759c3.423-3.7,7.345-11.982,1.688-15.477c-4.709-2.911-10.771-1.803-14.769,1.795
		c-4.2,3.782-3.589,9.96,0.241,13.688c3.42,3.327,9.721,3.313,11.865-1.404c1.616-3.558,0.369-8.891-3.457-10.509
		c-4.148-1.754-7.917,1.496-7.563,5.768c0.291,3.508,3.36,7.78,7.326,6.139c4.261-1.763,3.341-6.121,0.141-8.363
		c-2.905-2.034-8.219-1.509-7.696,3.034c0.312,2.712,4.333,2.869,4.343,0c0.002-0.567-0.172,0.199-0.505,0.214
		c0.295-0.014,0.652,0.128,0.92,0.252c0.409,0.188,0.757,0.432,1.084,0.736c0.702,0.652-0.258,0.248,0.352-0.22
		c-1.012,0.777-1.881-2.676-1.16-3.44c0.599-0.635,1.6,0.577,1.846,0.973c0.608,0.978,0.745,2.485,0.269,3.541
		c-0.751,1.667-2.783,1.222-4.044,0.497c-1.667-0.957-2.737-3.14-2.394-5.021c0.698-3.825,5.567-5.385,8.909-4.773
		c3.241,0.594,3.078,2.925,2.086,5.517c-0.831,2.17-2.14,4.145-3.858,5.701c-3.607,3.266-9.204,0.804-10.302-3.548
		c-1.138-4.51,5.022-11.4,8.937-6.689C172.409,161.014,173.016,160.528,172.765,160.124L172.765,160.124z"/>
	<path fill="#1D1D1B" d="M171.087,173.033c-0.866,5.626-1.582,11.289-2.212,16.947c-0.688,6.187-1.925,12.575-2.006,18.796
		c-0.024,1.899,3.084,2.412,3.385,0.458c0.868-5.647,0.759-11.568,1.072-17.276c0.344-6.258,0.631-12.529,0.711-18.795
		C172.044,172.628,171.171,172.484,171.087,173.033L171.087,173.033z"/>
	<path fill="#1D1D1B" d="M152.553,201.419c-1.382,4.463,0.576,9.354,4.56,11.73c4.253,2.537,10.442,0.896,13.101-3.159
		c0.952-1.452-1.189-3.048-2.373-1.831c-2.482,2.554-5.508,3.804-9.057,2.789c-3.88-1.11-5.792-5.558-5.23-9.253
		C153.653,201.047,152.756,200.765,152.553,201.419L152.553,201.419z"/>
	<path fill="#1D1D1B" d="M170.324,207.726c-0.247,4.486,2.541,8.44,6.953,9.472c4.652,1.086,9.366-2.576,10.483-6.942
		c0.478-1.868-2.277-2.605-2.868-0.791c-2.337,7.17-12.803,5.728-13.318-1.738C171.519,206.923,170.368,206.917,170.324,207.726
		L170.324,207.726z"/>
	<path fill="#1D1D1B" d="M238.747,107.793c0.721-1.85,0.831-3.865,1.368-5.781c0.645-2.308,1.678-4.532,2.898-6.586
		c2.443-4.115,6.249-7.226,10.63-9.075c4.586-1.934,9.646-2.499,14.574-2.665c5.604-0.189,11.287,0.447,16.478,2.667
		c8.349,3.571,14.321,11.865,12.676,21.133c-0.821,4.629-3.348,8.782-6.053,12.542c-1.532,2.129-3.268,4.112-5.012,6.067
		c-1.259,1.411-3.58,4.958-5.785,4.563c-2.62-0.468-3.617,3.074-1.099,3.983c5.281,1.905,9.936-5.196,12.782-8.594
		c3.779-4.513,7.075-9.45,8.889-15.09c3.55-11.049-2.419-21.819-12.075-27.284c-10.437-5.907-25.523-5.567-36.4-1.043
		c-5.078,2.113-9.192,5.807-11.979,10.527c-2.277,3.857-4.504,10.384-2.367,14.697C238.382,108.078,238.673,107.983,238.747,107.793
		L238.747,107.793z"/>
	<path fill="#1D1D1B" d="M281.896,132.783c2.93-5.766,2.368-11.918,1.4-18.105c-1.172-7.506-2.192-15.084-3.693-22.533
		c-1.131-5.62-6.462-6.826-11.307-5.335c-2.958,0.91-5.592,2.743-8.161,4.407c-2.983,1.933-5.838,4.063-8.636,6.254
		c1.115,0.861,2.23,1.721,3.346,2.583c2.251-3.405,4.862-6.469,7.833-9.265c1.896-1.786-0.506-4.29-2.593-3.36
		c-8.469,3.774-14.659,11.77-16.205,20.91c-0.386,2.28,2.692,3.947,3.941,1.662c5.149-9.429,13.216-16.715,23.07-20.976
		c-0.993-0.994-1.987-1.987-2.98-2.98c-5.128,6.698-10.255,13.397-15.385,20.093c-1.65,2.154,1.674,4.05,3.447,2.66
		c7.549-5.917,14.79-12.201,21.706-18.847c-1.042-1.042-2.084-2.084-3.125-3.125c-4.837,5.929-9.673,11.856-14.51,17.785
		c-1.785,2.189,0.997,5.119,3.143,3.143c5.487-5.053,10.974-10.107,16.461-15.16c-1.053-1.053-2.106-2.106-3.158-3.159
		c-6.07,6.317-11.419,13.272-15.966,20.761c-1.3,2.143,1.893,4.732,3.53,2.724c5.768-7.078,12.176-13.568,19.182-19.425
		c-1.185-0.914-2.369-1.828-3.554-2.741c-3.997,6.962-8.513,13.597-13.576,19.829c-1.813,2.231,1.221,5.429,3.218,3.217
		c4.778-5.294,8.769-11.184,11.843-17.622c-1.393-0.587-2.785-1.175-4.179-1.762c-0.484,1.991-5.099,20.046-6.845,19.599
		c-2.729-0.7-5.511-2.779-7.763-4.396c-2.658-1.91-4.97-4.318-7.019-6.857c-1.546-1.917-4.382,0.175-3.877,2.257
		c1.795,7.394,9.98,9.642,16.595,10.531c2.893,0.389,4.271-3.85,1.245-4.516c-4.389-0.967-8.775-1.934-13.164-2.901
		c-2.058-0.453-4.134-0.859-6.176-1.379c0.151,0.196,0.303,0.393,0.455,0.59c0.125-0.46,0.264-0.917,0.417-1.368
		c0.304-0.939,0.72-1.824,1.161-2.704c3.167-6.315,9.308-10.761,16.094-12.407c6.891-1.672,15.329,0.343,16.003,8.492
		c0.256,3.088-1.155,24.185-7.265,20.996c0.175,1.354,0.349,2.708,0.523,4.061c10.161-8.073,12.903-23.326,6.601-34.57
		c-0.136,1.053-0.271,2.107-0.408,3.16c-0.52,0.455,0.067,0.293,0.713,0.706c0.584,0.375,1.089,0.979,1.563,1.479
		c0.961,1.013,1.703,2.337,2.235,3.621c1.116,2.692,1.325,5.592,1.061,8.464c-0.616,6.651-5.511,12.459-10.148,16.845
		c1.224,1.224,2.446,2.446,3.67,3.67c9.343-9.363,14.702-22.053,14.932-35.275c0.05-2.882-4.461-3.569-5.075-0.687
		c-1.304,6.121-0.907,12.82-4.431,18.244c-2.258,3.476-9.217,5.32-10.31-0.11c-0.401-2.002-2.949-2.325-4.28-1.129
		c-1.462,1.312-2.925,2.625-4.387,3.937c-2.398,2.153,1.095,5.548,3.505,3.505c1.501-1.273,3.002-2.546,4.504-3.819
		c-1.427-0.377-2.854-0.754-4.281-1.13c1.247,7.25,10.428,8.864,15.817,5.339c7.791-5.093,7.139-15.472,8.846-23.461
		c-1.692-0.229-3.384-0.458-5.075-0.687c-0.213,11.874-5.044,23.207-13.435,31.605c-2.372,2.375,1.24,5.964,3.67,3.67
		c6.689-6.318,12.239-14.539,11.757-24.106c-0.217-4.31-1.808-8.265-4.435-11.647c-2.361-3.042-6.7-5.694-10.103-2.718
		c-0.886,0.775-0.952,2.187-0.408,3.159c5.254,9.385,2.59,21.635-5.754,28.281c-1.282,1.022-0.846,3.348,0.524,4.061
		c4.665,2.428,9.395-0.34,11.565-4.703c2.458-4.942,2.967-11.275,3.355-16.699c0.367-5.122-0.395-10.373-4.333-14.006
		c-3.645-3.363-9.083-4.242-13.854-3.923c-9.465,0.634-18.104,6.601-22.73,14.754c-1.988,3.502-4.573,9.133,0.483,11.073
		c2.765,1.061,6.107,1.35,9.003,1.98c3.45,0.752,6.899,1.504,10.35,2.255c0.208-1.534,0.415-3.066,0.623-4.6
		c-4.64-0.613-11.44-1.847-12.743-7.165c-1.292,0.752-2.585,1.505-3.877,2.257c2.503,3.088,5.391,5.718,8.621,8.027
		c1.742,1.245,3.619,2.289,5.539,3.229c1.494,0.733,3.547,1.853,5.276,1.354c3.614-1.043,4.467-5.708,5.613-8.819
		c1.708-4.642,3.099-9.397,4.265-14.202c0.59-2.432-3.026-4.18-4.178-1.761c-2.903,6.094-6.594,11.694-11.113,16.712
		c1.072,1.072,2.146,2.145,3.218,3.217c5.302-6.541,10.079-13.455,14.265-20.763c1.34-2.338-1.644-4.341-3.552-2.741
		c-6.999,5.864-13.4,12.361-19.161,19.445c1.177,0.908,2.353,1.816,3.529,2.724c4.35-7.179,9.435-13.811,15.243-19.871
		c2.001-2.086-1.045-5.109-3.158-3.159c-5.482,5.059-10.964,10.117-16.445,15.176c1.048,1.048,2.095,2.095,3.143,3.143
		c4.831-5.934,9.661-11.868,14.492-17.802c1.767-2.169-1.03-5.143-3.125-3.125c-6.908,6.652-14.14,12.948-21.686,18.868
		c1.149,0.887,2.299,1.774,3.448,2.661c5.116-6.705,10.237-13.407,15.355-20.11c1.497-1.961-1.26-3.726-2.98-2.98
		c-10.464,4.542-19.143,12.548-24.595,22.561c1.313,0.554,2.627,1.107,3.94,1.662c1.374-8.193,6.624-14.972,14.206-18.362
		c-0.864-1.12-1.728-2.24-2.593-3.359c-3.226,3.045-6.045,6.437-8.486,10.14c-1.444,2.191,1.589,3.962,3.347,2.582
		c4.196-3.295,8.666-6.648,13.451-9.044c1.729-0.866,4.22-1.695,6.085-0.813c2.033,0.961,2.033,5.059,2.354,6.92
		c0.99,5.735,2.002,11.464,3.038,17.191c1.023,5.65,2.347,11.618,0.558,17.244C279.644,133.1,281.362,133.835,281.896,132.783
		L281.896,132.783z"/>
	<path fill="#1D1D1B" d="M126.499,97.847c2.698-11.628-5.217-23.377-14.567-29.498c-11.648-7.626-27.152-6.881-39.723-2.178
		c-5.879,2.199-11.359,5.483-15.821,9.919c-4.75,4.723-7.285,10.671-8.121,17.251c-1.598,12.564,1.661,26.808,9.738,36.661
		c1.922,2.344,4.241,4.311,6.69,6.08c2.287,1.65,4.467-2.141,2.204-3.771c-9.58-6.899-13.627-18.241-14.41-29.647
		c-0.461-6.72-0.056-13.406,3.528-19.28c3.128-5.125,8.29-8.758,13.547-11.435c11.486-5.848,26.002-7.287,37.862-1.733
		c10.834,5.074,16.973,15.763,17.544,27.424C125.01,98.49,126.292,98.735,126.499,97.847L126.499,97.847z"/>
	<path fill="#1D1D1B" d="M65.19,133.237c-0.634,2.169-0.567,4.254,0.231,6.372c0.53,1.409,2.747,0.859,2.293-0.632
		c-1.77-5.827-3.376-11.683-3.94-17.777c-0.561-6.047-0.15-12.156,0.933-18.122c1.084-5.968,3.071-11.734,5.74-17.172
		c1.376-2.805,3.008-5.478,4.787-8.043c1.41-2.033,4.657-5.082,3.607-7.911c-2.286-6.163-8.486-2.353-11.431,1.006
		c-4.154,4.739-6.917,10.529-8.682,16.538c-4.006,13.641-1.734,28.217,1.355,41.788c0.618,2.714,4.536,1.955,4.664-0.631
		c0.572-11.597,3.065-22.942,7.278-33.757c2.018-5.179,4.493-10.281,7.479-14.973c2.742-4.308,6.446-8.143,11.648-9.063
		c-1.011-0.77-2.021-1.539-3.031-2.309c-2.115,24.44-25.231,41.735-25.137,66.862c0.011,2.862,3.825,3.113,4.746,0.642
		c4.323-11.598,12.784-21.194,23.265-27.652c5.224-3.219,10.946-5.487,16.914-6.88c2.87-0.67,5.786-1.038,8.725-1.2
		c2.628-0.145,6.773,0.571,8.267-2.343c2.588-5.049-0.309-12.085-3.146-16.449c-3.233-4.971-8.178-8.799-13.601-11.1
		c-5.983-2.538-12.987-3.351-18.323,1.041C84.481,75.875,80.324,82.301,76.477,88c-4.426,6.554-8.247,13.506-11.537,20.695
		c-1.583,3.457-7.651,14.483-0.326,15.816c1.105,0.201,2.308-0.104,2.879-1.171c4.408-8.225,8.815-16.449,13.224-24.674
		c2.204-4.113,4.408-8.225,6.611-12.337c1.102-2.056,2.204-4.112,3.306-6.168c0.979-1.826,1.806-3.759,3.771-4.68
		c-1.249-0.96-2.499-1.92-3.748-2.881c-2.843,9.655-6.646,18.942-11.404,27.812c-1.345,2.509,1.947,5.24,4.008,3.092
		c7.115-7.414,13.606-15.386,19.453-23.836c-1.555-0.656-3.11-1.312-4.665-1.967c-2.747,7.573-6.823,14.588-12.045,20.722
		c1.422,0.829,2.845,1.657,4.267,2.484c2.392-6.692,6.303-12.613,11.427-17.526c-1.423-0.828-2.845-1.656-4.268-2.484
		c-1.11,4.972-2.221,9.945-3.331,14.917c-0.623,2.787,3.164,4.531,4.667,1.968c1.749-2.982,3.498-5.964,5.247-8.947
		c0.446-0.76,2.504-5.349,3.74-3.553c2.275,3.307,2.125,7.874,6.212,9.85c0.203-1.557,0.407-3.113,0.61-4.669
		c-13.826,5.27-27.125,11.776-39.732,19.524c1.251,0.961,2.502,1.924,3.753,2.886c2.536-7.519,9.75-12.664,15.812-17.28
		c5.559-4.232,14.457-9.129,20.93-3.731c1.12,0.934,3.316,1.124,4.015-0.518c1.804-4.238,0.841-8.278-1.96-11.823
		c-2.838-3.592-8.007-4.958-12.306-5.573c-9.853-1.406-20.099,1.259-28.081,7.18c-2.288,1.697-0.991,5.324,1.971,4.674
		c8.26-1.813,16.694-1.342,24.743,1.214c1.805,0.573,3.694,1.205,5.189,2.407c1.07,0.861,1.894,1.979,0.199,2.401
		c-2.839,0.705-5.532-0.072-8.235,1.479c-2.256,1.295-1.211,4.702,1.292,4.768c3.527,0.093,7.121,0.393,10.645,0.205
		c2.604-0.139,4.765-1.839,5.609-4.289c1.69-4.901-0.06-10.379-3.176-14.304c-8.114-10.222-21.598-9.506-33.291-8.09
		c-3.208,0.389-3.32,5.426,0,5.119c13.173-1.219,23.82,8.798,30.368,19.197c0.738-1.284,1.474-2.568,2.211-3.853
		c-4.954,0.232-9.711-0.449-14.404-2.051c0.626,0.823,1.253,1.646,1.88,2.469c-0.029-1.353,0.45-2.176,1.639-2.832
		c2.893-1.594,0.309-6.017-2.585-4.422c-2.7,1.487-4.241,4.173-4.175,7.254c0.025,1.196,0.774,2.092,1.88,2.469
		c5.084,1.737,10.399,2.486,15.766,2.234c1.86-0.088,3.293-2.134,2.21-3.853c-7.449-11.829-19.824-23.117-34.79-21.731
		c0,1.707,0,3.413,0,5.119c8.787-1.065,19.199-2.482,26.65,3.46c3.015,2.405,5.215,5.848,5.345,9.762
		c0.03,0.913-0.093,1.848-0.493,2.677c-0.475,0.984-2.43,0.575-3.266,0.553c-2.674-0.07-5.35-0.14-8.024-0.211
		c0.43,1.589,0.861,3.179,1.291,4.768c1.528-0.877,3.488-0.615,5.191-0.721c1.98-0.123,3.813-0.678,5.214-2.135
		c3.671-3.817-0.169-8.601-3.614-10.695c-4.405-2.678-10.279-3.622-15.302-4.264c-5.769-0.737-11.662-0.281-17.327,0.963
		c0.657,1.558,1.313,3.116,1.971,4.674c5.843-4.335,12.669-6.703,19.946-6.863c3.479-0.077,7.212,0.371,10.438,1.742
		c3.028,1.287,6.51,4.715,4.968,8.34c1.338-0.172,2.676-0.345,4.015-0.517c-7.908-6.594-18.142-3.42-25.748,1.921
		c-7.749,5.441-16.405,12.057-19.538,21.346c-0.723,2.143,1.902,4.024,3.753,2.886c12.226-7.515,25.1-13.898,38.511-19.01
		c1.859-0.708,2.8-3.609,0.61-4.669c-1.906-0.921-2.407-3.476-3.108-5.299c-0.845-2.198-2.085-4.739-4.554-5.447
		c-3.288-0.943-5.79,1-7.623,3.535c-2.618,3.621-4.643,7.841-6.903,11.696c1.556,0.656,3.112,1.312,4.667,1.968
		c1.11-4.972,2.22-9.944,3.331-14.917c0.553-2.477-2.375-4.299-4.268-2.484c-5.771,5.535-10.051,12.257-12.739,19.779
		c-0.847,2.371,2.629,4.408,4.267,2.484c5.823-6.84,10.295-14.532,13.358-22.976c1.045-2.883-3.116-4.207-4.666-1.967
		C92.705,85.186,86.47,92.79,79.653,99.894c1.336,1.031,2.672,2.062,4.008,3.092c4.958-9.245,8.953-18.967,11.917-29.031
		c0.681-2.313-1.827-3.782-3.748-2.881c-3.639,1.706-5.231,5.82-7.018,9.154c-2.361,4.406-4.722,8.812-7.083,13.219
		c-4.88,9.106-9.759,18.212-14.639,27.318c0.959-0.391,1.92-0.781,2.88-1.172c0.484,0.088,0.127,0.25,0.254-0.577
		c0.101-0.651,0.391-1.284,0.629-1.889c0.668-1.703,1.388-3.385,2.129-5.058c1.542-3.481,3.253-6.885,5.066-10.232
		c3.487-6.439,7.521-12.574,11.944-18.407c2.083-2.747,4.227-5.547,6.772-7.882c3.017-2.768,6.973-2.565,10.666-1.569
		c5.87,1.582,11.15,5.568,14.454,10.634c1.549,2.375,2.589,5.128,2.93,7.947c0.238,1.964,0.13,2.797-1.989,2.797
		c-1.704,0-3.406,0.121-5.101,0.286c-6.001,0.586-11.867,2.164-17.397,4.551c-11.173,4.822-20.72,12.814-27.452,22.947
		c-2.406,3.621-4.291,7.562-5.805,11.63c1.582,0.214,3.164,0.429,4.746,0.642c-0.053-12.168,6.097-22.926,11.942-33.197
		c6.004-10.551,12.092-21.333,13.151-33.665c0.144-1.676-1.627-2.559-3.031-2.31C78.523,68.256,72.742,81.1,68.695,90.542
		c-5.173,12.072-8.057,25-8.696,38.11c1.555-0.21,3.109-0.421,4.663-0.631c-2.819-12.354-4.811-25.196-1.794-37.709
		c1.274-5.284,3.543-10.244,6.725-14.646c0.82-1.133,1.776-2.169,2.74-3.178c0.303-0.33,0.652-0.6,1.046-0.813
		c0.204-0.101,0.407-0.202,0.61-0.304c0.701-0.261,0.722-0.171,0.063,0.271c-1.198,2.519-3.448,4.773-4.923,7.171
		c-5.517,8.972-8.597,19.429-9.343,29.901c-0.742,10.417,0.75,21.928,5.754,31.18c0.685-0.4,1.369-0.8,2.054-1.201
		c-1.051-1.673-1.434-3.339-1.269-5.302C66.383,132.722,65.368,132.629,65.19,133.237L65.19,133.237z"/>
</g>
</svg>
