<?xml version="1.0" encoding="utf-8"?>
<!-- Generator: Adobe Illustrator 16.0.0, SVG Export Plug-In . SVG Version: 6.00 Build 0)  -->
<!DOCTYPE svg PUBLIC "-//W3C//DTD SVG 1.1//EN" "http://www.w3.org/Graphics/SVG/1.1/DTD/svg11.dtd">
<svg version="1.1" id="Layer_1" xmlns="http://www.w3.org/2000/svg" xmlns:xlink="http://www.w3.org/1999/xlink" x="0px" y="0px"
	 width="350px" height="350px" viewBox="0 0 350 350" enable-background="new 0 0 350 350" xml:space="preserve">
<g>
	<g>
		
			<ellipse fill="none" stroke="#CECECE" stroke-width="4" stroke-miterlimit="10" cx="158.988" cy="132.738" rx="7.065" ry="7.255"/>
		<ellipse fill="none" stroke="#CECECE" stroke-width="4" stroke-miterlimit="10" cx="174.701" cy="81.395" rx="7.063" ry="7.255"/>
		
			<ellipse fill="none" stroke="#CECECE" stroke-width="4" stroke-miterlimit="10" cx="190.416" cy="132.738" rx="7.063" ry="7.255"/>
	</g>
	<path fill="none" stroke="#CECECE" stroke-width="4" stroke-miterlimit="10" d="M216.268,132.5c0,15.992-12.623,28.5-28.195,28.5
		h-26.539c-15.572,0-28.196-12.508-28.196-28.5l0,0c0-15.992,12.625-28.5,28.196-28.5h26.539
		C203.645,104,216.268,116.508,216.268,132.5L216.268,132.5z"/>
	<rect x="120" y="180" fill="none" stroke="#CECECE" stroke-width="4" stroke-miterlimit="10" width="106" height="65"/>
	<path fill="#FFFFFF" stroke="#CECECE" stroke-width="4" stroke-miterlimit="10" d="M259.393,247c0,15.992-12.623,29-28.195,29
		H118.408c-15.572,0-28.196-13.008-28.196-29l0,0c0-15.992,12.625-29,28.196-29h112.789C246.77,218,259.393,231.008,259.393,247
		L259.393,247z"/>
	<path fill="#CECECE" d="M118.408,260c-7.042,0-12.56-5.69-12.56-13c0-7.306,5.518-13,12.56-13h112.789
		c7.041,0,12.559,5.694,12.559,13c0,7.31-5.518,13-12.559,13H118.408z"/>
	<rect x="165" y="163" fill="none" stroke="#CECECE" stroke-width="4" stroke-miterlimit="10" width="17" height="16"/>
	<line fill="none" stroke="#CECECE" stroke-width="4" stroke-miterlimit="10" x1="119.179" y1="197.477" x2="83.293" y2="160.627"/>
	
		<line fill="none" stroke="#CECECE" stroke-width="4" stroke-miterlimit="10" x1="225.603" y1="201.416" x2="266.111" y2="160.627"/>
	<g>
		<path fill="none" stroke="#CECECE" stroke-width="4" stroke-miterlimit="10" d="M74.674,151.164
			c-3.75,3.851-11.857,3.579-11.857,3.579c-1.1-0.037-1.644,0.76-1.21,1.771c0,0,0.989,2.302,2.631,3.988
			c5.39,5.538,14.135,5.538,19.526,0c5.394-5.541,5.394-14.52,0-20.058c-1.642-1.683-3.848-2.683-3.848-2.683
			c-1.002-0.454-1.793,0.074-1.758,1.173C78.158,138.935,78.425,147.313,74.674,151.164z"/>
	</g>
	<g>
		<path fill="none" stroke="#CECECE" stroke-width="4" stroke-miterlimit="10" d="M274.729,151.164
			c3.75,3.851,11.859,3.579,11.859,3.579c1.1-0.037,1.644,0.76,1.21,1.771c0,0-0.989,2.302-2.631,3.989
			c-5.393,5.538-14.137,5.538-19.528,0c-5.396-5.541-5.393-14.52,0-20.058c1.642-1.683,3.849-2.683,3.849-2.683
			c1.002-0.454,1.793,0.074,1.758,1.174C271.246,138.935,270.98,147.313,274.729,151.164z"/>
	</g>
	<line fill="none" stroke="#CECECE" stroke-width="4" stroke-miterlimit="10" x1="173" y1="104" x2="173" y2="88"/>
	<g>
		<line fill="none" stroke="#CECECE" stroke-width="4" stroke-miterlimit="10" x1="120" y1="192" x2="179" y2="192"/>
		<line fill="none" stroke="#CECECE" stroke-width="4" stroke-miterlimit="10" x1="120" y1="206" x2="179" y2="206"/>
	</g>
	<path fill="none" stroke="#CECECE" stroke-width="4" stroke-miterlimit="10" d="M215.653,195.819c0,3.78-2.982,6.848-6.668,6.848
		c-3.682,0-6.664-3.067-6.664-6.848s2.982-6.848,6.664-6.848C212.671,188.972,215.653,192.039,215.653,195.819z"/>
</g>
</svg>
