<?xml version="1.0" encoding="utf-8"?>
<!-- Generator: Adobe Illustrator 16.0.0, SVG Export Plug-In . SVG Version: 6.00 Build 0)  -->
<!DOCTYPE svg PUBLIC "-//W3C//DTD SVG 1.1//EN" "http://www.w3.org/Graphics/SVG/1.1/DTD/svg11.dtd">
<svg version="1.1" id="Layer_1" xmlns="http://www.w3.org/2000/svg" xmlns:xlink="http://www.w3.org/1999/xlink" x="0px" y="0px"
	 width="350px" height="350px" viewBox="0 0 350 350" enable-background="new 0 0 350 350" xml:space="preserve">
<g>
	<path fill="none" stroke="#CECECE" stroke-width="4" stroke-miterlimit="10" d="M116.69,264c-7.151,0-12.75-5.584-12.75-13
		c0-7.418,5.599-13,12.75-13h114.49c7.15,0,12.753,5.582,12.753,13c0,7.416-5.603,13-12.753,13H116.69z"/>
	<rect x="133" y="87" fill="none" stroke="#CECECE" stroke-width="4" stroke-miterlimit="10" width="67" height="30"/>
	
		<rect x="258.756" y="100.318" transform="matrix(0.7071 -0.7071 0.7071 0.7071 5.0669 230.0325)" fill="none" stroke="#CECECE" stroke-width="4" stroke-miterlimit="10" width="42.909" height="17.164"/>
	
		<rect x="46.597" y="106.55" transform="matrix(-0.7071 0.7071 -0.7071 -0.7071 197.5826 148.4237)" fill="none" stroke="#CECECE" stroke-width="4" stroke-miterlimit="10" width="42.909" height="17.164"/>
	<rect x="109" y="143" fill="none" stroke="#CECECE" stroke-width="4" stroke-miterlimit="10" width="120" height="60"/>
	<line fill="none" stroke="#CECECE" stroke-width="4" stroke-miterlimit="10" x1="167" y1="117" x2="167" y2="145"/>
	<line fill="none" stroke="#CECECE" stroke-width="4" stroke-miterlimit="10" x1="109.365" y1="157.898" x2="74.847" y2="123.377"/>
	
		<line fill="none" stroke="#CECECE" stroke-width="4" stroke-miterlimit="10" x1="228.018" y1="164.129" x2="268.749" y2="123.377"/>
	<g>
		
			<polyline fill="none" stroke="#CECECE" stroke-width="4" stroke-linecap="round" stroke-linejoin="round" stroke-miterlimit="10" points="
			133.861,234.739 144.62,218.521 155.381,202.304 166.136,218.521 176.823,234.739 		"/>
		
			<polyline fill="none" stroke="#CECECE" stroke-width="4" stroke-linecap="round" stroke-linejoin="round" stroke-miterlimit="10" points="
			166.773,234.739 177.531,218.521 188.292,202.304 199.047,218.521 209.734,234.739 		"/>
	</g>
	
		<line fill="none" stroke="#CECECE" stroke-width="4" stroke-linecap="round" stroke-linejoin="round" stroke-miterlimit="10" x1="111" y1="178" x2="149" y2="178"/>
	
		<line fill="none" stroke="#CECECE" stroke-width="4" stroke-linecap="round" stroke-linejoin="round" stroke-miterlimit="10" x1="229" y1="161" x2="190" y2="161"/>
</g>
</svg>
