<?xml version="1.0" encoding="utf-8"?>
<!-- Generator: Adobe Illustrator 16.0.0, SVG Export Plug-In . SVG Version: 6.00 Build 0)  -->
<!DOCTYPE svg PUBLIC "-//W3C//DTD SVG 1.1//EN" "http://www.w3.org/Graphics/SVG/1.1/DTD/svg11.dtd">
<svg version="1.1" id="Layer_1" xmlns="http://www.w3.org/2000/svg" xmlns:xlink="http://www.w3.org/1999/xlink" x="0px" y="0px"
	 width="350px" height="350px" viewBox="0 0 350 350" enable-background="new 0 0 350 350" xml:space="preserve">
<g>
	<g>
		<path d="M81.362,232.771c-2.41-2.409-6.318-2.409-8.729,0l-12.677,12.678c-2.411,2.409-2.411,6.317,0,8.729
			c1.205,1.205,2.785,1.809,4.364,1.809c1.58,0,3.16-0.604,4.365-1.809L81.362,241.5C83.772,239.09,83.772,235.182,81.362,232.771z"
			/>
	</g>
</g>
<g>
	<g>
		<path d="M99.293,250.702c-2.409-2.41-6.319-2.41-8.729,0l-42.258,42.259c-2.41,2.41-2.41,6.317,0,8.729
			c1.205,1.205,2.785,1.808,4.365,1.808s3.159-0.603,4.364-1.808l42.257-42.258C101.705,257.021,101.704,253.112,99.293,250.702z"/>
	</g>
</g>
<g>
	<g>
		<path d="M117.226,268.635c-2.411-2.41-6.319-2.411-8.729,0l-21.128,21.128c-2.411,2.41-2.411,6.318,0,8.73
			c1.205,1.204,2.785,1.808,4.364,1.808c1.58,0,3.159-0.603,4.365-1.808l21.128-21.128
			C119.636,274.954,119.637,271.045,117.226,268.635z"/>
	</g>
</g>
<g>
	<g>
		<path d="M233.627,116.373c-7.188-7.188-16.745-11.147-26.912-11.147s-19.724,3.959-26.912,11.147
			c-7.188,7.188-11.148,16.746-11.148,26.913s3.959,19.724,11.148,26.913c7.188,7.188,16.745,11.146,26.912,11.146
			s19.724-3.958,26.912-11.146C248.466,155.357,248.466,131.212,233.627,116.373z M224.897,161.469
			c-4.856,4.857-11.314,7.531-18.183,7.531c-6.869,0-13.327-2.674-18.184-7.531c-4.857-4.857-7.531-11.314-7.531-18.184
			s2.674-13.326,7.531-18.183c4.856-4.857,11.314-7.532,18.184-7.532c6.868,0,13.326,2.675,18.183,7.532
			C234.923,135.128,234.923,151.442,224.897,161.469z"/>
	</g>
</g>
<g>
	<g>
		<path d="M299.198,55.174c-0.57-2.133-2.236-3.799-4.369-4.37c-21.107-5.642-43.452-5.735-64.615-0.269
			c-3.299,0.853-6.55,1.854-9.76,2.967c-0.277,0.076-0.551,0.172-0.817,0.286c-17.623,6.254-33.743,16.385-47.1,29.705
			c-0.008,0.008-0.016,0.015-0.022,0.022c-0.035,0.035-0.07,0.067-0.105,0.102c-0.057,0.057-0.105,0.118-0.159,0.176
			c-0.052,0.056-0.107,0.108-0.158,0.167l-18.906,22.003c-29.741-0.328-58.644,11.423-79.717,32.497
			c-6.852,6.852-12.765,14.532-17.573,22.825c-0.97,1.673-1.1,3.705-0.35,5.488c0.75,1.784,2.292,3.112,4.167,3.589l34.307,8.733
			l-6.713,18.23c-3.315,9.004-1.073,19.204,5.711,25.988l33.673,33.673c4.703,4.702,11.046,7.222,17.495,7.222
			c2.855,0,5.732-0.494,8.495-1.511l18.231-6.713l8.735,34.309c0.477,1.874,1.806,3.417,3.589,4.167
			c0.767,0.323,1.58,0.482,2.393,0.482c1.072,0,2.143-0.28,3.095-0.833c8.292-4.808,15.972-10.72,22.826-17.573
			c21.074-21.075,32.82-49.981,32.495-79.722l22.001-18.903c0.058-0.049,0.107-0.104,0.163-0.155
			c0.059-0.055,0.122-0.104,0.18-0.162c0.035-0.035,0.067-0.071,0.104-0.105c0.005-0.008,0.014-0.015,0.021-0.022
			c13.319-13.356,23.45-29.475,29.705-47.097c0.113-0.269,0.209-0.543,0.285-0.822c1.113-3.208,2.114-6.459,2.967-9.757
			C304.935,98.625,304.841,76.282,299.198,55.174z M71.025,160.502c3.31-4.733,7.049-9.19,11.173-13.314
			c16.143-16.143,37.455-26.12,59.958-28.387L99.99,167.876L71.025,160.502z M98.89,201.589l5.745-15.601l7.962,7.962
			l-12.034,19.259C98.114,209.903,97.444,205.519,98.89,201.589z M109.447,222.285l12.108-19.377l8.405,8.404l-15.743,15.743
			L109.447,222.285z M122.947,235.784l15.743-15.742l8.405,8.404l-19.377,12.108L122.947,235.784z M148.413,251.112
			c-3.929,1.446-8.313,0.776-11.62-1.673l19.259-12.034l7.962,7.963L148.413,251.112z M202.818,267.808
			c-4.125,4.124-8.582,7.862-13.314,11.173l-7.376-28.967l49.077-42.169C228.939,230.349,218.96,251.663,202.818,267.808z
			 M257.788,168.73l-82.269,70.685l-64.932-64.932l49.935-58.117c0.048-0.054,0.095-0.11,0.142-0.166l20.609-23.985
			c11.231-11.195,24.622-19.891,39.254-25.59l62.85,62.85C277.678,144.107,268.982,157.498,257.788,168.73z M287.623,116.264
			L233.74,62.381c17.813-4.526,36.537-4.704,54.408-0.526C292.325,79.725,292.148,98.449,287.623,116.264z"/>
	</g>
</g>
</svg>
